<?xml version="1.0" encoding="utf-8"?>
<!-- Generator: Adobe Illustrator 23.0.0, SVG Export Plug-In . SVG Version: 6.00 Build 0)  -->
<svg version="1.1" id="Capa_1" xmlns="http://www.w3.org/2000/svg" xmlns:xlink="http://www.w3.org/1999/xlink" x="0px" y="0px"
	 viewBox="0 0 50 50" style="enable-background:new 0 0 50 50;" xml:space="preserve">
<style type="text/css">
	.st0{fill:#F06468;}
	.st1{fill:#72C7B3;}
	.st2{fill:#DAF4FC;}
</style>
<title>btn_actividades</title>
<g>
	<path class="st0" d="M9.8,33.1V21.3c0-0.2,0.2-0.4,0.4-0.4c0.2,0,0.4,0.2,0.4,0.4v19.1c0,0.5,0,1,0,1.5c0,4.8,0,6.9,1.9,7.1
		c0.3,0,0.5-0.1,0.8-0.3c1-0.9,1.7-3.9,1.9-8c0-0.6,0-1.3,0-2c0-1.9,0-3.1,0.4-3.5c0.1-0.1,0.3-0.2,0.5-0.2c0.6,0,0.8,0.8,1.3,6
		c0.3,3,0.7,6.6,1.2,7.4c0.4,0.6,1,0.9,1.6,0.8c0.7-0.1,1.3-0.6,1.5-1.4C22,46.7,22,36.7,22,29.3c0-7,0-9.1,0.1-9.6c0,0,0,0,0,0
		c0,0,0,0,0,0c0,0,0,0,0-0.1c0,0,0,0,0,0c0.5-0.9,4.4-5.2,6.1-7c-4.6,0-11.2,0-11.3,0c-4.4,0-7.2,1.2-9.8,4.1c-2.6,3-3,8.9-1.6,12.3
		C6.6,31.5,8.8,32.7,9.8,33.1z M13.3,27.5c0.8-0.7,1.7-1.3,2.6-1.9c0.4-0.3,0.8,0.3,0.4,0.6c-0.9,0.6-1.8,1.2-2.6,1.9
		C13.3,28.3,12.9,27.8,13.3,27.5z M13.3,30.6c1.7-1.3,3.3-2.6,5-3.9c0.4-0.3,0.8,0.3,0.4,0.6c-1.7,1.3-3.4,2.6-5,3.9
		C13.3,31.5,12.9,30.9,13.3,30.6z M7.5,29.4C7.3,29,7,28.5,6.8,28c-0.2-0.4,0.5-0.7,0.7-0.3c0.2,0.4,0.4,0.9,0.7,1.3
		C8.4,29.3,7.8,29.8,7.5,29.4z M7.6,18.1c0.2-0.4,0.8,0,0.5,0.4c-1.3,2.1-1.8,4.2-1.5,6.7c0,0.4-0.6,0.6-0.7,0.1
		C5.7,22.6,6.3,20.3,7.6,18.1z"/>
	<path class="st0" d="M21,10.3c1.1-1,1.6-2.4,1.6-4c0-2.2-1.8-5.6-5.8-5.6c-1.6,0-3,0.6-4.1,1.8c-1,1.1-1.6,2.5-1.5,4
		c0.2,3.1,2.6,5.4,5.7,5.4C18.5,11.9,20,11.3,21,10.3z M14.2,3.5c-1.1,1.3-1.5,3.2-0.5,4.7C14,8.6,13.4,9,13.2,8.7
		c-1.2-1.8-0.7-3.9,0.5-5.5C14,2.8,14.5,3.2,14.2,3.5z M16.3,10.8c-0.5-0.1-1-0.3-1.4-0.6c-0.4-0.2,0.1-0.8,0.5-0.6
		c0.3,0.2,0.7,0.4,1.1,0.4C16.9,10.1,16.7,10.8,16.3,10.8z"/>
	<path class="st1" d="M27.7,19.4c0.5,0.2,0.6,0.8,0.2,14c-0.2,6.4-0.4,13.6-0.1,14.4c0.3,0.8,0.9,1.3,1.5,1.4
		c0.6,0.1,1.2-0.2,1.6-0.8c0.5-0.8,0.9-4.4,1.2-7.4c0.5-5.3,0.7-6,1.3-6c0.2,0,0.3,0.1,0.5,0.2c0.4,0.4,0.4,1.6,0.4,3.5
		c0,0.7,0,1.4,0,2c0.2,4.1,0.9,7.1,1.9,8c0.2,0.2,0.5,0.3,0.8,0.3c1.9-0.1,1.9-2.3,1.9-7.1c0-0.5,0-1,0-1.5V21.3
		c0-0.2,0.2-0.4,0.4-0.4c0.2,0,0.4,0.2,0.4,0.4v11.8c1-0.4,3.3-1.7,4.3-4.1c1.4-3.3,1-9.3-1.6-12.3c-2.8-3.2-5.8-3.9-9.8-4.1
		c-0.5,0-1.7,0-3.2,0c-2,2.1-4.9,5.3-6,6.7C24.4,19.1,26.5,19,27.7,19.4z M41.2,22.7c0,1.6,0,3.1,0.1,4.7c0,0.4-0.7,0.6-0.7,0.1
		c0-1.6-0.1-3.1-0.1-4.7C40.5,22.4,41.2,22.2,41.2,22.7z M30.6,26.7c0.8-0.7,1.6-1.4,2.3-2.1c0.4-0.3,0.7,0.2,0.4,0.6
		c-0.8,0.7-1.6,1.4-2.3,2.1C30.6,27.5,30.3,27,30.6,26.7z M30.4,30c1.7-1.6,3.6-3,5.3-4.5c0.4-0.3,0.7,0.3,0.4,0.6
		c-1.8,1.5-3.6,3-5.3,4.5C30.5,30.9,30.1,30.3,30.4,30z"/>
	<path class="st1" d="M36.5,10.3c1.1-1,1.6-2.4,1.6-4c0-2.2-1.8-5.6-5.8-5.6c-1.6,0-3,0.6-4.1,1.8c-1,1.1-1.6,2.5-1.5,4
		c0.2,3.1,2.6,5.4,5.7,5.4C34,11.9,35.4,11.3,36.5,10.3z M28.2,8.1c-0.9-2-0.4-4.4,1.4-5.7c0.4-0.3,0.8,0.3,0.4,0.6
		c-1.6,1.1-1.9,3.1-1.1,4.9C29,8.2,28.3,8.5,28.2,8.1z M30.7,10.7c-0.5-0.2-0.9-0.5-1.3-0.9c-0.3-0.3,0.1-0.9,0.5-0.6
		c0.4,0.3,0.7,0.6,1.2,0.8C31.4,10.1,31.1,10.8,30.7,10.7z"/>
	<path class="st2" d="M9.8,34v6.4c0,0.5,0,1,0,1.5c0,4.8,0,7.6,2.6,7.8c0.5,0,0.9-0.1,1.3-0.5c1.6-1.4,2.1-6,2.2-8.6
		c0-0.6,0-1.3,0-2c0-0.8,0-1.9,0-2.5c0.2,1,0.4,3.1,0.6,4.9c0.4,4.1,0.7,6.9,1.3,7.7c0.5,0.8,1.2,1.2,2,1.2c0.1,0,0.2,0,0.3,0
		c1-0.1,1.8-0.8,2.2-1.9c0.4-1.1,0.4-8.8,0.4-18.8c0-4.1,0-8.2,0.1-9.2c0.8-0.1,3.2-0.4,4.5,0c0.2,1.1,0,7.8-0.1,13.3
		c-0.2,8.3-0.4,13.8-0.1,14.7c0.4,1.1,1.2,1.8,2.2,1.9c0.1,0,0.2,0,0.3,0c0.8,0,1.5-0.4,2-1.2c0.5-0.8,0.9-3.6,1.3-7.7
		c0.2-1.8,0.4-3.9,0.6-4.9c0.1,0.6,0.1,1.8,0,2.5c0,0.7,0,1.4,0,2c0.1,2.6,0.6,7.1,2.2,8.6c0.4,0.4,0.8,0.5,1.3,0.5
		c2.7-0.2,2.6-3.1,2.6-7.8c0-0.5,0-1,0-1.5V34c0.9-0.3,3.7-1.6,5-4.7c1.5-3.5,1-9.9-1.8-13c-2.3-2.6-4.8-3.7-7.8-4.1
		c0.7-0.3,1.4-0.7,2-1.3c1.2-1.2,1.9-2.8,1.9-4.5c0-2.6-2.1-6.3-6.5-6.3c-1.8,0-3.4,0.7-4.6,2c-1.2,1.2-1.8,2.9-1.7,4.5
		c0.1,2.3,1.4,4.3,3.3,5.3c-2.7,0-6.6,0-9.2,0c0.5-0.3,1-0.6,1.4-1c1.2-1.2,1.9-2.8,1.9-4.5c0-2.6-2.1-6.3-6.5-6.3
		c-1.8,0-3.4,0.7-4.6,2c-1.2,1.2-1.8,2.9-1.7,4.5c0.2,2.5,1.6,4.6,3.7,5.5c-3.2,0.4-5.5,1.7-7.7,4.2c-2.8,3.2-3.2,9.5-1.8,13
		C6.1,32.3,8.9,33.6,9.8,34z M26.8,6.5c-0.1-1.4,0.5-2.9,1.5-4c1.1-1.1,2.5-1.8,4.1-1.8c3.9,0,5.8,3.3,5.8,5.6c0,1.5-0.6,2.9-1.6,4
		c-1.1,1-2.5,1.6-4,1.6C29.4,11.9,27,9.6,26.8,6.5z M32.4,12.6c4,0.2,7,0.9,9.8,4.1c2.6,3,3,8.9,1.6,12.3c-1,2.5-3.3,3.7-4.3,4.1
		V21.3c0-0.2-0.2-0.4-0.4-0.4c-0.2,0-0.4,0.2-0.4,0.4v19.1c0,0.5,0,1,0,1.5c0,4.8,0,6.9-1.9,7.1c-0.3,0-0.5-0.1-0.8-0.3
		c-1-0.9-1.7-3.9-1.9-8c0-0.6,0-1.3,0-2c0-1.9,0-3.1-0.4-3.5C33.7,35,33.5,35,33.4,35c-0.6,0-0.8,0.8-1.3,6c-0.3,3-0.7,6.6-1.2,7.4
		c-0.4,0.6-1,0.9-1.6,0.8c-0.7-0.1-1.3-0.6-1.5-1.4c-0.3-0.9-0.1-8.1,0.1-14.4c0.4-13.2,0.3-13.8-0.2-14c-1.2-0.5-3.2-0.3-4.4-0.2
		c1.1-1.4,4-4.6,6-6.7C30.8,12.6,31.9,12.6,32.4,12.6z M11.3,6.5c-0.1-1.4,0.5-2.9,1.5-4c1.1-1.1,2.5-1.8,4.1-1.8
		c3.9,0,5.8,3.3,5.8,5.6c0,1.5-0.6,2.9-1.6,4c-1.1,1-2.5,1.6-4,1.6C13.9,11.9,11.5,9.6,11.3,6.5z M7.2,16.8c2.6-2.9,5.4-4.1,9.8-4.1
		c0.1,0,6.6,0,11.3,0c-1.7,1.8-5.6,6.1-6.1,7c0,0,0,0,0,0c0,0,0,0,0,0.1c0,0,0,0,0,0c0,0,0,0,0,0C22,20.2,22,22.3,22,29.3
		c0,7.4,0,17.4-0.4,18.5c-0.3,0.8-0.9,1.3-1.5,1.4c-0.6,0.1-1.2-0.2-1.6-0.8C18,47.7,17.7,44,17.3,41c-0.5-5.3-0.7-6-1.3-6
		c-0.2,0-0.3,0.1-0.5,0.2c-0.4,0.4-0.4,1.6-0.4,3.5c0,0.7,0,1.4,0,2c-0.2,4.1-0.9,7.1-1.9,8C13,48.9,12.7,49,12.5,49
		c-1.9-0.1-1.9-2.3-1.9-7.1c0-0.5,0-1,0-1.5V21.3c0-0.2-0.2-0.4-0.4-0.4c-0.2,0-0.4,0.2-0.4,0.4v11.8c-1-0.4-3.2-1.7-4.3-4.1
		C4.1,25.7,4.5,19.7,7.2,16.8z"/>
	<path class="st2" d="M13.7,3.1c-1.3,1.6-1.7,3.8-0.5,5.5C13.4,9,14,8.6,13.7,8.2c-1-1.5-0.6-3.3,0.5-4.7C14.5,3.2,14,2.8,13.7,3.1z
		"/>
	<path class="st2" d="M16.4,10c-0.4-0.1-0.8-0.2-1.1-0.4c-0.4-0.2-0.8,0.4-0.5,0.6c0.4,0.3,0.9,0.5,1.4,0.6
		C16.7,10.8,16.9,10.1,16.4,10z"/>
	<path class="st2" d="M6.7,25.1c-0.3-2.4,0.2-4.6,1.5-6.7c0.2-0.4-0.3-0.8-0.5-0.4c-1.4,2.3-2,4.5-1.7,7.2C6,25.7,6.7,25.5,6.7,25.1
		z"/>
	<path class="st2" d="M7.5,27.7c-0.2-0.4-0.8-0.1-0.7,0.3c0.2,0.5,0.4,1,0.7,1.5c0.2,0.4,0.8-0.1,0.6-0.5
		C7.9,28.6,7.7,28.1,7.5,27.7z"/>
	<path class="st2" d="M13.6,28c0.8-0.7,1.7-1.3,2.6-1.9c0.4-0.3,0-0.8-0.4-0.6c-0.9,0.6-1.8,1.2-2.6,1.9
		C12.9,27.8,13.3,28.3,13.6,28z"/>
	<path class="st2" d="M13.6,31.2c1.7-1.3,3.3-2.6,5-3.9c0.4-0.3,0-0.8-0.4-0.6c-1.7,1.3-3.4,2.6-5,3.9
		C12.9,30.9,13.3,31.5,13.6,31.2z"/>
	<path class="st2" d="M31,27.2c0.8-0.7,1.6-1.4,2.3-2.1c0.3-0.3,0-0.9-0.4-0.6c-0.8,0.7-1.6,1.4-2.3,2.1C30.3,27,30.6,27.5,31,27.2z
		"/>
	<path class="st2" d="M30.8,30.6c1.7-1.6,3.6-3,5.3-4.5c0.4-0.3,0-0.9-0.4-0.6c-1.8,1.5-3.6,3-5.3,4.5
		C30.1,30.3,30.5,30.9,30.8,30.6z"/>
	<path class="st2" d="M41.3,27.4c0-1.6-0.1-3.1-0.1-4.7c0-0.5-0.7-0.3-0.7,0.1c0,1.6,0,3.1,0.1,4.7C40.6,28,41.3,27.8,41.3,27.4z"/>
	<path class="st2" d="M29.9,2.9c0.4-0.3,0-0.8-0.4-0.6c-1.8,1.3-2.3,3.7-1.4,5.7c0.2,0.4,0.8,0.1,0.7-0.3
		C28.1,6.1,28.3,4.1,29.9,2.9z"/>
	<path class="st2" d="M31,10c-0.5-0.2-0.8-0.5-1.2-0.8c-0.3-0.3-0.8,0.3-0.5,0.6c0.4,0.4,0.8,0.7,1.3,0.9C31.1,10.8,31.4,10.1,31,10
		z"/>
</g>
</svg>
