<?xml version="1.0" encoding="utf-8"?>
<!-- Generator: Adobe Illustrator 23.0.0, SVG Export Plug-In . SVG Version: 6.00 Build 0)  -->
<svg version="1.1" id="Capa_1" xmlns="http://www.w3.org/2000/svg" xmlns:xlink="http://www.w3.org/1999/xlink" x="0px" y="0px"
	 viewBox="0 0 50 50" style="enable-background:new 0 0 50 50;" xml:space="preserve">
<style type="text/css">
	.st0{fill:#FFDDB8;}
	.st1{fill:#F1D0AB;}
	.st2{fill:#EC0972;}
	.st3{fill:#231F20;}
	.st4{fill:#785C37;}
</style>
<title>btn_actividades</title>
<g>
	<path class="st0" d="M23.5,11.1c0,1.3-0.5,3.5-2.2,3.5c-0.8,0-4.2-0.3-5.7,1.1c-1.4,1.4-2.7,3.6-3.9,4.8c-1.2,1.2-4.6,5-4.6,6.3
		c0,1.3,6,7.7,7.6,9.3c1.6,1.6,2.3,1.8,2.8,1.8c0.5,0,1.6-2.4,0.5-3.5c-1.1-1.1-2.1,0.2-3.1-0.7c-1-1-2.5-5.4-3.9-6.8
		c0.7-0.7,1.5-1.1,3.4-3c1.5-1.5,3.3-2.8,3.3-2.8c0,2.3,2.3,6.6,2.3,8.2c0,1.6-1.9,7.1-2.2,10.7C17.5,43.5,18.1,50,18.1,50h6.2
		l1-7.2l1,7.2h6.2c0,0,0.6-6.5,0.3-10.1c-0.3-3.6-2.2-9.1-2.2-10.7c0-1.6,2.3-5.9,2.3-8.2c0,0,1.8,1.3,3.3,2.8
		c1.9,1.9,2.7,2.4,3.4,3c-1.4,1.4-2.9,5.8-3.9,6.8c-1,1-2-0.3-3.1,0.7c-1.1,1.1,0,3.5,0.5,3.5c0.5,0,1.2-0.2,2.8-1.8
		c1.6-1.6,7.6-8,7.6-9.3c0-1.3-3.4-5.1-4.6-6.3c-1.2-1.2-2.5-3.3-3.9-4.8c-1.4-1.4-4.9-1.1-5.7-1.1c-1.7,0-2.2-2.2-2.2-3.5H23.5z"/>
	<path class="st1" d="M27.6,12.9c-0.2-0.6-0.3-1.3-0.3-1.8h-3.8c0,0.5-0.1,1.2-0.3,1.8c0.7,0.4,1.4,0.7,2.2,0.7
		C26.2,13.6,26.9,13.4,27.6,12.9z"/>
	<g>
		<path class="st2" d="M31,27.6c0.5-1.5,1.4-3.5,1.8-5.2c-1.3-0.6-2-3.6-1.8-7.8c-0.5,0-0.9,0-1.2,0c-0.2,1.7-1,4.8-4.3,4.8
			c-3.3,0-4.1-3.2-4.3-4.8c-0.3,0-0.7,0-1.2,0c0.2,4.2-0.5,7.2-1.8,7.8c0.4,1.6,1.3,3.7,1.8,5.2c1.4,0.2,3.3,0.4,5.6,0.4
			C27.7,28.1,29.6,27.8,31,27.6z"/>
		<path class="st3" d="M32.9,39.9c-0.2-1.7-0.6-3.7-1.1-5.6c-1.4,0.2-3.6,0.6-6.4,0.6c-2.8,0-5.1-0.3-6.4-0.6
			c-0.5,1.9-1,3.9-1.1,5.6c-0.1,1.4-0.1,3.3,0,5.1h7.3l0.3-2.2l0.3,2.2H33C33,43.2,33.1,41.3,32.9,39.9z"/>
		<g>
			<g>
				<path class="st3" d="M25.4,0c-2.6,0-6.1,1.1-4.7,7.7h9.5C31.5,1.1,28,0,25.4,0"/>
				<g>
					<path class="st1" d="M30.4,7.6c0,0.8-0.4,1.3-1,1.3c-0.5,0-0.8-0.7-0.8-1.3c0-0.6,0.4-0.8,0.9-0.8C30,6.8,30.4,7,30.4,7.6z"/>
					<path class="st1" d="M20.3,7.6c0,0.8,0.4,1.3,1,1.3c0.5,0,0.8-0.7,0.8-1.3c0-0.6-0.4-0.8-0.9-0.8C20.7,6.8,20.3,7,20.3,7.6z"/>
				</g>
				<path class="st0" d="M25.4,13c2,0,3.9-2,4.3-4.9c0.8-6.2-1.9-7.1-4.3-7.1C23,1.1,20.2,2,21,8.2C21.4,11,23.3,13,25.4,13z"/>
				<path class="st4" d="M25.4,0"/>
				<path class="st3" d="M25.4,0.8c-4.7,0-5,4.3-4.5,6.6c0.4-1.1,6.8-3.4,6.9-3.6c0,0.7,0.2,1.4,0.7,1.9c0.4,0.4,1.1,0.5,1.4,1.4
					C30.4,5.4,30,0.8,25.4,0.8z"/>
			</g>
		</g>
	</g>
</g>
</svg>
