<?xml version="1.0" encoding="utf-8"?>
<!-- Generator: Adobe Illustrator 23.0.0, SVG Export Plug-In . SVG Version: 6.00 Build 0)  -->
<svg version="1.1" id="Capa_1" xmlns="http://www.w3.org/2000/svg" xmlns:xlink="http://www.w3.org/1999/xlink" x="0px" y="0px"
	 viewBox="0 0 50 50" style="enable-background:new 0 0 50 50;" xml:space="preserve">
<style type="text/css">
	.st0{fill:#F6BDBE;}
	.st1{fill:#151D38;}
	.st2{fill:#4E95D1;}
	.st3{fill:#E8384A;}
	.st4{fill:#EFD2E6;}
	.st5{fill:#F7AB00;}
	.st6{fill:#CED8DC;}
	.st7{fill:#09559A;}
</style>
<title>btn_actividades</title>
<g>
	<path class="st0" d="M26.6,33.1c0-1.8,0.6-3.3,1.8-4.7c1.2-1.4,2.8-2.2,4.6-2.3c2-0.2,3.8,0.4,5.3,1.7c0.9,0.8,1.5,1.7,1.9,2.8
		c0,0,0,0,0,0c0,0.2,0.2,0.3,0.4,0.3c0.9,0.1,1.5,0.8,1.5,1.6c0,0.8-0.6,1.6-1.4,1.7c-0.1,0-0.2,0.1-0.2,0.2
		c-0.1,0.6-0.3,1.1-0.5,1.6c-0.3,0.7-0.7,1.3-1.2,1.8c-1,1.1-2.2,1.8-3.7,2.1c-1.5,0.3-2.9,0.2-4.3-0.4c-1.4-0.6-2.5-1.6-3.3-3
		c-0.5-0.9-0.8-1.8-0.9-2.8C26.6,33.5,26.6,33.3,26.6,33.1z M33.5,26.3c-0.2,0-0.4,0-0.7,0c-1.8,0.2-3.3,1-4.4,2.3
		c-1.1,1.3-1.7,2.8-1.7,4.5c0,2,0.8,3.8,2.3,5.1c1.5,1.3,3.3,1.9,5.3,1.6c1.7-0.2,3.1-1,4.3-2.2c0.8-0.9,1.3-2,1.6-3.2
		c0-0.2,0-0.3,0.3-0.3c1-0.1,1.5-1.2,1.1-2.1c-0.3-0.5-0.8-0.8-1.4-0.8c-0.2,0-0.2,0-0.3-0.2c-0.1-0.3-0.2-0.6-0.3-0.9
		C38.5,27.8,36.2,26.3,33.5,26.3z"/>
	<path class="st0" d="M8.6,33.1c0-1.8,0.6-3.3,1.7-4.6c1.2-1.3,2.6-2.1,4.4-2.3c2-0.2,3.7,0.2,5.3,1.5c1,0.8,1.7,1.8,2.2,3
		c0,0.1,0,0.1,0.1,0.2c0,0.1,0.1,0.2,0.2,0.2c0.3,0,0.5,0.1,0.7,0.2c0.6,0.3,1,1,0.9,1.7c-0.1,0.7-0.6,1.2-1.3,1.4c0,0,0,0-0.1,0
		c-0.1,0-0.2,0.1-0.2,0.2c-0.1,0.6-0.3,1.1-0.5,1.6c-0.3,0.7-0.7,1.3-1.2,1.8c-0.9,1-2,1.6-3.3,2c-0.7,0.2-1.3,0.3-2,0.2
		c-1.7-0.1-3.2-0.6-4.5-1.8c-1.4-1.3-2.2-2.8-2.3-4.7c0-0.1,0-0.1,0-0.2C8.6,33.3,8.6,33.2,8.6,33.1z M15.5,26.3c-0.2,0-0.5,0-0.7,0
		c-1.7,0.2-3.1,0.9-4.3,2.2c-1.2,1.3-1.8,2.8-1.8,4.6c0,2,0.8,3.8,2.3,5.1c1.5,1.3,3.3,1.9,5.3,1.6c1.7-0.2,3.1-1,4.3-2.2
		c0.8-0.9,1.3-2,1.6-3.2c0-0.2,0-0.3,0.3-0.3c0.5-0.1,0.9-0.4,1.1-0.9c0.2-0.5,0.1-1-0.2-1.4c-0.3-0.4-0.7-0.6-1.2-0.6
		c-0.2,0-0.2,0-0.3-0.2c-0.1-0.3-0.2-0.6-0.4-0.9C20.5,27.8,18.2,26.3,15.5,26.3z"/>
	<path class="st0" d="M25,10.2c1.8,0,3.4,0.6,4.7,1.8c0.9,0.8,1.5,1.7,1.9,2.8c0,0,0,0,0,0.1c0,0.1,0.1,0.2,0.3,0.2
		c0.7,0,1.2,0.4,1.5,1c0.4,1-0.2,2-1.2,2.2c0,0-0.1,0-0.1,0c-0.1,0-0.2,0.1-0.2,0.2c0,0.2-0.1,0.4-0.2,0.6c-0.3,1.1-0.9,2.1-1.8,3
		c-1.2,1.2-2.7,1.9-4.4,2c-2.1,0.2-3.9-0.5-5.4-1.9c-1.3-1.2-2-2.7-2.2-4.4c-0.2-2.1,0.4-3.9,1.7-5.4c1.2-1.4,2.8-2.1,4.6-2.3
		c0.1,0,0.3,0,0.4,0C24.8,10.2,24.9,10.2,25,10.2z M18.2,17.2c0,0.1,0,0.2,0,0.3c0.1,2,0.9,3.6,2.4,4.9c2,1.7,4.9,2.1,7.3,0.9
		c2-1,3.3-2.6,3.7-4.9c0.1-0.3,0.1-0.3,0.4-0.3c0.5-0.1,0.9-0.4,1.1-0.9c0.4-1-0.3-2-1.4-2c-0.3,0-0.3,0-0.4-0.3
		c-0.4-1.1-1-2.1-1.9-2.9c-1.5-1.3-3.2-1.9-5.2-1.7c-1.7,0.2-3.2,0.9-4.4,2.2C18.8,14,18.2,15.5,18.2,17.2z"/>
	<path class="st1" d="M13.7,23c0.5,0,1,0.1,1.4,0.4c0.2,0.1,0.2,0.1,0.4,0c1-0.6,2.3-0.3,3,0.7c0.1,0.2,0.1,0.2,0.3,0.1
		c0.8-0.2,1.5,0,2.1,0.5c0.5,0.4,0.7,0.9,0.8,1.6c0,0.1,0,0.2,0,0.2c0,0.1,0,0.1,0.1,0.2c0,0,0.1,0,0.1,0c0.8,0.3,1.3,1.2,1.1,2.1
		c0,0.2,0,0.3,0,0.5c0.2,0.7-0.1,1.4-0.7,1.8c0,0,0,0-0.1,0.1c-0.1,0.1-0.1,0.1-0.1,0.2c0,0,0,0.1,0,0.1c0.1,0.4,0.1,0.8-0.3,1.1
		c-0.1,0.1-0.1,0.2-0.1,0.3c-0.1,0.6-0.4,0.9-1,1c-0.6,0.1-1.2-0.4-1.2-1c0-0.3,0.1-0.6,0.3-0.9C20,32,20,31.9,20,31.8
		c0-0.2,0.1-0.3,0.1-0.5c0.1-0.1,0.1-0.2,0-0.3c-0.3-0.2-0.5-0.5-0.6-0.9c0-0.1,0-0.2,0-0.2c0-0.1-0.1-0.2-0.2-0.2
		c-0.4,0-0.7-0.2-1-0.4c-0.1-0.1-0.2-0.2-0.3-0.3c-0.1-0.2-0.1-0.2-0.3-0.1c-0.6,0.2-1.2,0.2-1.8-0.2c0,0-0.1-0.1-0.1-0.1
		c-0.1-0.1-0.2-0.1-0.3,0c-0.2,0.1-0.5,0.2-0.7,0.2c-0.4,0-0.7-0.1-1-0.2c-0.1-0.1-0.2-0.1-0.4,0c-0.6,0.4-1.3,0.5-2,0.2
		c-0.2-0.1-0.2-0.1-0.3,0.1c-0.2,0.7-0.8,1.1-1.5,1c-0.7,0-1.3-0.5-1.4-1.2c-0.1-0.8,0.3-1.4,0.9-1.7c0.2-0.1,0.2-0.1,0.2-0.3
		c-0.2-1.1,0.7-2.1,1.8-2.1c0,0,0.1,0,0.1,0c0.1,0,0.2-0.1,0.3-0.2c0.2-0.5,0.5-0.8,1-1.1C12.9,23,13.3,22.9,13.7,23z"/>
	<path class="st1" d="M20.3,10.9c0.1,0,0.3,0,0.4,0c0,0,0.1,0,0.1,0c0.1,0,0.1-0.1,0-0.1c0,0,0-0.1-0.1-0.1
		c-0.4-0.4-0.7-0.8-0.9-1.3c0,0,0,0,0-0.1c0-0.1,0-0.1,0.1-0.1c0,0,0.1,0,0.1,0c0.3,0.1,0.6,0.2,1,0.2c0.1,0,0.1,0,0.2,0
		c0-0.1,0-0.1-0.1-0.2c-0.2-0.2-0.4-0.5-0.5-0.8c-0.1-0.2-0.1-0.5-0.1-0.7c0,0,0-0.1,0-0.1c0,0,0.1,0,0.1,0C21,8.1,21.5,8.3,22,8.4
		c0.5,0.1,1,0.2,1.5,0.2c0.8,0.1,1.7,0,2.5,0c0.4,0,0.8,0,1.2,0.1c0.2,0,0.3,0.1,0.5,0.2c0.4,0.2,0.7,0.5,0.8,1
		c0,0.2,0.1,0.3,0.1,0.5c0,0.1,0,0.2,0,0.3c0.1,0.3,0.2,0.5,0.5,0.6c0.1,0.1,0.3,0.1,0.4,0.1c0.2,0.1,0.4,0.1,0.6,0.2
		c0.5,0.2,0.8,0.5,1,0.9c0.2,0.4,0.3,0.9,0.4,1.4c0,0.3,0.1,0.7,0.1,1c0,0.2-0.1,0.3-0.3,0.3c-0.4,0-0.8-0.2-1.1-0.4
		c-0.4-0.2-0.8-0.5-1.2-0.9c-0.3-0.4-0.6-0.8-0.8-1.3c0-0.1-0.1-0.3-0.1-0.4c0-0.2-0.1-0.2-0.2-0.1c-0.3,0.3-0.6,0.6-1,0.8
		c-0.6,0.4-1.3,0.6-2,0.6c-0.8,0.1-1.6,0-2.4-0.2c-0.9-0.2-1.6-0.7-2.2-1.4c-0.2-0.3-0.4-0.6-0.5-0.9c-0.1-0.2,0-0.2,0.2-0.2
		C20.1,10.9,20.2,10.9,20.3,10.9C20.3,10.9,20.3,10.9,20.3,10.9z"/>
	<path class="st1" d="M40.8,30.3c0,0.2,0,0.4-0.1,0.6c-0.2,0.7-0.8,0.9-1.3,0.8c-0.3,0-0.6-0.2-0.8-0.5c-0.2-0.2-0.3-0.4-0.4-0.7
		c-0.2-0.4-0.3-0.8-0.5-1.1c-0.1-0.3-0.3-0.5-0.5-0.8c-0.4-0.4-1-0.6-1.6-0.5c-0.3,0-0.6,0.1-0.9,0.3c-0.5,0.2-0.9,0.3-1.4,0.4
		C32.6,29,32,29,31.3,28.9c-0.9-0.1-1.6-0.6-2.1-1.3c-0.5-0.7-0.8-1.4-0.9-2.2c0,0,0,0,0,0c0-0.1,0-0.2,0.2-0.1
		c0.3,0.1,0.6,0.2,0.9,0.2c0.9,0.2,1.7,0.1,2.6,0c0.6-0.1,1.3-0.3,1.9-0.4c0.5-0.1,0.9-0.1,1.4-0.1c0.3,0,0.6,0.1,0.8,0.1
		c0.5,0.2,0.9,0.5,1.1,1c0,0.1,0.1,0.2,0.1,0.3c0,0.1,0.1,0.1,0.2,0.1c0,0,0,0,0.1,0c0.9,0.1,1.7,0.6,2.3,1.3
		c0.4,0.5,0.7,1.1,0.9,1.8C40.7,29.9,40.7,30.1,40.8,30.3z"/>
	<path class="st1" d="M33.1,32.9c-1.1,0-1.7-0.5-2-1.2c0,0,0-0.1,0-0.1c0,0,0-0.1,0.1-0.1c0,0,0.1,0,0.1,0c0,0,0.1,0.1,0.1,0.1
		c0.2,0.3,0.4,0.6,0.7,0.8c0.6,0.4,1.4,0.2,1.9-0.3c0.1-0.1,0.1-0.1,0.1-0.2c0,0,0-0.1,0.1-0.1c0,0,0.1,0,0.1,0c0,0,0.1,0.1,0.1,0.1
		c0,0.1,0,0.1-0.1,0.1C34,32.6,33.5,32.9,33.1,32.9z"/>
	<path class="st1" d="M35.8,31.2c0-0.3,0.2-0.5,0.5-0.5c0.3,0,0.5,0.2,0.5,0.5c0,0.3-0.2,0.5-0.5,0.5C36,31.7,35.8,31.5,35.8,31.2z"
		/>
	<path class="st1" d="M30,31.1c0,0.3-0.2,0.5-0.5,0.5c-0.3,0-0.5-0.2-0.5-0.5c0-0.3,0.2-0.5,0.5-0.5C29.8,30.7,30,30.9,30,31.1z"/>
	<path class="st1" d="M32.8,30c0.1,0,0.1,0,0.1,0.1c0,0,0,0.1,0,0.1c0,0-0.1,0.1-0.1,0.1c-0.2,0.1-0.4,0.2-0.6,0.2c0,0-0.1,0-0.1,0
		c-0.1,0.1-0.1,0.1,0,0.2c0.2,0.2,0.4,0.3,0.6,0.5c0,0,0.1,0.1,0.1,0.1c0,0,0,0.1,0,0.1c0,0-0.1,0-0.1,0c0,0-0.1,0-0.1-0.1
		c-0.3-0.2-0.5-0.5-0.8-0.7c0,0-0.1,0-0.1-0.1c-0.1-0.1,0-0.1,0-0.2c0,0,0.1,0,0.1,0c0.3-0.1,0.7-0.3,1-0.4
		C32.7,30.1,32.7,30,32.8,30z"/>
	<path class="st1" d="M36.3,29.9c0.5,0,1,0.3,1.3,0.8c0,0.1,0.1,0.1,0.1,0.2c0,0.1,0,0.1-0.1,0.1c-0.1,0-0.1,0-0.1,0
		c0,0,0-0.1-0.1-0.1c-0.3-0.6-0.9-0.8-1.5-0.7c0,0-0.1,0-0.1,0c-0.1,0-0.1,0-0.1-0.1c0-0.1,0-0.1,0.1-0.1c0,0,0.1,0,0.1,0
		C36,29.9,36.1,29.9,36.3,29.9z"/>
	<path class="st1" d="M30.8,30.1c0,0.1-0.1,0.1-0.1,0.1c0,0-0.1-0.1-0.1-0.1c-0.5-0.5-1.1-0.5-1.7-0.1c0,0-0.1,0-0.1,0.1
		c0,0-0.1,0-0.1,0c0,0,0-0.1,0-0.1c0,0,0.1-0.1,0.1-0.1c0.6-0.4,1.5-0.4,2,0.2C30.8,30,30.8,30.1,30.8,30.1z"/>
	<path class="st1" d="M41.2,32.6c0,0.3-0.1,0.6-0.4,0.7c0,0-0.1,0-0.1,0c0,0-0.1,0-0.1,0c0-0.1,0-0.1,0-0.2c0,0,0.1,0,0.1-0.1
		c0.2-0.2,0.3-0.4,0.2-0.7c-0.1-0.3-0.3-0.4-0.6-0.4c0,0-0.1,0-0.1,0c-0.1,0-0.1,0-0.1-0.1c0-0.1,0-0.1,0.1-0.1
		c0.3,0,0.6,0.1,0.8,0.3C41.2,32.2,41.2,32.4,41.2,32.6z"/>
	<path class="st1" d="M14.6,32.4c-0.5,0-1.1,0-1.6,0c-0.1,0-0.1,0-0.2,0c0,0-0.1,0-0.1-0.1c0-0.1,0-0.1,0.1-0.1c0.1,0,0.1,0,0.2,0
		c0.6,0,1.2,0,1.8,0c0.5,0,0.9,0,1.4,0c0.1,0,0.1,0,0.2,0c0.1,0,0.1,0,0.1,0.1c0,0.1-0.1,0.1-0.1,0.1c0,0-0.1,0-0.1,0
		C15.6,32.4,15.1,32.4,14.6,32.4z"/>
	<path class="st1" d="M18.3,30.8c0.3,0,0.5,0.2,0.5,0.5c0,0.3-0.2,0.5-0.5,0.5c-0.3,0-0.5-0.2-0.5-0.5C17.8,30.9,18,30.7,18.3,30.8z
		"/>
	<path class="st1" d="M11.6,30.7c0.3,0,0.5,0.2,0.5,0.5c0,0.3-0.2,0.5-0.5,0.5c-0.3,0-0.5-0.2-0.5-0.5
		C11.1,30.9,11.3,30.6,11.6,30.7z"/>
	<path class="st1" d="M14.6,31.5c-0.1,0-0.1,0-0.2-0.1c-0.2-0.2-0.4-0.4-0.6-0.5c-0.1-0.1-0.1-0.1-0.2-0.2c-0.1-0.1-0.1-0.2,0-0.3
		c0.2-0.2,0.4-0.4,0.5-0.7c0.1-0.1,0.2-0.2,0.2-0.3c0,0,0-0.1,0.1-0.1c0.1-0.1,0.1-0.1,0.2,0c0,0,0,0.1,0,0.2
		c-0.2,0.2-0.4,0.4-0.5,0.7c0,0.1-0.1,0.1-0.1,0.2c-0.1,0.2-0.1,0.2,0,0.3c0.2,0.2,0.4,0.3,0.6,0.5c0,0,0.1,0.1,0.1,0.1
		C14.7,31.5,14.7,31.5,14.6,31.5z"/>
	<path class="st1" d="M23.2,32.6c0,0.3-0.1,0.6-0.4,0.7c0,0-0.1,0.1-0.1,0c-0.1,0-0.1-0.1,0-0.2c0,0,0.1,0,0.1-0.1
		c0.2-0.2,0.3-0.4,0.3-0.7c-0.1-0.3-0.3-0.4-0.6-0.5c0,0-0.1,0-0.1,0c-0.1,0-0.1,0-0.1-0.1c0-0.1,0.1-0.1,0.1-0.1
		c0.3,0,0.5,0,0.7,0.2C23.1,32.1,23.2,32.3,23.2,32.6z"/>
	<path class="st1" d="M18.3,29.6c0,0.1,0,0.1-0.1,0.1c-0.2,0.1-0.3,0.3-0.5,0.4c-0.2,0.1-0.3,0.3-0.5,0.4c0,0-0.1,0.1-0.1,0.1
		c0,0-0.1,0-0.1,0c0,0,0-0.1,0-0.1c0,0,0-0.1,0.1-0.1c0.3-0.3,0.7-0.6,1-0.9c0,0,0.1-0.1,0.1-0.1C18.3,29.5,18.3,29.6,18.3,29.6z"/>
	<path class="st1" d="M11.6,29.5c0.1,0,0.1,0,0.2,0.1c0.3,0.2,0.5,0.4,0.8,0.7c0.1,0.1,0.1,0.1,0.2,0.2c0,0,0.1,0.1,0.1,0.1
		c0,0,0,0.1,0,0.1c0,0-0.1,0-0.1,0c0,0-0.1,0-0.1-0.1c-0.3-0.3-0.6-0.6-1-0.8c0,0-0.1-0.1-0.1-0.1C11.5,29.6,11.5,29.6,11.6,29.5z"
		/>
	<path class="st2" d="M27.4,19.3c0-0.4,0.1-0.9,0.3-1.3c0,0,0,0,0-0.1c0,0,0.1,0,0.1,0c0,0,0,0,0,0.1c0.2,0.5,0.3,0.9,0.3,1.4
		c0,0.1,0,0.2,0,0.2c-0.1,0.2-0.2,0.3-0.3,0.3c-0.2,0-0.3-0.1-0.3-0.3C27.4,19.6,27.4,19.4,27.4,19.3z"/>
	<path class="st2" d="M26.2,20.8c0-0.4,0.1-0.9,0.3-1.3c0,0,0,0,0-0.1c0-0.1,0.1-0.1,0.1,0c0,0,0,0,0,0C26.8,20,27,20.5,27,21
		c0,0.1,0,0.2-0.1,0.3c-0.1,0.1-0.2,0.2-0.3,0.2c-0.2,0-0.3-0.1-0.3-0.2C26.2,21.1,26.2,21,26.2,20.8z"/>
	<path class="st2" d="M26.2,17.6c0-0.4,0.1-0.9,0.3-1.3c0,0,0,0,0-0.1c0-0.1,0.1-0.1,0.1,0c0,0,0,0,0,0c0.2,0.5,0.3,0.9,0.3,1.4
		c0,0.1,0,0.2-0.1,0.3c-0.1,0.2-0.2,0.2-0.3,0.2c-0.2,0-0.3-0.1-0.3-0.2C26.2,17.9,26.2,17.7,26.2,17.6z"/>
	<path class="st1" d="M24.6,14.2c0,0,0,0.1-0.1,0.1c-0.1,0-0.1,0.1-0.2,0.1c-0.3,0.1-0.6,0.3-0.9,0.4c0,0-0.1,0-0.1,0
		c-0.1,0.1-0.1,0.1,0,0.2c0.3,0.2,0.6,0.5,0.9,0.7c0,0,0.1,0,0.1,0.1c0.1,0.1,0.1,0.1,0,0.2c-0.1,0.1-0.1,0-0.2,0c0,0,0,0-0.1-0.1
		c-0.4-0.3-0.7-0.6-1.1-0.9c0,0-0.1-0.1-0.1-0.1c-0.1-0.1-0.1-0.1,0-0.2c0,0,0.1,0,0.1-0.1c0.4-0.2,0.9-0.4,1.3-0.5
		c0.1,0,0.1,0,0.2,0C24.6,14.1,24.6,14.1,24.6,14.2z"/>
	<path class="st1" d="M25.5,17.4c0,0.1-0.1,0.1-0.2,0.1c0,0-0.1-0.1-0.1-0.1c-0.2-0.3-0.5-0.5-0.8-0.6c-0.6-0.2-1.1-0.1-1.6,0.2
		c-0.1,0-0.1,0.1-0.2,0.1c-0.1,0-0.1,0.1-0.2,0c0-0.1,0-0.1,0-0.2c0,0,0.1-0.1,0.1-0.1c0.9-0.7,2.1-0.5,2.8,0.3
		C25.5,17.3,25.5,17.3,25.5,17.4z"/>
	<path class="st1" d="M21.1,14.4c0.4,0,0.7,0.2,0.9,0.5c0,0,0,0.1,0.1,0.1c0,0.1,0,0.1,0,0.1c-0.1,0-0.1,0-0.1,0
		c0,0-0.1-0.1-0.1-0.1c-0.3-0.4-0.8-0.5-1.1-0.2c-0.1,0.1-0.2,0.2-0.3,0.3c0,0,0,0.1-0.1,0.1c0,0-0.1,0.1-0.1,0
		c-0.1,0-0.1-0.1-0.1-0.1c0,0,0-0.1,0.1-0.1C20.3,14.6,20.7,14.4,21.1,14.4z"/>
	<path class="st1" d="M27.4,14.6c0.5,0,0.9,0.3,1.1,0.8c0,0,0,0.1,0,0.1c0,0.1,0,0.1-0.1,0.1c-0.1,0-0.1,0-0.1-0.1c0,0,0-0.1,0-0.1
		c-0.1-0.4-0.5-0.6-0.9-0.6c-0.2,0-0.4,0.1-0.5,0.2c0,0-0.1,0.1-0.1,0.1c0,0-0.1,0-0.1,0c-0.1,0,0-0.1,0-0.1c0,0,0-0.1,0.1-0.1
		C26.8,14.7,27.1,14.6,27.4,14.6z"/>
	<path class="st1" d="M21.1,13.5c0.1,0,0.2,0,0.3,0c0,0,0.1,0,0.1,0c0.1,0.1,0,0.1,0,0.2c0,0-0.1,0-0.1,0c-0.6-0.1-1.2,0.3-1.4,0.9
		c0,0,0,0.1-0.1,0.1c0,0-0.1,0.1-0.1,0.1c-0.1,0-0.1-0.1-0.1-0.1c0-0.1,0-0.1,0-0.2C19.9,13.8,20.5,13.4,21.1,13.5z"/>
	<path class="st1" d="M29.1,15.1c0,0.1,0,0.1,0,0.2c0,0,0,0.1-0.1,0.1c-0.1,0-0.1,0-0.1-0.1c0-0.1,0-0.1,0-0.2c0-0.4-0.2-0.8-0.6-1
		c-0.1-0.1-0.3-0.1-0.5-0.2c0,0-0.1,0-0.1,0c-0.1,0-0.1-0.1-0.1-0.1c0-0.1,0-0.1,0.1-0.1c0,0,0.1,0,0.1,0
		C28.4,13.8,29,14.4,29.1,15.1z"/>
	<path class="st1" d="M32.6,16.7c0,0.3-0.2,0.6-0.4,0.7c0,0-0.1,0.1-0.1,0c-0.1,0-0.1-0.1,0-0.2c0,0,0.1-0.1,0.1-0.1
		c0.2-0.2,0.3-0.4,0.2-0.7c-0.1-0.2-0.3-0.4-0.6-0.4c0,0-0.1,0-0.1,0c-0.1,0-0.1,0-0.1-0.1c0-0.1,0-0.1,0.1-0.1
		c0.3,0,0.6,0.1,0.8,0.3C32.6,16.3,32.6,16.5,32.6,16.7z"/>
	<path class="st3" d="M43.8,38.4c0,0,2.1,0.3,2.9-0.9c0.3-0.5,0.1-1.1-0.4-1.4c-0.4-0.2-0.8-0.2-1.2,0.1h0c0.1-0.4-0.1-0.8-0.5-1.1
		c-0.5-0.3-1.1-0.1-1.4,0.4C42.5,36.7,43.8,38.4,43.8,38.4"/>
	<path class="st3" d="M45.9,30.5c0,0,1.4-0.6,1.3-1.7c0-0.4-0.4-0.7-0.8-0.7c-0.3,0-0.6,0.2-0.7,0.5l0,0c-0.1-0.3-0.4-0.4-0.7-0.4
		c-0.4,0-0.7,0.4-0.7,0.8C44.4,30,45.9,30.5,45.9,30.5"/>
	<path class="st3" d="M40,25.6c0,0,1.6,0.1,2.1-0.9c0.2-0.4,0-0.9-0.4-1c-0.3-0.1-0.6-0.1-0.9,0.1l0,0c0-0.3-0.2-0.6-0.5-0.8
		c-0.4-0.2-0.9,0-1.1,0.4C38.9,24.4,40,25.6,40,25.6"/>
	<path class="st1" d="M46.5,24.7c-0.1,0-0.2,0-0.2,0.1c-0.3,0.3-0.6,0.5-0.9,0.8c0,0-0.1,0.1-0.2,0.1c-0.1,0-0.1-0.1-0.1-0.2
		c0-0.4-0.1-0.8-0.1-1.1c0-0.2-0.1-0.3-0.2-0.3c-0.3-0.2-0.7-0.4-1-0.6c0,0-0.1,0-0.1-0.1c0-0.1,0.1-0.1,0.1-0.1
		c0.4-0.1,0.7-0.3,1.1-0.4c0.1-0.1,0.2-0.1,0.3-0.3c0.1-0.4,0.2-0.7,0.2-1.1c0,0,0,0,0-0.1c0-0.1,0-0.1,0.1-0.2
		c0.1,0,0.1,0.1,0.1,0.1c0.2,0.2,0.4,0.4,0.5,0.6c0.1,0.1,0.2,0.2,0.3,0.3c0.1,0.1,0.2,0.1,0.3,0.1c0.4,0,0.8-0.1,1.2-0.1
		c0.1,0,0.1,0,0.2,0c0,0.1,0,0.1-0.1,0.2c-0.2,0.3-0.4,0.6-0.6,1c-0.1,0.1-0.1,0.3,0,0.4c0.2,0.3,0.3,0.7,0.5,1c0,0.1,0.1,0.1,0,0.2
		c0,0.1-0.1,0-0.2,0c-0.4-0.1-0.8-0.2-1.1-0.3C46.6,24.7,46.5,24.7,46.5,24.7z"/>
	<path class="st1" d="M47.9,32.1C47.9,32.1,48,32.1,47.9,32.1c0.2,0,0.4,0.1,0.6,0.1c0.1,0,0.2,0,0.2-0.1c0.1-0.1,0.2-0.2,0.4-0.4
		c0,0,0,0,0.1-0.1c0,0,0.1,0,0.1,0c0,0,0,0.1,0,0.1c0,0.2,0.1,0.3,0.1,0.5c0,0.1,0.1,0.1,0.1,0.2c0.2,0.1,0.3,0.2,0.5,0.2
		c0,0,0,0,0.1,0c0,0,0,0.1,0,0.1c0,0,0,0-0.1,0c-0.2,0.1-0.3,0.2-0.5,0.2c-0.1,0-0.1,0.1-0.1,0.2c0,0.2,0,0.4-0.1,0.5
		c0,0,0,0.1,0,0.1c0,0-0.1,0-0.1-0.1c-0.1-0.1-0.3-0.2-0.4-0.4c-0.1-0.1-0.1-0.1-0.2-0.1c-0.1,0-0.3,0.1-0.4,0.1c0,0-0.1,0-0.1,0
		c0,0-0.1,0-0.1,0c0,0,0-0.1,0-0.1c0.1-0.2,0.1-0.3,0.2-0.4c0.1-0.1,0.1-0.2,0-0.3c-0.1-0.1-0.2-0.3-0.2-0.4
		C47.9,32.2,47.9,32.2,47.9,32.1C47.8,32.1,47.9,32.1,47.9,32.1z"/>
	<path class="st4" d="M2.2,21.9C2.2,21.9,2.3,21.9,2.2,21.9c0.2,0,0.4,0.1,0.6,0.1c0.1,0,0.2,0,0.2-0.1c0.1-0.1,0.2-0.2,0.4-0.4
		c0,0,0,0,0.1-0.1c0,0,0.1,0,0.1,0c0,0,0,0.1,0,0.1c0,0.2,0.1,0.3,0.1,0.5c0,0.1,0,0.1,0.1,0.2c0.2,0.1,0.3,0.2,0.5,0.2
		c0,0,0,0,0.1,0c0,0,0,0.1,0,0.1c0,0,0,0-0.1,0c-0.2,0.1-0.3,0.2-0.5,0.2c-0.1,0-0.1,0.1-0.1,0.2c0,0.2,0,0.4-0.1,0.5
		c0,0,0,0.1,0,0.1c0,0-0.1,0-0.1-0.1c-0.1-0.1-0.2-0.2-0.4-0.4c-0.1-0.1-0.1-0.1-0.2-0.1c-0.1,0-0.3,0.1-0.4,0.1c0,0-0.1,0-0.1,0
		c0,0-0.1,0-0.1,0c0,0,0-0.1,0-0.1c0.1-0.1,0.1-0.3,0.2-0.4c0.1-0.1,0.1-0.2,0-0.3c-0.1-0.1-0.2-0.3-0.2-0.4C2.2,22,2.2,22,2.2,21.9
		C2.1,21.9,2.2,21.9,2.2,21.9z"/>
	<path class="st4" d="M36.6,43.2C36.6,43.2,36.6,43.1,36.6,43.2c0.3-0.2,0.5-0.3,0.8-0.4c0.1-0.1,0.2-0.2,0.2-0.3
		c0-0.3,0-0.5,0.1-0.8c0,0,0-0.1,0-0.1c0-0.1,0.1-0.1,0.1,0c0,0,0.1,0.1,0.1,0.1c0.2,0.2,0.4,0.4,0.6,0.5c0.1,0.1,0.2,0.1,0.3,0.1
		c0.3-0.1,0.5-0.1,0.8-0.2c0,0,0.1,0,0.1,0c0.1,0,0.1,0,0.1,0.1c0,0,0,0.1,0,0.1c-0.1,0.2-0.2,0.5-0.3,0.7c-0.1,0.1-0.1,0.2,0,0.3
		c0.1,0.2,0.3,0.5,0.4,0.7c0,0,0.1,0.1,0,0.2c0,0.1-0.1,0-0.2,0c-0.3,0-0.5-0.1-0.8-0.1c-0.1,0-0.2,0-0.3,0.1
		c-0.1,0.2-0.3,0.3-0.4,0.5c0,0-0.1,0.1-0.1,0.1c0,0-0.1,0.1-0.1,0.1c-0.1,0-0.1-0.1-0.1-0.2c-0.1-0.2-0.1-0.5-0.1-0.8
		c0-0.2-0.1-0.2-0.2-0.3c-0.2-0.1-0.5-0.2-0.7-0.3c0,0-0.1,0-0.1,0C36.5,43.3,36.5,43.2,36.6,43.2z"/>
	<path class="st5" d="M4.5,38.8c0,0,0-0.1,0-0.1c0.1-0.6,0.3-1.1,0.4-1.7c0-0.1,0-0.1,0-0.2c0-0.2,0-0.2-0.2-0.3
		c-0.1,0-0.3-0.1-0.4-0.1c-0.3-0.1-0.3-0.1-0.1-0.4C4.6,35.5,5,35,5.4,34.4c0.1-0.1,0.2-0.3,0.3-0.4c0,0,0.1-0.1,0.1-0.1
		c0.1,0,0,0.1,0,0.1c-0.1,0.2-0.1,0.4-0.2,0.6c-0.1,0.3-0.2,0.6-0.2,0.9c0,0,0,0,0,0.1c0,0.2,0,0.2,0.2,0.3c0.1,0,0.2,0.1,0.3,0.1
		c0.1,0,0.1,0,0.2,0.1c0.1,0,0.1,0.1,0.1,0.2c0,0.1-0.1,0.1-0.1,0.2c-0.5,0.7-0.9,1.5-1.4,2.2c0,0,0,0.1-0.1,0.1
		C4.6,38.9,4.5,38.9,4.5,38.8C4.5,38.9,4.5,38.8,4.5,38.8z"/>
	<path class="st5" d="M10.8,44.3c0,0,0-0.1,0-0.1c-0.2-0.5-0.4-1.1-0.5-1.6c0-0.1,0-0.1-0.1-0.2c-0.1-0.2-0.1-0.2-0.3-0.2
		c-0.1,0-0.3,0.1-0.4,0.1c-0.3,0.1-0.3,0-0.3-0.2c0-0.7,0.1-1.3,0.1-2c0-0.2,0-0.3,0-0.5c0-0.1,0-0.1,0.1-0.1c0.1,0,0.1,0.1,0.1,0.1
		c0.1,0.2,0.1,0.4,0.2,0.6c0.1,0.3,0.2,0.6,0.3,0.9c0,0,0,0,0,0.1c0.1,0.2,0.1,0.2,0.3,0.2c0.1,0,0.2-0.1,0.3-0.1c0.1,0,0.1,0,0.2,0
		c0.1,0,0.1,0,0.2,0.1c0,0.1,0,0.1,0,0.2c0,0.9,0,1.7,0,2.6c0,0,0,0.1,0,0.1C11,44.3,10.9,44.3,10.8,44.3
		C10.9,44.4,10.8,44.3,10.8,44.3z"/>
	<path class="st4" d="M2.2,31.3c-0.1,0-0.2,0.1-0.3,0.1c-0.2,0.2-0.3,0.3-0.5,0.5c0,0-0.1,0.1-0.1,0.1c-0.1,0.1-0.2,0.1-0.2-0.1
		c0-0.2-0.1-0.5-0.1-0.7c0-0.2-0.1-0.4-0.3-0.4c-0.2-0.1-0.4-0.2-0.6-0.3c0,0-0.1,0-0.1-0.1c-0.1,0-0.1-0.1,0-0.2
		c0,0,0.1-0.1,0.1-0.1c0.2-0.1,0.3-0.2,0.5-0.3C0.9,29.9,1,29.8,1,29.5c0-0.2,0-0.4,0.1-0.5c0,0,0-0.1,0-0.1c0-0.2,0.1-0.2,0.2-0.1
		c0,0,0.1,0.1,0.1,0.1c0.1,0.1,0.3,0.3,0.4,0.4c0.1,0.2,0.3,0.2,0.5,0.2c0.2,0,0.4-0.1,0.6-0.1c0,0,0.1,0,0.1,0c0.2,0,0.2,0,0.1,0.2
		c-0.1,0.2-0.2,0.4-0.3,0.6c-0.1,0.2-0.1,0.4,0,0.6c0.1,0.2,0.2,0.4,0.3,0.6c0.1,0.2,0,0.2-0.1,0.2c-0.2,0-0.4-0.1-0.6-0.1
		C2.4,31.4,2.3,31.4,2.2,31.3z"/>
	<path class="st5" d="M7.2,24.8c0,0,0,0.1,0,0.1c-0.1,0.2-0.2,0.4-0.3,0.6c0,0,0,0.1-0.1,0.1c0,0.1,0,0.1,0.1,0.2
		c0,0,0.1,0.1,0.1,0.1c0.1,0.1,0.1,0.1,0,0.2c-0.1,0.1-0.2,0.2-0.4,0.3C6.4,26.7,6.2,27,6,27.2c0,0-0.1,0.1-0.1,0.1
		c-0.1,0,0-0.1,0-0.1c0.1-0.3,0.3-0.5,0.4-0.8c0,0,0-0.1,0-0.1c0-0.1,0-0.2-0.1-0.2c-0.1,0-0.1-0.1-0.2-0.1c-0.1-0.1-0.1-0.1,0-0.2
		c0.2-0.2,0.5-0.4,0.8-0.6c0.1-0.1,0.2-0.1,0.2-0.2C7.1,24.8,7.1,24.8,7.2,24.8C7.2,24.8,7.2,24.8,7.2,24.8z"/>
	<path class="st1" d="M11.5,24.5C11.5,24.5,11.5,24.4,11.5,24.5c0.1-0.1,0.1-0.1,0.1-0.1c0,0,0.1,0.1,0.1,0.1
		c0.1,0.2,0.3,0.4,0.4,0.6c0.1,0.1,0.2,0.2,0.3,0.1c0.2-0.1,0.3-0.1,0.3,0.1c0.1,0.4,0.2,0.8,0.3,1.3c0,0.1,0.1,0.1,0,0.2
		c-0.1,0-0.1-0.1-0.1-0.1c-0.1-0.2-0.3-0.4-0.4-0.6c0-0.1-0.1-0.1-0.1-0.2c-0.1-0.1-0.1-0.1-0.2,0c-0.1,0-0.1,0.1-0.2,0.1
		c-0.1,0.1-0.2,0-0.2-0.1c0,0,0,0,0-0.1C11.7,25.4,11.6,25,11.5,24.5C11.5,24.6,11.5,24.5,11.5,24.5z"/>
	<path class="st4" d="M6.7,19c-0.3,0-0.5-0.2-0.5-0.5c0-0.3,0.2-0.5,0.5-0.5c0.3,0,0.5,0.2,0.5,0.5C7.2,18.8,7,19,6.7,19z"/>
	<path class="st4" d="M33.4,23.2c-0.3,0-0.5-0.2-0.5-0.5c0-0.3,0.2-0.5,0.5-0.5c0.3,0,0.5,0.2,0.5,0.5C33.9,23,33.7,23.2,33.4,23.2z
		"/>
	<path class="st4" d="M32.6,10.5c-0.3,0-0.5-0.2-0.5-0.5c0-0.3,0.2-0.5,0.5-0.5c0.3,0,0.5,0.2,0.5,0.5
		C33.1,10.3,32.9,10.5,32.6,10.5z"/>
	<path class="st1" d="M14,43.2c-0.3,0-0.5-0.2-0.5-0.5c0-0.3,0.2-0.5,0.5-0.5c0.3,0,0.5,0.2,0.5,0.5C14.5,43,14.3,43.2,14,43.2z"/>
	<path class="st1" d="M14,18.6c0.2,0,0.4,0.2,0.4,0.4c0,0.3-0.2,0.4-0.4,0.4c-0.2,0-0.4-0.2-0.4-0.4C13.5,18.8,13.7,18.6,14,18.6z
		 M14,19.3c0.1,0,0.3-0.1,0.3-0.3c0-0.1-0.1-0.3-0.3-0.3c-0.1,0-0.3,0.1-0.3,0.3C13.7,19.1,13.8,19.3,14,19.3z"/>
	<path class="st1" d="M34.7,7.3c0.2,0,0.4,0.2,0.4,0.4c0,0.3-0.2,0.4-0.4,0.4c-0.2,0-0.4-0.2-0.4-0.4C34.3,7.5,34.4,7.3,34.7,7.3z
		 M34.7,8C34.8,8,35,7.9,35,7.7c0-0.1-0.1-0.3-0.3-0.3c-0.1,0-0.3,0.1-0.3,0.3C34.4,7.9,34.6,8,34.7,8z"/>
	<path class="st1" d="M25.7,37.9c0.2,0,0.4,0.2,0.4,0.4c0,0.3-0.2,0.4-0.4,0.4c-0.2,0-0.4-0.2-0.4-0.4
		C25.3,38.1,25.5,37.9,25.7,37.9z M25.7,38.6c0.1,0,0.3-0.1,0.3-0.3c0-0.1-0.1-0.3-0.3-0.3c-0.1,0-0.3,0.1-0.3,0.3
		C25.5,38.5,25.6,38.6,25.7,38.6z"/>
	<path class="st1" d="M17,11.4c0.2,0,0.4,0.2,0.4,0.4c0,0.3-0.2,0.4-0.4,0.4c-0.2,0-0.4-0.2-0.4-0.4C16.6,11.6,16.8,11.4,17,11.4z
		 M17,12.1c0.1,0,0.3-0.1,0.3-0.3c0-0.1-0.1-0.3-0.3-0.3c-0.1,0-0.3,0.1-0.3,0.3C16.7,12,16.9,12.1,17,12.1z"/>
	<path class="st1" d="M25.7,26.8c0.2,0,0.4,0.2,0.4,0.4c0,0.3-0.2,0.4-0.4,0.4c-0.2,0-0.4-0.2-0.4-0.4C25.3,27,25.5,26.8,25.7,26.8z
		 M25.7,27.5c0.1,0,0.3-0.1,0.3-0.3c0-0.1-0.1-0.3-0.3-0.3c-0.1,0-0.3,0.1-0.3,0.3C25.5,27.4,25.6,27.5,25.7,27.5z"/>
	<path class="st1" d="M9.3,21.5c0,0.1-0.1,0.2-0.2,0.2C9,21.7,9,21.6,9,21.5c0-0.1,0.1-0.2,0.2-0.2C9.3,21.3,9.3,21.4,9.3,21.5z"/>
	<path class="st1" d="M25.7,6.4c0,0.1-0.1,0.2-0.2,0.2c-0.1,0-0.2-0.1-0.2-0.2c0-0.1,0.1-0.2,0.2-0.2C25.6,6.2,25.7,6.3,25.7,6.4z"
		/>
	<path class="st1" d="M15.8,16c0,0.1-0.1,0.2-0.2,0.2c-0.1,0-0.2-0.1-0.2-0.2c0-0.1,0.1-0.2,0.2-0.2C15.8,15.8,15.8,15.9,15.8,16z"
		/>
	<path class="st1" d="M24.1,25.6c0,0.1-0.1,0.2-0.2,0.2c-0.1,0-0.2-0.1-0.2-0.2c0-0.1,0.1-0.2,0.2-0.2
		C24.1,25.4,24.1,25.5,24.1,25.6z"/>
	<path class="st1" d="M34.7,19c0,0.1-0.1,0.2-0.2,0.2c-0.1,0-0.2-0.1-0.2-0.2c0-0.1,0.1-0.2,0.2-0.2C34.6,18.8,34.7,18.9,34.7,19z"
		/>
	<path class="st1" d="M44.1,33.1c0,0.1-0.1,0.2-0.2,0.2c-0.1,0-0.2-0.1-0.2-0.2c0-0.1,0.1-0.2,0.2-0.2C44,32.9,44.1,33,44.1,33.1z"
		/>
	<path class="st1" d="M6.5,29.9c0.1,0,0.2,0.1,0.2,0.2c0,0.1-0.1,0.2-0.2,0.2c-0.1,0-0.2-0.1-0.2-0.2C6.4,30,6.4,29.9,6.5,29.9z"/>
	<path class="st1" d="M23.8,36.8c0.1,0,0.2,0.1,0.2,0.2c0,0.1-0.1,0.2-0.2,0.2c-0.1,0-0.2-0.1-0.2-0.2
		C23.6,36.9,23.6,36.8,23.8,36.8z"/>
	<g>
		<g>
			<g>
				<path class="st6" d="M39.6,15.8c-1.1,0-2.2,0-3.2,0c-0.1,0-0.2,0-0.3-0.1c-0.4-0.4-0.6-0.8-0.7-1.4c-0.1-0.7,0.1-1.2,0.5-1.7
					c0.4-0.4,0.9-0.7,1.4-0.7c1-0.1,1.9,0.4,2.2,1.2c0.1,0.2,0.2,0.4,0.2,0.7c0,0.1,0.1,0.1,0.2,0.1c0.4-0.2,0.8-0.3,1.3-0.1
					c0.5,0.2,0.7,0.6,0.8,1.1c0,0,0,0,0,0c0,0.1,0,0.1,0.1,0.1c0.2-0.1,0.4-0.1,0.6,0.1c0.2,0.1,0.3,0.4,0.3,0.6
					c0,0.1,0,0.1-0.1,0.1c0,0-0.1,0-0.1,0C41.8,15.8,40.7,15.8,39.6,15.8z"/>
			</g>
		</g>
	</g>
	<path class="st7" d="M15.5,9.3c-1.2,0-2.2-1-2.2-2.1c0-1.1,0.8-2,1.8-2.1c0.2,0,0.4,0,0.6,0c0,0,0.1,0,0.1,0c0,0,0.1,0,0.1,0.1
		c0,0.1,0,0.1-0.1,0.1c-0.2,0.1-0.3,0.2-0.4,0.3c-0.4,0.4-0.5,0.9-0.3,1.4c0.2,0.5,0.6,0.9,1.1,1C16.6,8,17,7.9,17.3,7.6
		c0,0,0.1-0.1,0.1-0.1c0.1,0,0.1,0,0.1,0.1c0,0,0,0.1,0,0.1c-0.2,0.9-1,1.5-1.9,1.6C15.6,9.3,15.5,9.3,15.5,9.3z"/>
	<path class="st7" d="M43,20.8c-0.8,0-1.4-0.6-1.4-1.3c0-0.7,0.5-1.2,1.2-1.3c0.1,0,0.2,0,0.4,0c0,0,0,0,0.1,0c0,0,0.1,0,0.1,0.1
		c0,0,0,0.1-0.1,0.1c-0.1,0-0.2,0.1-0.3,0.2c-0.2,0.3-0.3,0.5-0.2,0.9c0.1,0.3,0.3,0.5,0.7,0.6c0.3,0,0.5,0,0.7-0.2c0,0,0,0,0.1,0
		c0,0,0.1,0,0.1,0.1c0,0,0,0.1,0,0.1c-0.1,0.5-0.6,0.9-1.2,1C43.1,20.8,43,20.8,43,20.8z"/>
	<g>
		<g>
			<g>
				<path class="st7" d="M37.5,18.5C37.5,18.5,37.5,18.4,37.5,18.5c0.2-0.6,0.4-1.2,0.6-1.7c0-0.1,0.1-0.2,0.1-0.4
					c0-0.1,0.1-0.1,0.1-0.1c0.1,0,0.2,0.1,0.1,0.2c0,0.1-0.1,0.2-0.1,0.2c-0.1,0.3-0.2,0.6-0.3,0.9c-0.1,0.3-0.2,0.6-0.3,0.9
					c0,0,0,0.1,0,0.1c0,0-0.1,0-0.1,0C37.5,18.6,37.5,18.5,37.5,18.5z"/>
			</g>
			<g>
				<path class="st7" d="M38,18.5C38,18.5,38,18.4,38,18.5c0.2-0.7,0.4-1.3,0.6-1.9c0-0.1,0.1-0.2,0.1-0.2c0-0.1,0.1-0.1,0.1-0.1
					c0.1,0,0.2,0.1,0.1,0.2c0,0.1-0.1,0.2-0.1,0.2c-0.1,0.3-0.2,0.6-0.3,0.9c-0.1,0.3-0.2,0.6-0.3,0.9c0,0,0,0.1,0,0.1
					c0,0-0.1,0-0.1,0C38.1,18.6,38,18.5,38,18.5z"/>
			</g>
			<g>
				<path class="st7" d="M38.6,18.5C38.6,18.5,38.6,18.4,38.6,18.5c0.2-0.6,0.4-1.2,0.6-1.7c0-0.1,0.1-0.2,0.1-0.4
					c0-0.1,0.1-0.1,0.1-0.1c0.1,0,0.2,0.1,0.1,0.2c0,0.1-0.1,0.2-0.1,0.2c-0.1,0.4-0.2,0.7-0.4,1.1c-0.1,0.2-0.2,0.5-0.3,0.7
					c0,0,0,0.1,0,0.1c0,0-0.1,0-0.1,0C38.7,18.6,38.6,18.5,38.6,18.5z"/>
			</g>
			<g>
				<path class="st7" d="M39.2,18.5C39.2,18.5,39.2,18.4,39.2,18.5c0.2-0.6,0.4-1.2,0.6-1.7c0-0.1,0.1-0.2,0.1-0.4
					c0-0.1,0.1-0.1,0.1-0.1c0.1,0,0.2,0.1,0.1,0.2c0,0.1-0.1,0.2-0.1,0.2c-0.1,0.3-0.2,0.6-0.3,0.9c-0.1,0.3-0.2,0.6-0.3,0.9
					c0,0,0,0.1,0,0.1c0,0-0.1,0-0.1,0C39.2,18.6,39.2,18.5,39.2,18.5z"/>
			</g>
		</g>
	</g>
	<g>
		<g>
			<g>
				<path class="st6" d="M12,13.7c-0.9,0-1.8,0-2.7,0c-0.1,0-0.2,0-0.3-0.1c-0.3-0.3-0.5-0.7-0.6-1.2c-0.1-0.6,0.1-1.1,0.5-1.5
					c0.3-0.4,0.7-0.6,1.2-0.6c0.9-0.1,1.6,0.4,1.9,1c0.1,0.2,0.2,0.4,0.2,0.6c0,0.1,0.1,0.1,0.1,0.1c0.4-0.2,0.7-0.2,1.1,0
					c0.4,0.2,0.6,0.5,0.7,1c0,0,0,0,0,0c0,0.1,0,0.1,0.1,0.1c0.2-0.1,0.4-0.1,0.5,0c0.2,0.1,0.3,0.3,0.3,0.5c0,0.1,0,0.1-0.1,0.1
					c0,0-0.1,0-0.1,0C13.9,13.7,12.9,13.7,12,13.7z"/>
			</g>
		</g>
	</g>
	<g>
		<g>
			<g>
				<path class="st7" d="M10.2,16C10.2,16,10.2,15.9,10.2,16c0.2-0.5,0.3-1,0.5-1.5c0-0.1,0.1-0.2,0.1-0.3c0,0,0-0.1,0.1-0.1
					c0.1,0,0.1,0.1,0.1,0.1c0,0.1,0,0.1-0.1,0.2c-0.1,0.3-0.2,0.5-0.3,0.8c-0.1,0.2-0.2,0.5-0.3,0.7c0,0,0,0,0,0.1
					C10.3,16.1,10.3,16.1,10.2,16C10.2,16.1,10.2,16,10.2,16z"/>
			</g>
			<g>
				<path class="st7" d="M10.7,16C10.7,16,10.7,15.9,10.7,16c0.2-0.6,0.4-1.1,0.5-1.6c0-0.1,0-0.1,0.1-0.2c0,0,0-0.1,0.1-0.1
					c0.1,0,0.1,0.1,0.1,0.1c0,0.1,0,0.1-0.1,0.2c-0.1,0.3-0.2,0.5-0.3,0.8c-0.1,0.2-0.2,0.5-0.3,0.7c0,0,0,0,0,0.1c0,0-0.1,0-0.1,0
					C10.7,16.1,10.7,16,10.7,16z"/>
			</g>
			<g>
				<path class="st7" d="M11.2,16C11.2,16,11.2,15.9,11.2,16c0.2-0.5,0.3-1,0.5-1.5c0-0.1,0.1-0.2,0.1-0.3c0,0,0-0.1,0.1-0.1
					c0.1,0,0.1,0.1,0.1,0.1c0,0.1,0,0.1-0.1,0.2c-0.1,0.3-0.2,0.6-0.3,0.9c-0.1,0.2-0.1,0.4-0.2,0.6c0,0,0,0,0,0.1c0,0-0.1,0-0.1,0
					C11.2,16.1,11.2,16,11.2,16z"/>
			</g>
			<g>
				<path class="st7" d="M11.7,16C11.7,16,11.7,15.9,11.7,16c0.2-0.5,0.3-1,0.5-1.5c0-0.1,0.1-0.2,0.1-0.3c0,0,0-0.1,0.1-0.1
					c0.1,0,0.1,0.1,0.1,0.1c0,0.1,0,0.1-0.1,0.2c-0.1,0.3-0.2,0.5-0.3,0.8c-0.1,0.2-0.2,0.5-0.3,0.7c0,0,0,0,0,0.1
					C11.8,16.1,11.8,16.1,11.7,16C11.7,16.1,11.7,16,11.7,16z"/>
			</g>
		</g>
	</g>
</g>
</svg>
