<?xml version="1.0" encoding="utf-8"?>
<!-- Generator: Adobe Illustrator 23.0.0, SVG Export Plug-In . SVG Version: 6.00 Build 0)  -->
<svg version="1.1" id="Capa_1" xmlns="http://www.w3.org/2000/svg" xmlns:xlink="http://www.w3.org/1999/xlink" x="0px" y="0px"
	 viewBox="0 0 50 50" style="enable-background:new 0 0 50 50;" xml:space="preserve">
<style type="text/css">
	.st0{fill:#E5332A;}
</style>
<title>btn_actividades</title>
<g>
	<g>
		<path class="st0" d="M25,48.6c-0.2,0-0.4-0.1-0.6-0.2c-0.3-0.1-6.2-3.4-12.3-9.1C4,31.6-0.2,23.3,0,15.1C0.2,5.7,7.3,1.4,13.9,1.4
			c0.2,0,0.5,0,0.7,0C20.4,1.8,23.5,5,25,7.5c1.5-2.5,4.6-5.7,10.4-6.1c0.2,0,0.5,0,0.7,0c6.5,0,13.7,4.3,13.9,13.7
			c0.2,8.2-4,16.5-12.1,24.2c-6,5.7-12,9-12.3,9.1C25.4,48.5,25.2,48.6,25,48.6z M13.9,4C10,4,2.7,6.3,2.6,15.1
			C2.2,31.6,21.3,43.7,25,45.9c3.7-2.2,22.8-14.3,22.4-30.7C47.3,6.3,40,4,36.1,4c-0.2,0-0.4,0-0.6,0c-6.8,0.4-8.9,5.4-9.3,6.9
			c-0.2,0.5-0.7,0.9-1.2,0.9c-0.6,0-1.1-0.4-1.2-0.9c-0.5-1.5-2.5-6.6-9.3-6.9C14.3,4,14.1,4,13.9,4z"/>
	</g>
	<path class="st0" d="M25,41.3C19.4,37.7,6.1,27.7,6.4,15.2c0.1-7.2,6.7-7.4,7.5-7.4c0.1,0,0.2,0,0.4,0c3.5,0.2,5.2,2.8,6.1,3.6
		c1.2,1.1,3.2,3.2,4.4,3.2c1.4,0,3.5-1.9,4.5-3.1c1.2-1.5,3.2-3.5,6.6-3.7c0.1,0,0.2,0,0.4,0c0.8,0,7.4,0.2,7.5,7.4
		C43.9,27.7,30.6,37.7,25,41.3z"/>
</g>
</svg>
