<?xml version="1.0" encoding="utf-8"?>
<!-- Generator: Adobe Illustrator 23.0.0, SVG Export Plug-In . SVG Version: 6.00 Build 0)  -->
<svg version="1.1" id="Capa_1" xmlns="http://www.w3.org/2000/svg" xmlns:xlink="http://www.w3.org/1999/xlink" x="0px" y="0px"
	 viewBox="0 0 50 50" style="enable-background:new 0 0 50 50;" xml:space="preserve">
<style type="text/css">
	.st0{fill:#F7C316;}
	.st1{fill:#10A0CA;}
	.st2{fill:#FFFFFF;}
</style>
<title>btn_actividades</title>
<g>
	<path class="st0" d="M50,26.6c-0.2,0-0.5,3.5-0.6,4c-0.3,1.5-0.8,3-1.3,4.4c-1.1,2.8-2.7,5.5-4.8,7.7c-2.3,2.4-5.1,4.3-8.2,5.4
		c-1.6,0.6-3.2,1-4.9,1.2c-1,0.1-3.2,0.7-4.1,0.3c0.5-0.5,1.2-1.4,2-1.7c0.9-0.4,2.2-0.2,3.2-0.5c2.2-0.6,4.2-1.5,6.1-2.7
		c3.9-2.5,7-6,8.9-10.3C49.9,26.1,48.5,16,42,9.4c-6.2-6.2-16-9.2-24.4-6.2c-8.4,3-15,10.9-15.6,20c-0.6,9,4,18.4,12.2,22.5
		c1.9,1,3.9,1.5,6,1.5c1.1,0,2.1-0.1,3.1-0.5c0.9-0.3,2.3-1.5,3.2-1.1c1.9,0.7-1.7,2.7-2.5,3.1c-2.2,1-4.4,1-6.7,0.3
		c-8.7-2.5-15.3-10.6-17-19.3c-1.6-8.5,1.2-17.2,7.7-23.1c7.7-7,18.7-8.3,27.9-3.8c4.5,2.2,8.4,5.5,10.9,9.9
		C49.5,17,50,21.7,50,26.6C50,26.6,50,25.4,50,26.6z"/>
	<path class="st1" d="M23.5,39.8c-0.1,0.1-0.1,0.2-0.1,0.3c-0.1-0.1-0.2-0.2-0.3-0.3c0.1-0.1,0.2,0.1,0.2,0c0-0.1,0.1-0.1,0.1-0.1
		c0-0.1,0-0.2,0-0.3c-0.1-0.2-0.1-0.2,0.1-0.2c-0.1,0-0.2-0.1-0.2-0.2c0.1-0.1,0.1-0.2,0.2-0.3c0.1,0.1,0.1,0.2,0.1,0.4
		c0,0,0,0.1,0,0.1c0,0,0.1,0,0.1,0c0-0.1,0.1-0.1,0.2-0.2c-0.1-0.1-0.2-0.2-0.2-0.3c0-0.1,0-0.2,0.2-0.1c0.1,0,0.1,0.1,0.2,0.1
		c0,0,0.1,0,0.1,0c0.1-0.1,0-0.1-0.1-0.1c0,0,0-0.1,0-0.1c0-0.1-0.1-0.2-0.2-0.1c-0.1,0-0.1,0-0.2-0.1c-0.1,0-0.1-0.1,0-0.2
		c0-0.1,0-0.1-0.1-0.1c-0.1,0-0.1,0-0.1-0.1c0-0.1,0-0.1,0.1-0.1c0.1,0,0.1-0.1,0-0.1c0,0-0.3-0.2-0.4-0.2c-0.1,0-0.2-0.1-0.2-0.2
		c0,0-0.1-0.1-0.1-0.1c-0.1,0-0.2,0.1-0.1,0.2c0,0,0,0,0,0.1c0,0,0,0.1-0.1,0.1c0,0-0.1,0-0.1,0c-0.1-0.1-0.1-0.3,0-0.4
		c0.2-0.1,0.3-0.3,0.5-0.4c0,0,0,0,0,0c0,0,0,0,0,0c-0.1,0.1-0.2,0-0.2-0.1c0-0.1,0-0.1,0.2-0.1c0.1,0,0.2,0.1,0.3,0
		c0,0,0.1,0,0.1,0.1c0,0.1,0,0.1,0,0.2c0,0,0,0,0.1,0c0.1,0,0.1-0.1,0.2,0c0.1,0.1,0,0.1,0,0.2c0,0,0,0.1,0,0.1c0,0-0.1,0.1,0,0.1
		c0,0,0,0,0-0.1c0.1-0.1,0.2-0.2,0.2-0.3c0,0,0-0.1,0-0.1c-0.2,0.1-0.1-0.1-0.1-0.1C24,36.4,24,36.2,24,36c0-0.1,0-0.3,0-0.4
		c0,0,0-0.1,0-0.1c-0.1-0.1,0-0.2,0-0.3c0.1-0.1,0.1-0.2,0.1-0.3c0,0,0-0.1,0-0.1c0-0.2,0.1-0.4-0.1-0.6c0.1-0.1,0-0.3,0.2-0.4
		c0.1,0,0-0.1,0-0.1c0-0.1-0.1,0-0.2-0.1c0.2-0.1,0.2-0.1,0.2-0.3c0-0.2,0-0.2,0.1-0.1c0,0,0,0,0,0c0-0.1-0.1-0.2-0.2-0.2
		c-0.1-0.1-0.1-0.1,0-0.2c0.1-0.1,0-0.2-0.1-0.2c0,0-0.1,0-0.1,0.1c0,0.1,0,0.1,0,0.2c0,0,0,0.1-0.1,0.1c-0.1,0,0-0.1,0-0.1
		c0,0,0-0.1-0.1-0.1c-0.2,0-0.3,0.1-0.2,0.2c0,0.1,0.1,0.3,0,0.4c0,0,0,0.1,0.1,0.1c0,0,0.1,0.1,0.1,0.1c-0.1,0-0.1,0-0.2,0
		c0.1,0.1,0,0.3,0.1,0.4c0,0,0,0.1,0,0.1c-0.1,0-0.1,0.1-0.1,0.2c0,0,0,0,0,0c-0.1,0-0.3,0-0.4-0.1c0-0.1-0.1-0.1,0-0.2
		c0.1-0.2,0.1-0.4,0.1-0.6c0-0.1,0-0.3,0.1-0.4c0,0,0-0.1,0-0.1c0.1,0,0.1,0,0.3,0c-0.1-0.1-0.2-0.2-0.2-0.3c0-0.1-0.1-0.2-0.1-0.3
		c0-0.1,0-0.1,0-0.2c0.1-0.2,0.1-0.4,0.1-0.7c0-0.1,0-0.1,0-0.1c0.2-0.2,0.2-0.4,0.2-0.6c0-0.1-0.1-0.2-0.1-0.2
		c-0.1-0.2-0.2-0.5-0.2-0.7c0-0.1,0-0.2,0-0.2C23,29,23.1,28.8,23,28.7c0-0.1,0-0.2,0.2-0.2c0.1,0,0.1,0,0.1-0.1c0-0.1,0-0.2,0-0.2
		c0-0.1,0-0.2,0.1-0.3c0.1-0.1,0.1-0.2,0.1-0.3c0-0.1,0-0.2,0.1-0.3c0,0,0-0.1,0-0.1c-0.1-0.2,0.1-0.4,0.2-0.5
		c0.1-0.2,0.1-0.4,0.2-0.6c0,0,0-0.1,0-0.1c0-0.2,0-0.3,0.1-0.5c0.1-0.2,0.2-0.4,0.1-0.6c0-0.1,0-0.2,0-0.2c0.1-0.2,0.1-0.5,0.1-0.7
		c-0.1-0.4-0.2-0.8-0.3-1.2c0-0.2,0-0.4,0.1-0.5c0.1-0.1,0.1-0.3,0.1-0.4c0-0.2,0-0.3-0.1-0.4c-0.1-0.2-0.1-0.3,0-0.4
		c0.2-0.2,0.2-0.4,0.2-0.7c0-0.1,0-0.3,0.1-0.4c0.1-0.1,0.1-0.2,0-0.2c-0.1-0.1,0-0.2,0-0.3c0.1-0.3,0.2-0.6,0.1-1
		c-0.1-0.1,0-0.3,0.1-0.4c0.1-0.1,0.1-0.2,0.1-0.4c0-0.1-0.1-0.1-0.1-0.2c0-0.2,0-0.3,0-0.5c0-0.2,0-0.4,0-0.6c0,0,0-0.1,0-0.1
		c-0.2-0.1-0.1-0.3-0.1-0.4c0-0.1,0-0.1,0.1-0.1c0.1,0,0.1-0.1,0.1-0.1c0-0.3,0-0.5,0-0.8c0,0,0-0.1,0-0.1c0.1-0.2,0.1-0.5,0-0.7
		c0.1-0.3-0.1-0.5,0-0.8c0.1-0.2,0-0.3-0.1-0.5c-0.1-0.2-0.2-0.5-0.2-0.7c0-0.1,0-0.2,0-0.2c0-0.1,0-0.2,0.1-0.2
		c0.1,0,0.1,0,0.2-0.1c0.1-0.1,0.2-0.2,0.2-0.4c0-0.1,0-0.1,0-0.2c0.1-0.2,0.3-0.2,0.4,0c0.1,0.1,0.1,0.2,0.2,0.3c0,0,0,0.1,0,0.1
		c0,0.3,0.2,0.5,0.2,0.8c0,0,0,0,0,0c0.2,0,0.3,0.3,0.5,0.3c0,0.1,0,0.1-0.1,0.1c-0.1,0.1-0.1,0.2,0,0.3c0,0.1,0,0.2-0.1,0.2
		c0,0-0.1,0,0,0.1c0.1,0.1,0,0.3,0.1,0.4c0,0,0.1,0.1,0,0.1c0,0.1,0,0.2,0.1,0.3c0.1,0.1,0.1,0.2,0.1,0.2c0.1,0.3,0.2,0.6,0.3,1
		c0,0.1,0.1,0.2,0,0.4c0,0.1,0,0.1,0.1,0.1c0.1,0,0.1,0,0.2,0c0.3-0.1,0.4,0.1,0.3,0.3c0,0.2-0.1,0.4-0.1,0.6c0,0.1-0.1,0.1-0.2,0.2
		c-0.2,0.1-0.3,0.2-0.5,0.2c-0.1,0-0.2,0.1-0.2,0.2c-0.1,0.1-0.1,0.2,0,0.3c0.1,0.1,0.1,0.2,0,0.3c-0.1,0.1-0.1,0.1,0,0.2
		c0,0.1,0.1,0.2,0.1,0.3c0,0.1,0.1,0.2,0,0.3c-0.1,0.1,0,0.2,0,0.3c0.1,0.1,0.1,0.1,0.2,0.2c0,0.1,0,0.1-0.1,0.2c0,0,0,0,0,0
		c-0.3,0-0.4,0.2-0.4,0.4c0,0,0,0,0,0c-0.1,0.3-0.2,0.6-0.4,0.8c-0.1,0.1-0.1,0.2-0.1,0.4c0,0.1,0,0.2-0.1,0.3
		c-0.1,0.1-0.1,0.2,0,0.3c0.1,0.2,0.1,0.4,0.1,0.6c0,0.1,0,0.2-0.1,0.2c-0.2,0.1-0.2,0.2-0.2,0.4c0,0.1,0,0.2-0.1,0.3
		c-0.1,0.1-0.1,0.4,0,0.5c0.1,0.1,0.2,0.2,0.2,0.3c0,0.1,0,0.1,0.1,0.2c0.1,0.1,0.1,0.3,0.2,0.4c0,0.1,0,0.1,0,0.2
		c-0.1,0.1,0,0.2,0.1,0.2c0.1,0,0.1,0.1,0.1,0.2c0,0.2-0.1,0.3,0,0.5c0.1,0.1,0.1,0.3-0.1,0.4c-0.1,0-0.1,0.2-0.1,0.3
		c0,0.1,0,0.2-0.1,0.3c-0.2,0.3-0.1,0.5,0,0.8c0,0.2,0,0.3-0.1,0.4c-0.1,0.2-0.3,0.3-0.4,0.5c0,0-0.1,0.1-0.1,0.1
		c0.1,0.4,0,0.8,0.1,1.1c0.1,0.2,0.1,0.4,0.2,0.6c0.1,0.1,0,0.2-0.1,0.2c-0.2,0.1-0.3,0.2-0.2,0.4c0,0.1,0,0.1,0,0.2
		c0,0.2-0.1,0.3-0.1,0.5c0,0.1,0,0.1-0.1,0.2c0,0-0.1,0.1,0,0.1c0.1,0.1,0,0.2,0,0.3c-0.1,0.1-0.1,0.3,0,0.4c0,0.1,0.1,0.2,0,0.4
		c0,0.2,0,0.3,0.1,0.5c0,0.1,0,0.1,0,0.2c0,0.1,0,0.2-0.1,0.2c-0.1,0-0.2,0.1-0.1,0.2c0,0.1,0,0.2,0,0.2c0,0.2,0,0.3,0.2,0.4
		c0.1,0.1,0.2,0.1,0.1,0.2c-0.1,0.1,0,0.1,0,0.2c0,0,0.1,0.1,0.1,0.1c0,0,0.1,0.1,0,0.2c0,0.1,0,0.2,0,0.3c0,0.2,0,0.2,0.2,0.2
		c0,0,0.1,0,0.1,0c0.1,0,0.1,0.1,0.1,0.1c0,0.1,0,0.2-0.1,0.2c-0.1,0-0.2,0-0.3,0c0.1,0.1,0.2,0.1,0.3,0.2c0.1,0.1,0.1,0.1,0,0.2
		c0,0-0.1,0.1-0.1,0.1c-0.1,0.1-0.1,0.1,0,0.2c0,0,0,0,0,0.1c0,0.2-0.1,0.4,0,0.6c0,0,0,0.1,0,0.2c-0.1,0.1-0.1,0.3,0,0.4
		c0,0.1,0,0.1-0.1,0.2c-0.2,0.2-0.2,0.3-0.2,0.6c0,0.1,0.1,0.2,0.1,0.3c0,0.1,0,0.2,0,0.2c-0.1,0.1-0.1,0.1-0.1,0.2
		c0,0.2-0.1,0.3-0.2,0.4c-0.1,0.1-0.1,0.2-0.1,0.2c0,0.1,0,0.1-0.1,0.2c-0.2,0.3-0.1,0.6,0.1,0.9c0.1,0.1,0.1,0.1,0.2,0
		c0.1-0.1,0.2-0.1,0.3,0c0.1,0.1,0.1,0.2,0.1,0.4c0,0.2,0,0.4,0,0.5c0.1,0.2,0.3,0.3,0.5,0.3c0.2,0,0.4,0,0.6,0c0.1,0,0.2,0,0.2,0
		c0.2,0.1,0.3,0.1,0.5,0.1c0,0,0,0,0,0c0,0.1-0.2,0.1-0.2,0.2c0,0.1,0.1,0.1,0.1,0.2c0.1,0.1,0.1,0,0.2,0c0.1,0,0.1,0,0.1,0.1
		c0,0.1,0,0.1,0,0.2c0,0.4,0,0.7,0,1.1c0,0.1,0,0.3,0,0.4c0,0.1,0,0.3-0.1,0.4c0.1,0,0.2,0,0.1,0.1c0,0.1,0.1,0.2,0.1,0.3
		c0.1,0.1,0.1,0.2,0.1,0.3c-0.1,0-0.2-0.2-0.4-0.2c-0.1,0-0.1-0.1-0.1-0.2c0,0-0.1,0-0.1,0c-0.1,0,0,0.1,0,0.1c0,0.1,0.1,0.1,0,0.2
		c-0.2-0.1-0.3-0.3-0.4-0.4c0,0,0,0,0,0c0-0.1,0.1-0.1,0.1-0.1c0-0.1-0.1-0.1-0.1-0.1c0-0.1,0.1-0.1,0.1-0.1c-0.1,0-0.2,0-0.2,0
		c-0.1,0-0.2,0-0.3-0.1c-0.1-0.1-0.1-0.2-0.2,0c-0.2,0-0.3,0-0.5,0c0.1-0.2,0.2-0.2,0.4-0.2c0.1,0,0.2,0,0.1-0.1l0,0
		c0.1,0,0.1,0,0.2,0c0,0,0.1,0,0.1,0c0.2-0.2,0.4-0.1,0.6,0c0,0,0,0,0,0c0,0,0,0.1,0,0.1c0.1-0.1,0.1-0.1,0-0.1
		c0-0.1-0.1-0.1-0.2-0.1c-0.1-0.1-0.2-0.1-0.3-0.2c-0.1-0.1-0.1-0.2,0.1-0.3c0.1,0,0.2-0.1,0.2-0.1c0,0,0.1-0.1,0-0.1c0,0,0,0-0.1,0
		c-0.1,0-0.2,0-0.3,0c-0.1,0-0.1,0-0.2-0.1c0-0.1-0.1-0.2,0.1-0.2c0.1,0,0-0.1,0-0.1c0-0.1,0-0.1,0.1-0.1c0.2,0,0.2,0,0.3-0.2
		c-0.1-0.1-0.2,0-0.3,0c-0.1,0.1-0.2,0.1-0.3,0.2c-0.1,0-0.1,0.1-0.1,0.2c0,0.2-0.1,0.3-0.1,0.5c0,0,0,0.1,0,0.1
		c0,0.2-0.1,0.2-0.3,0.1c0,0-0.1,0-0.1,0c-0.2-0.1-0.3-0.1-0.4,0.2c0,0.1-0.2,0.2-0.3,0.1c-0.1,0,0-0.1,0-0.2c0,0-0.1,0-0.1,0
		c-0.1,0.1-0.1,0-0.1,0c0-0.2-0.1-0.2-0.3-0.3c0.2-0.2,0.3-0.2,0.6,0c0-0.2-0.2-0.2-0.3-0.3c0,0,0,0,0,0c-0.2,0.2-0.2,0-0.3-0.1l0,0
		c0.2,0,0.3,0,0.5,0c0-0.1,0-0.2-0.2-0.1c-0.1,0.1-0.1-0.1-0.2-0.1c-0.1-0.1,0-0.1,0-0.1c0,0,0,0,0-0.1c-0.1,0-0.1,0-0.2,0
		c0-0.1,0-0.1,0-0.2c0.1-0.1,0-0.2,0-0.3c0.1-0.1,0.2,0,0.2-0.1c0.1,0,0.2,0.1,0.2-0.1c0,0,0,0,0,0C25,42,25,42,25,41.8
		c-0.1,0-0.1,0.1-0.2,0.1c-0.2,0-0.2,0-0.2,0.1c0,0.1,0,0.1-0.1,0.2c-0.1,0-0.2,0-0.2-0.1c0-0.2,0-0.3-0.1-0.5c0-0.1,0-0.2-0.1-0.3
		c-0.1,0-0.1,0.1-0.2,0C24,41.2,24,41.1,24,41c0-0.2,0-0.2-0.1-0.2c-0.1,0-0.1,0-0.1-0.1c0.1-0.1,0.2,0,0.3-0.1
		c-0.1,0-0.3,0-0.3-0.2c0-0.1,0-0.2,0.3-0.2c0-0.1-0.1,0-0.1-0.1c0-0.1,0-0.2,0-0.2c0.1-0.1,0.1-0.2,0.1-0.4c-0.1,0.1,0,0.1-0.1,0.2
		c0,0,0,0.1-0.1,0.1c-0.2,0-0.1,0.1-0.1,0.2c0,0.1,0,0.1,0,0.2c0,0.1,0,0.1-0.2,0.2C23.6,40.1,23.4,40,23.5,39.8
		C23.5,39.8,23.5,39.8,23.5,39.8C23.5,39.8,23.5,39.8,23.5,39.8C23.5,39.8,23.5,39.8,23.5,39.8z"/>
	<path class="st0" d="M36.3,11c0,2.1-0.9,3.9-2.2,5.5c-0.7,0.8-1.4,1.6-2.1,2.3c-0.4,0.4-1.2,1.7-1.9,1.5c-1.1-0.3,0.2-1.6,0.5-2
		c0.7-0.8,1.2-1.7,1.7-2.7c0.9-1.9,1.3-4.4-0.1-6.2c-1.3-1.8-2.9-1.8-4.6-0.7c-0.4,0.2-0.8,0.8-1.2,0.9C25.9,9.9,26,9.9,26,9.5
		c0-0.7,1.4-1.9,1.9-2.3C31.3,4.3,36.3,6.6,36.3,11C36.3,12.7,36.3,10.7,36.3,11z"/>
	<path class="st0" d="M17.3,12.2c0,2.1,0.9,4.1,2.1,5.7c0.4,0.5,1.6,1.4,1.2,2.1c-0.5,0.9-1.5-0.4-1.8-0.7
		c-2.7-2.8-6.4-6.7-4.1-10.9c1-1.8,3-2.7,5-2.5c1.6,0.2,4.2,1.8,4.6,3.5c0.2,1-0.6,0.2-1.1-0.2C22.5,8.6,21.6,8,20.7,8
		C18.7,7.9,17.3,10.4,17.3,12.2C17.3,13.7,17.3,11.5,17.3,12.2z"/>
	<path class="st0" d="M37.5,20.4c-1.3,0.1-2.5,0.4-3.6,0.8c-0.6,0.2-2.4,1.4-3,1.1c-1.1-0.6,3.1-3,3.7-3.3c2-1,4-1.7,6.2-1.3
		c2,0.4,3.6,1.6,4.1,3.6c0.6,2.2-0.3,3.9-2,5.3c-0.8,0.6-1.6,1.1-2.5,1.5c-0.6,0.2-1.8,0.6-0.8-0.3c1.4-1.3,3.4-2.3,2.7-4.6
		C41.6,21.3,39.3,20.5,37.5,20.4C36.6,20.5,37.6,20.4,37.5,20.4z"/>
	<path class="st0" d="M5.6,22.2c0-5,5.2-6,9-4.5c1.1,0.4,2.1,1,3.1,1.6c0.5,0.3,2.6,1.5,2.4,2.2c-0.2,0.7-4.4-1.3-5.2-1.5
		c-1.9-0.4-4.2-0.2-5.6,1.2c-1.7,1.7-0.9,3.9,0.8,5.2c0.2,0.2,1.7,0.9,1.4,1.3c-0.3,0.4-2.1-0.6-2.3-0.8C7.4,26,5.4,24.3,5.6,22.2
		C5.6,20.9,5.5,22.5,5.6,22.2z"/>
	<path class="st0" d="M37.2,39.6c-2.1,0-3.8-1.1-5.3-2.5c-0.7-0.8-1.4-1.6-2-2.5c-0.5-0.7-1.7-2.1-1.5-2.9c0.2-0.8,0.6-0.4,1.1,0.1
		c0.7,0.7,1.3,1.5,1.9,2.2c1.4,1.5,3.3,2.4,5.4,2.3c2.1-0.1,3.4-1.4,3.3-3.5c0-0.6-0.1-1.1-0.4-1.7c-0.1-0.2-0.5-0.8-0.5-1
		c0.2-0.9,1,0.4,1.4,0.8c1.2,1.5,2,3.6,1.3,5.5C41.2,38.3,39.2,39.7,37.2,39.6C35.6,39.6,38.2,39.7,37.2,39.6z"/>
	<path class="st0" d="M13.3,35.6c2.2,0,3.9-0.9,5.4-2.4c0.6-0.6,1.3-1.9,2-2.3c1.2-0.7,0.7,0.8,0.4,1.5c-1.7,3.2-4.8,7-8.8,6.6
		c-4.6-0.4-5.4-5.6-2.8-8.7c0.4-0.5,1.5-1.8,1.2-0.4c-0.2,0.8-0.7,1.5-0.7,2.4C9.7,34.3,11.2,35.7,13.3,35.6
		C14.4,35.6,12.5,35.6,13.3,35.6z"/>
	<path class="st0" d="M15.1,28.2c0-0.1,0.1-0.3,0.1-0.4c0.1-0.2,0.1-0.4,0.2-0.7c0.1-0.2,0-0.3-0.1-0.5c-0.3-0.2-0.5-0.4-0.8-0.6
		c-0.1-0.1-0.2-0.1-0.2-0.2c0-0.1,0.2-0.1,0.2-0.1c0.3-0.1,0.7-0.1,1-0.1c0.2,0,0.3-0.1,0.4-0.3c0.1-0.3,0.2-0.6,0.3-0.9
		c0-0.1,0.1-0.3,0.2-0.3c0.1,0,0.1,0.2,0.2,0.3c0.1,0.3,0.4,0.9,0.4,1c0.1,0.1,0.1,0.2,0.3,0.2c0.4,0,0.7,0,1.1,0.1
		c0,0,0.2,0,0.2,0.1c0,0.1,0,0.1-0.1,0.2c-0.3,0.2-0.6,0.5-0.8,0.7c-0.2,0.2-0.2,0.2-0.2,0.5c0.1,0.3,0.3,1,0.3,1.1
		c0,0.1,0,0.2,0,0.2c-0.1,0-0.1,0-0.2,0c-0.3-0.2-0.6-0.3-0.8-0.5c-0.3-0.2-0.4-0.2-0.7,0c-0.3,0.2-0.9,0.6-0.9,0.6
		C15.1,28.4,15.1,28.4,15.1,28.2z"/>
	<path class="st0" d="M34.1,27.6c-0.1,0-1.1,0.7-1.2,0.7c-0.1,0-0.1,0.1-0.2,0c-0.1,0,0-0.1,0-0.2c0.1-0.3,0.3-1.1,0.3-1.1
		c0.1-0.2,0-0.3-0.1-0.4c-0.3-0.2-0.9-0.7-1-0.8c-0.1-0.1-0.1-0.2,0.1-0.2c0.1,0,0.9-0.1,1.2-0.1c0.2,0,0.2-0.1,0.3-0.2
		c0.1-0.3,0.4-1.1,0.5-1.2c0.1-0.1,0.1-0.1,0.2,0c0.1,0.1,0.4,0.9,0.5,1.2c0.1,0.2,0.2,0.2,0.3,0.2c0.3,0,0.7,0,1,0
		c0,0,0.2,0,0.3,0.1c0,0.1,0,0.2-0.1,0.2c-0.3,0.2-0.6,0.5-0.9,0.7c-0.1,0.1-0.2,0.2-0.1,0.4c0.1,0.3,0.2,0.7,0.3,1.1
		c0,0.1,0.1,0.2,0,0.3c-0.1,0.1-0.2,0-0.3-0.1C34.9,28.1,34.1,27.6,34.1,27.6z"/>
	<path class="st1" d="M27.6,44.6c0.1,0,0.3,0,0.4,0.1c0,0,0.1,0,0.1,0c0.1,0,0.1,0,0.1,0.1c0,0.1,0,0.1-0.1,0.1c0,0,0,0-0.1,0
		C28,45,28,45,27.8,45c-0.2,0-0.3-0.1-0.3-0.2C27.4,44.6,27.4,44.6,27.6,44.6C27.6,44.6,27.6,44.6,27.6,44.6z"/>
	<path class="st1" d="M25.9,44.1c-0.1,0-0.2-0.2-0.4-0.2c0,0,0-0.1,0-0.1c0,0,0,0.1,0,0.1c0,0.1,0,0.1-0.1,0.1
		c-0.1-0.1-0.1-0.1-0.2-0.2c0,0,0.1-0.2,0.1-0.2c0.1,0,0.5,0.2,0.5,0.2C26,44,25.9,44,25.9,44.1L25.9,44.1z"/>
	<path class="st1" d="M26.2,43.4c0.1,0.1,0.1,0.2,0.1,0.3c0,0.1,0,0.1,0,0.2c0,0,0,0.1,0,0.1c0,0-0.1,0-0.1,0
		c-0.2,0-0.3-0.2-0.2-0.4C26.1,43.5,26.1,43.4,26.2,43.4z"/>
	<path class="st1" d="M23.3,35.1C23.3,35.1,23.3,35,23.3,35.1c0.1-0.1,0.2-0.1,0.2-0.1c0.1-0.1,0.1-0.1,0.1,0c0,0.1,0.1,0.1,0.1,0.1
		c0,0,0.1,0,0.1,0.1c0,0.1,0.1,0.1,0,0.2c-0.1,0.1-0.1-0.1-0.2-0.1c-0.1,0-0.1-0.1-0.1-0.1c0-0.1,0,0-0.1,0c0,0.1-0.1,0-0.1,0
		C23.2,35.2,23.3,35.2,23.3,35.1z"/>
	<path class="st1" d="M23.6,41.3C23.6,41.3,23.5,41.3,23.6,41.3c-0.1-0.2-0.1-0.3-0.1-0.5c0.1,0,0.2,0.1,0.2,0.1
		c0.1,0,0.1,0.2,0.1,0.3c0,0.1,0,0.1-0.1,0.1l0,0c0,0,0-0.1,0-0.1C23.6,41.2,23.6,41.3,23.6,41.3L23.6,41.3z"/>
	<path class="st1" d="M23,38.9c-0.1-0.1-0.1-0.1-0.1-0.2c0,0,0-0.1,0-0.1c0,0,0.1,0,0.1,0c0.1,0.1,0.1,0.2,0.2,0.3
		c0,0.1,0,0.1-0.1,0.1c0,0-0.1,0-0.1,0c0,0.1,0,0.1-0.1,0.1C22.8,39,22.8,39,23,38.9C23,38.9,23,38.9,23,38.9z"/>
	<path class="st1" d="M23.8,42.8c0.2,0,0.3,0.1,0.4,0.2c0,0,0,0.1,0,0.1c0,0-0.1,0.1-0.1,0.1c-0.1,0-0.1,0-0.2-0.1
		C23.9,43,23.9,42.9,23.8,42.8z"/>
	<path class="st1" d="M22.9,39.3c0.1,0,0.1,0,0.1,0c0.1,0,0.1-0.1,0.2,0c0.1,0.1,0,0.1,0,0.2c0,0.1-0.1,0.1-0.2,0.2
		c-0.1-0.1-0.2-0.1,0-0.2C23,39.4,23,39.3,22.9,39.3z"/>
	<path class="st1" d="M23.5,40.4c-0.1,0.1-0.1,0.1-0.2,0.2c-0.1,0.1-0.1,0-0.2,0c-0.1,0,0-0.1,0-0.1c0,0,0,0,0,0
		c0.1,0-0.1-0.1,0-0.1C23.4,40.3,23.4,40.3,23.5,40.4z"/>
	<path class="st1" d="M23.7,35.9c-0.1-0.1-0.2-0.2-0.3-0.2c0,0-0.1-0.1,0-0.1c0,0,0,0,0.1,0c0.1,0.1,0.1,0.1,0.2,0.1
		c0.1,0,0.1,0.1,0.1,0.1C23.8,35.9,23.8,35.9,23.7,35.9L23.7,35.9z"/>
	<path class="st1" d="M24.3,42.4C24.3,42.5,24.3,42.5,24.3,42.4c0,0.1,0,0.2,0,0.2c0,0-0.1,0-0.1,0c0-0.1,0-0.1-0.1-0.2
		c0,0,0-0.1,0-0.1c0-0.1,0.1-0.1,0.2-0.1C24.3,42.3,24.3,42.3,24.3,42.4C24.3,42.4,24.3,42.4,24.3,42.4z"/>
	<path class="st1" d="M23.9,42c0.1-0.1,0.1-0.2,0.1-0.3c0.2,0.1,0.2,0.2,0.2,0.3c-0.1,0-0.1,0-0.2,0C24.1,41.9,24,42,23.9,42z"/>
	<path class="st1" d="M23,38.4c0-0.1,0.1,0,0.2-0.1c0,0,0.1-0.1,0.1,0c0,0,0,0.1,0,0.1c0,0-0.1,0.1-0.1,0.1
		C23.1,38.5,23,38.5,23,38.4z"/>
	<path class="st1" d="M23.5,41.4c0,0.2,0,0.2-0.1,0.3C23.3,41.6,23.3,41.5,23.5,41.4z"/>
	<path class="st1" d="M23.6,41.7c0.1,0.2,0.1,0.3,0,0.5c0-0.1,0-0.2,0-0.2C23.6,41.8,23.6,41.8,23.6,41.7z"/>
	<path class="st1" d="M23.3,41c-0.1,0-0.1-0.1-0.1-0.1c0-0.1,0-0.1,0.1-0.1c0.1,0,0.1,0,0.1,0.1C23.3,40.8,23.3,40.9,23.3,41z"/>
	<path class="st1" d="M23.5,38c0,0.1,0,0.2,0,0.2c0,0-0.1,0-0.1,0c0,0,0-0.1,0-0.1C23.4,38.1,23.4,38,23.5,38z"/>
	<path class="st1" d="M23.7,41.3c0,0.1,0,0.2-0.2,0.2c-0.1-0.1,0-0.2,0-0.2l0,0C23.6,41.3,23.7,41.3,23.7,41.3L23.7,41.3z"/>
	<path class="st1" d="M23.6,38.4c0,0.1,0.1,0.1,0,0.2c-0.1,0-0.1-0.1-0.2-0.2C23.5,38.4,23.5,38.4,23.6,38.4L23.6,38.4z"/>
	<path class="st1" d="M27.9,45.4c-0.1,0-0.2-0.1-0.1-0.2C27.8,45.3,27.8,45.3,27.9,45.4L27.9,45.4z"/>
	<path class="st1" d="M23.6,38.4C23.6,38.4,23.6,38.3,23.6,38.4c0-0.1,0-0.1,0.1-0.1c0,0,0.1,0,0.1,0.1
		C23.7,38.3,23.7,38.4,23.6,38.4C23.6,38.4,23.6,38.4,23.6,38.4L23.6,38.4z"/>
	<path class="st1" d="M23.8,36.3C23.8,36.2,23.8,36.2,23.8,36.3c0-0.1-0.1-0.2,0-0.2c0,0,0,0,0,0C23.9,36.1,23.9,36.2,23.8,36.3z"/>
	<path class="st1" d="M24,33.1C24,33.1,24,33.2,24,33.1c0.1,0.1,0,0.1,0,0.1C23.9,33.2,23.9,33.2,24,33.1
		C23.9,33.2,23.9,33.1,24,33.1z"/>
	<path class="st1" d="M23.7,35.9c0,0.2-0.1,0.1-0.2,0.1C23.6,35.9,23.6,35.9,23.7,35.9L23.7,35.9z"/>
	<path class="st1" d="M23.5,37.5C23.5,37.5,23.5,37.5,23.5,37.5c0,0.1,0,0.1,0,0.1C23.4,37.6,23.4,37.6,23.5,37.5
		C23.4,37.5,23.5,37.5,23.5,37.5z"/>
	<path class="st1" d="M27.9,45.4C27.9,45.4,27.9,45.4,27.9,45.4c0.1,0,0.1-0.1,0.1,0S28,45.5,27.9,45.4
		C27.9,45.5,27.9,45.5,27.9,45.4L27.9,45.4z"/>
	<path class="st1" d="M23.7,36.4C23.8,36.4,23.8,36.4,23.7,36.4C23.8,36.4,23.8,36.4,23.7,36.4C23.8,36.4,23.8,36.5,23.7,36.4
		C23.8,36.5,23.8,36.4,23.7,36.4z"/>
	<path class="st1" d="M23.5,35.4C23.5,35.4,23.5,35.4,23.5,35.4c-0.1,0-0.1,0-0.1,0C23.4,35.4,23.5,35.4,23.5,35.4
		C23.5,35.4,23.5,35.4,23.5,35.4z"/>
	<path class="st1" d="M23.9,41.4C23.9,41.4,23.9,41.4,23.9,41.4C23.9,41.5,23.9,41.5,23.9,41.4C23.9,41.5,23.8,41.5,23.9,41.4
		C23.8,41.4,23.8,41.4,23.9,41.4z"/>
	<path class="st1" d="M23.6,36.2C23.7,36.2,23.7,36.2,23.6,36.2C23.7,36.2,23.6,36.3,23.6,36.2C23.6,36.3,23.6,36.3,23.6,36.2
		C23.6,36.2,23.6,36.2,23.6,36.2z"/>
	<path class="st1" d="M23.7,34.7C23.8,34.8,23.8,34.8,23.7,34.7c0.1,0.1,0,0.1,0,0.1C23.7,34.8,23.7,34.8,23.7,34.7
		C23.7,34.8,23.7,34.8,23.7,34.7z"/>
	<path class="st1" d="M23.5,34.7C23.5,34.8,23.5,34.8,23.5,34.7C23.4,34.7,23.4,34.7,23.5,34.7C23.4,34.7,23.5,34.7,23.5,34.7
		C23.5,34.7,23.5,34.7,23.5,34.7z"/>
	<path class="st1" d="M28.4,45C28.4,45,28.3,45,28.4,45C28.3,45,28.3,45,28.4,45C28.3,45,28.3,44.9,28.4,45C28.4,45,28.4,45,28.4,45
		z"/>
	<path class="st1" d="M24.4,43.1C24.4,43.1,24.4,43.1,24.4,43.1C24.4,43,24.4,43.1,24.4,43.1L24.4,43.1z"/>
	<path class="st2" d="M24.6,42.1c0-0.1,0-0.1,0.1-0.2c0-0.2,0-0.2,0.2-0.1c0.1,0,0.1-0.1,0.2-0.1c0,0.2,0,0.2-0.1,0.3c0,0,0,0,0,0
		C24.8,42.2,24.7,42.1,24.6,42.1C24.6,42.2,24.6,42.1,24.6,42.1z"/>
	<path class="st2" d="M26.9,44.1c0.1,0,0.1,0.1,0,0.1C26.9,44.3,26.9,44.2,26.9,44.1L26.9,44.1z"/>
	<path class="st2" d="M23.8,37C23.8,37.1,23.8,37.1,23.8,37C23.7,37.1,23.8,37,23.8,37C23.8,37,23.8,37,23.8,37z"/>
	<path class="st2" d="M23.5,39.8C23.5,39.8,23.5,39.8,23.5,39.8C23.5,39.8,23.5,39.8,23.5,39.8C23.5,39.8,23.5,39.8,23.5,39.8
		L23.5,39.8z"/>
	<path class="st2" d="M25.5,44C25.5,43.9,25.5,43.9,25.5,44C25.6,43.9,25.6,43.9,25.5,44C25.6,44,25.6,44,25.5,44z"/>
	<path class="st2" d="M23.7,41.3c0,0-0.1,0-0.1,0C23.6,41.3,23.6,41.2,23.7,41.3C23.7,41.2,23.8,41.3,23.7,41.3z"/>
</g>
</svg>
