<?xml version="1.0" encoding="utf-8"?>
<!-- Generator: Adobe Illustrator 23.0.0, SVG Export Plug-In . SVG Version: 6.00 Build 0)  -->
<svg version="1.1" id="Capa_1" xmlns="http://www.w3.org/2000/svg" xmlns:xlink="http://www.w3.org/1999/xlink" x="0px" y="0px"
	 viewBox="0 0 50 50" style="enable-background:new 0 0 50 50;" xml:space="preserve">
<style type="text/css">
	.st0{fill:#909BA0;}
	.st1{fill:#2E4661;}
	.st2{fill:#4C8F50;}
	.st3{opacity:0.12;fill:#272525;enable-background:new    ;}
	.st4{fill:#59595B;}
	.st5{fill:#B3D1E2;}
	.st6{opacity:0.31;fill:#FFFFFF;enable-background:new    ;}
	.st7{fill:#A36652;}
	.st8{fill:#6A8678;}
</style>
<title>btn_search</title>
<path class="st0" d="M31.4,28.4l3.1,2l-6.8,1.8L27,31.7c0,0,0,0-0.1,0.1l6.7,4.2l2.6-4.5L31.4,28.4z"/>
<path class="st1" d="M49.1,39l-11.9-7.5c0,0,0,0,0,0.1L37,31.9l7.1,4.4l-2.7,4.4l-7-4.4l-0.1,0.2c0,0-0.1,0.1-0.1,0.1l0,0l11.9,7.3
	c1,0.7,2.6,0.1,3.4-1.3l0,0C50.3,41.3,50.1,39.7,49.1,39L49.1,39z M41.4,40.7l2.7-4.4L37,31.9l-2.7,4.4L41.4,40.7L41.4,40.7z"/>
<path class="st2" d="M29.8,27.4L29.8,27.4l1.6,1L29.8,27.4L29.8,27.4z"/>
<path class="st3" d="M31.4,28.4l-1.6-1l0,0L31.4,28.4z"/>
<path class="st0" d="M28.7,29.5c-0.5,0.8-1.1,1.5-1.7,2.2l0.7,0.5l6.8-1.8l-3.1-2l-1.6-1C29.5,28.1,29.1,28.8,28.7,29.5z"/>
<path class="st3" d="M28.7,29.5c-0.5,0.8-1.1,1.5-1.7,2.2l0.7,0.5l6.8-1.8l-3.1-2l-1.6-1C29.5,28.1,29.1,28.8,28.7,29.5z"/>
<path class="st4" d="M12.4,34.2L12.4,34.2L12.4,34.2z M3,16.5c0.1-0.1,0.1-0.3,0.2-0.4C3.2,16.2,3.1,16.4,3,16.5L3,16.5z M11.7,34
	c-0.3-0.1-0.5-0.2-0.8-0.3C11.2,33.9,11.5,33.9,11.7,34z M3,16.7c-2.1,5.7-0.1,12.1,5,15.5c0.9,0.6,1.9,1.1,2.9,1.5
	C4,31.2,0.5,23.6,3,16.7z M24.9,31.5c-5.6,5.3-14.4,5-19.7-0.7c-1.5-1.6-2.6-3.5-3.2-5.7c-2.1-7.4,2.1-15.1,9.5-17.3
	c5.4-1.6,11.2,0.2,14.7,4.6c3.2,3.9,4,9.3,2.1,14l0.5,0.3v0l1,0.6c3.4-7.9-0.2-17-8.1-20.4s-17,0.2-20.4,8.1s0.2,17,8.1,20.4
	c6,2.6,13.1,1.1,17.6-3.7l-1.5-0.9C25.3,31,25.1,31.3,24.9,31.5L24.9,31.5z M26.9,31.6l1.9-4.8l-0.5-0.3c-0.6,1.6-1.6,3.1-2.8,4.4
	l1.5,0.9c0,0,0,0,0.1-0.1L26.9,31.6z M28.8,26.8l1,0.6v0L28.8,26.8L28.8,26.8z M29.8,27.4l-1-0.6l-1.9,4.8l0.1,0.1
	C28.2,30.4,29.1,29,29.8,27.4z"/>
<path class="st5" d="M17.1,34.4c3-0.4,5.7-1.8,7.8-4l-4.1-2.6l2.7-4.4l4.2,2.6c0.6-1.5,0.9-3.1,0.9-4.8c0-5.6-3.5-10.6-8.8-12.5
	C13.5,6.6,6.6,9.4,3.6,15.3c-0.1,0.3-0.2,0.5-0.3,0.8c0,0.1-0.1,0.3-0.2,0.4c0,0.1,0,0.1-0.1,0.2c-2.5,6.9,1,14.4,7.9,17
	c0,0,0.1,0,0.1,0c0.3,0.1,0.5,0.2,0.8,0.3c0.2,0.1,0.4,0.1,0.6,0.2h0C13.9,34.6,15.6,34.6,17.1,34.4L17.1,34.4z M26.3,17.5
	c0.6,0.4,0.7,1.1,0.4,1.7c-0.4,0.6-1.1,0.7-1.7,0.4c-0.6-0.4-0.7-1.1-0.4-1.7C24.9,17.3,25.7,17.2,26.3,17.5
	C26.2,17.5,26.2,17.5,26.3,17.5z M12.7,11.4c-4.1,1.2-6.9,5-6.8,9.3c0,1.2-1.9,1.1-1.9,0c0-0.5,0-0.9,0.1-1.4
	c0.6-4.8,4.1-8.7,8.8-9.8c4.8-1,9.7,1.2,12.2,5.4c0.6,1-1,1.9-1.6,0.9C21.3,12,16.9,10.2,12.7,11.4z M20.8,27.9l4.1,2.6
	c0.1-0.1,0.3-0.3,0.4-0.4c1-1.2,1.8-2.5,2.4-4l-4.2-2.6L20.8,27.9z"/>
<path class="st6" d="M23.5,15.7c0.6,1,2.3,0.2,1.7-0.9c-2.5-4.2-7.4-6.4-12.2-5.4c-4.7,1.1-8.2,5-8.8,9.8c-0.1,0.5-0.1,0.9-0.1,1.4
	c0,1.2,1.9,1.3,1.9,0C5.7,15.5,9.8,11.1,15,11C18.5,10.8,21.7,12.7,23.5,15.7L23.5,15.7z"/>
<path class="st5" d="M24.5,17.9c-0.4,0.6-0.2,1.3,0.4,1.7c0.6,0.4,1.3,0.2,1.7-0.4c0.4-0.6,0.2-1.3-0.4-1.7
	C25.7,17.2,24.9,17.3,24.5,17.9C24.6,17.9,24.6,17.9,24.5,17.9L24.5,17.9z"/>
<path class="st6" d="M24.5,17.9c-0.4,0.6-0.2,1.3,0.4,1.7c0.6,0.4,1.3,0.2,1.7-0.4c0.4-0.6,0.2-1.3-0.4-1.7
	C25.7,17.2,24.9,17.3,24.5,17.9C24.6,17.9,24.6,17.9,24.5,17.9L24.5,17.9z"/>
<path class="st7" d="M37.2,31.5c0.1-0.2,0-0.3-0.1-0.4L37,31c-0.2-0.1-0.4-0.1-0.6,0.1c0,0,0,0,0,0l-0.2,0.3l0.7,0.4L37.2,31.5z
	 M33.7,35.9l-0.1,0.3c-0.1,0.2,0,0.4,0.1,0.5v0c0.1,0.1,0.3,0.1,0.4,0l0.2-0.4L33.7,35.9z M37,31.9l-0.7-0.4l-2.6,4.5l0.6,0.4
	L37,31.9L37,31.9z M34.2,36.6l0.1-0.2l0,0l-0.2,0.4C34.2,36.7,34.2,36.6,34.2,36.6L34.2,36.6z M37,31.9L37,31.9l0.2-0.3
	c0,0,0,0,0-0.1L37,31.9z M34.3,36.3L34.3,36.3l2.7-4.4l0,0L34.3,36.3z"/>
<path class="st8" d="M28.9,21.6c0,1.6-0.4,3.1-1,4.6l0.4,0.2c0.7-1.6,1-3.4,1-5.1C29.3,21.5,29.1,21.7,28.9,21.6
	C28.9,21.7,28.9,21.7,28.9,21.6L28.9,21.6z M12.4,34.2L12.4,34.2c-0.2-0.1-0.4-0.1-0.6-0.2c-0.3-0.1-0.5-0.2-0.8-0.3
	c0,0-0.1,0-0.1,0c-1-0.4-2-0.9-2.9-1.5c-5-3.4-7.1-9.8-5-15.5c0-0.1,0-0.1,0.1-0.2c0.1-0.1,0.1-0.3,0.2-0.4C6,9.3,13.9,6,20.7,8.9
	c4.9,2,8.1,6.8,8.2,12.1c0.2,0,0.4,0.1,0.4,0.3c0,0,0,0,0,0.1c0-6.6-4.6-12.2-11-13.6C10.7,6.1,3.3,10.9,1.7,18.4S4.9,33.3,12.4,35
	c4.5,1,9.1-0.3,12.5-3.5c0.2-0.2,0.4-0.5,0.6-0.7l-0.4-0.3C21.8,33.9,16.9,35.3,12.4,34.2L12.4,34.2z M28.9,21c0,0.2,0,0.5,0,0.7
	c0.2,0,0.4-0.1,0.4-0.3c0-0.2-0.1-0.4-0.3-0.4C29,21,28.9,21,28.9,21z M26.9,28.3c-0.5,0.8-1.1,1.6-1.8,2.3l0.4,0.3
	c1.2-1.3,2.1-2.7,2.8-4.4l-0.4-0.2C27.6,27,27.3,27.6,26.9,28.3z M12.3,34.2c-0.2-0.1-0.4-0.1-0.6-0.2
	C11.9,34.1,12.1,34.1,12.3,34.2L12.3,34.2z M10.9,33.8c0,0-0.1,0-0.1,0C10.9,33.7,10.9,33.8,10.9,33.8z M3,16.7c0-0.1,0-0.1,0.1-0.2
	C3,16.6,3,16.7,3,16.7z M10.3,9.1c6.1-2.6,13.2-0.2,16.6,5.6c1.2,2,1.8,4.3,1.8,6.6c0-0.2,0.1-0.3,0.3-0.3c0,0,0,0,0,0
	c-0.1-7.4-6.1-13.3-13.5-13.2c-5.4,0-10.2,3.3-12.2,8.3c0.1-0.2,0.2-0.5,0.3-0.7C5,12.5,7.3,10.3,10.3,9.1L10.3,9.1z M17.1,34.4
	c-1.6,0.2-3.2,0.1-4.8-0.2c4.6,1.1,9.4-0.3,12.7-3.6l-0.2-0.1C22.8,32.6,20.1,34,17.1,34.4z M28.6,21.3c0,0.2,0.1,0.3,0.3,0.3
	c0-0.2,0-0.5,0-0.7C28.7,21,28.6,21.1,28.6,21.3C28.6,21.3,28.6,21.3,28.6,21.3z M28.6,21.3c0,1.6-0.3,3.2-0.9,4.8l0.2,0.1
	c0.6-1.5,0.9-3,1-4.6C28.7,21.6,28.6,21.5,28.6,21.3L28.6,21.3z M25.3,30.1c-0.1,0.1-0.3,0.3-0.4,0.4l0.2,0.1
	c1.2-1.2,2.2-2.7,2.8-4.3l-0.2-0.1C27.1,27.5,26.3,28.9,25.3,30.1L25.3,30.1z"/>
</svg>
