<?xml version="1.0" encoding="utf-8"?>
<!-- Generator: Adobe Illustrator 23.0.0, SVG Export Plug-In . SVG Version: 6.00 Build 0)  -->
<svg version="1.1" id="Capa_1" xmlns="http://www.w3.org/2000/svg" xmlns:xlink="http://www.w3.org/1999/xlink" x="0px" y="0px"
	 viewBox="0 0 50 50" style="enable-background:new 0 0 50 50;" xml:space="preserve">
<style type="text/css">
	.st0{fill:#FFEBED;}
	.st1{fill:#303E5C;}
	.st2{fill:#EE3380;}
	.st3{fill:#FFE6E6;}
	.st4{fill:#F09BA1;}
	.st5{fill:#FFC425;}
	.st6{fill:#CAEBFE;}
	.st7{fill:#FFFFFF;}
	.st8{fill:#FFDC19;}
</style>
<title>btn_actividades</title>
<g>
	<g>
		<g>
			<g>
				<g>
					<path class="st0" d="M44.9,32.8c-4.9,0.5-11.9-2.4-11.9-2.4l0.3-2.2c0.8-0.7,11,1.9,11,1.9s1.1-6.5,2.2-8.3
						c0.3-0.5-0.5-0.8-0.4-1.4c0.3-1.2,0.9-3,1.3-3c0.7,0,0,2,0.1,2.2c0.2-0.5,0.7-0.5,1.2-0.2c1.3,0.7,0.8,1.1,0.5,2
						c-0.1,0.2-0.6,0.7-0.6,0.8C48.6,23.7,47.7,32.5,44.9,32.8z"/>
					<path class="st1" d="M43.7,33.2c-4.8,0-10.6-2.4-10.9-2.5c-0.1-0.1-0.2-0.2-0.2-0.4l0.3-2.2c0-0.1,0-0.2,0.1-0.2
						c0.2-0.1,0.4-0.2,0.9-0.2c2.2,0,8.4,1.5,10,1.9c0.3-1.4,1.2-6.4,2.2-8c0,0,0,0,0,0c0,0-0.1-0.2-0.2-0.3c-0.2-0.2-0.4-0.6-0.3-1
						c0.2-0.8,0.8-3.2,1.6-3.2c0.2,0,0.4,0.1,0.5,0.2c0.3,0.3,0.2,0.9,0.1,1.6c0.3,0,0.6,0.1,0.9,0.2c1.3,0.7,1.1,1.3,0.8,2
						c-0.1,0.1-0.1,0.3-0.2,0.4c-0.1,0.2-0.3,0.5-0.6,0.8c0.1,1.6-0.5,7.6-2.4,10c-0.5,0.6-1,0.9-1.5,0.9
						C44.5,33.2,44.1,33.2,43.7,33.2z M33.3,30.2c1.2,0.5,6.2,2.4,10.4,2.4c0.4,0,0.8,0,1.2-0.1c0.4,0,0.7-0.3,1-0.7
						c1.8-2.2,2.4-8.5,2.2-9.6c0-0.1,0-0.2,0.1-0.3c0,0,0.1-0.1,0.1-0.1c0.3-0.4,0.4-0.5,0.5-0.5c0.1-0.2,0.1-0.3,0.2-0.4
						c0.2-0.6,0.3-0.7-0.5-1.1c-0.2-0.1-0.4-0.2-0.5-0.2c-0.1,0-0.2,0-0.2,0.2c0,0.1-0.2,0.2-0.3,0.2c0,0,0,0,0,0
						c-0.2,0-0.3-0.1-0.3-0.2c0-0.1,0-0.3,0.1-0.7c0.1-0.3,0.2-0.9,0.2-1.2c-0.2,0.4-0.7,1.5-0.9,2.6c0,0.1,0,0.2,0.2,0.4
						c0.2,0.2,0.4,0.6,0.2,1c-1.1,1.7-2.2,8.1-2.2,8.1c0,0.1-0.1,0.2-0.2,0.2c-0.1,0.1-0.2,0.1-0.3,0c-0.1,0-7.9-2-10.2-2
						c-0.2,0-0.3,0-0.3,0L33.3,30.2z"/>
				</g>
				<g>
					<path class="st0" d="M47.8,20.4c-0.2-0.1-1.4-1-1.5-0.8c-0.1,0.4-0.2,0.7-0.1,1c0.2,0.4,0.3,0.4,0.7,0.5c0.5,0.1,1.3,0.3,1.4,0
						C48.6,20.7,48.1,20.6,47.8,20.4z"/>
					<path class="st1" d="M47.9,21.6L47.9,21.6c-0.3,0-0.7-0.1-1.1-0.2l-0.1,0c-0.4-0.1-0.6-0.2-0.8-0.7c-0.2-0.4-0.1-0.9,0.1-1.3
						c0.1-0.2,0.2-0.3,0.4-0.3c0.3,0,0.6,0.2,1.3,0.7c0.1,0.1,0.2,0.2,0.3,0.2c0,0,0.1,0.1,0.1,0.1c0.3,0.1,0.9,0.4,0.6,1.1
						C48.6,21.5,48.3,21.6,47.9,21.6z M46.5,20c-0.1,0.2-0.1,0.4,0,0.5c0.1,0.2,0.1,0.2,0.4,0.3l0.1,0c0.2,0,0.6,0.1,0.9,0.1l0,0
						c0.1,0,0.1,0,0.1,0c0,0-0.2-0.1-0.3-0.2c-0.1,0-0.1-0.1-0.2-0.1c-0.1,0-0.1-0.1-0.3-0.2C47.1,20.4,46.8,20.1,46.5,20z"/>
				</g>
				<g>
					<path class="st1" d="M48.1,19.5c-0.1,0.2-0.3,0.5-0.5,0.7c-0.1,0.2,0.2,0.3,0.3,0.2c0.1-0.3,0.3-0.5,0.5-0.7
						C48.5,19.4,48.2,19.3,48.1,19.5z"/>
				</g>
				<g>
					<path class="st1" d="M48.9,19.6c-0.2,0.3-0.6,0.5-0.8,0.8c-0.1,0.2,0.1,0.4,0.2,0.2c0.3-0.3,0.6-0.5,0.8-0.8
						C49.3,19.7,49.1,19.5,48.9,19.6z"/>
				</g>
				<g>
					<path class="st1" d="M49.2,20.3c-0.2,0.2-0.5,0.3-0.8,0.4c-0.2,0.1-0.1,0.4,0.1,0.3c0.3-0.1,0.6-0.2,0.9-0.4
						C49.6,20.5,49.4,20.2,49.2,20.3z"/>
				</g>
			</g>
			<g>
				<path class="st0" d="M14.1,37.3c2-4.5,9.5-9.1,9.5-9.1l0.3,1.3c0.2,1-7.1,8.6-7.1,8.6s5.1,4.2,6,6.1c0.3,0.5,1-0.1,1.4,0.3
					c0.9,0.8,0.2,1.6,0,1.5c0.4,0.4,0.1,0.9-0.4,1.2c-1.3,0.8-1.4,0.1-2-0.6c-0.2-0.2-0.3-0.8-0.3-0.9C20.2,45.1,13,39.8,14.1,37.3z
					"/>
				<path class="st1" d="M23,47.9c-0.5,0-0.8-0.4-1-0.7c-0.1-0.1-0.2-0.2-0.3-0.3c-0.2-0.2-0.3-0.6-0.4-0.9
					c-1.4-0.7-6.4-4.3-7.4-7.1c-0.3-0.7-0.3-1.3-0.1-1.8c0.9-1.9,2.8-4.1,5.6-6.4c2.1-1.7,4-2.9,4-2.9c0.1-0.1,0.2-0.1,0.3,0
					c0.1,0,0.2,0.1,0.2,0.2l0.3,1.3c0,0,0,0,0,0c0.1,0.3,0.2,0.8-3.6,5c-1.4,1.6-2.8,3-3.4,3.6c1.1,0.9,5,4.3,5.8,5.9c0,0,0,0,0,0
					l0,0c0,0,0,0,0.1,0c0.1,0,0.1,0,0.2,0c0.1,0,0.2,0,0.3,0c0.3,0,0.5,0.1,0.7,0.3c0.7,0.7,0.6,1.3,0.5,1.6
					c-0.1,0.2-0.2,0.3-0.3,0.4c0,0.1,0,0.3,0,0.4c0,0.4-0.3,0.7-0.7,1C23.6,47.8,23.3,47.9,23,47.9z M23.5,28.7
					c-1.6,1-7.3,4.9-9,8.7c-0.1,0.3-0.1,0.7,0.1,1.2c1,2.6,6.1,6.3,7.2,6.7c0.1,0,0.2,0.1,0.2,0.2c0,0,0,0.1,0,0.1
					c0.1,0.5,0.2,0.6,0.2,0.7c0.1,0.1,0.2,0.3,0.3,0.4c0.2,0.3,0.3,0.4,0.5,0.4c0.2,0,0.4-0.1,0.7-0.3c0.3-0.2,0.4-0.4,0.4-0.5
					c0,0,0-0.1-0.1-0.2c-0.1-0.1-0.1-0.3,0-0.4c0.1-0.1,0.2-0.2,0.3-0.2c0,0,0.1-0.1,0.1-0.3c0-0.2-0.1-0.5-0.3-0.7
					c0,0-0.1-0.1-0.2-0.1c-0.1,0-0.2,0-0.2,0c-0.1,0-0.2,0-0.3,0c-0.3,0-0.6-0.1-0.7-0.4c-0.9-1.8-5.9-5.9-5.9-6
					c-0.1-0.1-0.1-0.2-0.1-0.2c0-0.1,0-0.2,0.1-0.3c3.4-3.5,6.9-7.5,7-8.3L23.5,28.7z"/>
			</g>
			<g>
				<polygon class="st2" points="38.6,48.1 17.8,47.9 24,26.9 33.2,27.1 				"/>
				<path class="st1" d="M38.6,48.5C38.6,48.5,38.6,48.5,38.6,48.5l-20.8-0.2c-0.1,0-0.2-0.1-0.3-0.1c-0.1-0.1-0.1-0.2-0.1-0.3
					l6.2-21c0-0.1,0.2-0.2,0.3-0.2l9.2,0.1c0.2,0,0.3,0.1,0.3,0.3L39,48c0,0.1,0,0.2-0.1,0.3C38.8,48.4,38.7,48.5,38.6,48.5z
					 M18.3,47.6l19.9,0.2l-5.3-20.4l-8.6-0.1L18.3,47.6z"/>
			</g>
			<g>
				<g>
					<path class="st0" d="M38,20.5c0,4.2-4.4,7.6-9.9,7.6c-5.5,0-9.9-3.4-9.9-7.6c0-4.2,4.4-7.6,9.9-7.6C33.6,12.9,38,16.3,38,20.5z
						"/>
					<path class="st1" d="M28.1,28.5c-5.6,0-10.2-3.6-10.2-8c0-4.4,4.6-8,10.2-8c5.6,0,10.2,3.6,10.2,8
						C38.3,24.9,33.7,28.5,28.1,28.5z M28.1,13.2c-5.3,0-9.5,3.3-9.5,7.3c0,4,4.3,7.3,9.5,7.3c5.3,0,9.6-3.3,9.6-7.3
						C37.6,16.5,33.4,13.2,28.1,13.2z"/>
				</g>
				<g>
					<g>
						<path class="st1" d="M24.8,19.2c0,0,0-0.1,0-0.1c0-0.2-0.1-0.4-0.2-0.5c-0.4-0.4-1.2-0.3-1.9-0.2c-0.2,0-0.5,0.1-0.6,0
							c-0.1-0.1-0.2-0.1-0.3,0c-0.1,0.1-0.1,0.3,0,0.4c0.2,0.2,0.5,0.2,1.1,0.1c0.1,0,0.3,0,0.4,0C23,19,23,19.2,23,19.4
							c0,0.6,0.4,1.1,0.9,1.1c0.5,0,0.9-0.5,0.9-1.1C24.8,19.3,24.8,19.3,24.8,19.2z"/>
					</g>
					<g>
						<path class="st3" d="M24.4,19.5c0,0.2-0.1,0.4-0.3,0.4c-0.1,0-0.3-0.2-0.3-0.4s0.1-0.4,0.3-0.4C24.3,19.1,24.4,19.3,24.4,19.5
							z"/>
					</g>
				</g>
				<g>
					<g>
						<path class="st1" d="M35,18.4c-0.1-0.1-0.2-0.1-0.3,0c-0.1,0-0.4,0-0.6,0c-0.7-0.1-1.5-0.1-1.9,0.2c-0.1,0.1-0.2,0.3-0.2,0.5
							c0,0,0,0.1,0,0.1c0,0.1,0,0.2,0,0.2c0,0.6,0.4,1.1,0.9,1.1c0.5,0,0.9-0.5,0.9-1.1c0-0.2-0.1-0.4-0.1-0.6c0.1,0,0.3,0,0.4,0
							c0.6,0.1,0.9,0.1,1.1-0.1C35.1,18.6,35.1,18.5,35,18.4z"/>
					</g>
					<g>
						<path class="st3" d="M32.3,19.5c0,0.2,0.1,0.4,0.3,0.4c0.1,0,0.3-0.2,0.3-0.4s-0.1-0.4-0.3-0.4C32.4,19.1,32.3,19.3,32.3,19.5
							z"/>
					</g>
				</g>
				<g>
					<path class="st1" d="M28.2,24.4c-0.9,0-1.7-0.1-2.3-0.3c-1-0.3-1.2-0.8-1.2-1.1c0-0.1,0.1-0.3,0.3-0.3c0.1,0,0.3,0.1,0.3,0.3
						c0,0.5,1.3,0.9,2.9,0.9c1.6,0,2.9-0.4,2.9-0.9c0-0.1,0.1-0.3,0.3-0.3c0.1,0,0.3,0.1,0.3,0.3C31.7,24,29.8,24.4,28.2,24.4z"/>
				</g>
				<g>
					<path class="st4" d="M23.4,23c0,0.5-0.4,0.9-0.9,0.9c-0.5,0-0.9-0.4-0.9-0.9c0-0.5,0.4-0.9,0.9-0.9C23,22.1,23.4,22.6,23.4,23z
						"/>
				</g>
				<g>
					<path class="st4" d="M34.6,23c0,0.5-0.4,0.9-0.9,0.9c-0.5,0-0.9-0.4-0.9-0.9c0-0.5,0.4-0.9,0.9-0.9
						C34.2,22.1,34.6,22.6,34.6,23z"/>
				</g>
			</g>
			<g>
				<g>
					<path class="st2" d="M28.2,9.5c0,0.8-0.6,1.4-1.4,1.4h-1.6c-0.8,0-1.4-0.6-1.4-1.4l0,0c0-0.8,0.6-1.4,1.4-1.4h1.6
						C27.6,8.1,28.2,8.7,28.2,9.5L28.2,9.5z"/>
					<path class="st1" d="M26.8,11.2h-1.6c-1,0-1.7-0.8-1.7-1.7s0.8-1.7,1.7-1.7h1.6c1,0,1.7,0.8,1.7,1.7S27.8,11.2,26.8,11.2z
						 M25.3,8.4c-0.6,0-1.1,0.5-1.1,1.1c0,0.6,0.5,1.1,1.1,1.1h1.6c0.6,0,1.1-0.5,1.1-1.1c0-0.6-0.5-1.1-1.1-1.1H25.3z"/>
				</g>
				<g>
					<path class="st5" d="M27.8,10.9c-2.8-1.2-5.8-0.2-7.6,2c-3.5,4.2-1.9,8.4-1.9,8.4c0.5-1.6,1.9-5.3,8.6-7.4
						C26.8,13.4,28,11,27.8,10.9C27.8,10.9,27.8,10.9,27.8,10.9z"/>
					<path class="st1" d="M18.3,22.3l-0.3-0.9c-0.1-0.2-1.7-4.4,2-8.7c1.4-1.7,3.4-2.6,5.5-2.6c0.8,0,1.6,0.2,2.4,0.5l0.1-0.1
						l0.1,0.1h0.1l0.1,0.5l-0.1,0.1c0,0.2-0.2,0.6-0.4,1.2c-0.2,0.5-0.6,1.4-0.6,1.7l0,0.3l-0.3,0.1c-6.7,2.1-7.9,5.8-8.3,7.1
						L18.3,22.3z M25.4,10.7c-1.8,0-3.7,0.9-4.9,2.4c-2.4,2.8-2.3,5.6-2.1,7c0.9-2.2,2.9-4.8,8.2-6.5c0.1-0.4,0.3-0.9,0.6-1.7
						c0.1-0.3,0.3-0.7,0.3-0.9C26.8,10.8,26.1,10.7,25.4,10.7z"/>
				</g>
				<g>
					<path class="st5" d="M27.6,10.9c2.8-1.2,7.5-0.2,9.3,2c3.5,4.2,1.1,8,1.1,8c-0.5-1.6-2.7-4.9-9.4-6.9
						C28.6,13.4,27.4,11,27.6,10.9C27.6,10.9,27.6,10.9,27.6,10.9z"/>
					<path class="st1" d="M37.9,21.6L37.7,21c-0.3-1-2-4.5-9.2-6.7l-0.3-0.1l0-0.3c0-0.2-0.4-1.1-0.6-1.7c-0.3-0.7-0.4-1.1-0.4-1.3
						c0-0.1,0-0.1,0-0.2l0.1-0.3l0.1,0l0.1-0.1l0.1,0.1c0.8-0.3,1.7-0.5,2.7-0.5c2.7,0,5.5,1.1,6.8,2.6c3.7,4.3,1.1,8.3,1.1,8.4
						L37.9,21.6z M28.9,13.7c6.1,2,8.3,4.9,9.1,6.4c0.5-1.2,1.2-3.9-1.4-6.9c-1.2-1.4-3.8-2.4-6.3-2.4c-0.9,0-1.7,0.1-2.4,0.4
						c0.1,0.2,0.2,0.6,0.3,0.9C28.6,12.7,28.8,13.3,28.9,13.7z"/>
				</g>
				<g>
					<path class="st5" d="M23.9,10.9c0-0.7,3.7-1.9,5.2-2c3.5-0.2,6.1,1.2,7.4,3c1.1,1.5,2.6,4.5,5.4,4.3c-1.3,3.2-7,0.7-12.1-1.4
						c-0.3-0.1-2.9-0.9-2.9-0.9L23.9,10.9z"/>
					<path class="st1" d="M39.1,18.2c-2.3,0-5.6-1.4-8.8-2.7l-0.7-0.3c-0.2-0.1-1.8-0.6-2.8-0.9l-0.1,0l-3.1-3.2l0-0.1
						c0-1.2,4.4-2.2,5.5-2.3c0.2,0,0.5,0,0.7,0c2.9,0,5.5,1.2,7,3.1c0.2,0.2,0.4,0.5,0.6,0.8c1,1.4,2.3,3.4,4.3,3.4
						c0.1,0,0.1,0,0.2,0l0.6,0l-0.2,0.5C41.6,17.6,40.6,18.2,39.1,18.2z M27,13.6c0.5,0.2,2.6,0.8,2.8,0.9l0.7,0.3
						c3.1,1.3,6.4,2.6,8.6,2.6c1,0,1.7-0.3,2.1-0.9c-2.2-0.2-3.5-2.2-4.5-3.7c-0.2-0.3-0.4-0.6-0.5-0.8c-1.3-1.8-3.7-2.9-6.5-2.9
						c-0.2,0-0.4,0-0.6,0c-1.5,0.1-4.2,1-4.8,1.5L27,13.6z"/>
				</g>
				<g>
					<path class="st5" d="M24.4,8.3c0.2-0.5,0.1-1.4,0.1-1.9c0-0.8,0-1.8,0.3-2.6c1-2.7,4.5-2.3,6.7-1c2.5,1.5,5.2,6.2,7.1,6
						c-0.7,0.5-1.5,0.7-2.5,0.5c-1.1-0.2-5.5-3.6-6.7-2.7c-0.5,0.3-1.6,1.7-2,1.6C27,8.1,24.4,8.3,24.4,8.3z"/>
					<path class="st1" d="M36.8,9.7c-0.2,0-0.5,0-0.7-0.1c-0.4-0.1-1.1-0.5-2.2-1.1c-1.3-0.8-3-1.8-3.9-1.8c-0.1,0-0.2,0-0.3,0.1
						C29.5,7,29.3,7.2,29,7.4c-0.7,0.7-1.2,1.1-1.6,1.1c0,0,0,0-0.1,0c0,0-0.1,0-0.4,0c-0.8,0-2.6,0.1-2.6,0.1l-0.5,0l0.2-0.5
						c0.1-0.3,0.1-0.8,0.1-1.2c0-0.2,0-0.4,0-0.6c0-0.2,0-0.4,0-0.6c0-0.7,0-1.5,0.3-2.2c0.5-1.5,1.8-2.3,3.5-2.3
						c1.2,0,2.6,0.4,3.8,1.1c1.1,0.7,2.2,1.9,3.2,3c1.3,1.5,2.7,3,3.7,2.9l1.2-0.1l-1,0.7C38.2,9.5,37.5,9.7,36.8,9.7z M29.9,6.1
						c1.1,0,2.8,1,4.2,1.9c0.8,0.5,1.7,1,2,1c0.6,0.1,1.1,0.1,1.5-0.1c-1-0.5-2.1-1.7-3.2-2.9c-1-1.1-2.1-2.3-3.1-2.9
						c-1.1-0.6-2.3-1-3.4-1c-1,0-2.3,0.3-2.8,1.8c-0.2,0.6-0.2,1.3-0.2,1.9c0,0.2,0,0.4,0,0.6c0,0.1,0,0.3,0,0.5c0,0.3,0,0.7,0,1
						c0.6,0,1.6-0.1,2.2-0.1c0.2,0,0.3,0,0.4,0c0.2-0.1,0.8-0.6,1.1-0.9c0.3-0.3,0.5-0.5,0.7-0.6C29.4,6.2,29.6,6.1,29.9,6.1z"/>
				</g>
				<g>
					<path class="st1" d="M40.9,16.5c-0.4,0.7-3-0.9-3.5-1.1c-1.7-0.8-2.8-2.2-4.3-3.3c-2.4-1.8-5.8-2-8.3-0.5
						c-0.2,0.1,0,0.4,0.2,0.3c1.6-1,3.5-1.2,5.3-0.7c1.9,0.4,3.1,1.7,4.6,2.9c1.1,1,2.5,1.6,3.8,2.2c0.2,0.1,0.4,0.2,0.7,0.3
						c-2.5-0.3-4.9-1.3-7.1-2.4c-1.9-1-4.1-2.2-6.2-1.5c-0.2,0.1-0.1,0.4,0.1,0.3c2.4-0.8,4.8,0.9,6.8,1.9c2.2,1.1,4.7,1.9,7.2,2.1
						c0.1,0,0.2-0.1,0.2-0.1c0.4,0,0.7,0,0.8-0.3C41.3,16.5,41,16.3,40.9,16.5z"/>
				</g>
				<g>
					<path class="st1" d="M25,12.8c-2.8,1-5.7,3.6-6.6,6.6c0.2-3.4,2.7-6.1,5.6-7.7c0.2-0.1,0-0.4-0.2-0.3c-3.2,1.9-6,5-5.8,8.9
						c0,0.2,0.3,0.2,0.3,0.1c0.1,0,0.2,0,0.2-0.1c0.6-3.1,3.7-6,6.6-7C25.3,13.1,25.2,12.8,25,12.8z"/>
				</g>
				<g>
					<path class="st1" d="M37.6,8.4C36.8,8.3,36,8,35.3,7.7c-0.9-0.4-1.5-1.2-2.2-1.9c-1-1.2-2.1-2.2-3.6-2.6
						c-2.6-0.5-3.7,2.6-4.1,4.5c0,0.2,0.3,0.3,0.3,0.1c0.3-1.2,0.6-2.4,1.4-3.4c1-1.2,2.4-1.1,3.7-0.4c1.3,0.7,2.1,2.1,3.2,3.1
						c0.9,0.9,2.2,1.3,3.4,1.5c-2.4,0-3.9-2.2-6-3.2c-1-0.5-1.9-0.6-2.9-0.2c-1,0.5-1.4,1.8-2.1,2.5c-0.2,0.2,0.1,0.4,0.2,0.2
						c0.8-0.8,1.1-1.9,2.1-2.5c1.2-0.8,2.9,0.2,3.9,1c1.6,1.1,2.9,2.5,5,2.4c0.2,0,0.2-0.2,0.1-0.3C37.8,8.7,37.8,8.5,37.6,8.4z"/>
				</g>
				<g>
					<path class="st1" d="M29.9,2.3c-2.8-2.4-5.1,3.8-5.4,5.7c0,0.2,0.3,0.3,0.3,0.1c0.3-1.7,2.3-7.6,4.8-5.6
						C29.9,2.7,30.1,2.4,29.9,2.3z"/>
				</g>
			</g>
		</g>
		<g>
			<g>
				<g>
					<path class="st6" d="M12,25.1c0,0.3-0.2,0.5-0.5,0.5h-1c-0.3,0-0.5-0.2-0.5-0.5l0,0c0-0.3,0.2-0.5,0.5-0.5h1
						C11.8,24.6,12,24.9,12,25.1L12,25.1z"/>
					<path class="st1" d="M11.6,25.9h-1c-0.4,0-0.8-0.3-0.8-0.8c0-0.4,0.3-0.8,0.8-0.8h1c0.4,0,0.8,0.3,0.8,0.8
						C12.3,25.6,12,25.9,11.6,25.9z M10.5,24.9c-0.1,0-0.2,0.1-0.2,0.2c0,0.1,0.1,0.2,0.2,0.2h1c0.1,0,0.2-0.1,0.2-0.2
						c0-0.1-0.1-0.2-0.2-0.2H10.5z"/>
				</g>
				<g>
					<path class="st7" d="M11,11.8c-2.5,0-4.6,2-4.6,4.5c0,0.9,0.3,1.8,0.8,2.5C7.9,20.1,9,21.4,9,22.9c0.7,0,1.3,0,2,0
						c0.7,0,1.3,0,2,0c0-1.5,1.1-2.8,1.9-4.1c0.4-0.8,0.8-1.6,0.8-2.5C15.6,13.8,13.5,11.8,11,11.8z"/>
					<path class="st1" d="M13.2,23.2H8.8v-0.3c0-1.1-0.7-2.1-1.3-3.1C7.3,19.5,7.1,19.2,7,19c-0.6-1-0.8-1.8-0.8-2.6
						c0-2.6,2.2-4.8,4.9-4.8c2.7,0,4.9,2.1,4.9,4.8c0,0.9-0.3,1.7-0.8,2.6c-0.2,0.3-0.3,0.6-0.5,0.8c-0.6,1-1.3,2-1.3,3.1V23.2z
						 M9.3,22.7h3.4c0.1-1.2,0.7-2.2,1.4-3.2c0.2-0.3,0.4-0.6,0.5-0.8c0.5-0.9,0.7-1.6,0.7-2.4c0-2.3-1.9-4.2-4.3-4.2
						c-2.4,0-4.3,1.9-4.3,4.2c0,0.8,0.2,1.5,0.7,2.4c0.2,0.3,0.3,0.6,0.5,0.8C8.5,20.5,9.2,21.5,9.3,22.7z"/>
				</g>
				<g>
					<path class="st6" d="M13.3,23.3c0,0.2-0.2,0.3-0.3,0.3H9.1c-0.2,0-0.3-0.2-0.3-0.3l0,0c0-0.2,0.2-0.3,0.3-0.3h3.8
						C13.1,22.9,13.3,23.1,13.3,23.3L13.3,23.3z"/>
					<path class="st1" d="M12.9,23.9H9.1c-0.3,0-0.6-0.3-0.6-0.6c0-0.3,0.3-0.6,0.6-0.6h3.8c0.3,0,0.6,0.3,0.6,0.6
						C13.5,23.6,13.2,23.9,12.9,23.9z M9.1,23.2C9,23.2,9,23.2,9.1,23.2c-0.1,0.1-0.1,0.2,0,0.2h3.8c0.1,0,0.1,0,0.1-0.1
						c0-0.1,0-0.1-0.1-0.1H9.1z"/>
				</g>
				<g>
					<path class="st6" d="M13,24c0,0.2-0.2,0.3-0.3,0.3H9.4C9.2,24.3,9,24.2,9,24l0,0c0-0.2,0.2-0.3,0.3-0.3h3.3
						C12.8,23.6,13,23.8,13,24L13,24z"/>
					<path class="st1" d="M12.6,24.6H9.4c-0.3,0-0.6-0.3-0.6-0.6s0.3-0.6,0.6-0.6h3.3c0.3,0,0.6,0.3,0.6,0.6S13,24.6,12.6,24.6z
						 M9.4,23.9C9.3,23.9,9.3,23.9,9.4,23.9c-0.1,0.1,0,0.2,0,0.2h3.3c0,0,0.1,0,0.1-0.1s0-0.1-0.1-0.1H9.4z"/>
				</g>
				<g>
					<path class="st6" d="M12.7,24.6c0,0.2-0.1,0.3-0.3,0.3H9.6c-0.2,0-0.3-0.1-0.3-0.3l0,0c0-0.2,0.1-0.3,0.3-0.3h2.8
						C12.6,24.3,12.7,24.5,12.7,24.6L12.7,24.6z"/>
					<path class="st1" d="M12.5,25.2H9.6c-0.3,0-0.5-0.3-0.5-0.6c0-0.3,0.2-0.6,0.5-0.6h2.8c0.3,0,0.5,0.3,0.5,0.6
						C13,25,12.8,25.2,12.5,25.2z M12.5,24.6l-2.8,0c0,0,0,0,0,0.1c0,0,0,0.1,0,0.1l2.8,0C12.5,24.7,12.5,24.7,12.5,24.6
						C12.5,24.6,12.5,24.6,12.5,24.6z"/>
				</g>
				<g>
					<path class="st1" d="M10,23.2c-0.1,0-0.3-0.1-0.3-0.3c0-0.1-0.1-5.2-0.6-6.8c0-0.1,0-0.3,0.2-0.3c0.1,0,0.3,0,0.3,0.2
						c0.6,1.7,0.7,6.8,0.7,7C10.3,23.1,10.2,23.2,10,23.2C10,23.2,10,23.2,10,23.2z"/>
				</g>
				<g>
					<path class="st1" d="M11.9,23.2C11.9,23.2,11.9,23.2,11.9,23.2c-0.1,0-0.3-0.1-0.3-0.3c0-0.2,0.1-5.3,0.7-7
						c0-0.1,0.2-0.2,0.3-0.2c0.1,0,0.2,0.2,0.2,0.3c-0.6,1.6-0.6,6.8-0.6,6.8C12.1,23.1,12,23.2,11.9,23.2z"/>
				</g>
				<g>
					<path class="st1" d="M10.3,16.8c-0.1,0-0.2,0-0.2-0.1c-0.2-0.2-0.1-0.4-0.1-0.6c-0.1,0-0.1,0-0.3,0.1c-0.1,0-0.2,0.1-0.3,0.1
						c-0.1,0-0.3-0.1-0.3-0.2c0-0.1,0.1-0.3,0.2-0.3c0.1,0,0.1,0,0.2-0.1c0.2-0.1,0.5-0.2,0.8,0c0.1,0,0.1-0.1,0.2-0.1
						c0.1,0,0.3,0,0.4,0.1c0.1,0,0.2-0.1,0.2-0.1c0.1,0,0.2,0,0.3,0.1c0.2-0.1,0.7-0.2,1-0.1c0.2,0.1,0.3,0.2,0.3,0.3
						c0,0.1,0,0.3-0.2,0.3c-0.1,0-0.3,0-0.3-0.1c-0.1-0.1-0.4,0-0.5,0c0,0.2,0,0.4-0.1,0.5c-0.1,0.1-0.2,0.1-0.3,0.1
						c-0.1,0-0.2,0-0.2-0.2c-0.1,0.1-0.3,0.1-0.4,0c0,0,0,0,0,0c0,0.1-0.1,0.1-0.1,0.1C10.4,16.8,10.3,16.8,10.3,16.8z"/>
				</g>
			</g>
			<g>
				<g>
					<path class="st1" d="M10.9,9.8c-0.1,0-0.3-0.1-0.3-0.3V5.8c0-0.1,0.1-0.3,0.3-0.3c0.1,0,0.3,0.1,0.3,0.3v3.7
						C11.2,9.6,11.1,9.8,10.9,9.8z"/>
				</g>
				<g>
					<path class="st1" d="M16.6,12.3c-0.1,0-0.1,0-0.2-0.1c-0.1-0.1-0.1-0.3,0-0.4l2.7-2.5c0.1-0.1,0.3-0.1,0.4,0
						c0.1,0.1,0.1,0.3,0,0.4l-2.7,2.5C16.7,12.3,16.6,12.3,16.6,12.3z"/>
				</g>
				<g>
					<path class="st1" d="M5.6,12.3c-0.1,0-0.1,0-0.2-0.1L2.7,9.7c-0.1-0.1-0.1-0.3,0-0.4c0.1-0.1,0.3-0.1,0.4,0l2.7,2.5
						c0.1,0.1,0.1,0.3,0,0.4C5.8,12.3,5.7,12.3,5.6,12.3z"/>
				</g>
				<g>
					<path class="st1" d="M7.8,10c-0.1,0-0.2,0-0.2-0.1L6.7,8.1C6.6,8,6.7,7.9,6.8,7.8c0.1-0.1,0.3,0,0.3,0.1l0.9,1.7
						C8.1,9.8,8.1,9.9,8,10C7.9,10,7.9,10,7.8,10z"/>
				</g>
				<g>
					<path class="st1" d="M14,10c0,0-0.1,0-0.1,0c-0.1-0.1-0.2-0.2-0.1-0.3l0.9-1.7c0.1-0.1,0.2-0.2,0.3-0.1
						c0.1,0.1,0.2,0.2,0.1,0.3l-0.9,1.7C14.2,10,14.1,10,14,10z"/>
				</g>
			</g>
		</g>
	</g>
	<g>
		<g>
			<path class="st2" d="M22.7,4.7l0-0.2c0.1,0,0.2-0.1,0.4-0.2C23,4.2,23,4,23,3.9c-0.1,0-0.3,0-0.4,0l-0.1-0.2
				c0-0.1-0.1-0.1-0.1-0.2c0.1-0.1,0.2-0.2,0.3-0.3c-0.1-0.1-0.2-0.3-0.3-0.4c-0.1,0-0.2,0.1-0.4,0.1l-0.1-0.2l-0.2-0.1
				c0.1-0.1,0.1-0.2,0.1-0.4c-0.1-0.1-0.3-0.2-0.4-0.3c-0.1,0.1-0.2,0.2-0.3,0.3c-0.1,0-0.1-0.1-0.2-0.1L20.8,2c0-0.1,0-0.3,0-0.4
				c-0.2,0-0.3-0.1-0.5-0.1c-0.1,0.1-0.1,0.2-0.2,0.4l-0.2,0l-0.2,0c0-0.1-0.1-0.2-0.2-0.4c-0.2,0-0.3,0.1-0.5,0.1
				c0,0.1,0,0.3,0,0.4l-0.2,0.1c-0.1,0-0.1,0.1-0.2,0.1c-0.1-0.1-0.2-0.2-0.3-0.3C18.2,2,18,2.1,17.9,2.2c0,0.1,0.1,0.2,0.1,0.4
				l-0.2,0.1l-0.1,0.2c-0.1-0.1-0.2-0.1-0.4-0.1c-0.1,0.1-0.2,0.3-0.3,0.4c0.1,0.1,0.2,0.2,0.3,0.3c0,0.1-0.1,0.1-0.1,0.2l-0.1,0.2
				c-0.1,0-0.3,0-0.4,0c0,0.2-0.1,0.3-0.1,0.5c0.1,0.1,0.2,0.1,0.4,0.2l0,0.2l0,0.2c-0.1,0-0.2,0.1-0.4,0.2c0,0.2,0.1,0.3,0.1,0.5
				c0.1,0,0.3,0,0.4,0l0.1,0.2c0,0.1,0.1,0.1,0.1,0.2c-0.1,0.1-0.2,0.2-0.3,0.3c0.1,0.1,0.2,0.3,0.3,0.4c0.1,0,0.2-0.1,0.4-0.1
				l0.1,0.2L18,6.9C18,7,17.9,7.1,17.9,7.2c0.1,0.1,0.3,0.2,0.4,0.3c0.1-0.1,0.2-0.2,0.3-0.3c0.1,0,0.1,0.1,0.2,0.1L19,7.4
				c0,0.1,0,0.3,0,0.4c0.2,0,0.3,0.1,0.5,0.1c0.1-0.1,0.1-0.2,0.2-0.4l0.2,0l0.2,0c0,0.1,0.1,0.2,0.2,0.4c0.2,0,0.3-0.1,0.5-0.1
				c0-0.1,0-0.3,0-0.4L21,7.3c0.1,0,0.1-0.1,0.2-0.1c0.1,0.1,0.2,0.2,0.3,0.3c0.1-0.1,0.3-0.2,0.4-0.3c0-0.1-0.1-0.2-0.1-0.4
				l0.2-0.1L22,6.6c0.1,0.1,0.2,0.1,0.4,0.1c0.1-0.1,0.2-0.3,0.3-0.4c-0.1-0.1-0.2-0.2-0.3-0.3c0-0.1,0.1-0.1,0.1-0.2l0.1-0.2
				c0.1,0,0.3,0,0.4,0c0-0.2,0.1-0.3,0.1-0.5C22.9,5,22.8,5,22.7,4.9L22.7,4.7z M21.3,6.1c-0.2,0.2-0.4,0.3-0.6,0.4
				c-0.2,0.1-0.5,0.1-0.7,0.1c-0.3,0-0.5-0.1-0.7-0.1c-0.2-0.1-0.5-0.2-0.6-0.4c-0.2-0.2-0.3-0.4-0.4-0.6C18,5.2,17.9,5,17.9,4.7
				c0-0.3,0.1-0.5,0.1-0.7c0.1-0.2,0.2-0.5,0.4-0.6c0.2-0.2,0.4-0.3,0.6-0.4c0.2-0.1,0.5-0.1,0.7-0.1c0.3,0,0.5,0.1,0.7,0.1
				c0.2,0.1,0.5,0.2,0.6,0.4c0.2,0.2,0.3,0.4,0.4,0.6c0.1,0.2,0.1,0.5,0.1,0.7c0,0.3-0.1,0.5-0.1,0.7C21.6,5.7,21.4,5.9,21.3,6.1z"
				/>
			<path class="st1" d="M20.3,8.1c-0.1,0-0.1,0-0.2-0.1c0-0.1-0.1-0.2-0.1-0.3l-0.1,0l-0.1,0c0,0.1-0.1,0.2-0.1,0.3
				c0,0.1-0.1,0.1-0.2,0.1C19.3,8,19.1,8,19,8c-0.1,0-0.1-0.1-0.1-0.2c0-0.1,0-0.2,0-0.3l-0.1,0c0,0-0.1,0-0.1,0
				c-0.1,0.1-0.1,0.1-0.2,0.2c-0.1,0-0.1,0.1-0.2,0c-0.2-0.1-0.3-0.2-0.4-0.3c-0.1,0-0.1-0.1-0.1-0.2c0-0.1,0.1-0.2,0.1-0.3
				l-0.1-0.1l-0.1-0.1c-0.1,0-0.2,0.1-0.3,0.1c-0.1,0-0.1,0-0.2-0.1c-0.1-0.1-0.2-0.3-0.3-0.4c0-0.1,0-0.1,0-0.2
				C17,6.1,17.1,6,17.2,6c0,0,0-0.1,0-0.1l0-0.1c-0.1,0-0.2,0-0.3,0c-0.1,0-0.1-0.1-0.2-0.1c0-0.2-0.1-0.3-0.1-0.5
				c0-0.1,0-0.1,0.1-0.2c0.1,0,0.2-0.1,0.3-0.1l0-0.1l0-0.1c-0.1,0-0.2-0.1-0.3-0.1c-0.1,0-0.1-0.1-0.1-0.2c0-0.2,0.1-0.4,0.1-0.5
				c0-0.1,0.1-0.1,0.2-0.1c0.1,0,0.2,0,0.3,0l0-0.1c0,0,0-0.1,0-0.1C17.1,3.4,17,3.3,17,3.3c0-0.1-0.1-0.1,0-0.2
				c0.1-0.2,0.2-0.3,0.3-0.4c0-0.1,0.1-0.1,0.2-0.1c0.1,0,0.2,0.1,0.3,0.1l0.1-0.1l0.1-0.1c0-0.1-0.1-0.2-0.1-0.3
				c0-0.1,0-0.1,0.1-0.2c0.1-0.1,0.3-0.2,0.4-0.3c0.1,0,0.1,0,0.2,0c0.1,0.1,0.1,0.1,0.2,0.2c0,0,0.1,0,0.1,0l0.1,0
				c0-0.1,0-0.2,0-0.3c0-0.1,0.1-0.1,0.1-0.2c0.2,0,0.3-0.1,0.5-0.1c0.1,0,0.1,0,0.2,0.1c0,0.1,0.1,0.2,0.1,0.3l0.1,0l0.1,0
				c0-0.1,0.1-0.2,0.1-0.3c0-0.1,0.1-0.1,0.2-0.1c0.2,0,0.4,0.1,0.5,0.1c0.1,0,0.1,0.1,0.1,0.2c0,0.1,0,0.2,0,0.3L21,2
				c0,0,0.1,0,0.1,0c0.1-0.1,0.1-0.1,0.2-0.2c0.1,0,0.1-0.1,0.2,0C21.7,1.9,21.8,2,22,2.1C22,2.1,22,2.2,22,2.3
				c0,0.1-0.1,0.2-0.1,0.3L22,2.6l0.1,0.1c0.1,0,0.2-0.1,0.3-0.1c0.1,0,0.1,0,0.2,0.1c0.1,0.1,0.2,0.3,0.3,0.4c0,0.1,0,0.1,0,0.2
				c-0.1,0.1-0.1,0.1-0.2,0.2c0,0,0,0.1,0,0.1l0,0.1c0.1,0,0.2,0,0.3,0c0.1,0,0.1,0.1,0.2,0.1c0,0.2,0.1,0.3,0.1,0.5
				c0,0.1,0,0.1-0.1,0.2c-0.1,0-0.2,0.1-0.3,0.1l0,0.1l0,0.1c0.1,0,0.2,0.1,0.3,0.1c0.1,0,0.1,0.1,0.1,0.2c0,0.2-0.1,0.4-0.1,0.5
				c0,0.1-0.1,0.1-0.2,0.1c-0.1,0-0.2,0-0.3,0l0,0.1c0,0,0,0.1,0,0.1c0.1,0.1,0.1,0.1,0.2,0.2c0,0.1,0.1,0.1,0,0.2
				c-0.1,0.2-0.2,0.3-0.3,0.4c0,0.1-0.1,0.1-0.2,0.1c-0.1,0-0.2-0.1-0.3-0.1L22,6.8l-0.1,0.1C22,7,22,7.1,22,7.2
				c0,0.1,0,0.1-0.1,0.2c-0.1,0.1-0.3,0.2-0.4,0.3c-0.1,0-0.1,0-0.2,0c-0.1-0.1-0.1-0.1-0.2-0.2c0,0-0.1,0-0.1,0l-0.1,0
				c0,0.1,0,0.2,0,0.3c0,0.1-0.1,0.1-0.1,0.2C20.6,8,20.5,8,20.3,8.1C20.3,8.1,20.3,8.1,20.3,8.1z M20.1,7.4c0.1,0,0.1,0,0.2,0.1
				c0,0.1,0.1,0.2,0.1,0.2c0.1,0,0.2,0,0.2,0c0-0.1,0-0.2,0-0.3c0-0.1,0-0.1,0.1-0.2l0.2-0.1c0,0,0.1,0,0.1-0.1l0.1,0
				c0.1,0,0.1,0,0.2,0c0.1,0.1,0.1,0.1,0.2,0.2c0.1,0,0.1-0.1,0.2-0.1c0-0.1-0.1-0.2-0.1-0.2c0-0.1,0-0.1,0-0.2l0.2-0.1l0.1-0.1
				c0-0.1,0.1-0.1,0.2,0c0.1,0,0.2,0.1,0.2,0.1c0-0.1,0.1-0.1,0.1-0.2c-0.1-0.1-0.1-0.1-0.2-0.2c-0.1-0.1-0.1-0.1,0-0.2l0-0.1
				c0,0,0-0.1,0.1-0.1l0.1-0.2c0-0.1,0.1-0.1,0.2-0.1c0,0,0,0,0,0l0,0c0.1,0,0.2,0,0.2,0c0-0.1,0-0.1,0-0.2c-0.1,0-0.2-0.1-0.2-0.1
				c-0.1,0-0.1-0.1-0.1-0.2l0-0.2l0-0.2c0-0.1,0-0.1,0.1-0.2c0.1,0,0.2-0.1,0.2-0.1c0-0.1,0-0.2,0-0.2c-0.1,0-0.2,0-0.2,0l0,0
				c0,0,0,0,0,0c-0.1,0-0.1,0-0.2-0.1l-0.1-0.2c0,0,0-0.1-0.1-0.1l0-0.1c0-0.1,0-0.1,0-0.2c0.1-0.1,0.1-0.1,0.2-0.2
				c0-0.1-0.1-0.1-0.1-0.2C22.2,3,22.2,3,22.1,3c-0.1,0-0.1,0-0.2,0l-0.1-0.2l-0.1-0.1c-0.1,0-0.1-0.1,0-0.2c0-0.1,0.1-0.2,0.1-0.2
				c-0.1,0-0.1-0.1-0.2-0.1c-0.1,0.1-0.1,0.1-0.2,0.2c-0.1,0.1-0.1,0.1-0.2,0l-0.1,0c0,0-0.1,0-0.1-0.1l-0.2-0.1
				c-0.1,0-0.1-0.1-0.1-0.2c0-0.1,0-0.2,0-0.3c-0.1,0-0.1,0-0.2,0c0,0.1-0.1,0.2-0.1,0.2c0,0.1-0.1,0.1-0.2,0.1l-0.2,0l-0.2,0
				c-0.1,0-0.1,0-0.2-0.1c0-0.1-0.1-0.2-0.1-0.2c-0.1,0-0.2,0-0.2,0c0,0.1,0,0.2,0,0.3c0,0.1,0,0.1-0.1,0.2l-0.2,0.1
				c0,0-0.1,0-0.1,0.1l-0.1,0c-0.1,0-0.1,0-0.2,0c-0.1-0.1-0.1-0.1-0.2-0.2c-0.1,0-0.1,0.1-0.2,0.1c0,0.1,0.1,0.2,0.1,0.2
				c0,0.1,0,0.1,0,0.2L18,2.9L17.9,3c0,0.1-0.1,0.1-0.2,0C17.6,3,17.5,3,17.4,3c0,0.1-0.1,0.1-0.1,0.2c0.1,0.1,0.1,0.1,0.2,0.2
				c0.1,0.1,0.1,0.1,0,0.2l0,0.1c0,0,0,0.1-0.1,0.1l-0.1,0.2C17.3,4,17.3,4,17.2,4c0,0,0,0,0,0l0,0c-0.1,0-0.2,0-0.2,0
				c0,0.1,0,0.1,0,0.2c0.1,0,0.2,0.1,0.2,0.1c0.1,0,0.1,0.1,0.1,0.2l0,0.2l0,0.2c0,0.1,0,0.1-0.1,0.2c-0.1,0-0.2,0.1-0.2,0.1
				c0,0.1,0,0.2,0,0.2c0.1,0,0.2,0,0.2,0l0,0c0,0,0,0,0,0c0.1,0,0.1,0,0.2,0.1l0.1,0.2c0,0,0,0.1,0.1,0.1l0,0.1c0,0.1,0,0.1,0,0.2
				c-0.1,0.1-0.1,0.1-0.2,0.2c0,0.1,0.1,0.1,0.1,0.2c0.1,0,0.2-0.1,0.2-0.1c0.1,0,0.1,0,0.2,0L18,6.6l0.1,0.1c0.1,0,0.1,0.1,0,0.2
				c0,0.1-0.1,0.2-0.1,0.2c0.1,0,0.1,0.1,0.2,0.1c0.1-0.1,0.1-0.1,0.2-0.2c0.1-0.1,0.1-0.1,0.2,0l0.1,0c0,0,0.1,0,0.1,0.1l0.2,0.1
				c0.1,0,0.1,0.1,0.1,0.2c0,0.1,0,0.2,0,0.3c0.1,0,0.1,0,0.2,0c0-0.1,0.1-0.2,0.1-0.2c0-0.1,0.1-0.1,0.2-0.1l0.2,0L20.1,7.4
				C20.1,7.4,20.1,7.4,20.1,7.4z M19.9,6.9c-0.3,0-0.6-0.1-0.8-0.2c-0.3-0.1-0.5-0.3-0.7-0.5C18.2,6,18,5.8,17.9,5.5
				c-0.1-0.3-0.2-0.5-0.2-0.8c0-0.3,0.1-0.6,0.2-0.8c0.1-0.3,0.3-0.5,0.5-0.7c0.2-0.2,0.4-0.4,0.7-0.5c0.3-0.1,0.5-0.2,0.8-0.2
				c0,0,0,0,0,0c0.3,0,0.6,0.1,0.8,0.2C21,2.9,21.2,3,21.4,3.2c0.2,0.2,0.4,0.4,0.5,0.7C22,4.2,22,4.4,22,4.7C22,5,22,5.3,21.8,5.5
				c-0.1,0.3-0.3,0.5-0.5,0.7c-0.2,0.2-0.4,0.4-0.7,0.5C20.4,6.8,20.2,6.9,19.9,6.9z M19.9,2.9c-0.2,0-0.5,0-0.7,0.1
				c-0.2,0.1-0.4,0.2-0.6,0.4c-0.2,0.2-0.3,0.4-0.4,0.6c-0.1,0.2-0.1,0.4-0.1,0.7c0,0.2,0,0.5,0.1,0.7c0.1,0.2,0.2,0.4,0.4,0.6
				c0.2,0.2,0.4,0.3,0.6,0.4c0.2,0.1,0.4,0.1,0.7,0.1c0.2,0,0.5,0,0.7-0.1C20.8,6.3,21,6.2,21.1,6c0.2-0.2,0.3-0.4,0.4-0.6
				c0.1-0.2,0.1-0.4,0.1-0.7c0-0.2,0-0.5-0.1-0.7c-0.1-0.2-0.2-0.4-0.4-0.6c-0.2-0.2-0.4-0.3-0.6-0.4C20.3,3,20.1,2.9,19.9,2.9z"/>
		</g>
		<g>
			<path class="st2" d="M6.2,26l0-0.2c0.1,0,0.2-0.1,0.4-0.2c0-0.2-0.1-0.3-0.1-0.5c-0.1,0-0.3,0-0.4,0L6,24.9
				c0-0.1-0.1-0.1-0.1-0.2C6,24.6,6,24.5,6.1,24.4C6,24.3,6,24.2,5.9,24c-0.1,0-0.2,0.1-0.4,0.1L5.3,24l-0.2-0.1
				c0.1-0.1,0.1-0.2,0.1-0.4c-0.1-0.1-0.3-0.2-0.4-0.3c-0.1,0.1-0.2,0.2-0.3,0.3c-0.1,0-0.1-0.1-0.2-0.1l-0.2-0.1c0-0.1,0-0.3,0-0.4
				c-0.2,0-0.3-0.1-0.5-0.1c-0.1,0.1-0.1,0.2-0.2,0.4l-0.2,0l-0.2,0c0-0.1-0.1-0.2-0.2-0.4c-0.2,0-0.3,0.1-0.5,0.1
				c0,0.1,0,0.3,0,0.4l-0.2,0.1c-0.1,0-0.1,0.1-0.2,0.1c-0.1-0.1-0.2-0.2-0.3-0.3c-0.1,0.1-0.3,0.2-0.4,0.3c0,0.1,0.1,0.2,0.1,0.4
				L1.3,24l-0.1,0.2C1.1,24.1,1,24.1,0.8,24c-0.1,0.1-0.2,0.3-0.3,0.4c0.1,0.1,0.2,0.2,0.3,0.3c0,0.1-0.1,0.1-0.1,0.2l-0.1,0.2
				c-0.1,0-0.3,0-0.4,0c0,0.2-0.1,0.3-0.1,0.5c0.1,0.1,0.2,0.1,0.4,0.2l0,0.2l0,0.2c-0.1,0-0.2,0.1-0.4,0.2c0,0.2,0.1,0.3,0.1,0.5
				c0.1,0,0.3,0,0.4,0l0.1,0.2c0,0.1,0.1,0.1,0.1,0.2c-0.1,0.1-0.2,0.2-0.3,0.3c0.1,0.1,0.2,0.3,0.3,0.4c0.1,0,0.2-0.1,0.4-0.1
				L1.3,28l0.2,0.1c-0.1,0.1-0.1,0.2-0.1,0.4c0.1,0.1,0.3,0.2,0.4,0.3c0.1-0.1,0.2-0.2,0.3-0.3c0.1,0,0.1,0.1,0.2,0.1l0.2,0.1
				c0,0.1,0,0.3,0,0.4c0.2,0,0.3,0.1,0.5,0.1c0.1-0.1,0.1-0.2,0.2-0.4l0.2,0l0.2,0c0,0.1,0.1,0.2,0.2,0.4c0.2,0,0.3-0.1,0.5-0.1
				c0-0.1,0-0.3,0-0.4l0.2-0.1c0.1,0,0.1-0.1,0.2-0.1c0.1,0.1,0.2,0.2,0.3,0.3c0.1-0.1,0.3-0.2,0.4-0.3c0-0.1-0.1-0.2-0.1-0.4
				L5.3,28l0.1-0.2c0.1,0.1,0.2,0.1,0.4,0.1C6,27.8,6,27.7,6.1,27.6C6,27.5,6,27.4,5.9,27.3c0-0.1,0.1-0.1,0.1-0.2L6,26.9
				c0.1,0,0.3,0,0.4,0c0-0.2,0.1-0.3,0.1-0.5c-0.1-0.1-0.2-0.1-0.4-0.2L6.2,26z M4.7,27.4c-0.2,0.2-0.4,0.3-0.6,0.4
				C3.9,27.9,3.6,28,3.3,28c-0.3,0-0.5-0.1-0.7-0.1c-0.2-0.1-0.5-0.2-0.6-0.4c-0.2-0.2-0.3-0.4-0.4-0.6c-0.1-0.2-0.1-0.5-0.1-0.7
				c0-0.3,0.1-0.5,0.1-0.7C1.6,25,1.8,24.8,2,24.6c0.2-0.2,0.4-0.3,0.6-0.4C2.8,24.1,3.1,24,3.3,24c0.3,0,0.5,0.1,0.7,0.1
				c0.2,0.1,0.5,0.2,0.6,0.4c0.2,0.2,0.3,0.4,0.4,0.6c0.1,0.2,0.1,0.5,0.1,0.7c0,0.3-0.1,0.5-0.1,0.7C5.1,27,4.9,27.2,4.7,27.4z"/>
			<path class="st1" d="M3.7,29.3c-0.1,0-0.1,0-0.2-0.1c0-0.1-0.1-0.2-0.1-0.3l-0.1,0l-0.1,0c0,0.1-0.1,0.2-0.1,0.3
				c0,0.1-0.1,0.1-0.2,0.1c-0.2,0-0.4-0.1-0.5-0.1c-0.1,0-0.1-0.1-0.1-0.2c0-0.1,0-0.2,0-0.3l-0.1,0c0,0-0.1,0-0.1,0
				C2,28.8,2,28.9,1.9,28.9c-0.1,0-0.1,0.1-0.2,0c-0.2-0.1-0.3-0.2-0.4-0.3c-0.1,0-0.1-0.1-0.1-0.2c0-0.1,0.1-0.2,0.1-0.3l-0.1-0.1
				L1.2,28c-0.1,0-0.2,0.1-0.3,0.1c-0.1,0-0.1,0-0.2-0.1c-0.1-0.1-0.2-0.3-0.3-0.4c0-0.1,0-0.1,0-0.2c0.1-0.1,0.1-0.1,0.2-0.2
				c0,0,0-0.1,0-0.1l0-0.1c-0.1,0-0.2,0-0.3,0c-0.1,0-0.1-0.1-0.2-0.1c0-0.2-0.1-0.3-0.1-0.5c0-0.1,0-0.1,0.1-0.2
				c0.1,0,0.2-0.1,0.3-0.1l0-0.1l0-0.1c-0.1,0-0.2-0.1-0.3-0.1C0,25.7,0,25.7,0,25.6c0-0.2,0.1-0.4,0.1-0.5C0.1,25,0.2,25,0.3,25
				c0.1,0,0.2,0,0.3,0l0-0.1c0,0,0-0.1,0-0.1c-0.1-0.1-0.1-0.1-0.2-0.2c0-0.1-0.1-0.1,0-0.2c0.1-0.2,0.2-0.3,0.3-0.4
				c0-0.1,0.1-0.1,0.2-0.1c0.1,0,0.2,0.1,0.3,0.1l0.1-0.1l0.1-0.1c0-0.1-0.1-0.2-0.1-0.3c0-0.1,0-0.1,0.1-0.2
				c0.1-0.1,0.3-0.2,0.4-0.3c0.1,0,0.1,0,0.2,0C2,23.1,2,23.2,2.1,23.3c0,0,0.1,0,0.1,0l0.1,0c0-0.1,0-0.2,0-0.3
				c0-0.1,0.1-0.1,0.1-0.2c0.2,0,0.3-0.1,0.5-0.1c0.1,0,0.1,0,0.2,0.1c0,0.1,0.1,0.2,0.1,0.3l0.1,0l0.1,0c0-0.1,0.1-0.2,0.1-0.3
				c0-0.1,0.1-0.1,0.2-0.1c0.2,0,0.4,0.1,0.5,0.1c0.1,0,0.1,0.1,0.1,0.2c0,0.1,0,0.2,0,0.3l0.1,0c0,0,0.1,0,0.1,0
				c0.1-0.1,0.1-0.1,0.2-0.2c0.1,0,0.1-0.1,0.2,0c0.2,0.1,0.3,0.2,0.4,0.3c0.1,0,0.1,0.1,0.1,0.2c0,0.1-0.1,0.2-0.1,0.3l0.1,0.1
				L5.5,24c0.1,0,0.2-0.1,0.3-0.1c0.1,0,0.1,0,0.2,0.1c0.1,0.1,0.2,0.3,0.3,0.4c0,0.1,0,0.1,0,0.2c-0.1,0.1-0.1,0.1-0.2,0.2
				c0,0,0,0.1,0,0.1l0,0.1c0.1,0,0.2,0,0.3,0c0.1,0,0.1,0.1,0.2,0.1c0,0.2,0.1,0.3,0.1,0.5c0,0.1,0,0.1-0.1,0.2
				c-0.1,0-0.2,0.1-0.3,0.1l0,0.1l0,0.1c0.1,0,0.2,0.1,0.3,0.1c0.1,0,0.1,0.1,0.1,0.2c0,0.2-0.1,0.4-0.1,0.5C6.6,27,6.5,27,6.4,27
				c-0.1,0-0.2,0-0.3,0l0,0.1c0,0,0,0.1,0,0.1c0.1,0.1,0.1,0.1,0.2,0.2c0,0.1,0.1,0.1,0,0.2C6.2,27.8,6.1,28,6,28.1
				c0,0.1-0.1,0.1-0.2,0.1c-0.1,0-0.2-0.1-0.3-0.1l-0.1,0.1l-0.1,0.1c0,0.1,0.1,0.2,0.1,0.3c0,0.1,0,0.1-0.1,0.2
				c-0.1,0.1-0.3,0.2-0.4,0.3c-0.1,0-0.1,0-0.2,0c-0.1-0.1-0.1-0.1-0.2-0.2c0,0-0.1,0-0.1,0l-0.1,0c0,0.1,0,0.2,0,0.3
				c0,0.1-0.1,0.1-0.1,0.2C4.1,29.3,3.9,29.3,3.7,29.3C3.7,29.3,3.7,29.3,3.7,29.3z M3.6,28.6c0.1,0,0.1,0,0.2,0.1
				c0,0.1,0.1,0.2,0.1,0.2c0.1,0,0.2,0,0.2,0c0-0.1,0-0.2,0-0.3c0-0.1,0-0.1,0.1-0.2l0.2-0.1c0,0,0.1,0,0.1-0.1l0.1,0
				c0.1,0,0.1,0,0.2,0c0.1,0.1,0.1,0.1,0.2,0.2c0.1,0,0.1-0.1,0.2-0.1c0-0.1-0.1-0.2-0.1-0.2c0-0.1,0-0.1,0-0.2l0.2-0.1l0.1-0.1
				c0-0.1,0.1-0.1,0.2,0c0.1,0,0.2,0.1,0.2,0.1c0-0.1,0.1-0.1,0.1-0.2c-0.1-0.1-0.1-0.1-0.2-0.2c-0.1-0.1-0.1-0.1,0-0.2l0-0.1
				c0,0,0-0.1,0.1-0.1l0.1-0.2c0-0.1,0.1-0.1,0.2-0.1c0,0,0,0,0,0h0c0.1,0,0.2,0,0.2,0c0-0.1,0-0.1,0-0.2c-0.1,0-0.2-0.1-0.2-0.1
				C6,26.3,6,26.3,6,26.2L6,26l0-0.2c0-0.1,0-0.1,0.1-0.2c0.1,0,0.2-0.1,0.2-0.1c0-0.1,0-0.2,0-0.2c-0.1,0-0.2,0-0.2,0h0
				c0,0,0,0,0,0c-0.1,0-0.1,0-0.2-0.1L5.8,25c0,0,0-0.1-0.1-0.1l0-0.1c0-0.1,0-0.1,0-0.2c0.1-0.1,0.1-0.1,0.2-0.2
				c0-0.1-0.1-0.1-0.1-0.2c-0.1,0-0.2,0.1-0.2,0.1c-0.1,0-0.1,0-0.2,0l-0.1-0.2L5.1,24c-0.1,0-0.1-0.1,0-0.2c0-0.1,0.1-0.2,0.1-0.2
				c-0.1,0-0.1-0.1-0.2-0.1c-0.1,0.1-0.1,0.1-0.2,0.2c-0.1,0.1-0.1,0.1-0.2,0l-0.1,0c0,0-0.1,0-0.1-0.1l-0.2-0.1
				c-0.1,0-0.1-0.1-0.1-0.2c0-0.1,0-0.2,0-0.3c-0.1,0-0.1,0-0.2,0c0,0.1-0.1,0.2-0.1,0.2c0,0.1-0.1,0.1-0.2,0.1l-0.2,0l-0.2,0
				c-0.1,0-0.1,0-0.2-0.1c0-0.1-0.1-0.2-0.1-0.2c-0.1,0-0.2,0-0.2,0c0,0.1,0,0.2,0,0.3c0,0.1,0,0.1-0.1,0.2l-0.2,0.1
				c0,0-0.1,0-0.1,0.1l-0.1,0c-0.1,0-0.1,0-0.2,0c-0.1-0.1-0.1-0.1-0.2-0.2c-0.1,0-0.1,0.1-0.2,0.1c0,0.1,0.1,0.2,0.1,0.2
				c0,0.1,0,0.1,0,0.2l-0.2,0.1l-0.1,0.1c0,0.1-0.1,0.1-0.2,0c-0.1,0-0.2-0.1-0.2-0.1c0,0.1-0.1,0.1-0.1,0.2
				c0.1,0.1,0.1,0.1,0.2,0.2C1,24.7,1,24.7,1,24.8l0,0.1c0,0,0,0.1-0.1,0.1l-0.1,0.2c0,0.1-0.1,0.1-0.2,0.1c0,0,0,0,0,0h0
				c-0.1,0-0.2,0-0.2,0c0,0.1,0,0.1,0,0.2c0.1,0,0.2,0.1,0.2,0.1c0.1,0,0.1,0.1,0.1,0.2l0,0.2l0,0.2c0,0.1,0,0.1-0.1,0.2
				c-0.1,0-0.2,0.1-0.2,0.1c0,0.1,0,0.2,0,0.2c0.1,0,0.2,0,0.2,0h0c0,0,0,0,0,0c0.1,0,0.1,0,0.2,0.1L0.9,27c0,0,0,0.1,0.1,0.1l0,0.1
				c0,0.1,0,0.1,0,0.2c-0.1,0.1-0.1,0.1-0.2,0.2c0,0.1,0.1,0.1,0.1,0.2c0.1,0,0.2-0.1,0.2-0.1c0.1,0,0.1,0,0.2,0l0.1,0.2L1.6,28
				c0.1,0,0.1,0.1,0,0.2c0,0.1-0.1,0.2-0.1,0.2c0.1,0,0.1,0.1,0.2,0.1c0.1-0.1,0.1-0.1,0.2-0.2c0.1-0.1,0.1-0.1,0.2,0l0.1,0
				c0,0,0.1,0,0.1,0.1l0.2,0.1c0.1,0,0.1,0.1,0.1,0.2c0,0.1,0,0.2,0,0.3c0.1,0,0.1,0,0.2,0c0-0.1,0.1-0.2,0.1-0.2
				c0-0.1,0.1-0.1,0.2-0.1l0.2,0L3.6,28.6C3.6,28.6,3.6,28.6,3.6,28.6z M3.3,28.1c-0.3,0-0.6-0.1-0.8-0.2c-0.3-0.1-0.5-0.3-0.7-0.5
				c-0.2-0.2-0.4-0.4-0.5-0.7c-0.1-0.3-0.2-0.5-0.2-0.8c0-0.3,0.1-0.6,0.2-0.8c0.1-0.3,0.3-0.5,0.5-0.7C2,24.3,2.3,24.1,2.5,24
				c0.3-0.1,0.5-0.2,0.8-0.2c0,0,0,0,0,0c0.3,0,0.6,0.1,0.8,0.2c0.3,0.1,0.5,0.3,0.7,0.5c0.2,0.2,0.4,0.4,0.5,0.7
				c0.1,0.3,0.2,0.5,0.2,0.8c0,0.3-0.1,0.6-0.2,0.8c-0.1,0.3-0.3,0.5-0.5,0.7c-0.2,0.2-0.4,0.4-0.7,0.5C3.9,28.1,3.6,28.1,3.3,28.1z
				 M3.3,24.2c-0.2,0-0.5,0-0.7,0.1c-0.2,0.1-0.4,0.2-0.6,0.4c-0.2,0.2-0.3,0.4-0.4,0.6c-0.1,0.2-0.1,0.4-0.1,0.7
				c0,0.2,0,0.5,0.1,0.7c0.1,0.2,0.2,0.4,0.4,0.6c0.2,0.2,0.4,0.3,0.6,0.4c0.2,0.1,0.4,0.1,0.7,0.1c0.2,0,0.5,0,0.7-0.1
				c0.2-0.1,0.4-0.2,0.6-0.4c0.2-0.2,0.3-0.4,0.4-0.6c0.1-0.2,0.1-0.4,0.1-0.7c0-0.2,0-0.5-0.1-0.7c-0.1-0.2-0.2-0.4-0.4-0.6
				c-0.2-0.2-0.4-0.3-0.6-0.4C3.8,24.3,3.6,24.2,3.3,24.2z"/>
		</g>
		<g>
			<path class="st8" d="M10.8,3.6l0-0.1c0.1,0,0.2-0.1,0.2-0.1c0-0.1,0-0.2-0.1-0.3c-0.1,0-0.2,0-0.3,0l-0.1-0.1c0,0,0-0.1-0.1-0.1
				c0.1-0.1,0.1-0.1,0.2-0.2c-0.1-0.1-0.1-0.2-0.2-0.3c-0.1,0-0.2,0.1-0.3,0.1l-0.1-0.1l-0.1-0.1c0-0.1,0.1-0.2,0.1-0.3
				C10.1,1.7,10,1.7,9.9,1.6C9.8,1.7,9.7,1.7,9.7,1.8c0,0-0.1,0-0.1-0.1L9.4,1.7c0-0.1,0-0.2,0-0.3C9.3,1.4,9.2,1.4,9,1.3
				C9,1.4,9,1.5,8.9,1.6l-0.1,0l-0.1,0c0-0.1-0.1-0.2-0.1-0.2c-0.1,0-0.2,0-0.3,0.1c0,0.1,0,0.2,0,0.3L8,1.7c0,0-0.1,0-0.1,0.1
				C7.8,1.7,7.8,1.7,7.7,1.6C7.6,1.7,7.5,1.7,7.4,1.8c0,0.1,0.1,0.2,0.1,0.3L7.4,2.2L7.3,2.3C7.2,2.2,7.1,2.2,7,2.2
				C6.9,2.3,6.9,2.4,6.8,2.5C6.9,2.5,6.9,2.6,7,2.7c0,0,0,0.1-0.1,0.1L6.9,2.9c-0.1,0-0.2,0-0.3,0c0,0.1-0.1,0.2-0.1,0.3
				c0.1,0,0.2,0.1,0.2,0.1l0,0.1l0,0.1c-0.1,0-0.2,0.1-0.2,0.1c0,0.1,0,0.2,0.1,0.3c0.1,0,0.2,0,0.3,0l0.1,0.1c0,0,0,0.1,0.1,0.1
				C6.9,4.5,6.9,4.6,6.8,4.7C6.9,4.8,6.9,4.9,7,5c0.1,0,0.2-0.1,0.3-0.1L7.4,5l0.1,0.1c0,0.1-0.1,0.2-0.1,0.3
				c0.1,0.1,0.2,0.1,0.3,0.2c0.1-0.1,0.1-0.1,0.2-0.2c0,0,0.1,0,0.1,0.1l0.1,0.1c0,0.1,0,0.2,0,0.3c0.1,0,0.2,0.1,0.3,0.1
				c0-0.1,0.1-0.2,0.1-0.2l0.1,0l0.1,0C9,5.6,9,5.7,9,5.8c0.1,0,0.2,0,0.3-0.1c0-0.1,0-0.2,0-0.3l0.1-0.1c0,0,0.1,0,0.1-0.1
				c0.1,0.1,0.1,0.1,0.2,0.2c0.1-0.1,0.2-0.1,0.3-0.2c0-0.1-0.1-0.2-0.1-0.3L10.2,5l0.1-0.1c0.1,0,0.2,0.1,0.3,0.1
				c0.1-0.1,0.1-0.2,0.2-0.3c-0.1-0.1-0.1-0.1-0.2-0.2c0,0,0-0.1,0.1-0.1l0.1-0.1c0.1,0,0.2,0,0.3,0C11,4.1,11,3.9,11,3.8
				c-0.1,0-0.2-0.1-0.2-0.1L10.8,3.6z M9.8,4.5C9.6,4.7,9.5,4.8,9.3,4.8C9.1,4.9,9,4.9,8.8,4.9c-0.2,0-0.4,0-0.5-0.1
				C8.1,4.8,7.9,4.7,7.8,4.5C7.7,4.4,7.6,4.3,7.5,4.1C7.4,3.9,7.4,3.7,7.4,3.6c0-0.2,0-0.4,0.1-0.5c0.1-0.2,0.2-0.3,0.3-0.4
				c0.1-0.1,0.3-0.2,0.4-0.3c0.2-0.1,0.3-0.1,0.5-0.1c0.2,0,0.4,0,0.5,0.1c0.2,0.1,0.3,0.2,0.4,0.3C9.9,2.7,10,2.9,10.1,3
				c0.1,0.2,0.1,0.3,0.1,0.5c0,0.2,0,0.4-0.1,0.5C10,4.3,9.9,4.4,9.8,4.5z"/>
			<path class="st1" d="M8.9,6L8.9,5.9c0,0,0-0.1-0.1-0.2l0,0l0,0c0,0.1,0,0.1-0.1,0.2L8.6,6L8.5,6c-0.1,0-0.3,0-0.4-0.1L8,5.9
				l0-0.1c0-0.1,0-0.1,0-0.2l0,0c0,0,0,0,0,0c0,0-0.1,0.1-0.1,0.1L7.7,5.7L7.6,5.7C7.5,5.6,7.4,5.5,7.3,5.5L7.2,5.4l0-0.1
				c0-0.1,0-0.1,0.1-0.2L7.2,5.1c-0.1,0-0.1,0-0.2,0.1L7,5.2L6.9,5.1C6.8,5,6.7,4.9,6.7,4.8L6.6,4.6l0.1-0.1c0,0,0.1-0.1,0.1-0.1
				c0,0,0,0,0,0l0,0c-0.1,0-0.1,0-0.2,0l-0.1,0l0-0.1c0-0.1-0.1-0.2-0.1-0.4l0-0.1l0.1-0.1c0,0,0.1,0,0.2-0.1l0,0l0,0
				c-0.1,0-0.1,0-0.2-0.1L6.4,3.4l0-0.1c0-0.1,0-0.3,0.1-0.4l0-0.1l0.1,0c0.1,0,0.1,0,0.2,0l0,0c0,0,0,0,0,0c0,0-0.1-0.1-0.1-0.1
				L6.6,2.5l0.1-0.1c0.1-0.1,0.1-0.2,0.2-0.3L7,2l0.1,0c0.1,0,0.1,0,0.2,0.1L7.3,2c0-0.1,0-0.1-0.1-0.2l0-0.1l0.1-0.1
				c0.1-0.1,0.2-0.1,0.3-0.2l0.1-0.1l0.1,0.1c0,0,0.1,0.1,0.1,0.1c0,0,0,0,0,0l0,0c0-0.1,0-0.1,0-0.2l0-0.1l0.1,0
				c0.1,0,0.2-0.1,0.4-0.1l0.1,0l0.1,0.1c0,0,0,0.1,0.1,0.2l0,0l0,0c0-0.1,0-0.1,0.1-0.2l0.1-0.1l0.1,0c0.1,0,0.3,0,0.4,0.1l0.1,0
				l0,0.1c0,0.1,0,0.1,0,0.2l0,0c0,0,0,0,0,0c0,0,0.1-0.1,0.1-0.1l0.1-0.1L10,1.5c0.1,0.1,0.2,0.1,0.3,0.2l0.1,0.1l0,0.1
				c0,0.1,0,0.1-0.1,0.2l0.1,0.1c0.1,0,0.1,0,0.2-0.1l0.1,0l0.1,0.1c0.1,0.1,0.1,0.2,0.2,0.3l0.1,0.1l-0.1,0.1c0,0-0.1,0.1-0.1,0.1
				c0,0,0,0,0,0l0,0c0.1,0,0.1,0,0.2,0l0.1,0l0,0.1c0,0.1,0.1,0.2,0.1,0.4l0,0.1l-0.1,0.1c0,0-0.1,0-0.2,0.1l0,0l0,0
				c0.1,0,0.1,0,0.2,0.1l0.1,0.1l0,0.1c0,0.1,0,0.3-0.1,0.4l0,0.1l-0.1,0c-0.1,0-0.1,0-0.2,0l0,0c0,0,0,0,0,0c0,0,0.1,0.1,0.1,0.1
				l0.1,0.1l-0.1,0.1c-0.1,0.1-0.1,0.2-0.2,0.3l-0.1,0.1l-0.1,0c-0.1,0-0.1,0-0.2-0.1l-0.1,0.1c0,0.1,0,0.1,0.1,0.2l0,0.1l-0.1,0.1
				c-0.1,0.1-0.2,0.1-0.3,0.2L9.9,5.7L9.8,5.7c0,0-0.1-0.1-0.1-0.1c0,0,0,0,0,0l0,0c0,0.1,0,0.1,0,0.2l0,0.1l-0.1,0
				C9.3,5.9,9.2,5.9,9.1,6L8.9,6z M9,5.4l0,0.1c0,0,0,0.1,0.1,0.1c0,0,0.1,0,0.1,0c0,0,0-0.1,0-0.1l0-0.1l0.3-0.1c0,0,0.1,0,0.1,0
				l0.2-0.1l0.1,0.1c0,0,0.1,0.1,0.1,0.1c0,0,0,0,0.1,0c0,0,0-0.1-0.1-0.1l0-0.1l0.2-0.2l0.2-0.2l0.1,0c0,0,0.1,0,0.1,0.1
				c0,0,0,0,0-0.1c0,0-0.1-0.1-0.1-0.1l-0.1-0.1l0.1-0.2c0,0,0-0.1,0-0.1L10.5,4l0.1,0c0,0,0.1,0,0.1,0c0,0,0-0.1,0-0.1
				c0,0-0.1,0-0.1-0.1l-0.1,0l0-0.3l0-0.3l0.1,0c0,0,0.1,0,0.1-0.1c0,0,0-0.1,0-0.1c0,0-0.1,0-0.1,0h-0.1L10.5,3l-0.1-0.1
				c0,0,0,0,0-0.1l-0.1-0.2l0.1-0.1c0,0,0.1-0.1,0.1-0.1c0,0,0,0,0-0.1c0,0-0.1,0-0.1,0.1l-0.1,0l-0.2-0.2L9.9,2.1l0-0.1
				c0,0,0-0.1,0.1-0.1c0,0,0,0-0.1,0c0,0-0.1,0.1-0.1,0.1L9.7,2L9.6,1.9c0,0-0.1,0-0.1,0L9.2,1.8l0-0.1c0,0,0-0.1,0-0.1
				c0,0-0.1,0-0.1,0c0,0,0,0.1-0.1,0.1l0,0.1l-0.3,0l-0.3,0l0-0.1c0,0,0-0.1-0.1-0.1c0,0-0.1,0-0.1,0c0,0,0,0.1,0,0.1l0,0.1L8.1,1.9
				c0,0-0.1,0-0.1,0L7.8,2L7.8,1.9c0,0-0.1-0.1-0.1-0.1c0,0,0,0-0.1,0c0,0,0,0.1,0.1,0.1l0,0.1L7.5,2.3L7.3,2.5l-0.1,0
				c0,0-0.1,0-0.1-0.1c0,0,0,0,0,0.1c0,0,0.1,0.1,0.1,0.1l0.1,0.1L7.1,2.8c0,0,0,0.1,0,0.1L7,3.1l-0.1,0c-0.1,0-0.1,0-0.1,0
				c0,0,0,0.1,0,0.1c0,0,0.1,0,0.1,0.1l0.1,0l0,0.3l0,0.3l-0.1,0c0,0-0.1,0-0.1,0.1c0,0,0,0.1,0,0.1c0,0,0.1,0,0.1,0H7l0.1,0.1
				l0.1,0.1c0,0,0,0,0,0.1l0.1,0.2L7.1,4.6c0,0-0.1,0.1-0.1,0.1c0,0,0,0,0,0.1c0,0,0.1,0,0.1-0.1l0.1,0l0.2,0.2L7.7,5l0,0.1
				c0,0,0,0.1-0.1,0.1c0,0,0,0,0.1,0c0,0,0.1-0.1,0.1-0.1l0.1-0.1L8,5.2c0,0,0.1,0,0.1,0l0.2,0.1l0,0.1c0,0,0,0.1,0,0.1
				c0,0,0.1,0,0.1,0c0,0,0-0.1,0.1-0.1l0-0.1l0.3,0L9,5.4z M8.8,5.1c-0.2,0-0.4,0-0.6-0.1C8,4.9,7.8,4.8,7.7,4.7
				C7.5,4.5,7.4,4.3,7.3,4.2C7.3,4,7.2,3.8,7.2,3.6c0-0.2,0-0.4,0.1-0.6c0.1-0.2,0.2-0.4,0.3-0.5C7.8,2.3,8,2.2,8.2,2.1
				C8.4,2.1,8.6,2,8.8,2h0c0.2,0,0.4,0,0.6,0.1c0.2,0.1,0.4,0.2,0.5,0.3C10,2.6,10.1,2.8,10.2,3c0.1,0.2,0.1,0.4,0.1,0.6
				c0,0.2,0,0.4-0.1,0.6C10.1,4.3,10,4.5,9.9,4.7C9.7,4.8,9.6,4.9,9.4,5C9.2,5.1,9,5.1,8.8,5.1z M8.8,2.4c-0.2,0-0.3,0-0.5,0.1
				C8.2,2.5,8,2.6,7.9,2.7C7.8,2.8,7.7,3,7.7,3.1C7.6,3.3,7.6,3.4,7.6,3.6c0,0.2,0,0.3,0.1,0.5c0.1,0.1,0.2,0.3,0.3,0.4
				C8,4.5,8.2,4.6,8.3,4.7c0.1,0.1,0.3,0.1,0.5,0.1c0.2,0,0.3,0,0.5-0.1c0.1-0.1,0.3-0.2,0.4-0.3C9.7,4.3,9.8,4.2,9.9,4
				C10,3.9,10,3.7,10,3.6c0-0.2,0-0.3-0.1-0.5C9.8,3,9.7,2.8,9.6,2.7C9.5,2.6,9.4,2.5,9.2,2.5C9.1,2.4,8.9,2.4,8.8,2.4z"/>
		</g>
		<g>
			<path class="st8" d="M43.3,25.1l0-0.1c0.1,0,0.2-0.1,0.2-0.1c0-0.1,0-0.2-0.1-0.3c-0.1,0-0.2,0-0.3,0l-0.1-0.1c0,0,0-0.1-0.1-0.1
				c0.1-0.1,0.1-0.1,0.2-0.2c-0.1-0.1-0.1-0.2-0.2-0.3c-0.1,0-0.2,0.1-0.3,0.1l-0.1-0.1l-0.1-0.1c0-0.1,0.1-0.2,0.1-0.3
				c-0.1-0.1-0.2-0.1-0.3-0.2c-0.1,0.1-0.1,0.1-0.2,0.2c0,0-0.1,0-0.1-0.1l-0.1-0.1c0-0.1,0-0.2,0-0.3c-0.1,0-0.2-0.1-0.3-0.1
				c0,0.1-0.1,0.2-0.1,0.2l-0.1,0l-0.1,0c0-0.1-0.1-0.2-0.1-0.2c-0.1,0-0.2,0-0.3,0.1c0,0.1,0,0.2,0,0.3l-0.1,0.1c0,0-0.1,0-0.1,0.1
				c-0.1-0.1-0.1-0.1-0.2-0.2c-0.1,0.1-0.2,0.1-0.3,0.2c0,0.1,0.1,0.2,0.1,0.3l-0.1,0.1l-0.1,0.1c-0.1,0-0.2-0.1-0.3-0.1
				c-0.1,0.1-0.1,0.2-0.2,0.3c0.1,0.1,0.1,0.1,0.2,0.2c0,0,0,0.1-0.1,0.1l-0.1,0.1c-0.1,0-0.2,0-0.3,0c0,0.1-0.1,0.2-0.1,0.3
				c0.1,0,0.2,0.1,0.2,0.1l0,0.1l0,0.1c-0.1,0-0.2,0.1-0.2,0.1c0,0.1,0,0.2,0.1,0.3c0.1,0,0.2,0,0.3,0l0.1,0.1c0,0,0,0.1,0.1,0.1
				c-0.1,0.1-0.1,0.1-0.2,0.2c0.1,0.1,0.1,0.2,0.2,0.3c0.1,0,0.2-0.1,0.3-0.1l0.1,0.1l0.1,0.1c0,0.1-0.1,0.2-0.1,0.3
				c0.1,0.1,0.2,0.1,0.3,0.2c0.1-0.1,0.1-0.1,0.2-0.2c0,0,0.1,0,0.1,0.1l0.1,0.1c0,0.1,0,0.2,0,0.3c0.1,0,0.2,0.1,0.3,0.1
				c0-0.1,0.1-0.2,0.1-0.2l0.1,0l0.1,0c0,0.1,0.1,0.2,0.1,0.2c0.1,0,0.2,0,0.3-0.1c0-0.1,0-0.2,0-0.3l0.1-0.1c0,0,0.1,0,0.1-0.1
				c0.1,0.1,0.1,0.1,0.2,0.2c0.1-0.1,0.2-0.1,0.3-0.2c0-0.1-0.1-0.2-0.1-0.3l0.1-0.1l0.1-0.1c0.1,0,0.2,0.1,0.3,0.1
				c0.1-0.1,0.1-0.2,0.2-0.3c-0.1-0.1-0.1-0.1-0.2-0.2c0,0,0-0.1,0.1-0.1l0.1-0.1c0.1,0,0.2,0,0.3,0c0-0.1,0.1-0.2,0.1-0.3
				c-0.1,0-0.2-0.1-0.2-0.1L43.3,25.1z M42.3,26.1c-0.1,0.1-0.3,0.2-0.4,0.3c-0.2,0.1-0.3,0.1-0.5,0.1c-0.2,0-0.4,0-0.5-0.1
				c-0.2-0.1-0.3-0.2-0.4-0.3c-0.1-0.1-0.2-0.3-0.3-0.4C40,25.5,40,25.3,40,25.1c0-0.2,0-0.4,0.1-0.5c0.1-0.2,0.2-0.3,0.3-0.4
				c0.1-0.1,0.3-0.2,0.4-0.3c0.2-0.1,0.3-0.1,0.5-0.1c0.2,0,0.4,0,0.5,0.1c0.2,0.1,0.3,0.2,0.4,0.3c0.1,0.1,0.2,0.3,0.3,0.4
				c0.1,0.2,0.1,0.3,0.1,0.5c0,0.2,0,0.4-0.1,0.5C42.5,25.8,42.4,26,42.3,26.1z"/>
			<path class="st1" d="M41.5,27.5l-0.1-0.1c0,0,0-0.1-0.1-0.2l0,0l0,0c0,0.1,0,0.1-0.1,0.2l-0.1,0.1l-0.1,0c-0.1,0-0.3,0-0.4-0.1
				l-0.1,0l0-0.1c0-0.1,0-0.1,0-0.2l0,0c0,0,0,0,0,0c0,0-0.1,0.1-0.1,0.1l-0.1,0.1l-0.1-0.1c-0.1-0.1-0.2-0.1-0.3-0.2l-0.1-0.1
				l0-0.1c0-0.1,0-0.1,0.1-0.2l-0.1-0.1c-0.1,0-0.1,0-0.2,0.1l-0.1,0l-0.1-0.1c-0.1-0.1-0.1-0.2-0.2-0.3l-0.1-0.1l0.1-0.1
				c0,0,0.1-0.1,0.1-0.1c0,0,0,0,0,0l0,0c-0.1,0-0.1,0-0.2,0l-0.1,0l0-0.1c0-0.1-0.1-0.2-0.1-0.4l0-0.1l0.1-0.1c0,0,0.1,0,0.2-0.1
				l0,0l0,0c-0.1,0-0.1,0-0.2-0.1l-0.1-0.1l0-0.1c0-0.1,0-0.3,0.1-0.4l0-0.1l0.1,0c0.1,0,0.1,0,0.2,0l0,0c0,0,0,0,0,0
				c0,0-0.1-0.1-0.1-0.1L39.2,24l0.1-0.1c0.1-0.1,0.1-0.2,0.2-0.3l0.1-0.1l0.1,0c0.1,0,0.1,0,0.2,0.1l0.1-0.1c0-0.1,0-0.1-0.1-0.2
				l0-0.1l0.1-0.1c0.1-0.1,0.2-0.1,0.3-0.2l0.1-0.1l0.1,0.1c0,0,0.1,0.1,0.1,0.1c0,0,0,0,0,0l0,0c0-0.1,0-0.1,0-0.2l0-0.1l0.1,0
				c0.1,0,0.2-0.1,0.4-0.1l0.1,0l0.1,0.1c0,0,0,0.1,0.1,0.2l0,0l0,0c0-0.1,0-0.1,0.1-0.2l0.1-0.1l0.1,0c0.1,0,0.3,0,0.4,0.1l0.1,0
				l0,0.1c0,0.1,0,0.1,0,0.2l0,0c0,0,0,0,0,0c0,0,0.1-0.1,0.1-0.1l0.1-0.1l0.1,0.1c0.1,0.1,0.2,0.1,0.3,0.2l0.1,0.1l0,0.1
				c0,0.1,0,0.1-0.1,0.2l0.1,0.1c0.1,0,0.1,0,0.2-0.1l0.1,0l0.1,0.1c0.1,0.1,0.1,0.2,0.2,0.3l0.1,0.1l-0.1,0.1c0,0-0.1,0.1-0.1,0.1
				c0,0,0,0,0,0l0,0c0.1,0,0.1,0,0.2,0l0.1,0l0,0.1c0,0.1,0.1,0.2,0.1,0.4l0,0.1L43.6,25c0,0-0.1,0-0.2,0.1l0,0l0,0
				c0.1,0,0.1,0,0.2,0.1l0.1,0.1l0,0.1c0,0.1,0,0.3-0.1,0.4l0,0.1l-0.1,0c-0.1,0-0.1,0-0.2,0l0,0c0,0,0,0,0,0c0,0,0.1,0.1,0.1,0.1
				l0.1,0.1l-0.1,0.1c-0.1,0.1-0.1,0.2-0.2,0.3l-0.1,0.1l-0.1,0c-0.1,0-0.1,0-0.2-0.1l-0.1,0.1c0,0.1,0,0.1,0.1,0.2l0,0.1L42.8,27
				c-0.1,0.1-0.2,0.1-0.3,0.2l-0.1,0.1l-0.1-0.1c0,0-0.1-0.1-0.1-0.1c0,0,0,0,0,0l0,0c0,0.1,0,0.1,0,0.2l0,0.1l-0.1,0
				c-0.1,0-0.2,0.1-0.4,0.1L41.5,27.5z M41.6,26.9l0,0.1c0,0,0,0.1,0.1,0.1c0,0,0.1,0,0.1,0c0,0,0-0.1,0-0.1l0-0.1l0.3-0.1
				c0,0,0.1,0,0.1,0l0.2-0.1l0.1,0.1c0,0,0.1,0.1,0.1,0.1c0,0,0,0,0.1,0c0,0,0-0.1-0.1-0.1l0-0.1l0.2-0.2l0.2-0.2l0.1,0
				c0,0,0.1,0,0.1,0.1c0,0,0,0,0-0.1c0,0-0.1-0.1-0.1-0.1L42.9,26l0.1-0.2c0,0,0-0.1,0-0.1l0.1-0.2l0.1,0c0,0,0.1,0,0.1,0
				c0,0,0-0.1,0-0.1c0,0-0.1,0-0.1-0.1l-0.1,0l0-0.3l0-0.3l0.1,0c0,0,0.1,0,0.1-0.1c0,0,0-0.1,0-0.1c0,0-0.1,0-0.1,0h-0.1l-0.1-0.1
				L43,24.4c0,0,0,0,0-0.1l-0.1-0.2l0.1-0.1c0,0,0.1-0.1,0.1-0.1c0,0,0,0,0-0.1c0,0-0.1,0-0.1,0.1l-0.1,0l-0.2-0.2l-0.2-0.2l0-0.1
				c0,0,0-0.1,0.1-0.1c0,0,0,0-0.1,0c0,0-0.1,0.1-0.1,0.1l-0.1,0.1l-0.2-0.1c0,0-0.1,0-0.1,0l-0.2-0.1l0-0.1c0,0,0-0.1,0-0.1
				c0,0-0.1,0-0.1,0c0,0,0,0.1-0.1,0.1l0,0.1l-0.3,0l-0.3,0l0-0.1c0,0,0-0.1-0.1-0.1c0,0-0.1,0-0.1,0c0,0,0,0.1,0,0.1l0,0.1
				l-0.3,0.1c0,0-0.1,0-0.1,0l-0.2,0.1l-0.1-0.1c0,0-0.1-0.1-0.1-0.1c0,0,0,0-0.1,0c0,0,0,0.1,0.1,0.1l0,0.1L40,23.8L39.9,24l-0.1,0
				c0,0-0.1,0-0.1-0.1c0,0,0,0,0,0.1c0,0,0.1,0.1,0.1,0.1l0.1,0.1l-0.1,0.2c0,0,0,0.1,0,0.1l-0.1,0.2l-0.1,0c-0.1,0-0.1,0-0.1,0
				c0,0,0,0.1,0,0.1c0,0,0.1,0,0.1,0.1l0.1,0l0,0.3l0,0.3l-0.1,0c0,0-0.1,0-0.1,0.1c0,0,0,0.1,0,0.1c0,0,0.1,0,0.1,0h0.1l0.1,0.1
				l0.1,0.1c0,0,0,0,0,0.1l0.1,0.2l-0.1,0.1c0,0-0.1,0.1-0.1,0.1c0,0,0,0,0,0.1c0,0,0.1,0,0.1-0.1l0.1,0l0.2,0.2l0.2,0.2l0,0.1
				c0,0,0,0.1-0.1,0.1c0,0,0,0,0.1,0c0,0,0.1-0.1,0.1-0.1l0.1-0.1l0.2,0.1c0,0,0.1,0,0.1,0l0.2,0.1l0,0.1c0,0,0,0.1,0,0.1
				c0,0,0.1,0,0.1,0c0,0,0-0.1,0.1-0.1l0-0.1l0.3,0L41.6,26.9z M41.3,26.7c-0.2,0-0.4,0-0.6-0.1c-0.2-0.1-0.4-0.2-0.5-0.3
				c-0.1-0.1-0.3-0.3-0.3-0.5c-0.1-0.2-0.1-0.4-0.1-0.6c0-0.2,0-0.4,0.1-0.6c0.1-0.2,0.2-0.4,0.3-0.5c0.1-0.1,0.3-0.3,0.5-0.3
				c0.2-0.1,0.4-0.1,0.6-0.1h0c0.2,0,0.4,0,0.6,0.1c0.2,0.1,0.4,0.2,0.5,0.3c0.1,0.1,0.3,0.3,0.3,0.5c0.1,0.2,0.1,0.4,0.1,0.6
				c0,0.2,0,0.4-0.1,0.6c-0.1,0.2-0.2,0.4-0.3,0.5c-0.1,0.1-0.3,0.3-0.5,0.3C41.7,26.6,41.5,26.7,41.3,26.7z M41.3,23.9
				c-0.2,0-0.3,0-0.5,0.1c-0.1,0.1-0.3,0.2-0.4,0.3c-0.1,0.1-0.2,0.2-0.3,0.4c-0.1,0.1-0.1,0.3-0.1,0.5c0,0.2,0,0.3,0.1,0.5
				c0.1,0.1,0.2,0.3,0.3,0.4c0.1,0.1,0.2,0.2,0.4,0.3c0.1,0.1,0.3,0.1,0.5,0.1c0.2,0,0.3,0,0.5-0.1c0.1-0.1,0.3-0.2,0.4-0.3
				c0.1-0.1,0.2-0.2,0.3-0.4c0.1-0.1,0.1-0.3,0.1-0.5c0-0.2,0-0.3-0.1-0.5c-0.1-0.1-0.2-0.3-0.3-0.4c-0.1-0.1-0.2-0.2-0.4-0.3
				C41.6,23.9,41.5,23.9,41.3,23.9z"/>
		</g>
		<g>
			<path class="st8" d="M18.7,28.5l0-0.1c0.1,0,0.2-0.1,0.2-0.1c0-0.1,0-0.2-0.1-0.3c-0.1,0-0.2,0-0.3,0l-0.1-0.1c0,0,0-0.1-0.1-0.1
				c0.1-0.1,0.1-0.1,0.2-0.2c-0.1-0.1-0.1-0.2-0.2-0.3c-0.1,0-0.2,0.1-0.3,0.1l-0.1-0.1L18,27c0-0.1,0.1-0.2,0.1-0.3
				c-0.1-0.1-0.2-0.1-0.3-0.2c-0.1,0.1-0.1,0.1-0.2,0.2c0,0-0.1,0-0.1-0.1l-0.1-0.1c0-0.1,0-0.2,0-0.3c-0.1,0-0.2-0.1-0.3-0.1
				c0,0.1-0.1,0.2-0.1,0.2l-0.1,0l-0.1,0c0-0.1-0.1-0.2-0.1-0.2c-0.1,0-0.2,0-0.3,0.1c0,0.1,0,0.2,0,0.3l-0.1,0.1c0,0-0.1,0-0.1,0.1
				c-0.1-0.1-0.1-0.1-0.2-0.2c-0.1,0.1-0.2,0.1-0.3,0.2c0,0.1,0.1,0.2,0.1,0.3l-0.1,0.1l-0.1,0.1c-0.1,0-0.2-0.1-0.3-0.1
				c-0.1,0.1-0.1,0.2-0.2,0.3c0.1,0.1,0.1,0.1,0.2,0.2c0,0,0,0.1-0.1,0.1l-0.1,0.1c-0.1,0-0.2,0-0.3,0c0,0.1-0.1,0.2-0.1,0.3
				c0.1,0,0.2,0.1,0.2,0.1l0,0.1l0,0.1c-0.1,0-0.2,0.1-0.2,0.1c0,0.1,0,0.2,0.1,0.3c0.1,0,0.2,0,0.3,0l0.1,0.1c0,0,0,0.1,0.1,0.1
				c-0.1,0.1-0.1,0.1-0.2,0.2c0.1,0.1,0.1,0.2,0.2,0.3c0.1,0,0.2-0.1,0.3-0.1l0.1,0.1l0.1,0.1c0,0.1-0.1,0.2-0.1,0.3
				c0.1,0.1,0.2,0.1,0.3,0.2c0.1-0.1,0.1-0.1,0.2-0.2c0,0,0.1,0,0.1,0.1l0.1,0.1c0,0.1,0,0.2,0,0.3c0.1,0,0.2,0.1,0.3,0.1
				c0-0.1,0.1-0.2,0.1-0.2l0.1,0l0.1,0c0,0.1,0.1,0.2,0.1,0.2c0.1,0,0.2,0,0.3-0.1c0-0.1,0-0.2,0-0.3l0.1-0.1c0,0,0.1,0,0.1-0.1
				c0.1,0.1,0.1,0.1,0.2,0.2c0.1-0.1,0.2-0.1,0.3-0.2c0-0.1-0.1-0.2-0.1-0.3l0.1-0.1l0.1-0.1c0.1,0,0.2,0.1,0.3,0.1
				c0.1-0.1,0.1-0.2,0.2-0.3c-0.1-0.1-0.1-0.1-0.2-0.2c0,0,0-0.1,0.1-0.1l0.1-0.1c0.1,0,0.2,0,0.3,0c0-0.1,0.1-0.2,0.1-0.3
				c-0.1,0-0.2-0.1-0.2-0.1L18.7,28.5z M17.7,29.5c-0.1,0.1-0.3,0.2-0.4,0.3c-0.2,0.1-0.3,0.1-0.5,0.1c-0.2,0-0.4,0-0.5-0.1
				c-0.2-0.1-0.3-0.2-0.4-0.3c-0.1-0.1-0.2-0.3-0.3-0.4c-0.1-0.2-0.1-0.3-0.1-0.5c0-0.2,0-0.4,0.1-0.5c0.1-0.2,0.2-0.3,0.3-0.4
				c0.1-0.1,0.3-0.2,0.4-0.3c0.2-0.1,0.3-0.1,0.5-0.1c0.2,0,0.4,0,0.5,0.1c0.2,0.1,0.3,0.2,0.4,0.3c0.1,0.1,0.2,0.3,0.3,0.4
				c0.1,0.2,0.1,0.3,0.1,0.5c0,0.2,0,0.4-0.1,0.5C17.9,29.2,17.8,29.4,17.7,29.5z"/>
			<path class="st1" d="M16.9,30.9l-0.1-0.1c0,0,0-0.1-0.1-0.2l0,0l0,0c0,0.1,0,0.1-0.1,0.2l-0.1,0.1l-0.1,0c-0.1,0-0.3,0-0.4-0.1
				l-0.1,0l0-0.1c0-0.1,0-0.1,0-0.2l0,0c0,0,0,0,0,0c0,0-0.1,0.1-0.1,0.1l-0.1,0.1l-0.1-0.1c-0.1-0.1-0.2-0.1-0.3-0.2l-0.1-0.1
				l0-0.1c0-0.1,0-0.1,0.1-0.2L15.2,30c-0.1,0-0.1,0-0.2,0.1l-0.1,0L14.8,30c-0.1-0.1-0.1-0.2-0.2-0.3l-0.1-0.1l0.1-0.1
				c0,0,0.1-0.1,0.1-0.1c0,0,0,0,0,0l0,0c-0.1,0-0.1,0-0.2,0l-0.1,0l0-0.1c0-0.1-0.1-0.2-0.1-0.4l0-0.1l0.1-0.1c0,0,0.1,0,0.2-0.1
				l0,0l0,0c-0.1,0-0.1,0-0.2-0.1l-0.1-0.1l0-0.1c0-0.1,0-0.3,0.1-0.4l0-0.1l0.1,0c0.1,0,0.1,0,0.2,0l0,0c0,0,0,0,0,0
				c0,0-0.1-0.1-0.1-0.1l-0.1-0.1l0.1-0.1c0.1-0.1,0.1-0.2,0.2-0.3l0.1-0.1l0.1,0c0.1,0,0.1,0,0.2,0.1l0.1-0.1c0-0.1,0-0.1-0.1-0.2
				l0-0.1l0.1-0.1c0.1-0.1,0.2-0.1,0.3-0.2l0.1-0.1l0.1,0.1c0,0,0.1,0.1,0.1,0.1c0,0,0,0,0,0l0,0c0-0.1,0-0.1,0-0.2l0-0.1l0.1,0
				c0.1,0,0.2-0.1,0.4-0.1l0.1,0l0.1,0.1c0,0,0,0.1,0.1,0.2l0,0l0,0c0-0.1,0-0.1,0.1-0.2l0.1-0.1l0.1,0c0.1,0,0.3,0,0.4,0.1l0.1,0
				l0,0.1c0,0.1,0,0.1,0,0.2l0,0c0,0,0,0,0,0c0,0,0.1-0.1,0.1-0.1l0.1-0.1l0.1,0.1c0.1,0.1,0.2,0.1,0.3,0.2l0.1,0.1l0,0.1
				c0,0.1,0,0.1-0.1,0.2l0.1,0.1c0.1,0,0.1,0,0.2-0.1l0.1,0l0.1,0.1c0.1,0.1,0.1,0.2,0.2,0.3l0.1,0.1l-0.1,0.1c0,0-0.1,0.1-0.1,0.1
				c0,0,0,0,0,0l0,0c0.1,0,0.1,0,0.2,0l0.1,0l0,0.1c0,0.1,0.1,0.2,0.1,0.4l0,0.1L19,28.4c0,0-0.1,0-0.2,0.1l0,0l0,0
				c0.1,0,0.1,0,0.2,0.1l0.1,0.1l0,0.1c0,0.1,0,0.3-0.1,0.4l0,0.1l-0.1,0c-0.1,0-0.1,0-0.2,0l0,0c0,0,0,0,0,0c0,0,0.1,0.1,0.1,0.1
				l0.1,0.1l-0.1,0.1c-0.1,0.1-0.1,0.2-0.2,0.3l-0.1,0.1l-0.1,0c-0.1,0-0.1,0-0.2-0.1l-0.1,0.1c0,0.1,0,0.1,0.1,0.2l0,0.1l-0.1,0.1
				c-0.1,0.1-0.2,0.1-0.3,0.2l-0.1,0.1l-0.1-0.1c0,0-0.1-0.1-0.1-0.1c0,0,0,0,0,0l0,0c0,0.1,0,0.1,0,0.2l0,0.1l-0.1,0
				c-0.1,0-0.2,0.1-0.4,0.1L16.9,30.9z M17,30.3l0,0.1c0,0,0,0.1,0.1,0.1c0,0,0.1,0,0.1,0c0,0,0-0.1,0-0.1l0-0.1l0.3-0.1
				c0,0,0.1,0,0.1,0l0.2-0.1l0.1,0.1c0,0,0.1,0.1,0.1,0.1c0,0,0,0,0.1,0c0,0,0-0.1-0.1-0.1l0-0.1l0.2-0.2l0.2-0.2l0.1,0
				c0,0,0.1,0,0.1,0.1c0,0,0,0,0-0.1c0,0-0.1-0.1-0.1-0.1l-0.1-0.1l0.1-0.2c0,0,0-0.1,0-0.1l0.1-0.2l0.1,0c0,0,0.1,0,0.1,0
				c0,0,0-0.1,0-0.1c0,0-0.1,0-0.1-0.1l-0.1,0l0-0.3l0-0.3l0.1,0c0,0,0.1,0,0.1-0.1c0,0,0-0.1,0-0.1c0,0-0.1,0-0.1,0h-0.1L18.4,28
				l-0.1-0.1c0,0,0,0,0-0.1l-0.1-0.2l0.1-0.1c0,0,0.1-0.1,0.1-0.1c0,0,0,0,0-0.1c0,0-0.1,0-0.1,0.1l-0.1,0L18,27.2l-0.2-0.2l0-0.1
				c0,0,0-0.1,0.1-0.1c0,0,0,0-0.1,0c0,0-0.1,0.1-0.1,0.1L17.6,27l-0.2-0.1c0,0-0.1,0-0.1,0l-0.2-0.1l0-0.1c0,0,0-0.1,0-0.1
				c0,0-0.1,0-0.1,0c0,0,0,0.1-0.1,0.1l0,0.1l-0.3,0l-0.3,0l0-0.1c0,0,0-0.1-0.1-0.1c0,0-0.1,0-0.1,0c0,0,0,0.1,0,0.1l0,0.1L16,26.8
				c0,0-0.1,0-0.1,0L15.8,27l-0.1-0.1c0,0-0.1-0.1-0.1-0.1c0,0,0,0-0.1,0c0,0,0,0.1,0.1,0.1l0,0.1l-0.2,0.2l-0.2,0.2l-0.1,0
				c0,0-0.1,0-0.1-0.1c0,0,0,0,0,0.1c0,0,0.1,0.1,0.1,0.1l0.1,0.1l-0.1,0.2c0,0,0,0.1,0,0.1l-0.1,0.2l-0.1,0c-0.1,0-0.1,0-0.1,0
				c0,0,0,0.1,0,0.1c0,0,0.1,0,0.1,0.1l0.1,0l0,0.3l0,0.3l-0.1,0c0,0-0.1,0-0.1,0.1c0,0,0,0.1,0,0.1c0,0,0.1,0,0.1,0h0.1l0.1,0.1
				l0.1,0.1c0,0,0,0,0,0.1l0.1,0.2l-0.1,0.1c0,0-0.1,0.1-0.1,0.1c0,0,0,0,0,0.1c0,0,0.1,0,0.1-0.1l0.1,0l0.2,0.2l0.2,0.2l0,0.1
				c0,0,0,0.1-0.1,0.1c0,0,0,0,0.1,0c0,0,0.1-0.1,0.1-0.1l0.1-0.1l0.2,0.1c0,0,0.1,0,0.1,0l0.2,0.1l0,0.1c0,0,0,0.1,0,0.1
				c0,0,0.1,0,0.1,0c0,0,0-0.1,0.1-0.1l0-0.1l0.3,0L17,30.3z M16.7,30.1c-0.2,0-0.4,0-0.6-0.1c-0.2-0.1-0.4-0.2-0.5-0.3
				c-0.1-0.1-0.3-0.3-0.3-0.5c-0.1-0.2-0.1-0.4-0.1-0.6c0-0.2,0-0.4,0.1-0.6c0.1-0.2,0.2-0.4,0.3-0.5c0.1-0.1,0.3-0.3,0.5-0.3
				c0.2-0.1,0.4-0.1,0.6-0.1h0c0.2,0,0.4,0,0.6,0.1c0.2,0.1,0.4,0.2,0.5,0.3c0.1,0.1,0.3,0.3,0.3,0.5c0.1,0.2,0.1,0.4,0.1,0.6
				c0,0.2,0,0.4-0.1,0.6c-0.1,0.2-0.2,0.4-0.3,0.5c-0.1,0.1-0.3,0.3-0.5,0.3C17.1,30,16.9,30.1,16.7,30.1z M16.7,27.3
				c-0.2,0-0.3,0-0.5,0.1c-0.1,0.1-0.3,0.2-0.4,0.3c-0.1,0.1-0.2,0.2-0.3,0.4c-0.1,0.1-0.1,0.3-0.1,0.5c0,0.2,0,0.3,0.1,0.5
				c0.1,0.1,0.2,0.3,0.3,0.4c0.1,0.1,0.2,0.2,0.4,0.3c0.1,0.1,0.3,0.1,0.5,0.1c0.2,0,0.3,0,0.5-0.1c0.1-0.1,0.3-0.2,0.4-0.3
				c0.1-0.1,0.2-0.2,0.3-0.4c0.1-0.1,0.1-0.3,0.1-0.5c0-0.2,0-0.3-0.1-0.5c-0.1-0.1-0.2-0.3-0.3-0.4c-0.1-0.1-0.2-0.2-0.4-0.3
				C17,27.3,16.9,27.3,16.7,27.3z"/>
		</g>
		<g>
			<path class="st6" d="M45.4,6.3c-2.4,0-4.5,1.4-4.5,3.3c0,0.7,0.5,1.9,1.3,2.1c0,0,0.2,0.4,0.3,0.9c0.2,0.9-0.2,1.4-0.2,1.4
				l1.4-1.2c0.5,0.2,1.1,0.3,1.7,0.3c2.4,0,4.3-1.5,4.3-3.4C49.7,7.8,47.8,6.3,45.4,6.3z"/>
			<path class="st1" d="M42.3,14.3c-0.1,0-0.1,0-0.2-0.1c-0.1-0.1-0.1-0.2,0-0.3c0,0,0.3-0.4,0.2-1.2c-0.1-0.3-0.2-0.6-0.3-0.7
				c-0.9-0.3-1.4-1.6-1.4-2.4c0-2,2.1-3.6,4.8-3.6c2.5,0,4.6,1.6,4.6,3.7s-2.1,3.7-4.6,3.7c-0.6,0-1.1-0.1-1.6-0.2l-1.3,1.1
				C42.4,14.3,42.4,14.3,42.3,14.3z M45.4,6.6c-2.4,0-4.3,1.4-4.3,3c0,0.7,0.4,1.7,1.1,1.9c0.1,0,0.1,0.1,0.1,0.1c0,0,0.3,0.4,0.4,1
				c0,0.3,0.1,0.5,0,0.7l0.8-0.6c0.1-0.1,0.2-0.1,0.2,0c0.5,0.2,1,0.3,1.6,0.3c2.2,0,4.1-1.4,4.1-3.2S47.7,6.6,45.4,6.6z"/>
		</g>
	</g>
</g>
</svg>
