<?xml version="1.0" encoding="utf-8"?>
<!-- Generator: Adobe Illustrator 23.0.0, SVG Export Plug-In . SVG Version: 6.00 Build 0)  -->
<svg version="1.1" id="Capa_1" xmlns="http://www.w3.org/2000/svg" xmlns:xlink="http://www.w3.org/1999/xlink" x="0px" y="0px"
	 viewBox="0 0 50 50" style="enable-background:new 0 0 50 50;" xml:space="preserve">
<style type="text/css">
	.st0{fill:none;}
	.st1{fill:#FABF91;}
	.st2{fill:#A78CC2;}
	.st3{fill:#C8E2A1;}
	.st4{fill:#E4B46B;}
	.st5{fill:#66C9E5;}
	.st6{fill:#6A76B8;}
	.st7{fill:#F58CA6;}
	.st8{fill:#F3737A;}
	.st9{fill:#EA6E6B;}
	.st10{fill:#D25E8E;}
	.st11{fill:#BA548A;}
	.st12{fill:#D1537C;}
</style>
<title>btn_actividades</title>
<g>
	<path class="st0" d="M25,43.1C25,43,25,43,25,43.1C25,43,25,43,25,43.1C25,43,25,43,25,43.1C25,43,25,43,25,43.1
		C25,43.1,25,43.1,25,43.1C25,43.1,25,43.1,25,43.1C25,43.1,25,43.1,25,43.1C25,43.1,25,43.1,25,43.1z"/>
	<path class="st0" d="M25,43.1C25,43,25,43,25,43.1C25,43,25,43,25,43.1C25,43,25,43,25,43.1C25,43,25,43,25,43.1
		C25,43.1,25,43.1,25,43.1C25,43.1,25,43.1,25,43.1C25,43.1,25,43.1,25,43.1C25,43.1,25,43.1,25,43.1z"/>
	<path class="st1" d="M33.7,29.9c0.1,0,0.1-0.1,0.2-0.1c2.9-1.7,6.2-2.5,9.4-2.4c1.4-4.8,1-9.9-0.9-14.4c-3.3,0.4-6.5,1.6-9.2,3.4
		c0.8,2.4,1.3,5,1.3,7.7C34.4,26,34.2,28,33.7,29.9z"/>
	<path class="st1" d="M33.7,29.9c0.1,0,0.1-0.1,0.2-0.1c2.9-1.7,6.2-2.5,9.4-2.4c1.4-4.8,1-9.9-0.9-14.4c-3.3,0.4-6.5,1.6-9.2,3.4
		c0.8,2.4,1.3,5,1.3,7.7C34.4,26,34.2,28,33.7,29.9z"/>
	<path class="st2" d="M16.1,29.7c0.1,0,0.1,0.1,0.2,0.1C15.8,28,15.6,26,15.6,24c0-2.7,0.4-5.3,1.3-7.7c-2.8-1.8-6-3-9.2-3.4
		c-1.9,4.5-2.2,9.5-0.9,14.4C9.9,27.2,13.1,28,16.1,29.7z"/>
	<path class="st2" d="M16.1,29.7c0.1,0,0.1,0.1,0.2,0.1C15.8,28,15.6,26,15.6,24c0-2.7,0.4-5.3,1.3-7.7c-2.8-1.8-6-3-9.2-3.4
		c-1.9,4.5-2.2,9.5-0.9,14.4C9.9,27.2,13.1,28,16.1,29.7z"/>
	<path class="st3" d="M43.3,27.3c-0.5,1.7-1.2,3.4-2.1,5c-3.5,6.1-9.6,9.9-16.2,10.8c0,0,0,0,0,0.1c5,2.1,11,1.9,16.1-1
		c5.1-2.9,8.2-8,8.9-13.4C47.9,27.8,45.6,27.3,43.3,27.3z"/>
	<path class="st3" d="M43.3,27.3c-0.5,1.7-1.2,3.4-2.1,5c-3.5,6.1-9.6,9.9-16.2,10.8c0,0,0,0,0,0.1c5,2.1,11,1.9,16.1-1
		c5.1-2.9,8.2-8,8.9-13.4C47.9,27.8,45.6,27.3,43.3,27.3z"/>
	<path class="st4" d="M33.9,29.7c-0.1,0-0.1,0.1-0.2,0.1c-1.3,5.3-4.5,10-8.7,13.2c0,0,0,0,0,0c6.5-0.8,12.6-4.6,16.2-10.8
		c0.9-1.6,1.6-3.3,2.1-5C40.1,27.2,36.9,28,33.9,29.7z"/>
	<path class="st4" d="M33.9,29.7c-0.1,0-0.1,0.1-0.2,0.1c-1.3,5.3-4.5,10-8.7,13.2c0,0,0,0,0,0c6.5-0.8,12.6-4.6,16.2-10.8
		c0.9-1.6,1.6-3.3,2.1-5C40.1,27.2,36.9,28,33.9,29.7z"/>
	<path class="st5" d="M8.8,32.3c-0.9-1.6-1.6-3.3-2.1-5c-2.3,0-4.6,0.5-6.7,1.4c0.7,5.4,3.8,10.5,8.9,13.4c5.1,2.9,11,3.1,16.1,1
		c0,0,0,0,0-0.1C18.5,42.2,12.4,38.4,8.8,32.3z"/>
	<path class="st5" d="M8.8,32.3c-0.9-1.6-1.6-3.3-2.1-5c-2.3,0-4.6,0.5-6.7,1.4c0.7,5.4,3.8,10.5,8.9,13.4c5.1,2.9,11,3.1,16.1,1
		c0,0,0,0,0-0.1C18.5,42.2,12.4,38.4,8.8,32.3z"/>
	<path class="st6" d="M25,43.1C25,43.1,25,43.1,25,43.1c-4.2-3.2-7.4-7.9-8.7-13.2c-0.1,0-0.1-0.1-0.2-0.1c-2.9-1.7-6.2-2.5-9.4-2.4
		c0.5,1.7,1.2,3.4,2.1,5C12.4,38.4,18.5,42.2,25,43.1z"/>
	<path class="st6" d="M25,43.1C25,43.1,25,43.1,25,43.1c-4.2-3.2-7.4-7.9-8.7-13.2c-0.1,0-0.1-0.1-0.2-0.1c-2.9-1.7-6.2-2.5-9.4-2.4
		c0.5,1.7,1.2,3.4,2.1,5C12.4,38.4,18.5,42.2,25,43.1z"/>
	<path class="st7" d="M23.8,23.7c0.5,0.8,0.9,1.7,1.2,2.5c0.4-0.9,0.8-1.7,1.2-2.5c1.8-3.1,4.2-5.5,6.9-7.3C31.6,11.8,28.7,7.9,25,5
		c-3.7,2.9-6.6,6.8-8.2,11.4C19.6,18.2,22,20.6,23.8,23.7z"/>
	<path class="st7" d="M23.8,23.7c0.5,0.8,0.9,1.7,1.2,2.5c0.4-0.9,0.8-1.7,1.2-2.5c1.8-3.1,4.2-5.5,6.9-7.3C31.6,11.8,28.7,7.9,25,5
		c-3.7,2.9-6.6,6.8-8.2,11.4C19.6,18.2,22,20.6,23.8,23.7z"/>
	<path class="st8" d="M26.2,23.7c-0.5,0.8-0.9,1.7-1.2,2.5c1.6,3.8,2,8,1.4,11.9c1.5-3.3,3.9-6.2,7.3-8.2c0.5-1.9,0.7-3.8,0.7-5.8
		c0-2.7-0.4-5.3-1.3-7.7C30.4,18.2,28,20.6,26.2,23.7z"/>
	<path class="st8" d="M26.2,23.7c-0.5,0.8-0.9,1.7-1.2,2.5c1.6,3.8,2,8,1.4,11.9c1.5-3.3,3.9-6.2,7.3-8.2c0.5-1.9,0.7-3.8,0.7-5.8
		c0-2.7-0.4-5.3-1.3-7.7C30.4,18.2,28,20.6,26.2,23.7z"/>
	<path class="st9" d="M33.7,29.9c-3.3,2-5.8,4.9-7.3,8.2c-0.3,1.7-0.7,3.4-1.4,5c0,0,0,0,0,0C29.3,39.8,32.4,35.2,33.7,29.9z"/>
	<path class="st9" d="M33.7,29.9c-3.3,2-5.8,4.9-7.3,8.2c-0.3,1.7-0.7,3.4-1.4,5c0,0,0,0,0,0C29.3,39.8,32.4,35.2,33.7,29.9z"/>
	<path class="st10" d="M16.3,29.9c3.3,2,5.8,4.9,7.3,8.2c-0.6-3.9-0.2-8,1.4-11.9c-0.4-0.9-0.8-1.7-1.2-2.5
		c-1.8-3.1-4.2-5.5-6.9-7.3c-0.8,2.4-1.3,5-1.3,7.7C15.6,26,15.8,28,16.3,29.9z"/>
	<path class="st10" d="M16.3,29.9c3.3,2,5.8,4.9,7.3,8.2c-0.6-3.9-0.2-8,1.4-11.9c-0.4-0.9-0.8-1.7-1.2-2.5
		c-1.8-3.1-4.2-5.5-6.9-7.3c-0.8,2.4-1.3,5-1.3,7.7C15.6,26,15.8,28,16.3,29.9z"/>
	<path class="st11" d="M23.6,38.1c0,0.1,0.1,0.1,0.1,0.2C23.6,38.2,23.6,38.1,23.6,38.1c-1.5-3.3-3.9-6.2-7.3-8.2
		c1.3,5.3,4.5,10,8.7,13.2c0,0,0,0,0,0c0,0,0-0.1,0-0.1C24.3,41.4,23.9,39.7,23.6,38.1z"/>
	<path class="st11" d="M23.6,38.1c0,0.1,0.1,0.1,0.1,0.2C23.6,38.2,23.6,38.1,23.6,38.1c-1.5-3.3-3.9-6.2-7.3-8.2
		c1.3,5.3,4.5,10,8.7,13.2c0,0,0,0,0,0c0,0,0-0.1,0-0.1C24.3,41.4,23.9,39.7,23.6,38.1z"/>
	<path class="st12" d="M25,26.2c-1.6,3.8-2,8-1.4,11.9c0,0.1,0.1,0.1,0.1,0.2c0-0.1,0-0.1-0.1-0.2c0.3,1.7,0.7,3.3,1.4,4.8
		c0,0,0,0.1,0,0.1c0,0,0,0,0,0c0,0,0,0,0,0c0.7-1.6,1.1-3.3,1.4-5C27,34.2,26.6,30,25,26.2z"/>
	<path class="st12" d="M25,26.2c-1.6,3.8-2,8-1.4,11.9c0,0.1,0.1,0.1,0.1,0.2c0-0.1,0-0.1-0.1-0.2c0.3,1.7,0.7,3.3,1.4,4.8
		c0,0,0,0.1,0,0.1c0,0,0,0,0,0c0,0,0,0,0,0c0.7-1.6,1.1-3.3,1.4-5C27,34.2,26.6,30,25,26.2z"/>
</g>
</svg>
