<?xml version="1.0" encoding="utf-8"?>
<!-- Generator: Adobe Illustrator 23.0.0, SVG Export Plug-In . SVG Version: 6.00 Build 0)  -->
<svg version="1.1" id="Capa_1" xmlns="http://www.w3.org/2000/svg" xmlns:xlink="http://www.w3.org/1999/xlink" x="0px" y="0px"
	 viewBox="0 0 801 293.1" style="enable-background:new 0 0 801 293.1;" xml:space="preserve">
<style type="text/css">
	.st0{fill:#B7DFE5;}
	.st1{fill:#A2D8DD;}
	.st2{fill:#DEF8FF;}
	.st3{fill:#DFF0F2;}
	.st4{fill:#B5D13F;}
	.st5{fill:#D7E0A4;}
	.st6{fill:#93B723;}
	.st7{fill:#8C5C23;}
	.st8{fill:#A57132;}
	.st9{fill:#75AA31;}
	.st10{fill:#709E2D;}
	.st11{fill:#D8EFAF;}
	.st12{fill:#2EAA81;}
	.st13{fill:#259E72;}
	.st14{fill:#9CE2D6;}
	.st15{fill:#BBF2FF;}
	.st16{fill:#89E9F4;}
	.st17{fill:#3CAA47;}
	.st18{fill:#349B3B;}
	.st19{fill:#D35500;}
	.st20{fill:#D6C9C3;}
	.st21{fill:#66524A;}
	.st22{fill:#44352E;}
	.st23{fill:#ED701B;}
	.st24{fill:#7F5741;}
	.st25{fill:#684838;}
	.st26{fill:#A16B50;}
	.st27{fill:#C79473;}
	.st28{fill:#C49A77;}
	.st29{fill:#6D5341;}
</style>
<title>Mesa de trabajo 2</title>
<g>
	<path class="st0" d="M311.5,175l-13.5-18.7l-15.4-25.1l-14.2-19.8l-9.9,14L245,140.3l-26.1,37.6l-20,26l33.6,0.7l97.1-0.9l-2.8-3.6
		L311.5,175L311.5,175z"/>
	<path class="st1" d="M259.5,185.7l-3.9,18.7l8.5-0.1l1.3-13.7l0.4-27.8l0.6-23.4l-3.4,17.8L259.5,185.7z M285.2,160.8l-5.9-21.1
		c0,0,1.4,15.1,1.6,15.8c0.2,0.7,1.6,19.8,1.6,19.8l3.7,28.9l9.5-0.1l-2.7-9.4L285.2,160.8z M234.9,180.4l-12.3,24.1l8.6,0.2
		l6.4-14.4l7.3-17.8l8.1-17.6l5.7-17.1c0,0-11.3,20.7-11.3,21.4S234.9,180.4,234.9,180.4L234.9,180.4z"/>
	<path class="st2" d="M282.6,131.2l-14.2-19.8l-9.9,14l-4.5,4.9l0.1,3.5l4.7-4.2l-2.2,15.1l7.9-13.4l1,18.9l6.3-19.6l8.7,12.9
		l-1.2-12.9l4.3,2.3L282.6,131.2L282.6,131.2z"/>
	<path class="st3" d="M311.5,175l-13.5-18.7l-6-9.8l2.1,10.6l-2.1,16.7l-13.4,13.4l-21.1,4l-26.4,4l-19.9,2l-7-0.2l-5.3,7l33.6,0.7
		l97.1-0.9l-2.8-3.6L311.5,175L311.5,175z"/>
	<path class="st0" d="M231.6,180.4l-16.2-20.1l-18.6-27l-17.2-21.2l-11.9,15l-16.2,16l-31.5,40.3l-24.1,27.9l40.6,0.7l117.2-0.9
		l-3.4-3.8L231.6,180.4L231.6,180.4z"/>
	<path class="st1" d="M168.8,191.9l-4.7,20.1l10.3-0.1l1.6-14.7l0.5-29.8l0.7-25.1l-4.1,19.1L168.8,191.9L168.8,191.9z M199.9,165.1
		l-7.2-22.7c0,0,1.7,16.2,1.9,16.9c0.2,0.7,1.9,21.2,1.9,21.2l4.4,31l11.5-0.1l-3.2-10.1L199.9,165.1z M139.2,186.1l-14.8,25.8
		l10.4,0.2l7.7-15.5l8.8-19.1l9.8-18.9l6.9-18.4c0,0-13.6,22.2-13.6,22.9C154.5,163.9,139.2,186.1,139.2,186.1L139.2,186.1z"/>
	<path class="st2" d="M196.8,133.4l-17.2-21.2l-11.9,15l-5.4,5.3l0.1,3.8l5.7-4.5l-2.6,16.2l9.5-14.3l1.2,20.3l7.6-21l10.5,13.8
		l-1.4-13.8l5.2,2.5L196.8,133.4L196.8,133.4z"/>
	<path class="st0" d="M255.6,149.4l-14.5-34.6l-6.9-16.6l-7.7,21.8c0,0-10.7,34.2-10.9,34.8c-0.2,0.6-15.8,57-15.8,57l6.9,1.2
		l29.7-0.2l39.6-0.8l-7.9-24.3L255.6,149.4z"/>
	<path class="st1" d="M216.2,188.6l-6.3,24.3l9.2-0.1l3.3-28.8l7.1-43.3l1.8-12.5l-6.9,25.7L216.2,188.6L216.2,188.6z M249.3,175.7
		l-7.5-38.6l-2.6-14.6l-1,3.2l1.2,20.4l1,48.1l0.2,13.1l0.5,5.4l14.5-0.3l-3.5-15L249.3,175.7L249.3,175.7z"/>
	<path class="st2" d="M234.2,98.2l-7.7,21.8c0,0-1.4,4.6-3.2,10.4c2.3-3.2,5-7.2,5-7.2l3.5,10.5l2.8-13.7l5.5,13.9l1-14.2l3.3,3.1
		l-3.3-7.9L234.2,98.2z"/>
	<path class="st0" d="M125.6,146.7L90.5,90.2c0,0-5.1,7.4-5.5,8.1c-0.4,0.6-26.1,40.4-26.1,40.4l-28,43.6l-18.3,28.7l3.4,1.3h41.9
		l104.6-1.7L150,189.3L125.6,146.7z"/>
	<path class="st1" d="M68,145.3l-9.3,14.9c0,0-20,36.6-20.2,37.2c-0.2,0.5-7.6,11-10.4,14.9h19.2l4.8-10.6l4.9-12.3l6.6-18.5l7.9-23
		l8.3-21.4l3.2-8.5l-6.2,10.9L68,145.3z M84.3,159.1l-6.8,40L76,211.9l10.7-0.2l0.6-18.4l1.7-37.8l0.6-25.1l-1.3,6.6L84.3,159.1
		L84.3,159.1z M114.1,162.5l-13.6-32.1l5.9,23.2l9.6,37l5.3,20.7l12.8-0.2l-3.5-11.1L114.1,162.5L114.1,162.5z"/>
	<path class="st2" d="M90.5,90.2c0,0-5.1,7.4-5.5,8.1c-0.2,0.3-4.6,7.1-9.8,15.1l7.2-2.1l-1.9,11.5l5.3-3.6l3.6,14.2l4.5-17.2
		l5.3,8.3l0.8-11.1l7.2,6.8l-0.5-3.7L90.5,90.2z"/>
	<path class="st0" d="M321.8,149.4l-14.4-34.6l-6.9-16.6l-7.7,21.8c0,0-10.7,34.2-10.9,34.8c-0.2,0.6-15.8,57-15.8,57l6.9,1.2
		l29.7-0.2l39.6-0.8l-7.9-24.3L321.8,149.4z"/>
	<path class="st1" d="M282.4,188.6l-6.3,24.3l9.2-0.1l3.3-28.8l7.1-43.3l1.8-12.5l-6.9,25.7L282.4,188.6L282.4,188.6z M315.5,175.7
		l-7.5-38.6l-2.5-14.6l-1,3.2l1.2,20.4l1,48.1l0.2,13.1l0.5,5.4l14.5-0.3l-3.5-15L315.5,175.7L315.5,175.7z"/>
	<path class="st2" d="M300.5,98.2l-7.7,21.8c0,0-1.4,4.6-3.2,10.4c2.3-3.2,5-7.2,5-7.2l3.6,10.5l2.8-13.7l5.5,13.9l1-14.2l3.3,3.1
		l-3.3-7.9L300.5,98.2z"/>
	<path class="st0" d="M376.1,136L359,95l-8.2-19.7l-9.1,25.8c0,0-12.7,40.6-12.9,41.3S310,209.9,310,209.9l8.2,1.4l35.2-0.2
		l46.9-0.9l-9.4-28.8L376.1,136z"/>
	<path class="st1" d="M329.4,182.5l-7.5,28.8l10.9-0.1l3.9-34.1l8.4-51.4l2.1-14.8l-8.2,30.5L329.4,182.5L329.4,182.5z M368.6,167.2
		l-8.9-45.7l-3-17.4l-1.2,3.7l1.4,24.2l1.2,57l0.2,15.5l0.6,6.5l17.2-0.3l-4.2-17.8L368.6,167.2L368.6,167.2z"/>
	<path class="st2" d="M350.8,75.3l-9.1,25.8c0,0-1.7,5.4-3.8,12.3c2.7-3.7,5.9-8.5,5.9-8.5l4.2,12.4l3.3-16.2l6.6,16.4l1.2-16.9
		l3.9,3.7L359,95L350.8,75.3z"/>
	<path class="st0" d="M773.7,185.1l-13.5-18.7l-15.4-25.2l-14.2-19.8l-9.9,14l-13.5,14.9L681.1,188l-20,26l33.6,0.7l97.2-0.9
		l-2.8-3.6L773.7,185.1L773.7,185.1z"/>
	<path class="st1" d="M721.6,195.8l-3.9,18.7l8.5-0.1l1.3-13.7l0.4-27.8l0.6-23.4l-3.4,17.8L721.6,195.8z M747.3,170.9l-5.9-21.1
		c0,0,1.4,15.1,1.6,15.8c0.2,0.7,1.6,19.8,1.6,19.8l3.7,28.9l9.5-0.1l-2.7-9.4L747.3,170.9z M697.1,190.4l-12.3,24.1l8.6,0.2
		l6.4-14.4l7.3-17.8l8.1-17.6l5.7-17.1c0,0-11.3,20.7-11.3,21.4C709.8,169.7,697.1,190.4,697.1,190.4L697.1,190.4z"/>
	<path class="st2" d="M744.8,141.3l-14.2-19.8l-9.9,14l-4.5,4.9l0.1,3.5l4.7-4.2l-2.2,15.1l7.9-13.4l1,18.9l6.3-19.6l8.7,12.9
		l-1.2-12.9l4.3,2.3L744.8,141.3L744.8,141.3z"/>
	<path class="st3" d="M773.7,185.1l-13.5-18.7l-6-9.9l2.1,10.6l-2.1,16.7l-13.4,13.4l-21.1,4l-26.4,4l-19.9,2l-7-0.2l-5.3,7
		l33.6,0.7l97.2-0.9l-2.8-3.6L773.7,185.1L773.7,185.1z"/>
	<path class="st0" d="M479.6,149.4l-14.4-34.6l-6.9-16.6l-7.7,21.8c0,0-10.7,34.2-10.9,34.8c-0.2,0.6-15.8,57-15.8,57l6.9,1.2
		l29.7-0.2l39.6-0.8l-7.9-24.3L479.6,149.4z"/>
	<path class="st1" d="M440.2,188.6l-6.3,24.3l9.2-0.1l3.3-28.8l7.1-43.3l1.8-12.5l-6.9,25.7L440.2,188.6L440.2,188.6z M473.2,175.7
		l-7.5-38.6l-2.5-14.6l-1,3.2l1.2,20.4l1,48.1l0.2,13.1l0.5,5.4l14.5-0.3l-3.5-15L473.2,175.7L473.2,175.7z"/>
	<path class="st2" d="M458.2,98.2l-7.7,21.8c0,0-1.4,4.6-3.2,10.4c2.3-3.2,5-7.2,5-7.2l3.6,10.5l2.8-13.7l5.5,13.9l1-14.2l3.3,3.1
		l-3.3-7.9L458.2,98.2z"/>
	<path class="st0" d="M638,175l-13.5-18.7l-15.4-25.1l-14.2-19.8l-9.9,14l-13.5,14.9l-26.1,37.6l-20,26l33.6,0.7l97.1-0.9l-2.8-3.6
		L638,175L638,175z"/>
	<path class="st1" d="M586,185.7l-3.9,18.7l8.5-0.1l1.3-13.7l0.4-27.8l0.6-23.4l-3.4,17.8L586,185.7z M611.7,160.8l-5.9-21.1
		c0,0,1.4,15.1,1.6,15.8c0.2,0.7,1.6,19.8,1.6,19.8l3.7,28.9l9.5-0.1l-2.7-9.4L611.7,160.8z M561.5,180.4l-12.3,24.1l8.6,0.2
		l6.4-14.4l7.3-17.8l8.1-17.6l5.7-17.1c0,0-11.3,20.7-11.3,21.4S561.5,180.4,561.5,180.4L561.5,180.4z"/>
	<path class="st2" d="M609.1,131.2l-14.2-19.8l-9.9,14l-4.5,4.9l0.1,3.5l4.7-4.2l-2.2,15.1l7.9-13.4l1,18.9l6.3-19.6l8.7,12.9
		l-1.2-12.9l4.3,2.3L609.1,131.2L609.1,131.2z"/>
	<path class="st3" d="M638,175l-13.5-18.7l-6-9.8l2.1,10.6l-2.1,16.7l-13.4,13.4l-21.1,4l-26.4,4l-19.9,2l-7-0.2l-5.3,7l33.6,0.7
		l97.1-0.9l-2.8-3.6L638,175L638,175z"/>
	<path class="st0" d="M558.1,180.4l-16.2-20.1l-18.6-27l-17.2-21.2l-12,15l-16.2,16l-31.5,40.3l-24.1,27.9l40.6,0.7l117.2-0.9
		l-3.4-3.8L558.1,180.4L558.1,180.4z"/>
	<path class="st1" d="M495.3,191.9l-4.7,20.1l10.3-0.1l1.6-14.7l0.5-29.8l0.7-25.1l-4.1,19.1L495.3,191.9L495.3,191.9z M526.4,165.1
		l-7.2-22.7c0,0,1.7,16.2,1.9,16.9c0.2,0.7,1.9,21.2,1.9,21.2l4.4,31l11.5-0.1l-3.2-10.1L526.4,165.1z M465.8,186.1l-14.8,25.8
		l10.4,0.2l7.7-15.5l8.8-19.1l9.8-18.9l6.9-18.4c0,0-13.6,22.2-13.6,22.9C481,163.9,465.8,186.1,465.8,186.1L465.8,186.1z"/>
	<path class="st2" d="M523.3,133.4l-17.2-21.2l-12,15l-5.4,5.3l0.1,3.8l5.7-4.5L492,148l9.5-14.3l1.2,20.3l7.7-21l10.5,13.8
		l-1.4-13.8l5.2,2.5L523.3,133.4L523.3,133.4z"/>
	<path class="st0" d="M452.1,146.7L417,90.2c0,0-5.1,7.4-5.5,8.1c-0.4,0.6-26.1,40.4-26.1,40.4l-28,43.6L339,210.9l3.4,1.3h41.9
		l104.6-1.7l-12.3-21.3L452.1,146.7z"/>
	<path class="st1" d="M394.5,145.3l-9.3,14.9c0,0-20,36.6-20.2,37.2c-0.2,0.5-7.6,11-10.4,14.9h19.2l4.8-10.6l4.9-12.3l6.6-18.5
		l7.9-23l8.3-21.4l3.2-8.5l-6.2,10.9L394.5,145.3z M410.8,159.1l-6.8,40l-1.5,12.9l10.7-0.2l0.6-18.4l1.7-37.8l0.6-25.1l-1.3,6.6
		L410.8,159.1L410.8,159.1z M440.6,162.5L427,130.4l6,23.2l9.5,37l5.3,20.7l12.8-0.2l-3.5-11.1L440.6,162.5L440.6,162.5z"/>
	<path class="st2" d="M417,90.2c0,0-5.1,7.4-5.5,8.1c-0.2,0.3-4.6,7.1-9.8,15.1l7.2-2.1l-1.9,11.5l5.3-3.6l3.6,14.2l4.5-17.2
		l5.3,8.3l0.8-11.1l7.2,6.8l-0.5-3.7L417,90.2z"/>
	<path class="st0" d="M584.8,146.7l-30.1-56.5c0,0-4.4,7.4-4.7,8.1c-0.4,0.6-22.4,40.4-22.4,40.4l-24.1,43.6l-15.7,28.7l2.9,1.3h36
		l89.8-1.7l-10.6-21.3L584.8,146.7z"/>
	<path class="st1" d="M535.3,145.3l-8,14.9c0,0-17.2,36.6-17.3,37.2c-0.1,0.5-6.5,11-8.9,14.9h16.5l4.2-10.6l4.2-12.3l5.7-18.5
		l6.8-23l7.1-21.4l2.7-8.5l-5.3,10.9L535.3,145.3z M549.4,159.1l-5.8,40l-1.3,12.9l9.2-0.2l0.5-18.4l1.5-37.8l0.5-25.1l-1.1,6.6
		L549.4,159.1L549.4,159.1z M575,162.5l-11.7-32.1l5.1,23.2l8.2,37l4.6,20.7l11-0.2l-3-11.1L575,162.5L575,162.5z"/>
	<path class="st2" d="M554.7,90.2c0,0-4.4,7.4-4.7,8.1c-0.1,0.3-4,7.1-8.4,15.1l6.2-2.1l-1.7,11.5l4.6-3.6l3.1,14.2l3.8-17.2
		l4.6,8.3l0.7-11.1l6.2,6.8l-0.4-3.7L554.7,90.2z"/>
	<path class="st0" d="M648.3,149.4l-14.4-34.6L627,98.2l-7.7,21.8c0,0-10.7,34.2-10.9,34.8c-0.2,0.6-15.8,57-15.8,57l6.9,1.2
		l29.7-0.2l39.6-0.8l-7.9-24.3L648.3,149.4z"/>
	<path class="st1" d="M609,188.6l-6.3,24.3l9.2-0.1l3.3-28.8l7.1-43.3l1.8-12.5l-6.9,25.7L609,188.6L609,188.6z M642,175.7
		l-7.5-38.6l-2.5-14.6l-1,3.2l1.2,20.4l1,48.1l0.2,13.1l0.5,5.4l14.5-0.3l-3.5-15L642,175.7L642,175.7z"/>
	<path class="st2" d="M627,98.2l-7.7,21.8c0,0-1.4,4.6-3.2,10.4c2.3-3.2,5-7.2,5-7.2l3.6,10.5l2.8-13.7l5.5,13.9l1-14.2l3.3,3.1
		l-3.3-7.9L627,98.2z"/>
	<path class="st0" d="M702.6,136l-17.1-41l-8.2-19.7l-9.1,25.8c0,0-12.7,40.6-12.9,41.3c-0.2,0.7-18.8,67.5-18.8,67.5l8.2,1.4
		l35.2-0.2l46.9-0.9l-9.4-28.8L702.6,136z"/>
	<path class="st1" d="M656,182.5l-7.5,28.8l10.9-0.1l3.9-34.1l8.4-51.4l2.1-14.8l-8.2,30.5L656,182.5L656,182.5z M695.1,167.2
		l-8.9-45.7l-3-17.4l-1.2,3.7l1.4,24.2l1.2,57l0.2,15.5l0.6,6.5l17.2-0.3l-4.2-17.8L695.1,167.2L695.1,167.2z"/>
	<path class="st2" d="M677.3,75.3l-9.1,25.8c0,0-1.7,5.4-3.8,12.3c2.7-3.7,5.9-8.5,5.9-8.5l4.2,12.4l3.3-16.2l6.6,16.4l1.2-16.9
		l3.9,3.7l-3.9-9.3L677.3,75.3z"/>
	<path class="st4" d="M798.6,215.8l-4.5-4.1l-55.6-2.7l-71.2-4.7l-132,2l-91.4,0.7l-44.7-1.4l-5.8,11l0.6,12.3l7,11.6l-13.4,13.7
		l9.6,15h31.9l71.6,6.8l43.4,4.1l6.4,8.2l79.9,2.7l48.5-13l3.8-6.9l74.1,5.5l40.9-13v-19.9l-11.5-16.4
		C786.4,227.5,797.3,217.9,798.6,215.8L798.6,215.8z"/>
	<path class="st5" d="M774.9,265.2l-24.3,7.3l-36.4-5.1l-32.6-1l-5.7,8.3l-41.8,8.6l-47.6,1.3l-30.7-2.6l-3.2-2.6l-2.9-3.1l-6.2-2.7
		l-7.2-1.9l-25.9,0.6l-63.3-4.8l-35.1-1.9l-16-3.2l-6.5-5.6l7.8,12.2h31.9l71.6,6.8l43.4,4.1l6.4,8.2l79.9,2.7l48.5-13l3.8-6.9
		l74.1,5.5l40.9-13v-7.4l-3.8,2.1L774.9,265.2L774.9,265.2z"/>
	<path class="st6" d="M795.7,185l-5.9-1l5.6-4.6l0.4-4.2l-2-3.9l-3-1.1l-5.8,1.7l1.3-3.4l-0.7-4.4l-3.9-2.8l-4.6,1l-3.7,3l-1.3,5
		l0.1,4.6l1.2,2.9l-6.4,1.2l-4.2,5.7l-0.6,7.3l2.9,3.5l6.4,2.3l-5.2,6.7l-0.4,5.9l2.6,6.2l4.1,2.4l4.9,0.7l7-3.2l5,4l3.5-1.1
		l3.1-3.9l-0.5-6.3l-5.4-5.3l8.6-4.2l1.9-5.5l-1.3-5.4L795.7,185L795.7,185z"/>
	<path class="st5" d="M795.7,185l-5.9-1l5.6-4.6l0.4-4.2l-2-3.9l-3-1.1l-5.8,1.7l1.3-3.4l-0.7-4.4l-3.9-2.8l-1.8,0.4l2.6,1.4
		l1.8,3.2l-0.2,3.3l-1.1,3l-1.2,1.7l8,1l0.9,2.4l-0.4,2L789,182l-2.2,1l3.5,2l4.5,3.1l0.2,3.4l-0.6,4.9l-1.1,3.1l-2.7,1.8l-2.5,0.9
		l-1.7,0.3l3.4,5.1l1.8,3.9l-0.6,2.7c-0.4,0.5-0.9,0.9-1.5,1.2c-1-0.5-2-1-3-1.5c-0.6-0.8-1.2-1.7-1.7-2.6l-2.7,1.4l-3.5,2.6
		c-0.9,0.4-1.9,0.8-2.9,1c-1.1-0.3-2.1-0.6-3.1-1.1c-0.2-0.3-2.5-2.3-2.9-2.8c-0.6-1.1-1.2-2.2-1.6-3.4c-0.2-0.5-0.7-3.7-0.7-3.7
		l0.5-2.7l-1.4,1.8l-0.4,5.9l2.6,6.2l4.1,2.4l4.9,0.7l7-3.2l5,4l3.5-1.1l3.1-3.9l-0.5-6.3l-5.4-5.4l8.6-4.2l1.9-5.5l-1.3-5.4
		L795.7,185z M785.2,185.3l0.3,1.4l1.1,0.5l1.5-0.8l0.2-1.5l-1.8-0.8L785.2,185.3L785.2,185.3z M785.3,180.2l0.7,1.2l1,0.1l0.6-1.2
		l-1.2-0.9L785.3,180.2L785.3,180.2z M775.5,168.4l0.8,1.5l1.2-0.1l1-2l-1.6-1.1L775.5,168.4L775.5,168.4z M770.4,204.9
		c0.3,0.9,0.7,1.7,1.2,2.5c0.2,0,1.7,0,1.7-0.4c0.1-0.4,0.7-2.9,0.7-2.9l-1.8-1L770.4,204.9z M768.6,188.5c0,0,0.4,1,0.7,0.9
		s0.9-0.2,0.9-0.4c0.1-0.2,0.3-1.8,0.3-1.8l-1.6,0.2L768.6,188.5z M766.9,186.6l0.9,0.6l1-0.7v-1.4l-1,0.1L766.9,186.6L766.9,186.6z
		 M783.6,181l-0.6,0.9l0.3,1.3l1.2,0.4l0.6-0.8l-0.3-1.2L783.6,181L783.6,181z M774.7,204.4l0.2,1.5l1,0.3l0.7-1l-0.3-1.5
		L774.7,204.4L774.7,204.4z"/>
	<path class="st7" d="M780.6,179.1l0,1.6l3.3-2.8l4.1-3.5l-3.7,2L780.6,179.1L780.6,179.1z M786.8,195.8l-6,4.6l-0.2,2.2l1.1-1.2
		l3.8-3.4l3.9-3.5l3.8-3.4l-2.2,1.6L786.8,195.8L786.8,195.8z"/>
	<path class="st8" d="M774.7,184.9l-3.6-2.1l1.9,1.7l4.2,3.1l3.2,2.2l0.1-2.1l-1.8-0.5L774.7,184.9L774.7,184.9z M781.3,190.3
		l-0.4-12l-0.4-7.7l-0.3,9.3l-0.4,17l-0.6,18.6l-0.3,14.6l-0.3,5.2l-0.2,2.8l3.9-0.1l-1.1-26.3L781.3,190.3L781.3,190.3z"/>
	<path class="st7" d="M781.3,190.3l-0.4-12l-0.2-3.2c-0.1,1.5-0.1,2.9-0.1,3.7c0,0.6,0,1,0,1c0,0.2,0.1,6.4,0.1,6.4l-0.1,11.4
		l-0.3,13.6l0.2,16.3c0,0-0.1,7.3-0.2,10.5l2-0.1l-1.1-26.3L781.3,190.3z"/>
	<path class="st4" d="M410.8,217.8l-4.5-4.1l-55.6-2.7l-71.2-4.7l-132,2l-91.4,0.7l-41.7-1.4l-8.8,11l0.6,12.3l7,11.6L0,256.2
		l9.6,15h31.9l71.6,6.8l43.4,4.1l6.4,8.2l79.9,2.7l48.5-13l3.8-6.9l74.1,5.5l40.9-13v-19.9l-11.5-16.4
		C398.6,229.5,409.5,219.9,410.8,217.8z"/>
	<path class="st9" d="M353.6,230.3l-8.2-9.6l4.1-0.4l3.1-0.2l-3.3-5.7l-7.8-15.9l-3.5-6.1l5.3-0.6l2.9-0.4l-3.3-5.3l-4.1-6.9
		l-5.1-7.9l3.1-1l2-0.6l-3.7-4.7l-6.9-8.8l-7.3,10.4l-2.6,5.3l4.5,0.8l-0.6,2.2l-10.6,13.2l3.3,0.8h4.1l-8.2,13l-9,11.4l2.7,1
		l4.3-0.6l-8.2,12l-6.7,11l-1.6,3.7l68.4,0.8l-0.8-3.3L353.6,230.3L353.6,230.3z"/>
	<path class="st10" d="M333,184.9l1.8,4.2l1.4-0.6l-2.3-4.1L333,184.9L333,184.9z M335.9,184.4l1.1,2.8l1.1-0.2l-1.8-2.9
		L335.9,184.4L335.9,184.4z M318.3,184.8l1.5,0.7l2-3.3l-0.3-0.8L318.3,184.8L318.3,184.8z M321.1,186.8l1.2,0.4l0.6-3l-0.8-0.7
		L321.1,186.8L321.1,186.8z M327.7,184.1l1.3-0.1v-3.5l-0.8,0.1L327.7,184.1L327.7,184.1z M315.7,211.6l1.7,0.1l1.6-3.8l-0.7-1.1
		L315.7,211.6L315.7,211.6z M320.2,213.1l0.9,0.6l1.5-4l-0.7-0.8L320.2,213.1z M327.6,211.6l1,0.3l0.6-3.5l-0.9-0.5L327.6,211.6
		L327.6,211.6z M338.6,209.9l1,3.9l1.2-0.7l-1.4-3.6L338.6,209.9L338.6,209.9z M324.7,204.2l1.3,0.4l0.7-5.2l-0.9,0.3L324.7,204.2z
		 M327.7,197.8l0.3,3.5l1.4-0.3l-1-4L327.7,197.8L327.7,197.8z M337.6,201.4l0.1,2.9l1-0.4l-0.2-2.5L337.6,201.4L337.6,201.4z
		 M310.3,208.3l1.4,0.7l0.9-4l-0.9-0.2L310.3,208.3L310.3,208.3z M321,199.9l1,0.3l0.3-3h-0.7L321,199.9L321,199.9z M322.7,236.2
		l1.8,0.1l1-4.7l-1.6-0.7L322.7,236.2L322.7,236.2z M327.8,227.8l0.2,3.2l1.1-0.5l-0.4-3L327.8,227.8L327.8,227.8z M319.3,226.4
		l1.2,0.7l1.1-5.1l-0.7-0.1L319.3,226.4L319.3,226.4z M338.7,230.3l1.9,3.9l1-0.7l-2.3-4L338.7,230.3L338.7,230.3z M306.6,232
		l1.8,0.8l1.3-4.8l-1,0.1L306.6,232L306.6,232z M338.4,221.3l0.6,3l1.2-1l-0.8-2.9L338.4,221.3L338.4,221.3z M326.5,170.5l1.3,0.2
		l0.6-2.9l-0.7-0.4L326.5,170.5L326.5,170.5z"/>
	<path class="st11" d="M353.6,230.3l-8.2-9.6l4.1-0.4l3.1-0.2l-3.3-5.7l-7.8-15.9l-3.5-6.1l5.3-0.6l2.9-0.4l-3.3-5.3l-4.1-6.9
		l-5.1-7.9l3.1-1l2-0.6l-3.7-4.7l-4.7-6l2.8,6l-2.2,4.6l-4.1,2.8l4.5,3.2l4.9,11.7l0.7,3.4l-9.5,0.7l-3.6-0.4l2.1,1.8l6.9,1.2
		l3.7,20.2l0.1,5.5l-9.3,0.8l-13.7-2.3l7.6,2.9l8.6,1.6l2.5,11.9l1,6l27.5,0.3l-0.8-3.3L353.6,230.3L353.6,230.3z"/>
	<path class="st12" d="M220.6,235.7l2.6-0.9l-1.2-4.3l-8.4-20.5l3.6-0.1l2.2-0.3l-4-8.7l-8.8-15l2.5-0.8l-2-4.5l-4.5-12.1l2.8-1.1
		l-1.7-3.4l-7-14.4l2.6-0.6l-2.5-3.7l-6.1-9.3l-3.7,5.6l-2.8,5.9l-2.6,5l3.6,0.3l1.2,0.3l-5.3,7.9l-2.5,3.9l2.3,0.3l2.8,0.5
		l-11.2,20.3l-4.7,8.2l-0.5,1.2l5.3-0.3l2.6,0.6l-4.7,8.1l-5,8l-5,6.5v0.9l8.2-0.1l-2.9,6.7l-4,8.4l-7.8,13.2l71,0.9l-2.2-4.5
		L220.6,235.7L220.6,235.7z"/>
	<path class="st13" d="M187.4,150.7l1.3,0.6l0.6-3.5l-0.7-0.2L187.4,150.7L187.4,150.7z M190.3,146.8l-0.1,3.3l1.4,0.6l-0.1-3.4
		L190.3,146.8z M194.7,153.5l-0.1,4.3l1.5-0.1l-0.7-4.4L194.7,153.5L194.7,153.5z M186.9,163.7l1.2,0.5l0.8-4.7l-0.9,0.5
		L186.9,163.7L186.9,163.7z M189.9,161.6l-0.2,3.9l1.4,0.2l-0.1-3.8L189.9,161.6L189.9,161.6z M195.1,160.8l0.5,3.4l1-0.2l-0.5-2.4
		L195.1,160.8L195.1,160.8z M197.7,158.8c0.1,0.4,0.9,2.8,0.9,2.8l1-0.9l-1.2-2.4L197.7,158.8z M183.8,179.4l1.5,0.1l0.8-3.7
		l-0.6-0.4L183.8,179.4L183.8,179.4z M182.3,175.2l1.2,0.1l0.6-3.4l-0.8,0.2L182.3,175.2L182.3,175.2z M191.3,174.9l0.2,6l2.1-0.5
		l-1.2-5.6H191.3L191.3,174.9z M195.8,172.2l0.7,2.8l1.4-0.8l-1.2-2.2L195.8,172.2L195.8,172.2z M200.9,181.4l0.8,4.2l0.9-0.5
		l-0.9-4.2L200.9,181.4L200.9,181.4z M182.3,192.9l1.5,0.7l0.7-5.5l-0.8-0.1L182.3,192.9z M185.8,186.7v3.3l1.5-0.2l-0.5-3.4
		L185.8,186.7L185.8,186.7z M198.8,199l0.4,6.5l1.7-0.6l-1.1-6.4L198.8,199z M200.9,196.3l1.3,5.1l1.6,0.1l-1.8-5.6L200.9,196.3
		L200.9,196.3z M178.8,209.3l1.5,0.8l1.4-5l-0.8-1.4L178.8,209.3L178.8,209.3z M183.1,202.2l-0.2,4.2l1.2-0.1l-0.2-4.3L183.1,202.2
		L183.1,202.2z M188.1,212.5l1.4,0.2l0.3-5.3l-1-0.2L188.1,212.5L188.1,212.5z M201.7,226.5l0.6,5.1l1.2-0.5l-0.9-4.7H201.7
		L201.7,226.5z M203.8,223.2l1.3,4.3l1.7-0.8l-1.6-4.8L203.8,223.2L203.8,223.2z M200.3,218.4l0.1,5.1h1.4l-0.1-5.2L200.3,218.4z
		 M176.5,233.6l2.4,0.1l1.3-7.2l-1.4-0.2L176.5,233.6L176.5,233.6z M181.5,228.8h1.4v-4.5l-1.2,0.4L181.5,228.8z M173,220.3l1.6-0.1
		l0.8-5.6l-1.1,0.1L173,220.3L173,220.3z M168.4,240.9c0,0,1.8,0.4,1.8,0s1.1-5.1,1.1-5.1l-1.5,0.5L168.4,240.9z M191.3,241.1
		l1.4,0.5v-6.5l-1,0.3L191.3,241.1L191.3,241.1z M212.2,235.1l0.5,3.7l1.2-0.9l-0.4-3.1L212.2,235.1L212.2,235.1z"/>
	<path class="st14" d="M220.6,235.7l2.6-0.9l-1.2-4.3l-8.4-20.5l3.6-0.1l2.2-0.3l-4-8.7l-8.8-15l2.5-0.8l-2-4.5l-4.5-12.1l2.8-1.1
		l-1.7-3.4l-7-14.4l2.6-0.6l-2.5-3.7l-4.5-7l1.2,4.9l0.5,5.6l-4.7,0.9l-2,0.5l3.3,0.2l3.8,0.1l1,11.9l0.4,4.5l-2.2,0.1l-4.3-0.7
		l-1.6-0.1l2.7,1.5l3.4,0.8l1.5,9.7l0.8,5.5v2l-4,0.8l-3.7,0.2l-2.3-0.2l1.7,0.7l5.1,0.4l1.9,3.2l5.3,12.7l1.2,4.7l-0.1,1.3l-4,0.6
		l-4.4,0.1l-5-0.5l4.4,1.3l4.6,1.3h2.6l0.8,3.7l0.8,14.1v4.3l-0.1,1.2l-3.3,0.3l-3.3,0.2l-9-0.3l-4.5-0.9l3.9,2.3l4.9,0.8l4,2.5
		l1.4,7.4l30,0.4l-2.2-4.5L220.6,235.7L220.6,235.7z"/>
	<path class="st15" d="M229.3,73.7l-6.8-1.4l-5,2.9L214.1,59l-5.8-6l-8.1-1.5l-5.5,2.7L187.3,70l-7.8-8l-9.1-1l-7,5.1l-2.1,6.8
		l2.1,8.5l-9.1-2.7l-6.2,2.5l-5.1,5l-1.4,6.8l22.9,0.2l30.1,0.4l21.8-0.6l13-0.2l10.7-0.8l-2.7-9.5L229.3,73.7L229.3,73.7z"/>
	<path class="st16" d="M200.7,70.7l3.2,3.2c0,0,2.6,0,2.9-0.9c0.3-0.9,2.3-5,2.3-5l-4.7-1.5L200.7,70.7z M177.7,70.1l-0.9,3.2l2,0.6
		l1.7-1.2l-0.6-2.9L177.7,70.1L177.7,70.1z M222.9,86.7l-11.1,1.2l-3.2-5.5l-9.3-4.4l-7,2.9l-4.4,5.8l-4.4-5.8l-7.3-2.3l-6.1,4.4
		l-2.3,7.9l-5.8-2.3l-7.6-1.2l-8.5,2.6l-1.9,3.2l20.5,0.2l30.1,0.4l21.8-0.6l13-0.2l1-0.1l-1.8-4.1L222.9,86.7L222.9,86.7z"/>
	<path class="st15" d="M123.9,46.5l-7.2-4.3l-9.9-0.4l-8,4.1l-8.2-13.8l-7.2-3.5l-7.2,2.7l-4.5,8.5l-1.2,8.4l-5-5.2L62,42.2l-5,3.5
		l-5.8-10.9l-6.2-2.5l-7.4,2.3l-4.9,5.2l-1.6,10.3l-5.4-1.9L20,51l-2.3,4.9l-1.4,6.6L33.2,62l21.9,0.2h31.5l23.3-0.8l16.3,0.2
		l4.1-0.6l-1-8L123.9,46.5L123.9,46.5z"/>
	<path class="st16" d="M105.9,53.9l-5.8-3.1l-6.2,0.6l-3.9,5.8l-12.4,1L69.4,58l-2.5-3.5l-5.5-1.2l-4.3,5.4l-1.4-4.1l-6.4-8.4
		l-6.4-1.7l-5.8,3.7l-2.5,10.9l-3.1-3.3l-5.8-0.6l-3.5,2.9l-0.7,4.1L33.2,62l21.9,0.2h31.5l22.2-0.7l-0.1-3.7L105.9,53.9L105.9,53.9
		z M113.6,47.1l-2.1,2.7l2.1,2.3c0,0,3.7,0.6,3.5,0c0-1.5,0-3,0.2-4.5L113.6,47.1z M83.9,39.3l-3.1,4.9l2.5,2.9c0,0,1.9,0.4,2.7-0.4
		c1-1.3,1.8-2.8,2.5-4.3l-2.1-2.9L83.9,39.3z M77.3,36v3.1l1.9,1.9l1.5-2.1l-1.4-3.7L77.3,36L77.3,36z"/>
	<path class="st7" d="M216.7,177.1l-0.9,21l-0.9,19l-0.7,12.5l0.1,7.1l-0.3,5.9v1.2l3.2-0.4l-0.3-14.1l0.3-24.2l0.2-24.1l0.1-12.5
		l-0.4-3.5L216.7,177.1L216.7,177.1z M225.8,179.1l-2.3,1.9l-3.7,2.2l-2.8,0.9l-0.2,1.2l1.6,0.2l2.3-1.2l2.8-2l2.7-2l1.6-3l0.5-3.9
		l-0.7,2.4L225.8,179.1L225.8,179.1z M221.5,204.7l-2.4,2.7l-2.8,2l-0.2,2.5l2.4-1.6l1.2-1.5l2-3l1.7-3.1l-0.8-0.6L221.5,204.7
		L221.5,204.7z M222,170.1l-2.1,2.5l-2.7,0.8v1.4l2.4-0.6l2-1.3l1.5-2.9l0.7-2.1l-0.5-0.1L222,170.1L222,170.1z M212.3,174.9
		l-2.3-1.5l-1.9-2.1l-1-2.2l-0.6-0.1l0.6,2.3l1.9,2.4l2.3,2.1l3,0.9l2.8,0.3l0.1-1.6h-2.4L212.3,174.9L212.3,174.9z M212.5,191.8
		c-0.2-0.2-2.6-1.1-2.6-1.1l-2.8-3.1l-2.3-4.9l-0.5-0.2l0.5,1.9l1.5,3.7l2.1,3.2l3.1,1.8l5.1,0.8v-1.6l-1.7,0.2
		C214.1,192.3,213.3,192.1,212.5,191.8L212.5,191.8z"/>
	<path class="st17" d="M232.7,168.7l-3.5-0.7l-4,0.7l-4.2,5.4l-0.5,4.5l2.7,6.3l6.8,2.2l4.5-0.7l3.8-3.3l1.6-5.9L238,171
		L232.7,168.7L232.7,168.7z"/>
	<path class="st18" d="M232.7,168.7l-1.1-0.2l1.9,1.5l3.3,3l-0.3,6.6l-3.9,3.7l-6,0.1l-4.2-2.8l-1.7-4.8l-0.3,2.8l2.7,6.3l6.8,2.2
		l4.5-0.7l3.8-3.3l1.6-5.9l-1.8-6.2L232.7,168.7L232.7,168.7z"/>
	<path class="st17" d="M226.1,162.1l-3.8,1l-2.3,2.7l-0.6,3.6l2,2.6l3.7,1.3c1.1-0.3,2.1-0.7,3.1-1.1c0.1-0.2,2.1-3,2.1-3l0.2-4
		l-2-2.5L226.1,162.1z"/>
	<path class="st18" d="M227.5,162.4l1.1,0.7l0.6,2l-1.3,4.3l-2.6,0.7l-3.5,0.1l-2-2.8l-0.3,2l2,2.6l3.7,1.3c1.1-0.3,2.1-0.7,3.1-1.1
		c0.1-0.2,2.1-3,2.1-3l0.2-4l-2-2.5L227.5,162.4z"/>
	<path class="st17" d="M219.4,154l-4.6,0.9l-3.5,3.2l-0.3,5.2l1.6,3.2l4.5,2l4-0.6l2.4-2.7l1.2-5.6l-2.2-4.1L219.4,154L219.4,154z"
		/>
	<path class="st18" d="M219.4,154l-1.3,0.3l2.9,1.1l2.1,2.5l-0.3,3.9l-2.7,3.3l-3.5,0.2c0,0-3.9-1.3-4.1-1.4c-0.5-0.8-1-1.7-1.3-2.6
		l-0.2,2.2l1.6,3.2l4.5,2l4-0.6l2.4-2.7l1.2-5.6l-2.2-4.1L219.4,154z"/>
	<path class="st17" d="M213.3,161l-3.1-0.7l-5.8,1.4l-3,3.4l-0.9,4.5l1.2,4.8l3.8,3.9l4.6,1.2l4-0.7l3.9-4.8l0.9-4.4L217,163
		L213.3,161L213.3,161z"/>
	<path class="st18" d="M213.3,161l-3.1-0.7l-5.7,1.4l3-0.3l2.2,0.4l3,1.2l2.5,3.3l0.6,3.3l-1.4,4.5l-3.8,2.7l-4-0.7l-4-3.4l-1.7-4.4
		l-0.2,1.2l1.2,4.8l3.8,3.9l4.6,1.2l4-0.7l3.9-4.8l0.9-4.4l-2.1-6.6L213.3,161L213.3,161z"/>
	<path class="st17" d="M206.8,174.9l-4.5-1.3l-4,1.6l-2.8,2.9l0.4,6l2.6,3l4.4,1.1l3.3-0.5l3-2.5l1-4.2l-0.8-4.1L206.8,174.9
		L206.8,174.9z"/>
	<path class="st18" d="M207.6,175.5l0.7,2.9l-0.1,3.5l-2.2,3c-0.9,0.5-1.8,1-2.7,1.3c-1.3,0-2.6-0.1-4-0.2c-0.9-0.6-1.7-1.3-2.5-2
		l-1-1.1l0.1,1.1l2.6,3.1l4.4,1.1l3.3-0.5l3-2.5l1-4.2l-0.7-4.1L207.6,175.5z"/>
	<path class="st15" d="M247.5,21.5l9.3-6.8l8.2,1.2l6.2,7.6l5.2,17.9l6.2-6.8l5.6-0.4l3.9,1.9l3.5,3.1l6-8l5.8-0.6l5,2.1l8.2-13.4
		l8.4-1.2l9.3,1.9l5.6,6l2.1,11.7l0.6,3.3l8.2-3.9l9.3,1l7,4.5l3.1,4.3l1.7,4.1l-31.3-0.8l-37.9,0.4l-37.7-0.2h-24.9l0.6-18.3
		L247.5,21.5L247.5,21.5z"/>
	<path class="st16" d="M332.9,32.6l-2.3,2.9l-3.3-0.2l-1.2-4.5l5.1-1.6L332.9,32.6z M262,20.5l2.9,1.9l-0.6,4.1l-1.7,2.3l-3.9-0.2
		l-1.7-3.1l1.4-5.2L262,20.5L262,20.5z M354.9,44.2l9.1,1.5l2.5,5l-21.7-0.5h-1l2.9-3.5L354.9,44.2z M257.6,31.8l7.9,2.3l5.6,13.6
		l14.4-0.6l3.1-3.3l2.3-1.2l4.9,0.4l5.4,4.7l2.7-3.5l3.3-3.9l5.4-1.7l11.3,1.6l4.5,5.4l1.2,4.8l-22.8,0.2l-37.7-0.2h-20.1l3-12.2
		L257.6,31.8L257.6,31.8z"/>
	<path class="st12" d="M95.5,237.5l-6.2-12.2l3.3-0.9l-1.3-2.4l-4.8-12.4l2.3-1.2l-1.7-3.3l-5.6-11.5l-1.4-2.8l2.9-0.6l-1.5-3.8
		L76,173.6l-2.6-2.5l-2.2,6.9l-3.2,7.9l-1.3,3.6l2.5,0.9l-4.1,6.9l-3.5,5.6l4.2,1l-6.1,15.5l-1.7,3.7l2.3,0.7l3.1,0.6l-6.3,12.7
		l-3.1,5.7l-0.9,2.4l45.3,1.5l-0.5-2.6L95.5,237.5L95.5,237.5z"/>
	<path class="st14" d="M95.5,237.5l-6.1-12.2l3.2-0.9l-1.3-2.4l-4.8-12.4l2.3-1.2l-1.7-3.3l-5.6-11.5l-1.4-2.8l2.9-0.6l-1.5-3.8
		l-5.6-12.8l-1.3-1.3l1.4,6.1l0.6,5.7l0.5,5l-4.2,0.9l2.7,0.9l2.1,6.3l1.3,8.7v2.5l-3.1,1l-5.2-0.7l1.4,1.4l4.9,1.2l2.9,4.6l1.1,5.6
		l0.2,3.4l-5.1,0.4l-4.1-0.6l-4.3-0.1l2.7,1.8l4.3,0.8l3.7,0.7l1.5,9.8c0,0,0,4.4,0,8.2l18.5,0.6l-0.5-2.6L95.5,237.5z"/>
	<path class="st12" d="M72.6,239.2l2.6-0.9l-1.2-4.3l-8.4-20.4l3.6-0.2l2.2-0.3l-4-8.7l-8.8-15l2.5-0.8l-2-4.5l-4.5-12.1l2.8-1.1
		l-1.7-3.4l-7-14.4l2.6-0.6l-2.5-3.7l-6.1-9.3l-3.7,5.6l-2.8,5.9l-2.6,5l3.6,0.3l1.2,0.3l-5.3,7.9l-2.5,3.9l2.3,0.3l2.8,0.5
		l-11.2,20.3l-4.7,8.2l-0.5,1.2l5.3-0.3l2.6,0.6l-4.7,8.1l-5,8.1l-5,6.5v0.9l8.2-0.2l-2.9,6.7l-4,8.4l-7.8,13.2l71,0.9l-2.2-4.5
		L72.6,239.2L72.6,239.2z"/>
	<path class="st13" d="M39.5,154.1l1.3,0.6l0.6-3.5l-0.7-0.2L39.5,154.1L39.5,154.1z M42.4,150.3l-0.1,3.3l1.4,0.6l-0.1-3.4
		C43.5,150.7,42.4,150.3,42.4,150.3z M46.7,156.9l-0.1,4.3l1.5-0.1l-0.7-4.4L46.7,156.9z M38.9,167.1l1.2,0.5l0.8-4.7l-0.9,0.5
		L38.9,167.1L38.9,167.1z M41.9,165l-0.2,4l1.4,0.2l-0.1-3.8L41.9,165L41.9,165z M47.1,164.2l0.5,3.4l1-0.2l-0.5-2.5L47.1,164.2
		L47.1,164.2z M49.7,162.3c0.1,0.3,0.9,2.8,0.9,2.8l1-0.9l-1.2-2.4L49.7,162.3z M35.8,182.8l1.5,0.1l0.8-3.7l-0.6-0.3L35.8,182.8
		L35.8,182.8z M34.3,178.6l1.2,0.1l0.6-3.4l-0.8,0.2L34.3,178.6L34.3,178.6z M43.3,178.3l0.2,6l2.1-0.5l-1.2-5.6H43.3z M47.8,175.6
		l0.7,2.8l1.4-0.8l-1.2-2.2L47.8,175.6z M52.9,184.8l0.8,4.2l0.9-0.5l-0.9-4.2L52.9,184.8L52.9,184.8z M34.3,196.3l1.5,0.7l0.7-5.5
		l-0.8-0.1L34.3,196.3z M37.8,190.2v3.3l1.5-0.2l-0.5-3.4L37.8,190.2L37.8,190.2z M50.8,202.5l0.4,6.5l1.7-0.6l-1.1-6.4L50.8,202.5
		L50.8,202.5z M52.9,199.8l1.3,5.1l1.6,0.1l-1.8-5.6L52.9,199.8L52.9,199.8z M30.8,212.7l1.5,0.8l1.4-5l-0.8-1.4L30.8,212.7
		L30.8,212.7z M35.2,205.6l-0.2,4.2l1.2-0.1l-0.2-4.3L35.2,205.6L35.2,205.6z M40.1,216l1.4,0.2l0.3-5.4l-1-0.2L40.1,216L40.1,216z
		 M53.7,229.9l0.6,5.1l1.2-0.5l-0.9-4.7H53.7L53.7,229.9z M55.9,226.7l1.3,4.3l1.7-0.8l-1.6-4.8L55.9,226.7z M52.3,221.9l0.1,5.1
		h1.4l-0.1-5.2L52.3,221.9L52.3,221.9z M28.5,237l2.4,0.1l1.3-7.2l-1.4-0.2L28.5,237L28.5,237z M33.5,232.2h1.4v-4.5l-1.2,0.3
		L33.5,232.2L33.5,232.2z M25,223.7l1.6-0.1l0.8-5.6l-1.2,0.1L25,223.7L25,223.7z M20.4,244.3c0,0,1.8,0.3,1.8,0s1-5.1,1-5.1
		l-1.5,0.5L20.4,244.3z M43.3,244.6l1.4,0.5v-6.5l-1.1,0.4L43.3,244.6L43.3,244.6z M64.2,238.5l0.5,3.7l1.2-0.9l-0.4-3.1L64.2,238.5
		L64.2,238.5z"/>
	<path class="st14" d="M72.6,239.2l2.6-0.9l-1.2-4.3l-8.4-20.4l3.6-0.2l2.2-0.3l-4-8.7l-8.8-15l2.5-0.8l-2-4.5l-4.5-12.1l2.8-1.1
		l-1.7-3.4l-7-14.4l2.6-0.6l-2.5-3.7l-4.5-7l1.2,4.9l0.5,5.6l-4.7,0.9l-2,0.5l3.3,0.2l3.8,0.1l1,11.9l0.4,4.5l-2.2,0.1l-4.3-0.7
		l-1.6-0.1l2.7,1.5l3.4,0.8l1.5,9.7l0.8,5.5v2l-4,0.8l-3.7,0.2l-2.3-0.2l1.7,0.7l5.1,0.4l1.9,3.2l5.3,12.7l1.2,4.6l-0.1,1.3l-4,0.6
		l-4.4,0.1l-5-0.5l4.4,1.3l4.6,1.2h2.6l0.8,3.7l0.8,14.1v4.3l-0.1,1.3l-3.3,0.3l-3.3,0.2l-9-0.3l-4.5-0.9l3.9,2.2l4.9,0.8l4,2.5
		l1.4,7.4l30,0.4l-2.1-4.5L72.6,239.2L72.6,239.2z"/>
	<path class="st8" d="M89.9,175.7l-6.4-4l5.5,4.9l2.9,2.7l2.3,2.1L94,179L89.9,175.7L89.9,175.7z M87.4,197.7l-7.9-5l6.3,5.1
		l4.8,4.1l3.3,2.4l-0.1-2.6L87.4,197.7L87.4,197.7z"/>
	<path class="st7" d="M94.1,169.9l0.2,2.5l5.9-5.8l4.8-4.4l-5.3,3.5L94.1,169.9L94.1,169.9z M94.4,191.6v2.4l3.2-2.6l5.7-4.8l7-6.4
		l-7.2,4.9L94.4,191.6L94.4,191.6z M101.1,204.6l-6.3,4.7v3.8l4.6-4.3l6.2-5.8l7.1-7.7l-3.4,2.5L101.1,204.6L101.1,204.6z"/>
	<path class="st8" d="M95,186.9l-0.4-18.2l-0.8-12.3l-0.2,12.5l-1,30.5V223l-0.4,11.5l-0.4,9.9v2l5.8-0.2l-0.8-13.5L95,186.9
		L95,186.9z"/>
	<path class="st7" d="M95,186.9l-0.4-18.2l-0.3-4.1l-0.3,3.2l0.1,10.1L94,197.2l0.3,23.6l0.3,17.4l-0.1,8.1l3.1-0.1l-0.8-13.5
		L95,186.9L95,186.9z"/>
	<path class="st9" d="M111.5,185.3l-6.7,3.4l-3.2,6.5l0.7,8.1l4.3,3.8l6.7,1.2l5.9-1.9c0,0,3.1-5.9,3.1-6.2c0-0.3,1.4-7.8,1.4-7.8
		l-4.6-4.5L111.5,185.3z"/>
	<path class="st11" d="M111.5,185.3l-2.1,1.1l2.4,0.7l5.2,1.9l3.6,5.3c0,0-0.4,6-0.5,6.3c-0.1,0.3-5.2,3.8-5.2,3.8l-7.4-1l-4.6-4.2
		l0.1-6.5l-1.3,2.6l0.7,8.1l4.3,3.8l6.7,1.2l5.9-1.9c0,0,3.1-5.9,3.1-6.2c0-0.3,1.4-7.8,1.4-7.8l-4.6-4.5L111.5,185.3z"/>
	<path class="st9" d="M95.1,144.6l-6.6,2.5l-3.3,4.1l-0.2,6.4c0.9,1.3,1.9,2.6,2.9,3.8c0.3,0.1,3.4,2.4,3.4,2.4l4.1,0.6l2.6-1.2
		c1.5-1.2,2.9-2.6,4.3-4c0-0.3,0.8-6.6,0.8-6.6l-3-5.4L95.1,144.6z"/>
	<path class="st11" d="M95.1,144.6L94,145l4.5,4.6l0.6,5l-1.3,3.9l-2.5,1.2h-5.7l-4.6-3.1l0,1.1c0.9,1.3,1.9,2.6,2.9,3.8
		c0.3,0.1,3.4,2.4,3.4,2.4l4.1,0.6l2.6-1.2c1.5-1.2,2.9-2.6,4.3-4c0-0.3,0.8-6.6,0.8-6.6l-3-5.4L95.1,144.6z"/>
	<path class="st9" d="M107.2,158.2h-4.5l-3.7,2.6l-1.3,4.7l1.9,5.7l4.7,3.6l5.2-0.7c1.3-1.1,2.6-2.4,3.8-3.7c0-0.3,1.4-6.3,1.4-6.3
		l-2.4-4.7L107.2,158.2z"/>
	<path class="st11" d="M107.4,170.3l-4.9-1.4l-3.3-4.8l0.9-4.1l-1.1,0.8l-1.3,4.7l1.9,5.7l4.7,3.6l5.2-0.7c1.3-1.1,2.6-2.4,3.8-3.7
		c0-0.1,0.3-1.4,0.6-2.8l-2.2,1.2L107.4,170.3z"/>
	<path class="st9" d="M85.2,162.2l-3.1-1.1l-6.6,1.8l-3.2,5.1l1.2,6.2c0,0,3.1,4.5,3.4,4.5c0.3,0,6.5,0.6,6.5,0.6l4.4-2.9l2.3-6
		l-1.7-5.6L85.2,162.2z"/>
	<path class="st11" d="M85.2,162.2l-0.9-0.3l1.9,2.9l1,4l-1.7,5.4l-2.9,1.9h-5.8l-3-4.4l-1.1-4.6l-0.5,0.8l1.2,6.2
		c0,0,3.1,4.5,3.4,4.5c0.3,0,6.5,0.6,6.5,0.6l4.4-2.9l2.3-6l-1.7-5.6L85.2,162.2z"/>
	<path class="st9" d="M82.8,184l-2.6-0.7c-0.3,0-7.2,1.2-7.2,1.2l-5.1,5.6l-0.2,7.1l5.1,5.5l7.9,2.2l4-4.1l2.9-7l-2.2-6.8L82.8,184z
		"/>
	<path class="st11" d="M82.8,184l-2.6-0.7c-0.1,0-0.6,0.1-1.4,0.2l2.9,2.9l2.2,5.5l-1,5.6l-3.9,3.1c0,0-4.4-0.9-4.7-0.9
		s-4-1.7-4.3-1.8c-0.9-1-1.7-2-2.4-3l-0.1,2.2l5.1,5.5l7.9,2.2l4-4.1l2.9-7l-2.2-6.8L82.8,184z"/>
	<path class="st12" d="M299.1,233.9l2.4-0.9l-1.1-4l-7.7-18.7l3.3-0.1l2-0.3l-3.7-8l-8.1-13.8l2.3-0.7l-1.8-4.1l-4.1-11.1l2.6-1
		l-1.6-3.1l-6.4-13.2l2.4-0.6l-2.3-3.4l-5.5-8.5l-3.4,5.1l-2.6,5.4l-2.4,4.6l3.3,0.3l1.1,0.3l-4.8,7.2l-2.3,3.6l2.1,0.3l2.6,0.4
		l-10.2,18.6l-4.3,7.5l-0.4,1.1l4.8-0.3l2.4,0.6l-4.2,7.4l-4.5,7.4l-4.6,6v0.8l7.5-0.1l-2.7,6.1l-3.7,7.7l-7.1,12.1l65,0.9l-2-4.1
		L299.1,233.9L299.1,233.9z"/>
	<path class="st13" d="M268.8,156l1.2,0.5l0.5-3.2l-0.6-0.2L268.8,156L268.8,156z M271.5,152.5l-0.1,3l1.3,0.5l-0.1-3.1L271.5,152.5
		L271.5,152.5z M275.4,158.6l-0.1,3.9l1.4-0.1l-0.7-4L275.4,158.6L275.4,158.6z M268.2,167.9l1.1,0.4l0.7-4.2l-0.8,0.4L268.2,167.9
		L268.2,167.9z M271,166l-0.2,3.6l1.3,0.2l-0.1-3.5L271,166z M275.8,165.3l0.4,3.1l1-0.2l-0.4-2.3L275.8,165.3L275.8,165.3z
		 M278.2,163.5c0.1,0.3,0.9,2.6,0.9,2.6l1-0.9l-1.1-2.2L278.2,163.5z M265.5,182.3l1.4,0.1l0.7-3.4l-0.5-0.3L265.5,182.3
		L265.5,182.3z M264.1,178.5l1.1,0.1l0.5-3.1l-0.8,0.2L264.1,178.5L264.1,178.5z M272.3,178.2l0.2,5.5l1.9-0.4l-1.1-5.1H272.3
		L272.3,178.2z M276.5,175.7l0.6,2.6l1.3-0.7l-1.1-2L276.5,175.7L276.5,175.7z M281.1,184.1l0.8,3.8l0.9-0.4l-0.9-3.8L281.1,184.1
		L281.1,184.1z M264.1,194.7l1.4,0.6l0.6-5l-0.8-0.1L264.1,194.7L264.1,194.7z M267.3,189v3l1.4-0.2l-0.4-3.1L267.3,189L267.3,189z
		 M279.2,200.3l0.3,6l1.6-0.5l-1-5.9L279.2,200.3L279.2,200.3z M281.1,197.9l1.2,4.7l1.5,0.1l-1.6-5.1L281.1,197.9L281.1,197.9z
		 M260.9,209.7l1.4,0.8l1.3-4.6l-0.8-1.3L260.9,209.7L260.9,209.7z M264.8,203.2l-0.2,3.8l1.1-0.1l-0.2-3.9L264.8,203.2z
		 M269.4,212.7l1.3,0.2l0.3-4.9l-1-0.2L269.4,212.7L269.4,212.7z M281.9,225.5l0.5,4.7l1.1-0.4l-0.9-4.3H281.9L281.9,225.5z
		 M283.8,222.5l1.2,3.9l1.6-0.7l-1.5-4.4L283.8,222.5L283.8,222.5z M280.6,218.1l0.1,4.7h1.3l-0.1-4.8L280.6,218.1L280.6,218.1z
		 M258.8,232l2.2,0.1l1.2-6.6l-1.3-0.2L258.8,232L258.8,232z M263.3,227.6h1.3v-4.1l-1.1,0.3L263.3,227.6L263.3,227.6z M255.6,219.8
		l1.5-0.1l0.7-5.1l-1.1,0.1L255.6,219.8z M251.3,238.7c0,0,1.7,0.3,1.7,0c0-0.3,1-4.7,1-4.7l-1.4,0.4L251.3,238.7z M272.3,238.9
		l1.3,0.4v-6l-0.9,0.3L272.3,238.9L272.3,238.9z M291.5,233.3l0.4,3.4l1.1-0.9l-0.3-2.9L291.5,233.3L291.5,233.3z"/>
	<path class="st14" d="M299.1,233.9l2.4-0.9l-1.1-4l-7.7-18.7l3.3-0.1l2-0.3l-3.7-8l-8.1-13.8l2.3-0.7l-1.8-4.1l-4.1-11.1l2.6-1
		l-1.6-3.1l-6.4-13.2l2.4-0.6l-2.3-3.4l-4.1-6.4l1.1,4.5l0.4,5.1l-4.2,0.8l-1.8,0.4l3,0.1l3.5,0.1l0.9,10.9l0.4,4.1l-2,0.1l-3.9-0.6
		l-1.5-0.1l2.5,1.3l3.1,0.7l1.4,8.9l0.7,5v1.9l-3.6,0.7l-3.4,0.2l-2-0.1l1.6,0.6l4.7,0.4l1.8,2.9l4.8,11.6l1.1,4.3l-0.1,1.2
		l-3.7,0.6l-4,0.1l-4.5-0.4l4,1.2l4.2,1.1h2.4l0.8,3.4l0.7,12.9v4l-0.1,1.1l-3.1,0.3l-3,0.2l-8.2-0.3l-4.1-0.8l3.6,2l4.5,0.8
		l3.6,2.3l1.3,6.8l27.5,0.4l-2-4.1L299.1,233.9L299.1,233.9z"/>
	<path class="st12" d="M253.8,241l-6.2-12.2l3.3-0.9l-1.3-2.4l-4.8-12.4l2.3-1.2l-1.7-3.2l-5.6-11.5l-1.4-2.8l2.9-0.6l-1.5-3.8
		l-5.6-12.8l-2.6-2.4l-2.2,6.9l-3.2,7.9L225,193l2.4,0.9l-4.1,6.9l-3.5,5.6l4.2,1l-6,15.5l-1.8,3.7l2.3,0.7l3.1,0.6l-6.3,12.7
		l-3.1,5.7l-0.9,2.4l45.3,1.5l-0.5-2.6L253.8,241L253.8,241z"/>
	<path class="st14" d="M253.8,241l-6.2-12.2l3.3-0.9l-1.3-2.4l-4.8-12.4l2.3-1.2l-1.7-3.2l-5.6-11.5l-1.4-2.8l2.9-0.6l-1.5-3.8
		l-5.6-12.8l-1.3-1.2l1.4,6.1l0.6,5.7l0.5,5l-4.2,0.9l2.7,0.9l2.1,6.3l1.3,8.7v2.6l-3.1,1l-5.2-0.7l1.4,1.4l4.9,1.2l2.9,4.7l1.2,5.6
		l0.2,3.4l-5.1,0.4l-4.1-0.6l-4.3-0.1l2.7,1.9l4.3,0.8l3.7,0.7l1.5,9.8c0,0,0,4.4,0,8.2l18.5,0.6l-0.5-2.6L253.8,241z"/>
	<path class="st7" d="M283.4,198.1l0.5-22.4l0.2-10.5l-0.4-8.2H283l-0.4,8.7l-0.5,13.6l-1.9,31.3l-0.4,26.4l-0.4,16.7l5.3-0.5
		l-1.2-26.7L283.4,198.1L283.4,198.1z M290.6,181.1l-1.8,1.9l-2.8,2.3l-3.1,1.2l0.2,1.6l2.1-0.7l2-1l2.2-2l1.5-2l1-2.3l-0.6-0.3
		L290.6,181.1L290.6,181.1z M277.2,176.1l-2.4-2.8l-1.5-3.4l-0.6,0.2l0.8,2.7l1.8,3.2l2.4,2.4l2.7,1.2l2.6,0.5l0.2-1.7l-3.3-0.5
		L277.2,176.1L277.2,176.1z M295.1,192.9l-1.4,3.6l-2.6,3.1l-3.1,2.2l-5.5,0.9v1.5h2l3.6-1l2.8-1.8c0.9-1,1.8-2,2.7-3l1.7-3.3
		l0.9-4.2h-0.7L295.1,192.9z M274.2,194l-2.9-5.1l-0.9-4.1l-0.6,0.2l0.5,3.8l1.5,3l1.6,2.8l2.2,2.3l3.3,1.6l3.2,0.5v-1.9l-4.4-0.8
		L274.2,194L274.2,194z M287.6,161.9l-1.5,1.2l-2.4,0.6l-0.3,1.2l1.5-0.2l1.3-0.5l1.3-0.8l0.8-1.4l0.3-2h-0.5L287.6,161.9
		L287.6,161.9z"/>
	<path class="st17" d="M304.5,182.7l-5-0.4l-6,2.3l-3.2,4.9l0.9,5.9l3.2,4.3l6.5,1.8l4.8-2.2c0,0,2.7-2.8,2.8-3c0.1-0.3,1-6.3,1-6.3
		l-1.6-4.7L304.5,182.7z"/>
	<path class="st18" d="M304.5,182.7l-3.6-0.3l0.4,0.5l3.8,1.4l2.1,3.1c0,0-0.5,5-0.6,5.2c-0.1,0.3-3.2,3.3-3.2,3.3l-4.7,1.3l-6.1-2
		l-1.8-2.6l0.4,2.7l3.2,4.3l6.5,1.8l4.8-2.2c0,0,2.7-2.8,2.8-3c0.1-0.3,1-6.3,1-6.3l-1.6-4.7L304.5,182.7z"/>
	<path class="st17" d="M296.6,170l-4.6,0.6l-2.7,1.2l-2.8,3.5l0.4,5.2l2.5,3.6l6,1.8l4.1-1.3l2.6-3.8l1.1-6.2l-2.4-3.4L296.6,170
		L296.6,170z"/>
	<path class="st18" d="M296.6,170l-1.7,0.2l2.2,0.9l2.5,2l0.5,4.7l-2.1,3.9l-3.1,1l-3.8-0.1l-2.5-2.4l-1.4-5.8l-0.7,0.9l0.5,5.2
		l2.5,3.6l6,1.8l4.1-1.3l2.6-3.8l1.1-6.2l-2.4-3.4L296.6,170L296.6,170z"/>
	<path class="st17" d="M288.4,150.7l-3.5-0.5l-5.5,1.8l-3.4,5l-0.6,5.9l3,5.3l4.5,2.2l6.5-0.9l3.6-3.6l1.2-6.1l-1.8-5.9L288.4,150.7
		z"/>
	<path class="st18" d="M288.4,150.7l-3.4-0.5l4.7,2.4l2.4,2.7l0.5,6.3l-2.4,4.3l-4.6,2.1l-5.1-1.8l-3.9-4.2l0.1-5.9l-0.6,0.9
		l-0.6,5.9l3,5.3l4.5,2.2l6.5-0.9l3.6-3.6l1.2-6.1l-1.8-5.9L288.4,150.7L288.4,150.7z"/>
	<path class="st17" d="M271.6,158.2l-5.1,1.8l-3.3,4.9l-0.3,7.1l4.2,3.4l5.3,1.9l5.1-1.9l3.5-6.1v-5.8l-3.5-4L271.6,158.2
		L271.6,158.2z"/>
	<path class="st18" d="M271.6,158.2l-2.2,0.8l4.3,1.1l3.2,3.4l0.5,5.1l-3.3,4.7l-5,0.7l-4.4-3.5l-1.4-3.6l-0.2,5l4.2,3.4l5.3,1.9
		l5.1-1.9l3.5-6.1v-5.8l-3.5-4L271.6,158.2L271.6,158.2z"/>
	<path class="st17" d="M272.8,179.2l-5.7,0.3l-4,2.7l-2.4,5.6l2,6.9l4.9,3h5.1l3.8-1.9l2.5-5l0.2-6.1l-3.5-3.5L272.8,179.2
		L272.8,179.2z"/>
	<path class="st18" d="M272.8,179.2l-0.9,0.1l4.3,4.2l0.7,4l-1.4,3.9l-4.2,3.1c0,0-4.5-0.4-4.9-0.5c-0.4-0.2-3.7-3.9-3.7-3.9
		l-0.3-4.5l0.4-2.5l-2.1,4.8l2,6.9l4.9,3h5.1l3.8-2l2.5-5l0.2-6.1l-3.5-3.5L272.8,179.2z"/>
	<path class="st9" d="M407.3,234.6l-9.4-11l4.7-0.4l3.6-0.2l-3.8-6.5l-9-18.2l-4-6.9l6-0.7l3.4-0.4l-3.8-6l-4.7-7.8l-5.8-9l3.6-1.1
		l2.2-0.7l-4.3-5.4l-7.8-10.1l-8.3,11.9L367,168l5.2,0.9l-0.7,2.5l-12.1,15l3.8,0.9h4.7l-9.4,14.8l-10.3,13l3.1,1.1l4.9-0.7
		l-9.4,13.7l-7.6,12.6l-1.8,4.2l78,0.9l-0.9-3.8L407.3,234.6L407.3,234.6z"/>
	<path class="st10" d="M383.8,182.8l2,4.8l1.6-0.7l-2.6-4.7L383.8,182.8L383.8,182.8z M387.1,182.3l1.2,3.1l1.2-0.2l-2-3.3
		L387.1,182.3L387.1,182.3z M367,182.7l1.7,0.8l2.4-3.8l-0.3-0.9L367,182.7L367,182.7z M370.3,184.9l1.3,0.4l0.7-3.3l-0.9-0.8
		L370.3,184.9L370.3,184.9z M377.7,181.8l1.5-0.1v-4l-0.9,0.1L377.7,181.8L377.7,181.8z M364.1,213.2l1.9,0.1l1.8-4.4l-0.8-1.2
		L364.1,213.2L364.1,213.2z M369.1,214.9l1,0.7l1.7-4.6l-0.8-0.9L369.1,214.9L369.1,214.9z M377.6,213.3l1.1,0.3l0.7-4l-1-0.6
		L377.6,213.3L377.6,213.3z M390.2,211.3l1.1,4.5l1.4-0.8l-1.6-4.1L390.2,211.3L390.2,211.3z M374.3,204.8l1.5,0.5l0.8-5.9l-1,0.3
		L374.3,204.8L374.3,204.8z M377.7,197.5l0.4,4l1.6-0.3l-1.1-4.6L377.7,197.5L377.7,197.5z M389.1,201.6l0.1,3.4l1.1-0.4l-0.2-2.9
		H389.1z M357.9,209.5l1.6,0.8l1-4.6l-1-0.2L357.9,209.5L357.9,209.5z M370.1,199.8l1.1,0.3l0.3-3.5h-0.8L370.1,199.8L370.1,199.8z
		 M372.1,241.3l2,0.1l1.1-5.4l-1.8-0.8L372.1,241.3L372.1,241.3z M377.9,231.8l0.2,3.7l1.2-0.6l-0.4-3.5L377.9,231.8L377.9,231.8z
		 M368.1,230.1l1.3,0.8l1.2-5.8l-0.8-0.1L368.1,230.1L368.1,230.1z M390.3,234.6l2.1,4.5l1.1-0.8l-2.6-4.6L390.3,234.6L390.3,234.6z
		 M353.7,236.5l2,0.9l1.5-5.5L356,232L353.7,236.5z M390,224.2l0.7,3.4l1.3-1.1l-0.9-3.3L390,224.2L390,224.2z M376.4,166.3l1.5,0.2
		l0.7-3.2l-0.8-0.5L376.4,166.3L376.4,166.3z"/>
	<path class="st11" d="M407.3,234.6l-9.4-11l4.7-0.4l3.6-0.2l-3.8-6.5l-9-18.2l-4-6.9l6-0.7l3.4-0.4l-3.8-6l-4.7-7.8l-5.8-9l3.6-1.1
		l2.2-0.7l-4.3-5.4l-5.3-6.8l3.2,6.8l-2.5,5.3l-4.7,3.3l5.2,3.7l5.6,13.3l0.8,3.9l-10.9,0.8l-4.1-0.5l2.5,2l7.8,1.4l4.3,23.1
		l0.1,6.3l-10.6,0.9l-15.7-2.6l8.6,3.4l9.9,1.8l2.8,13.5l1.2,6.8l31.3,0.4l-0.9-3.8L407.3,234.6L407.3,234.6z"/>
	<path class="st6" d="M363.8,196.8l-5.9-1l5.6-4.6l0.4-4.2l-2-3.9l-3-1.1l-5.8,1.7l1.3-3.5l-0.7-4.4l-3.9-2.8l-4.6,1l-3.7,3l-1.3,5
		l0.1,4.6l1.3,2.9l-6.4,1.2l-4.2,5.6l-0.6,7.3l2.9,3.5l6.4,2.3l-5.2,6.7l-0.4,5.9l2.6,6.1l4.1,2.4l4.9,0.7l7-3.2l5,4l3.5-1.1
		l3.1-3.9l-0.5-6.3l-5.3-5.3l8.6-4.2l1.9-5.5l-1.3-5.4L363.8,196.8L363.8,196.8z"/>
	<path class="st5" d="M363.8,196.8l-5.9-1l5.6-4.6l0.4-4.2l-2-3.9l-3-1.1l-5.8,1.7l1.3-3.5l-0.7-4.4l-3.9-2.8l-1.8,0.4l2.6,1.4
		l1.8,3.2l-0.1,3.3l-1.1,3l-1.2,1.8l8,1l1,2.4l-0.4,2.1l-1.5,2.4l-2.2,1l3.5,2l4.5,3.1l0.2,3.4l-0.6,4.9l-1.1,3.1l-2.7,1.8l-2.5,0.9
		l-1.8,0.3l3.4,5.1l1.8,3.9l-0.6,2.7c-0.4,0.5-0.9,0.9-1.5,1.2c-1-0.5-2-1-3-1.5c-0.6-0.8-1.2-1.7-1.7-2.6l-2.7,1.4l-3.5,2.6
		c-0.9,0.4-1.9,0.8-2.9,1c-1.1-0.3-2.1-0.6-3.2-1.1c-0.2-0.3-2.5-2.3-2.9-2.8c-0.6-1.1-1.2-2.2-1.6-3.4c-0.2-0.5-0.7-3.7-0.7-3.7
		l0.5-2.7l-1.4,1.8l-0.4,5.9l2.6,6.1l4.1,2.4l4.9,0.7l7-3.2l5,4l3.5-1.1l3.1-3.9l-0.5-6.3l-5.3-5.3l8.6-4.2l1.9-5.5l-1.3-5.4
		L363.8,196.8z M353.3,197.1l0.3,1.4l1.1,0.5l1.5-0.8l0.2-1.5l-1.8-0.8L353.3,197.1L353.3,197.1z M353.4,191.9l0.7,1.2l1,0.1
		l0.6-1.3l-1.3-0.9L353.4,191.9L353.4,191.9z M343.6,180.1l0.8,1.5l1.2-0.1l1-2l-1.6-1.1L343.6,180.1L343.6,180.1z M338.5,216.7
		c0.3,0.9,0.7,1.7,1.2,2.5c0.2,0,1.7,0,1.8-0.4c0.1-0.4,0.7-2.9,0.7-2.9l-1.8-0.9L338.5,216.7z M336.7,200.3c0,0,0.4,1,0.7,0.9
		c0.3-0.2,0.9-0.2,1-0.4c0.1-0.2,0.3-1.8,0.3-1.8l-1.6,0.2L336.7,200.3z M335,198.4l0.9,0.6l1-0.7v-1.4l-1,0.2L335,198.4L335,198.4z
		 M351.7,192.8l-0.6,0.9l0.3,1.3l1.2,0.5l0.6-0.8l-0.3-1.2L351.7,192.8L351.7,192.8z M342.9,216.2l0.2,1.5l1,0.3l0.7-1l-0.3-1.5
		L342.9,216.2L342.9,216.2z"/>
	<path class="st7" d="M348.8,190.8l-0.1,1.6l3.3-2.8l4-3.5l-3.7,2L348.8,190.8L348.8,190.8z M354.9,207.5l-6,4.6l-0.2,2.1l1.1-1.2
		l3.9-3.4l3.9-3.5l3.8-3.4l-2.2,1.6L354.9,207.5L354.9,207.5z"/>
	<path class="st8" d="M342.8,196.6l-3.6-2.1l1.9,1.7l4.3,3.1l3.2,2.2l0.1-2.1l-1.8-0.5L342.8,196.6L342.8,196.6z M349.4,202l-0.4-12
		l-0.4-7.7l-0.3,9.3l-0.4,17l-0.6,18.6l-0.3,14.6l-0.3,5.2l-0.2,2.8l3.9-0.1l-1.1-26.3L349.4,202L349.4,202z"/>
	<path class="st7" d="M349.4,202l-0.4-12l-0.2-3.2c-0.1,1.5-0.1,2.8-0.1,3.7c0,0.6,0,1,0,1c0,0.2,0.1,6.4,0.1,6.4l-0.1,11.4
		l-0.3,13.6l0.2,16.3c0,0-0.1,7.3-0.2,10.5l2-0.1l-1.1-26.3V202z"/>
	<path class="st5" d="M387.2,267.2l-24.3,7.3l-36.4-5.1l-32.6-1l-5.7,8.3l-41.8,8.6l-47.6,1.3l-30.7-2.6l-3.2-2.6l-2.9-3.1l-6.2-2.7
		l-7.2-1.9l-25.9,0.6l-63.3-4.8l-35.1-1.9l-16-3.2L1.8,259l7.8,12.2h31.9l71.6,6.8l43.4,4.1l6.4,8.2l79.9,2.7l48.5-13l3.8-6.9
		l74.1,5.5l40.9-13v-7.4l-3.8,2.1L387.2,267.2L387.2,267.2z M86.9,244.9H75.2l0.3,2.7l2.9,1.6l9.9,0.2l12.5,0.6l13.6-0.3l0.2-1.9
		l-7.2-1L86.9,244.9L86.9,244.9z"/>
	<path class="st19" d="M114.1,240.4l-1.6-2.2c0,0-1.3-1.7-1.5-1.9c-0.2-0.2-1-0.9-1-0.9c0.1-0.1,0.2-0.2,0.1-0.3
		c-0.1-0.2-2.1-2.2-2.1-2.2l-0.6-0.5L107,232l-1.1-0.8l-0.2-0.4l-1.1-1.2l-2.8-1.8c0,0,0.7,4.7,0.7,4.9c0.2,0.6,0.5,1.2,0.9,1.8
		l0.6,2c0,0,0.1,2,0.1,2.3c0,0.3,0.6,0.6,0.7,0.8c0.1,0.2,1.1,1.1,1.1,1.3c0.1,0.2,2.6,2.9,2.6,2.9l2.1,1.6c0,0,2.7,0.4,2.8,0.6
		c0.5,0.2,1.1,0.3,1.6,0.3l0.3-0.7l-0.3-3L114.1,240.4z"/>
	<path class="st20" d="M114.9,242.4l-0.5,0.7l-0.9-0.4l-1-0.1l-0.8,1.4l-1.3,0.3l0.4,0.6l-0.8,0.4l0.6,0.4c0,0,2.7,0.5,2.8,0.6
		c0.5,0.2,1.1,0.3,1.6,0.3l0.3-0.7l-0.3-3L114.9,242.4z"/>
	<path class="st20" d="M113.2,244.9l-1.5-0.9l-1.5-0.9l-1.9-2l-2.2-2.7l-1.4-2.3l-1.1-3.9l-1.3-0.4c0.1,0.5,0.1,0.9,0.1,1
		c0.3,0.6,0.6,1.2,0.9,1.8l0.6,2c0,0,0.1,2,0.1,2.3c0,0.3,0.6,0.6,0.7,0.8c0.1,0.2,1.1,1.1,1.1,1.3c0.1,0.2,2.6,2.9,2.6,2.9l2.1,1.6
		c0,0,2.7,0.4,2.8,0.6c0.5,0.2,1.1,0.3,1.6,0.3l0.3-0.7l-0.1-0.7L113.2,244.9z"/>
	<path class="st21" d="M74.2,215.2l-0.2,0.5l0,0.9l-0.1,1.2l1.9-0.6c-0.1-0.2-1-1.8-1-1.8L74.2,215.2z"/>
	<path class="st19" d="M97.7,241.3l-0.7-2.4l-0.6-4.5l-2.9,1.2l-0.1,2.7l0.8,2l1.2,1.3l1.1,0.9l0.2,0.7l-0.2,1.3l-0.8,1.8l-0.3,0.3
		l-0.7,0.2l-0.6,0.8l0.1,0.5h1.6l1.1-0.1l0.1-0.9l0.3-0.4l0.1-0.6l0.7-1.3l1-1.8l-0.3-0.9L97.7,241.3L97.7,241.3z"/>
	<path class="st22" d="M98.3,242.7l-0.9,0.2l-0.6-0.4l-0.4,0.2l0.1,0.4l-0.2,1.3l-0.8,1.8l-0.3,0.3l-0.7,0.2l-0.6,0.8l0.1,0.5h1.6
		l1.1-0.1l0.1-0.9l0.3-0.4l0.1-0.6l0.7-1.3l1-1.8l-0.1-0.2L98.3,242.7L98.3,242.7z"/>
	<path class="st19" d="M79.3,239l0.3,2.9l0.1,1.6l-0.4,1.6l-0.8,0.3l-0.6,0.7l0.1,0.6l1.6-0.1l0.8-0.8l0.8-2.9v-7.3l-2.1-0.6
		L79.3,239L79.3,239z"/>
	<path class="st21" d="M79.2,237.9l0.1,1.1l0.3,2.9l0.1,1.6l-0.4,1.6l-0.8,0.3l-0.6,0.7l0.1,0.6l1.6-0.1l0.8-0.8l0.8-2.9v-4.8
		l-0.8-0.6L79.2,237.9L79.2,237.9z"/>
	<path class="st19" d="M102.4,238.4l0.9-3l0.8-2.9c0,0-0.4-2.3-0.5-2.5c-0.1-0.2-1.6-2.4-1.6-2.4l-3.4-1.4l-5.9-0.5l-5.1-0.5
		l-1.3-0.7l-1.9-0.2l-1-0.4l-1.6-2.5l-2.5-3.2l-2.2-1.2l-2.3,0.2l-2.5,1.8l-0.6,1.1l-0.9,0.8l-2.3,1.3l0.4,1.1l1,0.8l2-0.2h1.6
		l1.2,1l1.3,4.2l0.9,3.5l1.3,2.1l1.5,1.8l0.8,0.6l0.3,4.7l0.1,3l0.1,0.8l-0.4,1.5l-0.8,0.2l-0.6,1.1l0.3,0.3l2.5-0.3l0.6-2.4
		l0.1-1.4l0.2-1.4l0.4-1.3l0.6-4.9l0.8-0.6l1.9,0.4l3.4-0.1l4.4-0.6l1.2,1.8l0.7,1.8l1.6,1.5l2.8,1.4l0.7,0.7l-0.4,3.9l-0.8,0.3
		l-0.7,0.6l-0.2,1.1l0.6,0.1h1.6l1-0.9l0.5-0.4l0.1-2.4l1-3.3l-1.5-1.9L102.4,238.4z"/>
	<path class="st22" d="M81.5,236.8l-0.3,0.6l-0.8,0.2l0.2,4.1l0.1,3l0.1,0.8l-0.4,1.5l-0.8,0.2l-0.6,1.1l0.3,0.3l2.5-0.3l0.6-2.4
		l0.1-1.4l0.2-1.4l0.4-1.3l0.6-4.5l-0.8-0.9L81.5,236.8L81.5,236.8z M102.5,240l-0.4,0.9l-1.3,0.2l-2.9-0.5h-0.5l0.4,0.3l2.8,1.4
		l0.7,0.7L101,247l-0.8,0.3l-0.7,0.6l-0.2,1.1l0.6,0.1h1.6l1-0.9l0.5-0.4l0.1-2.4l1-3.3l-1.5-1.9L102.5,240L102.5,240z"/>
	<path class="st20" d="M90.7,235.4H87l-3.1-0.3l-0.3,0.6l0.4,1l0.6-0.5l1.9,0.4l3.4-0.1l4.4-0.6l0.2-0.8l-1,0.1L90.7,235.4
		L90.7,235.4z M79.3,234.1l-1.4-3l-0.3-2.3l0.3-3.3l0.4-1.7l-0.3-0.8l-1.4-0.4l-2.1-0.9l-1.7-0.3l-1.1,0.5l-1.5,0.7l-1.5,0.3
		l0.1,0.4l1,0.7l2-0.2h1.6l1.2,1l1.3,4.2l0.9,3.5l1.3,2.1l1.5,1.8l0.5,0.3l-0.1-1L79.3,234.1z"/>
	<path class="st20" d="M97.3,238.5l-1.7-3.5l0.5-1.4l-0.8-0.4l-3.2,1.2l-4.4,0.3l-4.2-0.9l-1.1,0.8l0.3,1.5v5.3l-0.5,1.9l-0.1,2.4
		l-0.4,2.1l-0.2,0.7l0.5,0l0.6-2.4l0.1-1.4l0.2-1.4l0.4-1.3l0.6-4.9l0.8-0.6l1.9,0.4l3.4-0.1l4.4-0.6l1.2,1.8l0.7,1.8l1.6,1.5
		l2.8,1.4l0.7,0.7l-0.3,3.1l0.4-0.3l0.5-2.8l-2.1-2.1L97.3,238.5L97.3,238.5z"/>
	<path class="st23" d="M92.5,225.7l-5.1-0.5l-1.3-0.7l-1.9-0.2l-1-0.4l-1.6-2.5l-2.5-3.2l-2.2-1.2l-2.2,0.2c0.2,0.1,0.3,0.3,0.3,0.3
		l1.1,0.2l1.8,0.6c0,0,1.5,1.8,1.5,2c0.1,0.2,2.4,3.4,2.4,3.4l1,1.8l1.5,0.7l2.4,0.3l2.3-0.3l5,0.2l5.4,0.8l1.5,0.1l-2.5-1.1
		L92.5,225.7z"/>
	<path class="st21" d="M71.7,220.3l-0.4,0.4l0.7-0.4l1-0.5l-0.4-0.1L71.7,220.3L71.7,220.3z"/>
	<path class="st23" d="M76.8,214.5l-1,2.3l0,1.3l0.5,0.1l0.5,0.6l0.3,0.6l1.5-1l0.2-0.6l-1.2-3L76.8,214.5L76.8,214.5z"/>
	<path class="st19" d="M76.8,214.5l-0.1,0.2l0.3,0.4v2.8l-0.2,1.1l0.2,0.3l1.5-1l0.2-0.6l-1.2-3L76.8,214.5L76.8,214.5z"/>
	<path class="st20" d="M76.2,216.4l0,0.8l-0.1,0.9l0,0.1l0.2,0l0.4,0.4l0.2-1.2l0-1.3l0-0.7L76.2,216.4L76.2,216.4z"/>
	<path class="st22" d="M76.8,214.5l-0.1,0.2l0.3,0.4v1.4l0.5-0.2l0.7,0.3l-0.7-1.8L76.8,214.5L76.8,214.5z"/>
	<path class="st21" d="M70.6,223.4l-0.9,0.1l-0.5,0.1l0.2,0.2l0.6-0.1l0.9-0.2l1-0.3l0.6,0l0.7,0v-0.1l-1.2-0.1L70.6,223.4
		L70.6,223.4z M68.4,222.2l0.3,0.8l0.2-0.4h-0.1v-0.2l0.3,0v-0.3l-0.4-0.1L68.4,222.2L68.4,222.2z"/>
	<path class="st22" d="M72.4,219.5l0.1,0.2l0,0.2l-0.1,0.2l0.5-0.1l0.5,0l-0.4-0.3L72.4,219.5L72.4,219.5z"/>
	<path class="st12" d="M381.6,249.5l-5-10l2.7-0.8l-1-2l-3.9-10.1l1.9-1l-1.4-2.7l-4.6-9.4l-1.1-2.3l2.4-0.5l-1.2-3.1l-4.6-10.4
		l-2.1-2l-1.8,5.6l-2.7,6.4l-1.1,2.9l2,0.8l-3.3,5.6l-2.9,4.6l3.4,0.9l-5,12.6l-1.4,3l1.9,0.6l2.6,0.5l-5.1,10.3l-2.6,4.7l-0.8,2
		L384,257l-0.4-2.1L381.6,249.5L381.6,249.5z"/>
	<path class="st14" d="M381.6,249.5l-5-10l2.7-0.8l-1-2l-3.9-10.1l1.9-1l-1.4-2.7l-4.6-9.4l-1.1-2.3l2.4-0.5l-1.2-3.1l-4.6-10.4
		l-1.1-1l1.2,5l0.5,4.7l0.4,4.1l-3.4,0.8l2.2,0.8l1.7,5.1l1.1,7.1v2.1l-2.6,0.9l-4.3-0.6l1.1,1.1l4,1l2.4,3.8l0.9,4.6l0.2,2.8
		l-4.2,0.3l-3.3-0.5l-3.5-0.1l2.2,1.5l3.5,0.7l3.1,0.6l1.2,8c0,0,0,3.6,0,6.7L384,257l-0.4-2.1L381.6,249.5z"/>
	<path class="st9" d="M157.7,237.4l-9.8-11.4l4.9-0.5l3.7-0.2l-3.9-6.7l-9.3-18.8l-4.2-7.2l6.3-0.7l3.5-0.5l-4-6.3L140,177l-6-9.3
		l3.7-1.2l2.3-0.7l-4.4-5.6l-8.1-10.4l-8.6,12.3l-3,6.3l5.3,0.9l-0.7,2.6l-12.6,15.6l4,0.9h4.9l-9.8,15.4l-10.7,13.5l3.2,1.2
		l5.1-0.7l-9.8,14.2l-7.9,13l-1.9,4.4l80.9,0.9l-0.9-3.9L157.7,237.4L157.7,237.4z"/>
	<path class="st10" d="M133.3,183.7l2.1,5l1.6-0.7l-2.7-4.9L133.3,183.7L133.3,183.7z M136.7,183.1l1.3,3.3l1.3-0.2l-2.1-3.4
		L136.7,183.1L136.7,183.1z M115.9,183.6l1.7,0.8l2.4-3.9l-0.4-0.9L115.9,183.6L115.9,183.6z M119.2,185.9l1.4,0.5l0.7-3.5l-0.9-0.8
		L119.2,185.9L119.2,185.9z M127,182.7l1.5-0.1v-4.2l-0.9,0.1L127,182.7L127,182.7z M112.8,215.2l2,0.1l1.9-4.5l-0.8-1.3
		L112.8,215.2L112.8,215.2z M118.1,217.1l1.1,0.7l1.7-4.8l-0.8-0.9L118.1,217.1L118.1,217.1z M126.9,215.3l1.2,0.4l0.7-4.2l-1.1-0.6
		L126.9,215.3L126.9,215.3z M139.9,213.2l1.2,4.7l1.4-0.8l-1.6-4.3L139.9,213.2L139.9,213.2z M123.4,206.5l1.5,0.5l0.8-6.2l-1,0.4
		L123.4,206.5L123.4,206.5z M127,198.9l0.4,4.2l1.6-0.4l-1.2-4.8L127,198.9L127,198.9z M138.8,203.3l0.1,3.5l1.2-0.5l-0.2-3H138.8
		L138.8,203.3z M106.4,211.4l1.6,0.8l1-4.8l-1-0.2L106.4,211.4L106.4,211.4z M119.1,201.4l1.2,0.4l0.4-3.6h-0.8L119.1,201.4
		L119.1,201.4z M121.1,244.4l2.1,0.1l1.2-5.6l-1.9-0.8L121.1,244.4L121.1,244.4z M127.1,234.5l0.2,3.8l1.3-0.6l-0.5-3.6L127.1,234.5
		L127.1,234.5z M117,232.8l1.4,0.8l1.3-6l-0.8-0.1L117,232.8L117,232.8z M140,237.4l2.2,4.7l1.2-0.8l-2.7-4.8L140,237.4L140,237.4z
		 M102,239.4l2.1,0.9l1.5-5.7l-1.2,0.1L102,239.4L102,239.4z M139.7,226.7l0.7,3.5l1.4-1.2l-0.9-3.4L139.7,226.7L139.7,226.7z
		 M125.6,166.6l1.5,0.2l0.7-3.4L127,163L125.6,166.6L125.6,166.6z"/>
	<path class="st11" d="M157.7,237.4l-9.8-11.4l4.9-0.5l3.7-0.2l-3.9-6.7l-9.3-18.8l-4.2-7.2l6.3-0.7l3.5-0.5l-4-6.3L140,177l-6-9.3
		l3.7-1.2l2.3-0.7l-4.4-5.6l-5.5-7.1l3.3,7.1l-2.6,5.5l-4.9,3.4l5.3,3.8l5.8,13.8l0.8,4.1l-11.3,0.8l-4.3-0.5l2.6,2.1l8.1,1.4
		l4.4,24l0.1,6.5l-11,0.9l-16.3-2.7l8.9,3.5l10.2,1.8l2.9,14.1l1.2,7.1l32.5,0.4l-0.9-3.9L157.7,237.4L157.7,237.4z"/>
	<path class="st6" d="M174,190l-7-1.2l6.7-5.5l0.5-5.1l-2.4-4.6l-3.6-1.3l-6.9,2l1.6-4.1l-0.9-5.3l-4.6-3.3l-5.5,1.1l-4.4,3.6
		l-1.6,6l0.1,5.5l1.5,3.4l-7.6,1.5l-5,6.7l-0.7,8.8l3.5,4.2l7.6,2.8l-6.2,8.1l-0.4,7l3.1,7.4l4.9,2.9l5.9,0.9l8.3-3.9l6,4.8l4.2-1.3
		l3.7-4.6l-0.6-7.5l-6.4-6.4l10.3-5.1l2.3-6.6l-1.6-6.5L174,190L174,190z"/>
	<path class="st5" d="M174,190l-7-1.2l6.7-5.5l0.5-5.1l-2.4-4.6l-3.6-1.3l-6.9,2l1.6-4.1l-0.9-5.3l-4.6-3.3l-2.2,0.5l3.1,1.7
		l2.2,3.8l-0.2,3.9L159,175l-1.4,2.1l9.5,1.1l1.1,2.9l-0.4,2.4l-1.8,2.8l-2.6,1.2l4.2,2.5l5.3,3.7l0.3,4l-0.7,5.9l-1.3,3.7l-3.2,2.2
		l-3,1.1l-2.1,0.3l4,6.1l2.2,4.7l-0.7,3.2c-0.5,0.6-1.1,1.1-1.7,1.5c-1.2-0.5-2.4-1.2-3.6-1.8c-0.7-1-1.4-2-2-3.1l-3.2,1.7l-4.2,3.1
		c-1.1,0.5-2.3,0.9-3.5,1.2c-1.3-0.3-2.6-0.7-3.8-1.3c-0.3-0.4-3-2.8-3.4-3.3c-0.8-1.3-1.4-2.6-1.9-4c-0.2-0.6-0.8-4.5-0.8-4.5
		l0.6-3.3l-1.6,2.1l-0.4,7l3.1,7.4l4.9,2.9l5.9,0.9l8.3-3.9l6,4.8l4.2-1.3l3.7-4.6l-0.6-7.5l-6.4-6.4l10.3-5.1l2.3-6.6l-1.6-6.5
		L174,190z M161.3,190.3l0.4,1.7l1.3,0.6l1.8-1l0.3-1.8l-2.2-1L161.3,190.3L161.3,190.3z M161.5,184.2l0.9,1.4l1.1,0.2l0.7-1.5
		l-1.5-1L161.5,184.2L161.5,184.2z M149.8,170.1l1,1.8l1.4-0.1l1.2-2.4l-1.9-1.3L149.8,170.1L149.8,170.1z M143.7,213.8
		c0,0,1.1,3,1.4,3c0.3,0,2,0,2.1-0.4c0.1-0.4,0.9-3.4,0.9-3.4l-2.2-1.1L143.7,213.8z M141.6,194.2c0,0,0.5,1.2,0.9,1.1
		c0.4-0.2,1.1-0.3,1.1-0.5c0.1-0.3,0.4-2.1,0.4-2.1l-1.9,0.3L141.6,194.2z M139.4,191.9l1.1,0.7l1.2-0.8v-1.7l-1.2,0.2L139.4,191.9
		L139.4,191.9z M159.5,185.3l-0.7,1l0.4,1.6l1.5,0.5l0.7-1L161,186L159.5,185.3L159.5,185.3z M148.9,213.2l0.3,1.7l1.1,0.4l0.8-1.1
		l-0.3-1.8L148.9,213.2L148.9,213.2z"/>
	<path class="st7" d="M156,182.9l-0.1,1.9l4-3.3l4.9-4.1l-4.4,2.3L156,182.9L156,182.9z M163.3,202.8l-7.2,5.5l-0.2,2.6l1.3-1.4
		l4.6-4l4.7-4.2l4.6-4l-2.6,1.9L163.3,202.8L163.3,202.8z"/>
	<path class="st8" d="M148.8,189.8l-4.3-2.5l2.3,2l5.1,3.7l3.8,2.6l0.1-2.5l-2.1-0.7L148.8,189.8L148.8,189.8z M156.7,196.3
		l-0.5-14.4l-0.5-9.2l-0.4,11.1l-0.5,20.3l-0.7,22.2l-0.4,17.4l-0.4,6.2l-0.2,3.4l4.7-0.1l-1.3-31.4V196.3L156.7,196.3z"/>
	<path class="st7" d="M156.7,196.3l-0.5-14.4l-0.2-3.9c-0.1,1.7-0.1,3.4-0.2,4.5c0,0.7,0,1.1,0,1.2c0,0.3,0.1,7.6,0.1,7.6l-0.1,13.7
		l-0.3,16.2l0.3,19.5c0,0-0.1,8.7-0.2,12.5l2.4-0.1l-1.3-31.4V196.3z"/>
	<path class="st9" d="M741.4,228.3l-8.2-9.6l4.1-0.4l3.1-0.2l-3.3-5.7l-7.8-15.9l-3.5-6.1l5.3-0.6l2.9-0.4l-3.3-5.3l-4.1-6.9
		l-5.1-7.9l3.2-1l2-0.6l-3.7-4.7l-6.9-8.8l-7.3,10.4l-2.6,5.3l4.5,0.8l-0.6,2.2l-10.6,13.2l3.3,0.8h4.1l-8.2,13l-9,11.4l2.7,1
		l4.3-0.6l-8.2,12l-6.7,11l-1.6,3.7l68.4,0.8l-0.8-3.3L741.4,228.3L741.4,228.3z"/>
	<path class="st10" d="M720.8,182.9l1.8,4.2l1.4-0.6l-2.3-4.1L720.8,182.9L720.8,182.9z M723.7,182.4l1.1,2.8l1.1-0.2l-1.8-2.9
		L723.7,182.4L723.7,182.4z M706.1,182.8l1.5,0.7l2.1-3.3l-0.3-0.8L706.1,182.8L706.1,182.8z M708.9,184.8l1.2,0.4l0.6-3l-0.8-0.7
		L708.9,184.8L708.9,184.8z M715.5,182.1l1.3-0.1v-3.5l-0.8,0.1L715.5,182.1L715.5,182.1z M703.5,209.5l1.7,0.1l1.6-3.8l-0.7-1.1
		L703.5,209.5L703.5,209.5z M707.9,211.1l0.9,0.6l1.5-4l-0.7-0.8L707.9,211.1L707.9,211.1z M715.4,209.6l1,0.3l0.6-3.5l-0.9-0.5
		L715.4,209.6L715.4,209.6z M726.4,207.9l1,3.9l1.2-0.7l-1.4-3.6L726.4,207.9L726.4,207.9z M712.5,202.2l1.3,0.4l0.7-5.2l-0.9,0.3
		L712.5,202.2z M715.5,195.8l0.3,3.5l1.4-0.3l-1-4L715.5,195.8L715.5,195.8z M725.4,199.4l0.1,2.9l1-0.4l-0.2-2.5L725.4,199.4
		L725.4,199.4z M698.1,206.3l1.4,0.7l0.9-4l-0.9-0.2L698.1,206.3L698.1,206.3z M708.8,197.8l1,0.3l0.3-3h-0.7L708.8,197.8
		L708.8,197.8z M710.5,234.2l1.8,0.1l1-4.7l-1.6-0.7L710.5,234.2L710.5,234.2z M715.6,225.8l0.2,3.2l1.1-0.5l-0.4-3L715.6,225.8z
		 M707.1,224.4l1.2,0.7l1.1-5.1l-0.7-0.1L707.1,224.4L707.1,224.4z M726.5,228.3l1.9,3.9l1-0.7l-2.3-4L726.5,228.3z M694.4,230
		l1.8,0.8l1.3-4.8l-1,0.1L694.4,230L694.4,230z M726.2,219.3l0.6,3l1.2-1l-0.8-2.9L726.2,219.3L726.2,219.3z M714.3,168.5l1.3,0.2
		l0.6-2.9l-0.7-0.4L714.3,168.5z"/>
	<path class="st11" d="M741.4,228.3l-8.2-9.6l4.1-0.4l3.1-0.2l-3.3-5.7l-7.8-15.9l-3.5-6.1l5.3-0.6l2.9-0.4l-3.3-5.3l-4.1-6.9
		l-5.1-7.9l3.2-1l2-0.6l-3.7-4.7l-4.7-6l2.8,6l-2.2,4.6l-4.1,2.8l4.5,3.2l4.9,11.7l0.7,3.4l-9.5,0.7l-3.6-0.4l2.1,1.8l6.9,1.2
		l3.7,20.2l0.1,5.5l-9.3,0.8l-13.7-2.3l7.6,2.9l8.6,1.6l2.5,11.9l1,6l27.5,0.3l-0.8-3.3L741.4,228.3L741.4,228.3z"/>
	<path class="st12" d="M608.4,233.7l2.6-0.9l-1.2-4.3l-8.4-20.5l3.6-0.1l2.2-0.3l-4-8.7l-8.8-15l2.5-0.8l-2-4.5l-4.5-12.1l2.8-1.1
		l-1.7-3.4l-7-14.4l2.6-0.6l-2.5-3.7l-6.1-9.3l-3.7,5.6l-2.8,5.9l-2.6,5l3.6,0.3l1.2,0.3l-5.3,7.9l-2.5,3.9l2.3,0.3l2.8,0.5
		l-11.2,20.3l-4.7,8.2l-0.5,1.2l5.3-0.3l2.6,0.6l-4.7,8.1l-5,8l-5,6.5v0.9l8.2-0.1l-2.9,6.7l-4,8.4l-7.8,13.2l71,0.9l-2.2-4.5
		L608.4,233.7L608.4,233.7z"/>
	<path class="st13" d="M575.2,148.7l1.3,0.6l0.6-3.5l-0.7-0.2L575.2,148.7z M578.1,144.8l-0.1,3.3l1.4,0.6l-0.1-3.4L578.1,144.8
		L578.1,144.8z M582.4,151.5l-0.1,4.3l1.5-0.1l-0.7-4.4L582.4,151.5L582.4,151.5z M574.7,161.7l1.2,0.5l0.8-4.7l-0.9,0.5
		L574.7,161.7L574.7,161.7z M577.7,159.6l-0.2,3.9l1.4,0.2l-0.1-3.8L577.7,159.6L577.7,159.6z M582.9,158.8l0.5,3.4l1-0.2l-0.5-2.4
		L582.9,158.8L582.9,158.8z M585.5,156.8c0.1,0.4,0.9,2.8,0.9,2.8l1-0.9l-1.2-2.4L585.5,156.8z M571.6,177.4l1.5,0.1l0.8-3.7
		l-0.6-0.4L571.6,177.4L571.6,177.4z M570.1,173.2l1.2,0.1l0.6-3.4l-0.8,0.2L570.1,173.2L570.1,173.2z M579.1,172.8l0.2,6l2.1-0.5
		l-1.2-5.6H579.1L579.1,172.8z M583.6,170.2l0.7,2.8l1.4-0.8l-1.2-2.2L583.6,170.2z M588.7,179.3l0.8,4.2l0.9-0.5l-0.9-4.2
		L588.7,179.3L588.7,179.3z M570.1,190.9l1.5,0.7l0.7-5.5l-0.8-0.1L570.1,190.9z M573.6,184.7v3.3l1.5-0.2l-0.5-3.4L573.6,184.7
		L573.6,184.7z M586.6,197l0.4,6.5l1.7-0.6l-1.1-6.4L586.6,197z M588.7,194.3l1.3,5.1l1.6,0.1l-1.8-5.6L588.7,194.3L588.7,194.3z
		 M566.6,207.3l1.5,0.8l1.4-5l-0.8-1.4L566.6,207.3L566.6,207.3z M570.9,200.2l-0.2,4.2l1.2-0.1l-0.2-4.3L570.9,200.2L570.9,200.2z
		 M575.9,210.5l1.4,0.2l0.3-5.3l-1-0.2L575.9,210.5L575.9,210.5z M589.5,224.4l0.6,5.1l1.2-0.5l-0.9-4.7H589.5L589.5,224.4z
		 M591.6,221.2l1.3,4.3l1.7-0.8l-1.6-4.8L591.6,221.2L591.6,221.2z M588.1,216.4l0.1,5.1h1.4l-0.1-5.2L588.1,216.4L588.1,216.4z
		 M564.3,231.5l2.4,0.1l1.3-7.2l-1.4-0.2L564.3,231.5L564.3,231.5z M569.3,226.8h1.4v-4.5l-1.2,0.4L569.3,226.8L569.3,226.8z
		 M560.8,218.3l1.6-0.1l0.8-5.6l-1.1,0.1L560.8,218.3L560.8,218.3z M556.2,238.9c0,0,1.8,0.4,1.8,0s1.1-5.1,1.1-5.1l-1.5,0.5
		L556.2,238.9z M579.1,239.1l1.4,0.5v-6.5l-1,0.3L579.1,239.1L579.1,239.1z M600,233.1l0.5,3.7l1.2-0.9l-0.4-3.1L600,233.1
		L600,233.1z"/>
	<path class="st14" d="M608.4,233.7l2.6-0.9l-1.2-4.3l-8.4-20.5l3.6-0.1l2.2-0.3l-4-8.7l-8.8-15l2.5-0.8l-2-4.5l-4.5-12.1l2.8-1.1
		l-1.7-3.4l-7-14.4l2.6-0.6l-2.5-3.7l-4.5-7l1.2,4.9l0.5,5.6l-4.6,0.9l-2,0.5l3.3,0.2l3.8,0.1l1,11.9l0.4,4.5l-2.2,0.1l-4.3-0.7
		l-1.6-0.1l2.7,1.5l3.4,0.8l1.5,9.7l0.8,5.5v2l-4,0.8l-3.7,0.2l-2.3-0.2l1.7,0.7l5.1,0.4l1.9,3.2l5.3,12.7l1.2,4.7l-0.1,1.3l-4,0.6
		l-4.4,0.1l-5-0.5l4.4,1.3l4.6,1.3h2.6l0.8,3.7l0.8,14.1v4.3l-0.1,1.2l-3.3,0.3l-3.3,0.2l-9-0.3l-4.5-0.9l3.9,2.3l4.9,0.8l4,2.5
		l1.4,7.4l30,0.4l-2.2-4.5L608.4,233.7L608.4,233.7z"/>
	<path class="st15" d="M520.2,41.6l6.8-1.4l5.1,2.9l3.3-16.3l5.8-6l8.1-1.5l5.4,2.7l7.4,15.9l7.8-8l9.1-1l7,5.1l2.1,6.8l-2.1,8.5
		l9.1-2.7l6.2,2.5l5,5l1.4,6.8l-22.9,0.2l-30.1,0.4L533.1,61l-13-0.2L509.4,60l2.7-9.5L520.2,41.6L520.2,41.6z"/>
	<path class="st16" d="M548.8,38.6l-3.2,3.2c0,0-2.6,0-2.9-0.9c-0.3-0.9-2.3-5-2.3-5l4.7-1.5L548.8,38.6z M571.8,38l0.9,3.2l-2,0.6
		l-1.7-1.2l0.6-2.9L571.8,38L571.8,38z M526.7,54.6l11.1,1.2l3.2-5.5l9.3-4.4l7,2.9l4.4,5.8l4.4-5.8l7.3-2.3l6.1,4.4l2.3,7.9
		l5.8-2.3l7.6-1.2l8.4,2.6l1.9,3.2l-20.5,0.2l-30.1,0.4L533.1,61l-13-0.2l-1-0.1l1.8-4.1L526.7,54.6L526.7,54.6z"/>
	<path class="st15" d="M481.6,64.6l-7.2-4.3l-9.9-0.4l-8,4.1l-8.2-13.8l-7.2-3.5l-7.2,2.7l-4.5,8.5l-1.2,8.4l-5-5.2l-3.7-0.8
		l-5.1,3.5l-5.8-10.9l-6.2-2.5l-7.4,2.3l-4.9,5.3l-1.6,10.3l-5.4-1.9l-5.6,2.7l-2.3,4.9l-1.4,6.6l16.9-0.4l22,0.2h31.5l23.3-0.8
		l16.3,0.2l4.1-0.6l-1-8L481.6,64.6L481.6,64.6z"/>
	<path class="st16" d="M463.5,72l-5.8-3.1l-6.2,0.6l-3.9,5.8l-12.4,1L427,76l-2.5-3.5l-5.5-1.2l-4.3,5.4l-1.4-4.1l-6.4-8.4l-6.4-1.7
		l-5.8,3.7l-2.5,10.9l-3.1-3.3l-5.8-0.6l-3.5,2.9l-0.7,4.1l11.8-0.3l22,0.2h31.5l22.2-0.7l-0.1-3.7L463.5,72L463.5,72z M471.3,65.2
		l-2.1,2.7l2.1,2.3c0,0,3.7,0.6,3.5,0c0-1.5,0-3,0.2-4.5L471.3,65.2z M441.6,57.4l-3.1,4.9l2.5,2.9c0,0,1.9,0.4,2.7-0.4
		c1-1.3,1.8-2.8,2.5-4.3l-2.1-2.9L441.6,57.4z M435,54.1v3.1l1.9,1.9l1.5-2.1l-1.4-3.7L435,54.1L435,54.1z"/>
	<path class="st7" d="M604.4,175.1l-0.9,21l-0.9,19l-0.7,12.5l0.1,7.1l-0.3,5.9v1.2l3.2-0.4l-0.3-14.1l0.3-24.2l0.2-24.1l0.1-12.5
		l-0.4-3.5L604.4,175.1L604.4,175.1z M613.6,177.1l-2.3,1.9l-3.7,2.2l-2.8,0.9l-0.2,1.2l1.6,0.2l2.3-1.2l2.8-2l2.7-2l1.6-3l0.5-3.9
		l-0.7,2.4L613.6,177.1L613.6,177.1z M609.3,202.6l-2.4,2.7l-2.8,2l-0.2,2.5l2.4-1.6l1.2-1.5l2-3l1.7-3.1l-0.8-0.6L609.3,202.6
		L609.3,202.6z M609.8,168.1l-2.1,2.5l-2.7,0.8v1.4l2.4-0.6l2-1.3l1.5-2.9l0.7-2.1l-0.5-0.1L609.8,168.1z M600.1,172.9l-2.3-1.5
		l-1.9-2.1l-1-2.2l-0.6-0.1l0.6,2.3l1.9,2.4l2.3,2.1l3,0.9l2.8,0.3l0.1-1.6h-2.4L600.1,172.9L600.1,172.9z M600.3,189.8
		c-0.2-0.2-2.6-1.1-2.6-1.1l-2.8-3.1l-2.3-4.9l-0.5-0.2l0.5,1.9l1.5,3.7l2.1,3.2l3.1,1.8l5.1,0.8v-1.6l-1.7,0.2
		C601.9,190.2,601.1,190,600.3,189.8L600.3,189.8z"/>
	<path class="st17" d="M620.5,166.6l-3.5-0.7l-4,0.7l-4.2,5.4l-0.5,4.5l2.7,6.3l6.8,2.2l4.5-0.7l3.8-3.3l1.7-5.9l-1.8-6.2
		L620.5,166.6L620.5,166.6z"/>
	<path class="st18" d="M620.5,166.6l-1.1-0.2l1.9,1.5l3.3,3l-0.3,6.6l-3.9,3.7l-6,0.1l-4.2-2.8l-1.7-4.8l-0.3,2.8l2.7,6.3l6.8,2.2
		l4.5-0.7l3.8-3.3l1.7-5.9l-1.8-6.2L620.5,166.6L620.5,166.6z"/>
	<path class="st17" d="M613.9,160.1l-3.8,1l-2.3,2.7l-0.6,3.6l2,2.6l3.7,1.3c1.1-0.3,2.1-0.7,3.1-1.1c0.1-0.2,2.1-3,2.1-3l0.2-4
		l-2-2.5L613.9,160.1z"/>
	<path class="st18" d="M615.3,160.4l1.1,0.7l0.6,2l-1.3,4.3l-2.6,0.7l-3.5,0.1l-2-2.8l-0.3,2l2,2.6l3.7,1.3c1.1-0.3,2.1-0.7,3.1-1.1
		c0.1-0.2,2.1-3,2.1-3l0.2-4l-2-2.5L615.3,160.4z"/>
	<path class="st17" d="M607.2,152l-4.6,0.9l-3.5,3.2l-0.3,5.2l1.6,3.2l4.5,2l4-0.6l2.4-2.7l1.2-5.6l-2.2-4.1L607.2,152L607.2,152z"
		/>
	<path class="st18" d="M607.2,152l-1.3,0.3l2.9,1.1l2.1,2.5l-0.3,3.9l-2.7,3.3l-3.5,0.2c0,0-3.9-1.3-4.1-1.4c-0.5-0.8-1-1.7-1.3-2.6
		l-0.2,2.2l1.6,3.2l4.5,2l4-0.6l2.4-2.7l1.2-5.6l-2.2-4.1L607.2,152z"/>
	<path class="st17" d="M601.1,159l-3.1-0.7l-5.8,1.4l-3,3.4l-0.9,4.5l1.2,4.8l3.8,3.9l4.6,1.2l4-0.7l3.9-4.8l0.9-4.4l-2.1-6.6
		L601.1,159L601.1,159z"/>
	<path class="st18" d="M601.1,159l-3.1-0.7l-5.7,1.4l3-0.3l2.2,0.4l3,1.2l2.5,3.3l0.6,3.3l-1.4,4.5l-3.8,2.7l-4-0.7l-4-3.4l-1.7-4.4
		l-0.2,1.2l1.2,4.8l3.8,3.9l4.6,1.2l4-0.7l3.9-4.8l0.9-4.4l-2.1-6.6L601.1,159L601.1,159z"/>
	<path class="st17" d="M594.6,172.9l-4.5-1.3l-4,1.6l-2.8,2.9l0.4,6l2.6,3l4.4,1.1l3.3-0.5l3-2.5l1-4.2l-0.8-4.1L594.6,172.9
		L594.6,172.9z"/>
	<path class="st18" d="M595.4,173.5l0.7,2.9L596,180l-2.2,3c-0.9,0.5-1.8,1-2.7,1.3c-1.3,0-2.6-0.1-4-0.2c-0.9-0.6-1.7-1.3-2.5-2
		l-1-1.1l0.1,1.1l2.6,3.1l4.4,1.1l3.3-0.5l3-2.5l1-4.2l-0.7-4.1L595.4,173.5z"/>
	<path class="st15" d="M770.8,13.4l-9.3-6.8l-8.1,1.2l-6.2,7.6l-5.2,17.9l-6.2-6.8l-5.6-0.4l-3.9,1.9l-3.5,3.1l-6-8l-5.8-0.6l-5,2.1
		l-8.2-13.4l-8.3-1.2l-9.3,1.9l-5.6,6l-2.1,11.7l-0.6,3.3l-8.1-3.9l-9.3,1l-7,4.5l-3.1,4.3l-1.7,4.1l31.3-0.8l37.9,0.4l37.7-0.2
		h24.9l-0.6-18.3L770.8,13.4L770.8,13.4z"/>
	<path class="st16" d="M685.3,24.5l2.3,2.9l3.3-0.2l1.2-4.5l-5.1-1.6L685.3,24.5z M756.2,12.5l-2.9,1.9l0.6,4.1l1.8,2.3l3.9-0.2
		l1.7-3.1l-1.4-5.2L756.2,12.5L756.2,12.5z M663.4,36.2l-9.1,1.5l-2.5,5l21.7-0.5h1l-2.9-3.5L663.4,36.2L663.4,36.2z M760.7,23.7
		l-8,2.3l-5.6,13.6l-14.4-0.6l-3.1-3.3l-2.3-1.2l-4.9,0.4l-5.4,4.7l-2.7-3.5l-3.3-3.9l-5.4-1.7l-11.3,1.6l-4.5,5.4l-1.2,4.8
		l22.8,0.2l37.7-0.2h20.1l-3-12.2L760.7,23.7L760.7,23.7z"/>
	<path class="st12" d="M483.3,235.5l-6.2-12.2l3.3-0.9l-1.3-2.4l-4.8-12.4l2.3-1.2l-1.7-3.3l-5.6-11.5l-1.4-2.8l2.9-0.6l-1.5-3.8
		l-5.6-12.8l-2.6-2.5l-2.2,6.9l-3.3,7.9l-1.3,3.6l2.5,0.9l-4.1,6.9l-3.5,5.6l4.2,1l-6.1,15.5l-1.7,3.7l2.3,0.7l3.1,0.6L445,235
		l-3.1,5.7l-0.9,2.4l45.3,1.5l-0.5-2.6L483.3,235.5L483.3,235.5z"/>
	<path class="st14" d="M483.3,235.5l-6.1-12.2l3.2-0.9l-1.3-2.4l-4.8-12.4l2.3-1.2l-1.7-3.3l-5.6-11.5l-1.4-2.8l2.9-0.6l-1.5-3.8
		l-5.6-12.8l-1.3-1.3l1.4,6.1l0.6,5.7l0.5,5l-4.2,0.9l2.7,0.9l2.1,6.3l1.3,8.7v2.5l-3.1,1l-5.2-0.7l1.4,1.4l4.9,1.2l2.9,4.6l1.1,5.6
		l0.2,3.4l-5.1,0.4l-4.1-0.6l-4.3-0.1l2.7,1.8l4.3,0.8l3.7,0.7l1.5,9.8c0,0,0,4.4,0,8.2l18.5,0.6l-0.5-2.6L483.3,235.5z"/>
	<path class="st12" d="M457.4,237.2l2.6-0.9l-1.2-4.3l-8.4-20.4l3.6-0.2l2.2-0.3l-4-8.7l-8.8-15l2.5-0.8l-2-4.5l-4.5-12.1l2.8-1.1
		l-1.7-3.4l-7-14.4l2.6-0.6l-2.5-3.7l-6.1-9.3l-3.7,5.6l-2.8,5.9l-2.6,5l3.6,0.3l1.2,0.3l-5.3,7.9l-2.5,3.9l2.3,0.3l2.8,0.5
		l-11.2,20.3l-4.7,8.2l-0.5,1.2l5.3-0.3l2.6,0.6l-4.7,8.1l-5,8.1l-5,6.5v0.9l8.2-0.2l-2.9,6.7l-4,8.4l-7.8,13.2l71,0.9l-2.2-4.5
		L457.4,237.2L457.4,237.2z"/>
	<path class="st13" d="M424.2,152.1l1.3,0.6l0.6-3.5l-0.7-0.2L424.2,152.1L424.2,152.1z M427.1,148.3l-0.1,3.3l1.4,0.6l-0.1-3.4
		L427.1,148.3L427.1,148.3z M431.4,154.9l-0.1,4.3l1.5-0.1l-0.7-4.4L431.4,154.9L431.4,154.9z M423.7,165.1l1.2,0.5l0.8-4.7
		l-0.9,0.5L423.7,165.1L423.7,165.1z M426.7,163l-0.2,4l1.4,0.2l-0.1-3.8L426.7,163L426.7,163z M431.9,162.2l0.5,3.4l1-0.2l-0.5-2.5
		L431.9,162.2L431.9,162.2z M434.5,160.3c0.1,0.3,0.9,2.8,0.9,2.8l1-0.9l-1.2-2.4L434.5,160.3z M420.6,180.8l1.5,0.1l0.8-3.7
		l-0.6-0.3L420.6,180.8L420.6,180.8z M419.1,176.6l1.2,0.1l0.6-3.4l-0.8,0.2L419.1,176.6L419.1,176.6z M428.1,176.3l0.2,6l2.1-0.5
		l-1.2-5.6H428.1L428.1,176.3z M432.6,173.6l0.7,2.8l1.4-0.8l-1.2-2.2L432.6,173.6L432.6,173.6z M437.7,182.8l0.8,4.2l0.9-0.5
		l-0.9-4.2L437.7,182.8L437.7,182.8z M419.1,194.3l1.5,0.7l0.7-5.5l-0.8-0.1L419.1,194.3L419.1,194.3z M422.6,188.2v3.3l1.5-0.2
		l-0.5-3.4L422.6,188.2L422.6,188.2z M435.6,200.5l0.4,6.5l1.7-0.6l-1.1-6.4L435.6,200.5L435.6,200.5z M437.7,197.8l1.3,5.1l1.6,0.1
		l-1.8-5.6L437.7,197.8L437.7,197.8z M415.6,210.7l1.5,0.8l1.4-5l-0.8-1.4L415.6,210.7L415.6,210.7z M419.9,203.6l-0.2,4.2l1.2-0.1
		l-0.2-4.3L419.9,203.6L419.9,203.6z M424.9,214l1.4,0.2l0.3-5.4l-1-0.2L424.9,214L424.9,214z M438.5,227.9l0.6,5.1l1.2-0.5
		l-0.9-4.7H438.5L438.5,227.9z M440.6,224.7l1.3,4.3l1.7-0.8l-1.6-4.8L440.6,224.7L440.6,224.7z M437.1,219.9l0.1,5.1h1.4l-0.1-5.2
		L437.1,219.9L437.1,219.9z M413.3,235l2.4,0.1l1.3-7.2l-1.4-0.2L413.3,235L413.3,235z M418.3,230.2h1.4v-4.5l-1.2,0.3L418.3,230.2
		L418.3,230.2z M409.8,221.7l1.6-0.1l0.8-5.6l-1.2,0.1L409.8,221.7L409.8,221.7z M405.2,242.3c0,0,1.8,0.3,1.8,0s1-5.1,1-5.1
		l-1.5,0.5L405.2,242.3z M428.1,242.6l1.4,0.5v-6.5l-1.1,0.4L428.1,242.6L428.1,242.6z M449,236.5l0.5,3.7l1.2-0.9l-0.4-3.1
		L449,236.5L449,236.5z"/>
	<path class="st14" d="M457.4,237.2l2.6-0.9l-1.2-4.3l-8.4-20.4l3.6-0.2l2.2-0.3l-4-8.7l-8.8-15l2.5-0.8l-2-4.5l-4.5-12.1l2.8-1.1
		l-1.7-3.4l-7-14.4l2.6-0.6l-2.5-3.7l-4.5-7l1.2,4.9l0.5,5.6l-4.7,0.9l-2,0.5l3.3,0.2l3.8,0.1l1,11.9l0.4,4.5l-2.2,0.1l-4.3-0.7
		l-1.6-0.1l2.7,1.5l3.4,0.8l1.5,9.7l0.8,5.5v2l-4,0.8l-3.7,0.2l-2.3-0.2l1.7,0.7l5.1,0.4l1.9,3.2l5.3,12.7l1.2,4.6l-0.1,1.3l-4,0.6
		l-4.4,0.1l-5-0.5l4.4,1.3l4.6,1.2h2.6l0.8,3.7l0.8,14.1v4.3l-0.1,1.3l-3.3,0.3l-3.3,0.2l-9-0.3l-4.5-0.9l3.9,2.2l4.9,0.8l4,2.5
		l1.4,7.4l30,0.4l-2.2-4.5L457.4,237.2L457.4,237.2z"/>
	<path class="st8" d="M477.7,173.7l-6.4-4l5.6,4.9l2.9,2.7l2.3,2.1l-0.1-2.4L477.7,173.7L477.7,173.7z M475.2,195.7l-7.9-5l6.3,5.1
		l4.8,4.1l3.3,2.4l-0.1-2.6L475.2,195.7L475.2,195.7z"/>
	<path class="st7" d="M481.9,167.9l0.2,2.5l5.9-5.8l4.8-4.4l-5.3,3.5L481.9,167.9L481.9,167.9z M482.2,189.6v2.4l3.2-2.6l5.7-4.8
		l7-6.4l-7.2,4.9L482.2,189.6L482.2,189.6z M488.9,202.6l-6.3,4.7v3.8l4.6-4.3l6.2-5.8l7.1-7.7l-3.4,2.5L488.9,202.6L488.9,202.6z"
		/>
	<path class="st8" d="M482.8,184.9l-0.4-18.2l-0.8-12.3l-0.2,12.5l-1,30.5V221l-0.4,11.5l-0.4,9.9v2l5.8-0.2l-0.8-13.5L482.8,184.9
		L482.8,184.9z"/>
	<path class="st7" d="M482.8,184.9l-0.4-18.2l-0.3-4.1l-0.3,3.2l0.1,10.1l-0.1,19.3l0.3,23.6l0.3,17.4l-0.1,8.1l3.1-0.1l-0.8-13.5
		L482.8,184.9L482.8,184.9z"/>
	<path class="st9" d="M499.3,183.3l-6.7,3.4l-3.2,6.5l0.7,8.1l4.3,3.8l6.7,1.2l5.9-1.9c0,0,3.1-5.9,3.1-6.2c0-0.3,1.4-7.8,1.4-7.8
		l-4.6-4.5L499.3,183.3z"/>
	<path class="st11" d="M499.3,183.3l-2.1,1.1l2.4,0.7l5.2,1.9l3.6,5.3c0,0-0.4,6-0.5,6.3c-0.1,0.3-5.2,3.8-5.2,3.8l-7.4-1l-4.6-4.2
		l0.1-6.5l-1.3,2.6l0.7,8.1l4.3,3.8l6.7,1.2l5.9-1.9c0,0,3.1-5.9,3.1-6.2c0-0.3,1.4-7.8,1.4-7.8l-4.6-4.5L499.3,183.3z"/>
	<path class="st9" d="M482.9,142.6l-6.6,2.5l-3.3,4.1l-0.2,6.4c0.9,1.3,1.9,2.6,2.9,3.8c0.3,0.1,3.4,2.4,3.4,2.4l4.1,0.6l2.6-1.2
		c1.5-1.2,2.9-2.6,4.3-4c0-0.3,0.8-6.6,0.8-6.6l-3-5.4L482.9,142.6z"/>
	<path class="st11" d="M482.9,142.6l-1.1,0.4l4.5,4.6l0.6,5l-1.3,3.9l-2.5,1.2h-5.7l-4.6-3.1l0,1.1c0.9,1.3,1.9,2.6,2.9,3.8
		c0.3,0.1,3.4,2.4,3.4,2.4l4.1,0.6l2.6-1.2c1.5-1.2,2.9-2.6,4.3-4c0-0.3,0.8-6.6,0.8-6.6l-3-5.4L482.9,142.6z"/>
	<path class="st9" d="M495,156.2h-4.5l-3.7,2.6l-1.3,4.7l1.9,5.7l4.7,3.6l5.2-0.7c1.3-1.1,2.6-2.4,3.8-3.7c0-0.3,1.4-6.3,1.4-6.3
		l-2.4-4.7L495,156.2z"/>
	<path class="st11" d="M495.2,168.3l-4.9-1.4l-3.3-4.8l0.9-4.1l-1.1,0.8l-1.3,4.7l1.9,5.7l4.7,3.6l5.2-0.7c1.3-1.1,2.6-2.4,3.8-3.7
		c0-0.1,0.3-1.4,0.6-2.8l-2.2,1.2L495.2,168.3z"/>
	<path class="st9" d="M473,160.2l-3.1-1.1l-6.6,1.8l-3.2,5.1l1.2,6.2c0,0,3.1,4.5,3.4,4.5s6.5,0.6,6.5,0.6l4.4-2.9l2.3-6l-1.7-5.6
		L473,160.2z"/>
	<path class="st11" d="M473,160.2l-0.9-0.3l1.9,2.9l1,4l-1.7,5.4l-2.9,1.9h-5.8l-3-4.4l-1.1-4.6l-0.5,0.8l1.2,6.2
		c0,0,3.1,4.5,3.4,4.5c0.3,0,6.5,0.6,6.5,0.6l4.4-2.9l2.3-6l-1.7-5.6L473,160.2z"/>
	<path class="st9" d="M470.6,182l-2.6-0.7c-0.3,0-7.2,1.2-7.2,1.2l-5.1,5.6l-0.2,7.1l5.1,5.5l7.9,2.2l4-4.1l2.9-7l-2.2-6.8
		L470.6,182z"/>
	<path class="st11" d="M470.6,182l-2.6-0.7c-0.1,0-0.6,0.1-1.4,0.2l2.9,2.9l2.2,5.5l-1,5.6l-3.9,3.1c0,0-4.4-0.9-4.7-0.9
		c-0.3,0-4-1.7-4.3-1.8c-0.9-1-1.7-2-2.4-3l-0.1,2.2l5.1,5.5l7.9,2.2l4-4.1l2.9-7l-2.2-6.8L470.6,182z"/>
	<path class="st12" d="M686.9,231.9l2.4-0.9l-1.1-4l-7.7-18.7l3.3-0.1l2-0.3l-3.7-8l-8.1-13.8l2.3-0.7l-1.8-4.1l-4.1-11.1l2.6-1
		l-1.6-3.1l-6.4-13.2l2.4-0.6l-2.3-3.4l-5.5-8.5l-3.4,5.1l-2.6,5.4l-2.4,4.6l3.3,0.3l1.1,0.3l-4.8,7.2l-2.3,3.6l2.1,0.3l2.6,0.4
		l-10.2,18.6l-4.3,7.5l-0.4,1.1l4.8-0.3l2.4,0.6l-4.2,7.4l-4.5,7.4l-4.6,6v0.8l7.5-0.1l-2.7,6.1l-3.7,7.7l-7.1,12.1l65,0.9l-2-4.1
		L686.9,231.9L686.9,231.9z"/>
	<path class="st13" d="M656.6,154l1.2,0.5l0.5-3.2l-0.6-0.2L656.6,154L656.6,154z M659.3,150.5l-0.1,3l1.3,0.5l-0.1-3.1L659.3,150.5
		L659.3,150.5z M663.2,156.6l-0.1,3.9l1.4-0.1l-0.7-4L663.2,156.6L663.2,156.6z M656,165.9l1.1,0.4l0.7-4.2l-0.8,0.4L656,165.9
		L656,165.9z M658.8,164l-0.2,3.6l1.3,0.2l-0.1-3.5L658.8,164z M663.6,163.3l0.4,3.1l1-0.2l-0.4-2.3L663.6,163.3L663.6,163.3z
		 M666,161.5c0.1,0.3,0.9,2.6,0.9,2.6l1-0.9l-1.1-2.2L666,161.5z M653.3,180.3l1.4,0.1l0.7-3.4l-0.5-0.3L653.3,180.3L653.3,180.3z
		 M651.9,176.5l1.1,0.1l0.5-3.1l-0.8,0.2L651.9,176.5L651.9,176.5z M660.1,176.2l0.2,5.5l1.9-0.4l-1.1-5.1H660.1z M664.2,173.7
		l0.6,2.6l1.3-0.7l-1.1-2L664.2,173.7L664.2,173.7z M668.9,182.1l0.7,3.8l0.9-0.4l-0.9-3.8L668.9,182.1L668.9,182.1z M651.9,192.7
		l1.4,0.6l0.6-5l-0.8-0.1L651.9,192.7L651.9,192.7z M655.1,187v3l1.4-0.2l-0.4-3.1L655.1,187L655.1,187z M667,198.3l0.3,6l1.6-0.5
		l-1-5.9L667,198.3L667,198.3z M668.9,195.9l1.2,4.7l1.5,0.1l-1.6-5.1L668.9,195.9L668.9,195.9z M648.7,207.7l1.4,0.8l1.3-4.6
		l-0.8-1.3L648.7,207.7L648.7,207.7z M652.6,201.2l-0.2,3.8l1.1-0.1l-0.2-3.9L652.6,201.2L652.6,201.2z M657.2,210.7l1.3,0.2
		l0.3-4.9l-1-0.2L657.2,210.7L657.2,210.7z M669.7,223.4l0.5,4.7l1.1-0.4l-0.9-4.3H669.7L669.7,223.4z M671.6,220.5l1.2,3.9l1.6-0.7
		l-1.5-4.4L671.6,220.5L671.6,220.5z M668.4,216.1l0.1,4.7h1.3l-0.1-4.8L668.4,216.1L668.4,216.1z M646.6,229.9l2.2,0.1l1.2-6.6
		l-1.3-0.2L646.6,229.9L646.6,229.9z M651.1,225.6h1.3v-4.1l-1.1,0.3L651.1,225.6L651.1,225.6z M643.4,217.8l1.5-0.1l0.7-5.1
		l-1.1,0.1L643.4,217.8z M639.1,236.6c0,0,1.7,0.3,1.7,0c0-0.3,1-4.7,1-4.7l-1.4,0.4L639.1,236.6z M660.1,236.9l1.3,0.4v-6l-0.9,0.3
		L660.1,236.9L660.1,236.9z M679.3,231.3l0.4,3.4l1.1-0.9l-0.3-2.9L679.3,231.3L679.3,231.3z"/>
	<path class="st14" d="M686.9,231.9l2.4-0.9l-1.1-4l-7.7-18.7l3.3-0.1l2-0.3l-3.7-8l-8.1-13.8l2.3-0.7l-1.8-4.1l-4.1-11.1l2.6-1
		l-1.6-3.1l-6.4-13.2l2.4-0.6l-2.3-3.4l-4.1-6.4l1.1,4.5l0.4,5.1l-4.2,0.8l-1.8,0.4l3,0.1l3.5,0.1l0.9,10.9l0.4,4.1l-2,0.1l-3.9-0.6
		l-1.5-0.1l2.5,1.3l3.1,0.7l1.4,8.9l0.7,5v1.9l-3.6,0.7l-3.4,0.2l-2-0.1l1.6,0.6l4.7,0.4l1.8,2.9l4.8,11.6l1.1,4.3l-0.1,1.2
		l-3.7,0.6l-4,0.1l-4.5-0.4l4,1.2l4.2,1.1h2.4l0.8,3.4l0.7,12.9v4l-0.1,1.1L666,232l-3,0.2l-8.2-0.3l-4.1-0.8l3.5,2l4.6,0.8l3.6,2.3
		l1.3,6.8l27.5,0.4l-2-4.1L686.9,231.9L686.9,231.9z"/>
	<path class="st12" d="M641.6,239l-6.2-12.2l3.3-0.9l-1.3-2.4l-4.8-12.4l2.3-1.2l-1.7-3.2l-5.6-11.5l-1.4-2.8l2.9-0.6l-1.5-3.8
		l-5.6-12.8l-2.6-2.4l-2.2,6.9l-3.2,7.9l-1.3,3.6l2.4,0.9l-4.1,6.9l-3.5,5.6l4.2,1l-6,15.5l-1.7,3.7l2.3,0.7l3.1,0.6l-6.3,12.7
		l-3.1,5.7l-0.9,2.4l45.3,1.5l-0.5-2.6L641.6,239L641.6,239z"/>
	<path class="st14" d="M641.6,239l-6.2-12.2l3.3-0.9l-1.3-2.4l-4.8-12.4l2.3-1.2l-1.7-3.2l-5.6-11.5l-1.4-2.8l2.9-0.6l-1.5-3.8
		L622,175l-1.3-1.2l1.4,6.1l0.6,5.7l0.5,5l-4.2,0.9l2.7,0.9l2.1,6.3l1.3,8.7v2.6l-3.1,1l-5.2-0.7l1.4,1.4l4.9,1.2l2.9,4.7l1.2,5.6
		l0.2,3.4l-5.1,0.4l-4.1-0.6l-4.3-0.1l2.7,1.9l4.3,0.8l3.7,0.7l1.5,9.8c0,0,0,4.4,0,8.2l18.5,0.6l-0.5-2.6L641.6,239z"/>
	<path class="st7" d="M671.2,196.1l0.5-22.4l0.2-10.5l-0.4-8.2h-0.7l-0.4,8.7l-0.5,13.6l-1.9,31.3l-0.4,26.4l-0.4,16.7l5.3-0.5
		l-1.2-26.7L671.2,196.1L671.2,196.1z M678.4,179.1l-1.8,1.9l-2.8,2.3l-3.1,1.2l0.2,1.6l2.1-0.7l2-1l2.2-2l1.5-2l1-2.3l-0.6-0.3
		L678.4,179.1L678.4,179.1z M665,174.1l-2.4-2.8l-1.5-3.4l-0.6,0.2l0.8,2.7l1.8,3.2l2.4,2.4l2.7,1.2l2.6,0.5l0.2-1.7l-3.3-0.5
		L665,174.1L665,174.1z M682.9,190.9l-1.4,3.6l-2.6,3.1l-3.1,2.2l-5.5,0.9v1.5h2l3.6-1l2.8-1.8c0.9-1,1.8-2,2.7-3l1.7-3.3l0.9-4.2
		h-0.7L682.9,190.9z M662,192l-2.9-5.1l-0.9-4.1l-0.6,0.2l0.5,3.8l1.5,3l1.6,2.8l2.2,2.3l3.3,1.6l3.2,0.5v-1.9l-4.4-0.8L662,192
		L662,192z M675.3,159.9l-1.5,1.2l-2.4,0.6l-0.3,1.2l1.5-0.2l1.3-0.5l1.3-0.8l0.8-1.4l0.3-2H676L675.3,159.9L675.3,159.9z"/>
	<path class="st17" d="M692.3,180.7l-5-0.4l-6,2.3l-3.2,4.9l0.9,5.9l3.2,4.3l6.5,1.8l4.8-2.2c0,0,2.7-2.8,2.8-3c0.1-0.3,1-6.3,1-6.3
		l-1.6-4.7L692.3,180.7z"/>
	<path class="st18" d="M692.3,180.7l-3.6-0.3l0.4,0.5l3.8,1.4l2.1,3.1c0,0-0.5,5-0.6,5.2c-0.1,0.3-3.2,3.3-3.2,3.3l-4.7,1.3l-6.1-2
		l-1.8-2.6l0.4,2.7l3.2,4.3l6.5,1.8l4.8-2.2c0,0,2.7-2.8,2.8-3c0.1-0.3,1-6.3,1-6.3l-1.6-4.7L692.3,180.7z"/>
	<path class="st17" d="M684.4,168l-4.6,0.6l-2.7,1.2l-2.8,3.5l0.4,5.2l2.5,3.6l6,1.8l4.1-1.3l2.6-3.8l1.1-6.2l-2.4-3.4L684.4,168
		L684.4,168z"/>
	<path class="st18" d="M684.4,168l-1.7,0.2l2.2,0.9l2.5,2l0.5,4.7l-2.1,3.9l-3.1,1l-3.8-0.1l-2.5-2.4l-1.4-5.8l-0.7,0.9l0.5,5.2
		l2.5,3.6l6,1.8l4.1-1.3l2.6-3.8l1.1-6.2l-2.4-3.4L684.4,168L684.4,168z"/>
	<path class="st17" d="M676.2,148.7l-3.5-0.5l-5.5,1.8l-3.4,5l-0.6,5.9l3,5.3l4.5,2.2l6.5-0.9l3.6-3.6l1.2-6.1l-1.8-5.9L676.2,148.7
		z"/>
	<path class="st18" d="M676.2,148.7l-3.4-0.5l4.7,2.4l2.4,2.7l0.5,6.3l-2.4,4.3l-4.6,2.1l-5.1-1.8l-3.9-4.2l0.1-5.9l-0.6,0.9
		l-0.6,5.9l3,5.3l4.5,2.2l6.5-0.9l3.6-3.6l1.2-6.1l-1.8-5.9L676.2,148.7L676.2,148.7z"/>
	<path class="st17" d="M659.4,156.2l-5.1,1.8l-3.3,4.9l-0.3,7.1l4.2,3.4l5.3,1.9l5.1-1.9l3.5-6.1v-5.8l-3.5-4L659.4,156.2
		L659.4,156.2z"/>
	<path class="st18" d="M659.4,156.2l-2.2,0.8l4.3,1.1l3.2,3.4l0.5,5.1l-3.3,4.7l-5,0.7l-4.4-3.5l-1.4-3.6l-0.2,5l4.2,3.4l5.3,1.9
		l5.1-1.9l3.5-6.1v-5.8l-3.5-4L659.4,156.2L659.4,156.2z"/>
	<path class="st17" d="M660.6,177.2l-5.7,0.3l-4,2.7l-2.4,5.6l2,6.9l4.9,3h5.1l3.8-1.9l2.5-5l0.2-6.1l-3.5-3.5L660.6,177.2
		L660.6,177.2z"/>
	<path class="st18" d="M660.6,177.2l-0.9,0.1l4.3,4.2l0.7,4l-1.4,3.9l-4.2,3.1c0,0-4.5-0.4-4.9-0.5c-0.4-0.2-3.7-3.9-3.7-3.9
		l-0.3-4.5l0.4-2.5l-2.1,4.8l2,6.9l4.9,3h5.1l3.8-2l2.5-5l0.2-6.1l-3.5-3.5L660.6,177.2z"/>
	<path class="st9" d="M790.1,232.5l-9.4-11l4.7-0.4l3.6-0.2l-3.8-6.5l-9-18.2l-4-6.9l6-0.7l3.4-0.4l-3.8-6l-4.7-7.8l-5.8-9l3.6-1.1
		l2.2-0.7l-4.3-5.4l-7.8-10.1l-8.3,11.9l-2.9,6.1l5.2,0.9l-0.7,2.5l-12.1,15l3.8,0.9h4.7l-9.4,14.8L731,213l3.1,1.1l4.9-0.7
		l-9.4,13.7l-7.6,12.6l-1.8,4.2l78,0.9l-0.9-3.8L790.1,232.5L790.1,232.5z"/>
	<path class="st10" d="M766.6,180.8l2,4.8l1.6-0.7l-2.6-4.7L766.6,180.8L766.6,180.8z M769.8,180.2l1.2,3.1l1.2-0.2l-2-3.3
		L769.8,180.2L769.8,180.2z M749.8,180.7l1.7,0.8l2.4-3.8l-0.3-0.9L749.8,180.7L749.8,180.7z M753,182.9l1.3,0.4l0.7-3.3l-0.9-0.8
		L753,182.9L753,182.9z M760.5,179.8l1.5-0.1v-4l-0.9,0.1L760.5,179.8L760.5,179.8z M746.9,211.1l1.9,0.1l1.8-4.4l-0.8-1.2
		L746.9,211.1L746.9,211.1z M751.9,212.9l1,0.7l1.7-4.6l-0.8-0.9L751.9,212.9L751.9,212.9z M760.4,211.3l1.1,0.3l0.7-4l-1-0.6
		L760.4,211.3L760.4,211.3z M773,209.2l1.1,4.5l1.4-0.8l-1.6-4.1L773,209.2L773,209.2z M757.1,202.7l1.5,0.5l0.8-5.9l-1,0.3
		L757.1,202.7L757.1,202.7z M760.5,195.5l0.4,4l1.6-0.3l-1.1-4.6L760.5,195.5L760.5,195.5z M771.8,199.6l0.1,3.4l1.1-0.4l-0.2-2.9
		H771.8z M740.7,207.5l1.6,0.8l1-4.6l-1-0.2L740.7,207.5L740.7,207.5z M752.9,197.8l1.1,0.3l0.3-3.5h-0.8L752.9,197.8L752.9,197.8z
		 M754.8,239.3l2,0.1l1.1-5.4l-1.8-0.8L754.8,239.3L754.8,239.3z M760.7,229.7l0.2,3.7l1.2-0.6l-0.5-3.5L760.7,229.7L760.7,229.7z
		 M750.9,228.1l1.3,0.8l1.2-5.8l-0.8-0.1L750.9,228.1L750.9,228.1z M773.1,232.5l2.1,4.5l1.1-0.8l-2.6-4.6L773.1,232.5L773.1,232.5z
		 M736.5,234.4l2,0.9l1.5-5.5l-1.1,0.1L736.5,234.4z M772.7,222.2l0.7,3.4l1.3-1.1l-0.9-3.3L772.7,222.2L772.7,222.2z M759.2,164.3
		l1.5,0.2l0.7-3.2l-0.8-0.5L759.2,164.3L759.2,164.3z"/>
	<path class="st11" d="M790.1,232.5l-9.4-11l4.7-0.4l3.6-0.2l-3.8-6.5l-9-18.2l-4-6.9l6-0.7l3.4-0.4l-3.8-6l-4.7-7.8l-5.8-9l3.6-1.1
		l2.2-0.7l-4.3-5.4l-5.3-6.8l3.2,6.8l-2.5,5.3l-4.7,3.3l5.2,3.7l5.6,13.3l0.8,3.9l-10.9,0.8L756,188l2.5,2l7.8,1.4l4.3,23.1l0.1,6.3
		l-10.6,0.9l-15.7-2.6l8.6,3.4l9.9,1.8l2.8,13.5l1.2,6.8l31.3,0.4l-0.9-3.8L790.1,232.5L790.1,232.5z"/>
	<path class="st6" d="M751.6,194.7l-5.9-1l5.6-4.6l0.4-4.2l-2-3.9l-3-1.1l-5.8,1.7l1.3-3.5l-0.7-4.4l-3.9-2.8l-4.6,1l-3.7,3l-1.3,5
		l0.1,4.6l1.3,2.9l-6.4,1.2l-4.2,5.6l-0.6,7.3l2.9,3.5l6.4,2.3l-5.2,6.7l-0.4,5.9l2.6,6.1l4.1,2.4l4.9,0.7l7-3.2l5,4l3.5-1.1
		l3.1-3.9l-0.5-6.3l-5.4-5.3l8.6-4.2l1.9-5.5l-1.3-5.4L751.6,194.7L751.6,194.7z"/>
	<path class="st5" d="M751.6,194.7l-5.9-1l5.6-4.6l0.4-4.2l-2-3.9l-3-1.1l-5.8,1.7l1.3-3.5l-0.7-4.4l-3.9-2.8l-1.8,0.4l2.6,1.4
		l1.8,3.2l-0.1,3.3l-1.1,3l-1.2,1.8l8,1l1,2.4l-0.4,2.1l-1.5,2.4l-2.2,1l3.5,2l4.5,3.1l0.2,3.4l-0.6,4.9l-1.1,3.1l-2.7,1.8l-2.5,0.9
		l-1.8,0.3l3.4,5.1l1.8,3.9l-0.6,2.7c-0.4,0.5-0.9,0.9-1.4,1.2c-1-0.5-2-1-3-1.5c-0.6-0.8-1.2-1.7-1.7-2.6l-2.7,1.4l-3.5,2.6
		c-0.9,0.4-1.9,0.8-2.9,1c-1.1-0.3-2.1-0.6-3.2-1.1c-0.2-0.3-2.5-2.3-2.9-2.8c-0.6-1.1-1.2-2.2-1.6-3.4c-0.2-0.5-0.7-3.7-0.7-3.7
		l0.5-2.7l-1.4,1.8l-0.4,5.9l2.6,6.1l4.1,2.4l4.9,0.7l7-3.2l5,4l3.5-1.1l3.1-3.9l-0.5-6.3l-5.4-5.3l8.6-4.2l1.9-5.5l-1.3-5.4
		L751.6,194.7z M741.1,195l0.3,1.4l1.1,0.5l1.5-0.8l0.2-1.5l-1.8-0.8L741.1,195z M741.2,189.9l0.7,1.2l1,0.1l0.6-1.3l-1.3-0.9
		L741.2,189.9L741.2,189.9z M731.4,178.1l0.8,1.5l1.2-0.1l1-2l-1.6-1.1L731.4,178.1z M726.3,214.7c0.3,0.9,0.7,1.7,1.2,2.5
		c0.2,0,1.7,0,1.8-0.4c0.1-0.4,0.7-2.9,0.7-2.9l-1.8-0.9L726.3,214.7z M724.5,198.3c0,0,0.4,1,0.7,0.9c0.3-0.2,0.9-0.2,1-0.4
		c0.1-0.2,0.3-1.8,0.3-1.8l-1.6,0.2L724.5,198.3z M722.7,196.4l0.9,0.6l1-0.7v-1.4l-1,0.2L722.7,196.4L722.7,196.4z M739.5,190.8
		l-0.6,0.9l0.3,1.3l1.2,0.5l0.6-0.8l-0.3-1.2L739.5,190.8L739.5,190.8z M730.7,214.2l0.2,1.5l1,0.3l0.7-1l-0.3-1.5L730.7,214.2
		L730.7,214.2z"/>
	<path class="st7" d="M736.6,188.8l-0.1,1.6l3.3-2.8l4-3.5l-3.7,2L736.6,188.8L736.6,188.8z M742.7,205.5l-6,4.6l-0.2,2.1l1.1-1.2
		l3.9-3.4l3.9-3.5l3.8-3.4l-2.2,1.6L742.7,205.5L742.7,205.5z"/>
	<path class="st8" d="M730.6,194.6l-3.6-2.1l1.9,1.7l4.3,3.1l3.2,2.2l0.1-2.1l-1.8-0.5L730.6,194.6L730.6,194.6z M737.2,200l-0.4-12
		l-0.4-7.7l-0.3,9.3l-0.4,17l-0.6,18.6l-0.3,14.6l-0.3,5.2l-0.2,2.8l3.9-0.1l-1.1-26.3L737.2,200L737.2,200z"/>
	<path class="st7" d="M737.2,200l-0.4-12l-0.2-3.2c-0.1,1.5-0.1,2.8-0.1,3.7c0,0.6,0,1,0,1c0,0.2,0.1,6.4,0.1,6.4l-0.1,11.4
		l-0.3,13.6l0.2,16.3c0,0-0.1,7.3-0.2,10.5l2-0.1l-1.1-26.3L737.2,200z"/>
	<path class="st12" d="M769.4,247.5l-5-10l2.7-0.8l-1-2l-3.9-10.1l1.9-1l-1.4-2.7l-4.6-9.4l-1.1-2.3l2.4-0.5l-1.2-3.1l-4.6-10.4
		l-2.1-2l-1.8,5.6l-2.7,6.4l-1,2.9l2,0.8l-3.4,5.6l-2.9,4.6l3.4,0.9l-5,12.6l-1.4,3l1.9,0.6l2.6,0.5l-5.1,10.3l-2.6,4.7l-0.8,2
		l37.2,1.2l-0.4-2.1L769.4,247.5L769.4,247.5z"/>
	<path class="st14" d="M769.4,247.5l-5-10l2.7-0.8l-1-2l-3.9-10.1l1.9-1l-1.4-2.7l-4.6-9.4l-1.1-2.3l2.4-0.5l-1.2-3.1l-4.6-10.4
		l-1.1-1l1.2,5l0.5,4.7l0.4,4.1l-3.4,0.8l2.2,0.8l1.7,5.1l1.1,7.1v2.1l-2.6,0.9l-4.3-0.6l1.1,1.1l4,1l2.4,3.8l0.9,4.6l0.2,2.8
		l-4.2,0.3l-3.3-0.5l-3.5-0.1l2.2,1.5l3.5,0.7l3.1,0.6l1.2,8c0,0,0,3.6,0,6.7l15.2,0.5l-0.4-2.1L769.4,247.5z"/>
	<path class="st5" d="M691.3,249.5l-6.7,0.3l-3.2,1.1l0.3,2.1l13,1.8l5.3-0.8l-0.2-3.2L691.3,249.5L691.3,249.5z"/>
	<path class="st24" d="M699,236.4l-0.8-1.4H698l-0.1,0.2l-0.7,2l0.2,1.2l0.6,2l-0.1,0.4l0.1,0.5l0.9,0.5l-0.2-1.5l0.3-2.5L699,236.4
		L699,236.4z"/>
	<path class="st25" d="M697.2,251l-1.1-0.3l-1.4,0.4l0.1,0.7l1.1,0.4l1.3,0.1h0.9v-0.4l0.2-0.2l-0.1-0.2L697.2,251L697.2,251z"/>
	<path class="st26" d="M699.3,242.1l-0.7-0.9l-1.4-1l-1.2-1.5l-1.8-1.2l-1.4-0.6l-0.3-0.2l-0.5,0.7l0.4,1l1.4,1l2,1.9l0.2,0.3
		l-0.2,0.6l-0.7,0.8l-0.7-0.1h-0.8l-3.8-0.8l-2.6,0.6l-2.8,0.9L683,247l-0.3,3.2l1.3,1.2l0.5,0.3l-0.1,0.6l1.2,0.1l1.1,0.2l2.4,0.5
		h0.7l0.1-0.3h0.2v-0.6l1-0.3l1-0.4l0,0.2l1.1,0.4l0.5,0.4l1.2,0.2l1.3,0.3l0.5-0.3l-0.1-0.4l-0.5-0.5l-1.1-0.2l1.4-0.7l0.8-1
		l0.9-1.2l0.2-1.1l0.4-0.3l0-0.4h1.1l0.7-0.7l0.2-0.8l-0.5-1L699.3,242.1L699.3,242.1z"/>
	<path class="st27" d="M700.5,245.4l-0.1,0.2l-0.2,0.3l0.1,0.2h0.3l0.2-0.7v0L700.5,245.4L700.5,245.4z"/>
	<path class="st24" d="M699.5,246.5l-0.2,0.1h-0.3l-0.3-0.2l-0.2-0.4l0-0.3h-0.2l0.1,0.6l0.4,0.4l0.2,0.1h0.8l-0.1-0.2l0.5-0.2
		l0.2-0.3l-0.3,0.2L699.5,246.5L699.5,246.5z M698.5,246.9l-0.4,0.3l-0.6,0.4l-0.7,1.3l-1.8,1.7l-0.5,0.3l-0.5-0.3l-0.2,0v0.1
		l0.3,0.3l0.3,0.2l0.7,0.3l1.4-0.7l0.8-1l0.9-1.2l0.2-1.1l0.4-0.3l0-0.4h0.1c-0.1-0.1-0.1-0.2-0.1-0.2L698.5,246.9z M690.7,250.2
		l-1.6-0.1l-0.8-0.4l-0.5-0.9l-0.2-0.4l0.2,0.8v0.9l-0.9,0.7l-0.7,0.2l0.2,0.2l0.9,0.1l1,0.1l1,0.1l0.6,0.4l0.1,0.3l1-0.3l0.9-0.4
		l0.1-0.3l0.2-0.5v-0.5h-0.3L690.7,250.2L690.7,250.2z M688.6,252.2l-1.4-0.2h-1.6l-0.2-0.3l-0.7-0.4l0.7-0.6v-0.3l-0.6-0.1
		l-0.7-0.3l-0.8-0.1l0.3-0.9l0-1.1l0.2-1.3l0.8-2.7l0.6-0.5l0.6-0.3l0.1-0.2l-1.5,0.5L683,247l-0.3,3.2l1.3,1.2l0.5,0.3l-0.1,0.6
		l1.2,0.1l1.1,0.2l2.4,0.5h0.3l0-0.5L688.6,252.2L688.6,252.2z"/>
	<path class="st25" d="M689.4,252.2l0.3,0.5l0,0.3h0.1l0.1-0.3h0.2l-0.3-0.4L689.4,252.2z"/>
	<path class="st24" d="M695.2,252.3l-0.2-0.2l0.2-0.3l0.7-0.1l-0.3-0.1H695l-0.5,0.1l-0.3,0.2l-0.5-0.3l-0.7-0.2l-0.7-0.3l-0.3-0.3
		v0.4l-0.1,0.1l0.1,0l0,0.2l1.1,0.4l0.5,0.4l1.2,0.2l1.3,0.3l0.1,0L695.2,252.3L695.2,252.3z"/>
	<path class="st27" d="M695,238.7l-1.3-0.7l-1.1-0.9l-0.1,0.3l0.2,0.7l1,0.7l1,0.8l0.8,0.6l0.5,0.2l-0.5-0.9L695,238.7L695,238.7z"
		/>
	<path class="st24" d="M697.1,245.7l-0.4-0.4l-0.3-0.6l-0.4-1l0.2-0.6l0.2-1.8l-0.6-0.7l-0.6,0l0.6,0.6l0.1,0.3l0,0.1l-0.2,0.6
		l-0.7,0.8l-0.1,0l0.3,1l0.3,0.5l0.9,1.1l0.8,0.8l1,0.5v-0.2l-0.6-0.3L697.1,245.7L697.1,245.7z M696.9,239.8l-0.3,0.6l0.1,0.5
		l0.1,0.4l0.2-0.5l0.4-0.5l-0.3-0.2L696.9,239.8L696.9,239.8z"/>
	<path class="st28" d="M694.2,237.4l-1.4-0.6l-0.3-0.2l-0.3,0.3l0.4,0l0.9,0.4l0.8,0.4l1.6,1l0.5,0.3l-0.4-0.5L694.2,237.4
		L694.2,237.4z M696.1,251.7l-0.2,0l0,0.4l0.4,0.2c0,0,0.2,0.3,0.3,0.4l0.1-0.1l-0.1-0.4L696.1,251.7z M689.7,242l-2.6,0.6l-0.7,0.3
		l0.2,0.1l1.2,0l2.5-0.3l2,0.3l0.9,0.3l0.6-0.3h-0.4L689.7,242L689.7,242z M699.3,242.1l-0.7-0.9l-0.8-0.6l0.2,0.5l0,0.3l-0.2,0.6
		l0.6,0.2l0.6,0.1l0.6,0.7l0.5,1.3l0.3,0.5l0.2,0l-0.3-0.5L699.3,242.1L699.3,242.1z"/>
	<path class="st24" d="M698.9,243l-0.1-0.4l-0.3-0.3l-0.3-0.1l-0.4,0.1l0.2,0.3l0.1,0.3l0.3,0.3l0.4,0.1l0.2,0.3l0.1-0.1l-0.1-0.3
		L698.9,243L698.9,243z"/>
	<path class="st27" d="M698.5,242.6l-0.3-0.1l-0.1,0.1v0.2l0.3,0.1l0.4,0.2l-0.1-0.3L698.5,242.6L698.5,242.6z"/>
	<path class="st24" d="M698.3,242.5l-0.1,0.1v0.1l0.1,0.1l0.2,0.1l0.1,0l0-0.1l0-0.1L698.3,242.5L698.3,242.5z"/>
	<path class="st29" d="M698.3,242.6L698.3,242.6l-0.1,0.1l0.1,0l0.1,0v-0.1L698.3,242.6L698.3,242.6z"/>
	<path class="st24" d="M699.4,245.9v0.2l0.1,0.1l0.1-0.1l-0.1-0.1L699.4,245.9L699.4,245.9z M699.1,246.1v0.1l0.1,0.1l0.1-0.1l0-0.1
		L699.1,246.1L699.1,246.1z M699.2,245.7v0.1l0.1,0l0-0.1l-0.1-0.1L699.2,245.7L699.2,245.7z M699,245.8L699,245.8l0,0.2l0.1-0.1
		L699,245.8L699,245.8L699,245.8z M699.4,245.6L699.4,245.6l0,0.1h0.1L699.4,245.6L699.4,245.6L699.4,245.6L699.4,245.6z
		 M698.9,245.5L698.9,245.5l0.1,0.1h0.1l0-0.1L698.9,245.5L698.9,245.5z"/>
	<path class="st9" d="M545.5,235.4l-9.8-11.4l4.9-0.5l3.7-0.2l-3.9-6.7l-9.3-18.8l-4.2-7.2l6.3-0.7l3.5-0.5l-4-6.3l-4.9-8.1l-6-9.3
		l3.7-1.2l2.3-0.7l-4.4-5.6l-8.1-10.4l-8.6,12.3l-3,6.3l5.3,0.9l-0.7,2.6l-12.6,15.6l4,0.9h4.9l-9.8,15.4l-10.7,13.5l3.2,1.2
		l5.1-0.7l-9.8,14.2l-7.9,13l-1.9,4.4l80.9,0.9l-0.9-3.9L545.5,235.4L545.5,235.4z"/>
	<path class="st10" d="M521.1,181.7l2.1,5l1.6-0.7l-2.7-4.9L521.1,181.7z M524.5,181.1l1.3,3.3l1.3-0.2l-2.1-3.4L524.5,181.1
		L524.5,181.1z M503.7,181.6l1.7,0.8l2.4-3.9l-0.4-0.9L503.7,181.6L503.7,181.6z M507,183.9l1.4,0.5l0.7-3.5l-0.9-0.8L507,183.9
		L507,183.9z M514.8,180.7l1.5-0.1v-4.2l-0.9,0.1L514.8,180.7L514.8,180.7z M500.6,213.2l2,0.1l1.9-4.5l-0.8-1.3L500.6,213.2
		L500.6,213.2z M505.9,215.1l1.1,0.7l1.7-4.8l-0.8-0.9L505.9,215.1L505.9,215.1z M514.7,213.3l1.2,0.4l0.7-4.2l-1-0.6L514.7,213.3
		L514.7,213.3z M527.7,211.2l1.2,4.7l1.4-0.8l-1.6-4.3L527.7,211.2L527.7,211.2z M511.2,204.5l1.5,0.5l0.8-6.2l-1,0.4L511.2,204.5
		L511.2,204.5z M514.8,196.9l0.4,4.2l1.6-0.4l-1.2-4.8L514.8,196.9L514.8,196.9z M526.6,201.2l0.1,3.5l1.2-0.5l-0.2-3H526.6
		L526.6,201.2z M494.2,209.4l1.6,0.8l1-4.8l-1-0.2L494.2,209.4L494.2,209.4z M506.9,199.4l1.2,0.4l0.4-3.6h-0.8L506.9,199.4
		L506.9,199.4z M508.9,242.4l2.1,0.1l1.2-5.6l-1.9-0.8L508.9,242.4L508.9,242.4z M514.9,232.5l0.2,3.8l1.3-0.6l-0.5-3.6L514.9,232.5
		L514.9,232.5z M504.8,230.8l1.4,0.8l1.3-6l-0.8-0.1L504.8,230.8L504.8,230.8z M527.8,235.4l2.2,4.7l1.2-0.8l-2.7-4.8L527.8,235.4
		L527.8,235.4z M489.8,237.4l2.1,0.9l1.5-5.7l-1.2,0.1L489.8,237.4L489.8,237.4z M527.5,224.7l0.7,3.5l1.4-1.2l-0.9-3.4L527.5,224.7
		L527.5,224.7z M513.4,164.6l1.5,0.2l0.7-3.4l-0.8-0.5L513.4,164.6L513.4,164.6z"/>
	<path class="st11" d="M545.5,235.4l-9.8-11.4l4.9-0.5l3.7-0.2l-3.9-6.7l-9.3-18.8l-4.2-7.2l6.3-0.7l3.5-0.5l-4-6.3l-4.9-8.1l-6-9.3
		l3.7-1.2l2.3-0.7l-4.4-5.6l-5.5-7.1l3.3,7.1l-2.6,5.5l-4.9,3.4l5.3,3.8l5.8,13.8l0.8,4.1l-11.3,0.8l-4.3-0.5l2.6,2.1l8.1,1.4
		l4.4,24l0.1,6.5l-11,0.9l-16.3-2.7l8.9,3.5l10.2,1.8l2.9,14.1l1.2,7.1l32.5,0.4l-0.9-3.9L545.5,235.4L545.5,235.4z"/>
	<path class="st6" d="M561.8,188l-7-1.2l6.7-5.5l0.5-5.1l-2.4-4.6l-3.6-1.3l-6.9,2l1.6-4.1l-0.9-5.3l-4.6-3.3l-5.5,1.1l-4.4,3.6
		l-1.6,6l0.1,5.5l1.5,3.4l-7.6,1.5l-5,6.7l-0.7,8.8l3.5,4.2l7.6,2.8l-6.2,8.1l-0.4,7l3.1,7.4l4.9,2.9l5.9,0.9l8.3-3.9l6,4.8l4.2-1.3
		l3.7-4.6l-0.6-7.5l-6.4-6.4l10.3-5.1l2.3-6.6l-1.6-6.5L561.8,188L561.8,188z"/>
	<path class="st5" d="M561.8,188l-7-1.2l6.7-5.5l0.5-5.1l-2.4-4.6l-3.6-1.3l-6.9,2l1.6-4.1l-0.9-5.3l-4.6-3.3L543,160l3.1,1.7
		l2.2,3.8l-0.2,3.9l-1.3,3.6l-1.4,2.1l9.5,1.1l1.1,2.9l-0.4,2.4l-1.8,2.8l-2.6,1.2l4.2,2.5l5.3,3.7l0.3,4l-0.7,5.9l-1.3,3.7
		l-3.2,2.2l-3,1.1l-2.1,0.3l4,6.1l2.2,4.7l-0.7,3.2c-0.5,0.6-1.1,1.1-1.7,1.5c-1.2-0.5-2.4-1.2-3.6-1.8c-0.7-1-1.4-2-2-3.1l-3.2,1.7
		l-4.2,3.1c-1.1,0.5-2.3,0.9-3.5,1.2c-1.3-0.3-2.6-0.7-3.8-1.3c-0.3-0.4-3-2.8-3.4-3.3c-0.8-1.3-1.4-2.6-1.9-4
		c-0.2-0.6-0.8-4.5-0.8-4.5l0.6-3.3l-1.6,2.1l-0.4,7l3.1,7.4l4.9,2.9l5.9,0.9l8.3-3.9l6,4.8l4.2-1.3l3.7-4.6l-0.6-7.5l-6.4-6.4
		l10.3-5.1l2.3-6.6l-1.6-6.5L561.8,188z M549.1,188.3l0.4,1.7l1.3,0.6l1.8-1l0.3-1.8l-2.2-1L549.1,188.3z M549.3,182.2l0.9,1.4
		l1.1,0.2l0.7-1.5l-1.5-1L549.3,182.2L549.3,182.2z M537.6,168.1l1,1.8l1.4-0.1l1.2-2.4l-1.9-1.3L537.6,168.1L537.6,168.1z
		 M531.5,211.8c0,0,1.1,3,1.4,3c0.3,0,2,0,2.1-0.4c0.1-0.4,0.9-3.4,0.9-3.4l-2.2-1.1L531.5,211.8z M529.4,192.2c0,0,0.5,1.2,0.9,1.1
		c0.4-0.2,1.1-0.3,1.1-0.5c0.1-0.3,0.4-2.1,0.4-2.1l-1.9,0.3L529.4,192.2z M527.2,189.9l1.1,0.7l1.2-0.8v-1.7l-1.2,0.2L527.2,189.9
		L527.2,189.9z M547.3,183.3l-0.7,1l0.4,1.6l1.5,0.5l0.7-1l-0.3-1.4L547.3,183.3L547.3,183.3z M536.7,211.2l0.3,1.7l1.1,0.4l0.8-1.1
		l-0.4-1.8L536.7,211.2L536.7,211.2z"/>
	<path class="st7" d="M543.7,180.9l-0.1,1.9l4-3.3l4.9-4.1l-4.4,2.3L543.7,180.9L543.7,180.9z M551.1,200.8l-7.2,5.5l-0.2,2.6
		l1.3-1.4l4.6-4l4.7-4.2l4.6-4l-2.6,1.9L551.1,200.8L551.1,200.8z"/>
	<path class="st8" d="M536.6,187.8l-4.3-2.5l2.3,2l5.1,3.7l3.8,2.6l0.1-2.5l-2.1-0.7L536.6,187.8L536.6,187.8z M544.5,194.3
		l-0.5-14.4l-0.5-9.2l-0.4,11.1l-0.5,20.3l-0.7,22.2l-0.4,17.4l-0.4,6.2l-0.2,3.4l4.7-0.1l-1.3-31.4V194.3L544.5,194.3z"/>
	<path class="st7" d="M544.5,194.3l-0.5-14.4l-0.2-3.9c-0.1,1.7-0.1,3.4-0.2,4.5c0,0.7,0,1.1,0,1.2c0,0.3,0.1,7.6,0.1,7.6l-0.1,13.7
		l-0.3,16.2l0.3,19.5c0,0-0.1,8.7-0.2,12.5l2.4-0.1l-1.3-31.4V194.3z"/>
</g>
</svg>
