<?xml version="1.0" encoding="utf-8"?>
<!-- Generator: Adobe Illustrator 23.0.0, SVG Export Plug-In . SVG Version: 6.00 Build 0)  -->
<svg version="1.1" id="Capa_1" xmlns="http://www.w3.org/2000/svg" xmlns:xlink="http://www.w3.org/1999/xlink" x="0px" y="0px"
	 viewBox="0 0 801 293.1" style="enable-background:new 0 0 801 293.1;" xml:space="preserve">
<style type="text/css">
	.st0{fill:#F7C316;}
	.st1{fill:#10A0CA;}
	.st2{fill:#FFFFFF;}
</style>
<title>Mesa de trabajo 2</title>
<g>
	<path class="st0" d="M507.5,153.8c-0.8,0.2-1.9,13.9-2.4,16.2c-1.3,6-3,11.9-5.3,17.6c-4.4,11.4-10.8,22-19.2,30.9
		c-9,9.7-20.3,17.1-32.7,21.6c-6.4,2.3-13,3.9-19.7,4.9c-4,0.6-12.8,2.9-16.4,1c2.2-2.2,5-5.6,7.8-6.8c3.6-1.5,9-1,12.9-2
		c8.7-2.3,17-6.1,24.6-10.8c15.6-9.8,28.2-24.1,35.4-41.1c14.3-33.7,8.9-74-17.2-100.3c-24.7-24.9-63.8-36.9-97.4-24.8
		c-33.7,12.2-59.9,43.7-62.2,79.9c-2.3,36,16.1,73.5,48.8,90.2c7.7,3.9,15.4,6.2,24.1,6.1c4.2-0.1,8.4-0.4,12.3-1.9
		c3.4-1.3,9.2-6,13-4.5c7.4,2.9-6.8,10.9-9.8,12.2c-9,4.1-17.5,3.9-26.9,1.2c-34.7-9.9-61.2-42.4-68-77.2
		c-6.6-34.2,4.9-68.9,30.7-92.5c30.7-28.1,74.6-33.1,111.8-15.2c18,8.6,33.5,22.2,43.5,39.5C505.5,115.5,507.5,134.1,507.5,153.8
		C507.4,153.8,507.5,149.2,507.5,153.8z"/>
	<path class="st1" d="M401.3,206.6c-0.4,0.3-0.3,0.7-0.4,1.2c-0.6-0.3-0.8-0.9-1.1-1.4c0.2-0.4,0.6,0.3,0.7-0.1
		c0.1-0.4,0.5-0.3,0.6-0.5c0.2-0.3,0.1-0.7,0-1c-0.2-0.6-0.2-0.6,0.4-0.9c-0.3-0.1-0.7-0.3-0.9-0.6c0.3-0.3,0.3-0.8,0.6-1.2
		c0.3,0.5,0.5,1,0.5,1.5c0,0.2,0,0.3,0.2,0.4c0.1,0,0.3-0.1,0.3-0.2c0-0.6,0.5-0.6,0.9-0.7c-0.2-0.5-0.7-0.7-0.6-1.2
		c0-0.6,0.2-0.7,0.7-0.5c0.3,0.1,0.5,0.2,0.8,0.4c0.2,0.1,0.4,0.2,0.5,0c0.3-0.3-0.2-0.2-0.2-0.4c0-0.2-0.1-0.4-0.2-0.6
		c-0.1-0.4-0.3-0.7-0.8-0.3c-0.3,0.2-0.6-0.1-0.8-0.2c-0.4-0.1-0.2-0.4-0.1-0.7c0.1-0.3-0.1-0.3-0.3-0.4c-0.2,0-0.4-0.1-0.4-0.3
		c0-0.3,0.1-0.4,0.4-0.5c0.4-0.1,0.4-0.3,0.1-0.5c-0.1-0.1-1.3-0.8-1.4-0.8c-0.3-0.2-0.7-0.3-0.9-0.7c-0.1-0.2-0.2-0.4-0.4-0.3
		c-0.2,0.2-0.6,0.3-0.5,0.7c0,0.1,0.1,0.2,0.1,0.3c0,0.2,0,0.3-0.2,0.4c-0.2,0-0.3,0.1-0.5-0.1c-0.4-0.4-0.3-1.2,0.1-1.6
		c0.7-0.5,1.1-1.2,1.9-1.5c0,0,0-0.1,0.1-0.2c0,0-0.1-0.1-0.1-0.1c-0.3,0.2-0.6,0.2-0.8-0.2c-0.1-0.3,0.2-0.4,0.7-0.5
		c0.5,0,0.9,0.4,1.4,0c0.2-0.1,0.4,0.2,0.5,0.4c0.1,0.3-0.1,0.5-0.2,0.7c0.1,0.1,0.2,0.1,0.2,0.1c0.3,0,0.5-0.4,0.8-0.1
		c0.2,0.3,0.1,0.5,0,0.8c0,0.1,0,0.3-0.1,0.4c-0.1,0.1-0.2,0.3-0.1,0.4c0.1,0,0.1-0.2,0.2-0.3c0.3-0.4,0.6-0.8,0.9-1.1
		c0.1-0.1,0-0.4-0.1-0.4c-0.8,0.3-0.5-0.4-0.5-0.5c0.5-0.6,0.3-1.3,0.3-1.9c0-0.6-0.1-1.2,0.2-1.7c0.1-0.1,0-0.3-0.1-0.3
		c-0.4-0.5-0.2-0.9,0.2-1.3c0.3-0.3,0.5-0.6,0.2-1.1c-0.1-0.1-0.1-0.4,0-0.6c0.2-0.8,0.3-1.5-0.2-2.2c0.2-0.5-0.1-1.2,0.7-1.5
		c0.3-0.1,0.2-0.4,0-0.6c-0.2-0.2-0.6-0.1-0.7-0.4c0.6-0.2,0.8-0.5,0.7-1.2c-0.1-0.7-0.1-0.7,0.6-0.5c0.1,0,0.1,0,0.2-0.1
		c0.1-0.5-0.4-0.6-0.7-0.9c-0.2-0.3-0.4-0.5-0.1-0.8c0.2-0.3-0.2-0.8-0.6-0.8c-0.1,0-0.2,0.1-0.2,0.2c-0.1,0.3,0.1,0.5,0.1,0.8
		c0,0.2-0.1,0.3-0.3,0.3c-0.3,0,0-0.2-0.1-0.3c0-0.1-0.1-0.2-0.2-0.2c-0.7,0-1.1,0.3-0.9,0.9c0.2,0.5,0.4,1,0.1,1.6
		c-0.1,0.2,0.1,0.3,0.2,0.4c0.2,0.1,0.3,0.3,0.5,0.4c-0.3,0.2-0.6,0-1-0.1c0.3,0.6-0.1,1.2,0.4,1.6c0.1,0.1,0.1,0.3,0,0.3
		c-0.6,0.1-0.5,0.5-0.5,0.9c0,0.1-0.1,0.1-0.2,0.2c-0.4,0.2-1.3-0.1-1.5-0.5c-0.1-0.2-0.3-0.4-0.1-0.7c0.5-0.8,0.6-1.6,0.3-2.5
		c-0.2-0.6,0.1-1.2,0.3-1.8c0-0.2,0-0.3,0.2-0.5c0.3,0,0.6,0,1,0c-0.3-0.5-0.8-0.8-0.9-1.3c-0.1-0.5-0.3-0.9-0.5-1.4
		c-0.1-0.3-0.2-0.6-0.1-0.9c0.3-0.9,0.3-1.8,0.3-2.7c0-0.2-0.1-0.4,0.2-0.6c0.9-0.7,0.9-1.6,0.7-2.6c-0.1-0.3-0.2-0.7-0.4-1
		c-0.6-0.9-0.8-1.8-0.8-2.9c0-0.3,0.1-0.7-0.2-0.9c-0.5-0.6-0.4-1.3-0.6-2c-0.1-0.6,0-0.7,0.6-0.8c0.3,0,0.5-0.1,0.5-0.5
		c0-0.3,0-0.7,0.1-1c0.1-0.4,0.1-0.8,0.5-1.1c0.4-0.3,0.5-0.8,0.5-1.3c0-0.4-0.1-0.9,0.3-1.3c0.1-0.2,0.2-0.4,0.1-0.6
		c-0.4-0.9,0.3-1.5,0.7-2.1c0.4-0.7,0.6-1.5,0.7-2.2c0-0.2,0-0.4,0-0.6c0.1-0.7,0-1.3,0.5-2c0.4-0.6,0.8-1.4,0.3-2.3
		c-0.1-0.3-0.1-0.6,0.1-0.9c0.6-0.9,0.5-1.9,0.2-2.9c-0.4-1.7-0.8-3.3-1.2-5c-0.2-0.8,0-1.5,0.5-2.1c0.5-0.6,0.6-1.1,0.6-1.8
		c0-0.6,0-1.2-0.5-1.8c-0.6-0.6-0.6-1,0-1.7c0.6-0.8,0.9-1.7,0.6-2.7c-0.1-0.5,0.2-1.1,0.5-1.5c0.2-0.4,0.3-0.6,0.1-1
		c-0.2-0.5-0.1-0.9,0.1-1.4c0.5-1.2,0.9-2.5,0.3-3.8c-0.2-0.5-0.1-1.1,0.3-1.4c0.5-0.5,0.5-0.9,0.3-1.5c-0.1-0.3-0.2-0.6-0.3-0.8
		c-0.1-0.6-0.2-1.2-0.1-1.9c0.1-0.7,0-1.6,0-2.3c0-0.1,0-0.3-0.1-0.4c-0.7-0.4-0.4-1-0.4-1.6c0-0.3,0.1-0.4,0.4-0.4
		c0.4,0,0.4-0.3,0.4-0.5c0.1-1.1,0.1-2.1,0.2-3.2c0-0.1,0-0.3,0-0.4c0.4-1,0.3-1.9-0.1-2.9c0.3-1.1-0.5-2.2-0.1-3.3
		c0.2-0.7-0.1-1.3-0.3-2c-0.3-1-0.7-2-0.8-3c0-0.3,0-0.6-0.1-1c0-0.4,0.1-0.6,0.5-0.7c0.2-0.1,0.5-0.2,0.7-0.3
		c0.5-0.3,0.9-0.8,0.8-1.5c0-0.2-0.1-0.5,0.1-0.7c0.5-0.6,1.1-0.7,1.5,0c0.3,0.4,0.5,0.8,0.9,1.1c0.2,0.1,0.2,0.3,0.2,0.4
		c0,1.1,0.7,2,0.8,3.1c0,0.1,0,0.2,0.1,0.2c0.9,0.1,1.1,1.1,1.8,1.3c0,0.3-0.2,0.4-0.3,0.6c-0.3,0.3-0.4,0.7-0.2,1.1
		c0.2,0.4,0.1,0.6-0.2,0.8c-0.1,0.1-0.3,0.2-0.2,0.3c0.3,0.5-0.1,1.2,0.6,1.5c0.2,0.1,0.2,0.3,0.2,0.4c-0.1,0.5,0.1,0.8,0.4,1.1
		c0.3,0.2,0.4,0.6,0.6,1c0.4,1.3,0.9,2.5,1.4,3.8c0.2,0.4,0.3,0.9,0.2,1.4c-0.1,0.3,0,0.5,0.4,0.6c0.3,0,0.6,0.1,0.9,0
		c1.2-0.3,1.5,0.4,1.3,1.3c-0.2,0.8-0.4,1.6-0.6,2.5c-0.1,0.4-0.3,0.6-0.7,0.8c-0.7,0.3-1.3,0.7-2,1c-0.4,0.2-0.7,0.4-0.9,0.7
		c-0.5,0.5-0.5,0.7-0.1,1.3c0.3,0.4,0.3,0.8,0,1.2c-0.2,0.3-0.2,0.6-0.1,0.9c0.1,0.5,0.3,0.9,0.4,1.4c0.1,0.4,0.2,0.9-0.2,1.3
		c-0.4,0.4,0,0.7,0.2,1c0.2,0.3,0.5,0.6,0.6,1c0.1,0.3,0.1,0.6-0.3,0.7c0,0-0.1,0-0.1,0c-1.1,0-1.4,0.8-1.7,1.7c0,0.1,0,0.1,0,0.2
		c-0.3,1.2-0.6,2.3-1.6,3.1c-0.4,0.4-0.6,1-0.5,1.6c0.1,0.5,0,0.9-0.4,1.3c-0.4,0.3-0.5,0.8-0.2,1.2c0.5,0.8,0.4,1.7,0.4,2.6
		c0,0.4-0.2,0.7-0.5,0.8c-0.8,0.3-0.9,0.9-0.9,1.7c0,0.4,0,0.7-0.4,1c-0.4,0.4-0.3,1.7,0.1,2.1c0.4,0.4,0.8,0.7,0.7,1.3
		c-0.1,0.2,0.1,0.4,0.3,0.6c0.4,0.5,0.6,1,0.7,1.6c0.1,0.3,0.2,0.5,0,0.8c-0.2,0.5,0,0.8,0.5,1c0.4,0.1,0.5,0.4,0.4,0.8
		c-0.1,0.6-0.4,1.2,0,1.9c0.2,0.5,0.3,1.1-0.4,1.5c-0.3,0.2-0.5,0.6-0.5,1c0,0.4,0,0.8-0.2,1c-0.7,1-0.3,2-0.1,3
		c0.2,0.6,0,1.1-0.4,1.7c-0.4,0.7-1.2,1.2-1.5,2c-0.1,0.2-0.2,0.3-0.2,0.5c0.3,1.5,0,3,0.5,4.5c0.3,0.7,0.2,1.6,0.6,2.3
		c0.2,0.4,0,0.6-0.4,0.7c-0.8,0.2-1.1,0.8-0.9,1.6c0,0.3-0.1,0.5-0.1,0.8c-0.1,0.6-0.4,1.2-0.3,1.9c0,0.2,0,0.4-0.2,0.6
		c-0.1,0.1-0.2,0.3-0.1,0.4c0.4,0.3,0.2,0.7,0.1,1.1c-0.2,0.6-0.2,1.1,0,1.7c0.2,0.5,0.3,0.9,0.2,1.4c-0.1,0.6,0.1,1.2,0.3,1.8
		c0.1,0.2,0.1,0.4,0.1,0.7c0,0.4,0,0.6-0.5,0.7c-0.5,0-0.6,0.3-0.4,0.7c0.2,0.3,0.1,0.6,0.1,0.9c-0.1,0.7,0.2,1.2,0.7,1.6
		c0.4,0.3,0.7,0.5,0.2,1c-0.2,0.2-0.2,0.5,0,0.7c0.2,0.2,0.3,0.3,0.5,0.5c0.2,0.2,0.3,0.4,0.2,0.7c-0.1,0.3-0.1,0.7-0.1,1.1
		c0,0.7,0,0.7,0.7,0.9c0.2,0,0.4,0.1,0.5,0.2c0.2,0.1,0.4,0.3,0.3,0.5c-0.2,0.3,0,0.8-0.6,0.8c-0.4,0-0.8,0-1.2,0.1
		c0.3,0.4,0.7,0.6,1,0.8c0.4,0.4,0.5,0.5,0.1,0.9c-0.1,0.2-0.2,0.4-0.4,0.6c-0.2,0.3-0.4,0.5-0.2,0.9c0,0.1,0,0.2,0,0.3
		c-0.1,0.8-0.3,1.7,0.2,2.5c0.1,0.2,0,0.4-0.1,0.7c-0.2,0.5-0.4,1.1-0.1,1.7c0.2,0.4-0.2,0.5-0.4,0.7c-0.6,0.6-1,1.3-0.9,2.3
		c0,0.4,0.2,0.8,0.4,1.2c0.2,0.4,0.2,0.6-0.1,0.8c-0.3,0.2-0.5,0.5-0.5,0.9c0.1,0.7-0.2,1.3-0.6,1.8c-0.2,0.3-0.4,0.6-0.4,1
		c0,0.3-0.1,0.4-0.2,0.6c-0.6,1.1-0.5,2.5,0.2,3.5c0.2,0.3,0.4,0.4,0.7,0.2c0.4-0.2,0.8-0.4,1.2-0.1c0.4,0.4,0.4,0.9,0.3,1.4
		c-0.1,0.7-0.1,1.5,0.1,2.2c0.3,0.8,1,1.3,2,1.4c0.7,0,1.5,0,2.2,0c0.3,0,0.6,0,1,0.1c0.7,0.2,1.4,0.6,2.1,0.5c0,0.1,0,0.1,0,0.2
		c-0.1,0.3-0.8,0.2-0.6,0.8c0.1,0.3,0.3,0.6,0.6,0.8c0.3,0.3,0.5,0.2,0.8,0c0.2-0.1,0.4,0.1,0.4,0.3c0.1,0.2,0.1,0.4,0.1,0.7
		c0,1.4,0,2.9,0,4.3c0,0.5,0,1.1,0.1,1.6c0.1,0.5,0,1.1-0.3,1.6c0.2,0.2,0.6,0,0.5,0.5c-0.1,0.3,0.3,0.8,0.5,1.2
		c0.3,0.4,0.4,0.8,0.3,1.3c-0.6-0.2-0.9-0.8-1.6-0.9c-0.2-0.1-0.3-0.5-0.5-0.8c-0.1-0.1-0.3-0.2-0.4-0.1c-0.2,0.1-0.1,0.3,0,0.4
		c0.1,0.3,0.4,0.5,0.1,0.9c-0.7-0.4-1.1-1-1.6-1.6c0,0,0-0.1,0-0.1c0-0.3,0.3-0.2,0.4-0.3c0.2-0.2-0.3-0.2-0.2-0.5
		c0-0.2,0.2-0.3,0.4-0.5c-0.4,0-0.7,0-0.9,0c-0.5,0-0.9-0.1-1.2-0.5c-0.3-0.3-0.5-0.7-0.9-0.1c-0.6,0-1.3,0.1-1.9,0
		c0.5-0.8,0.8-0.9,1.6-0.8c0.3,0.1,0.6,0.2,0.6-0.3l0,0c0.2,0.1,0.5,0,0.7,0.1c0.1,0.1,0.3,0.1,0.4,0c0.8-0.7,1.7-0.3,2.5,0
		c0.1,0,0.1,0,0.2,0c0,0.2-0.1,0.4,0.1,0.5c0.3-0.2,0.5-0.4-0.1-0.6c0-0.4-0.4-0.4-0.7-0.6c-0.4-0.2-0.8-0.5-1.1-0.9
		c-0.3-0.5-0.2-0.9,0.3-1.2c0.3-0.2,0.6-0.3,1-0.4c0.2-0.1,0.2-0.2,0.2-0.4c0-0.2-0.2-0.2-0.3-0.2c-0.4,0-0.8,0-1.2,0
		c-0.4,0-0.6-0.1-0.7-0.5c-0.1-0.4-0.2-0.7,0.2-0.9c0.4-0.2,0.1-0.3,0.1-0.5c-0.1-0.3,0-0.4,0.3-0.4c0.9,0.1,0.9,0.1,1.2-0.7
		c-0.4-0.2-0.7,0-1,0.1c-0.4,0.2-0.8,0.5-1.3,0.7c-0.3,0.2-0.4,0.4-0.4,0.7c0,0.7-0.3,1.3-0.2,1.9c0,0.2,0,0.4,0,0.6
		c-0.2,0.7-0.4,0.8-1,0.6c-0.2-0.1-0.4-0.1-0.5-0.2c-0.9-0.4-1.2-0.2-1.4,0.8c-0.1,0.4-0.8,0.7-1.1,0.5c-0.3-0.2,0-0.5,0-0.7
		c-0.2-0.1-0.3,0-0.4,0.1c-0.3,0.3-0.6,0.2-0.6-0.1c-0.1-0.7-0.6-0.9-1-1.2c0.6-0.7,1.2-0.7,2.5,0.1c-0.1-0.6-0.6-0.9-1.1-1.1
		c0,0-0.1,0-0.2,0c-0.7,0.7-0.9-0.1-1.3-0.5l0,0c0.6-0.1,1.3,0.1,2-0.1c-0.1-0.3,0-0.8-0.6-0.3c-0.4,0.3-0.6-0.3-0.8-0.5
		c-0.3-0.2,0.1-0.4,0.2-0.5c0-0.1,0-0.1,0.1-0.2c-0.2-0.2-0.5,0.2-0.7,0c-0.2-0.2-0.2-0.5,0-0.7c0.2-0.4-0.1-0.7,0-1
		c0.2-0.3,0.6,0,0.8-0.3c0.3-0.1,0.8,0.3,0.9-0.4c0,0,0.1,0,0.2-0.1c0.6-0.3,0.7-0.3,0.6-1.1c-0.3-0.1-0.3,0.4-0.7,0.3
		c-0.6-0.2-0.6-0.1-0.8,0.5c0,0.2-0.1,0.4-0.2,0.6c-0.4,0-0.8,0-0.7-0.5c0-0.7-0.1-1.3-0.4-1.9c-0.2-0.4-0.2-0.8-0.3-1.2
		c-0.3,0-0.4,0.4-0.7,0.2c-0.4-0.3-0.3-0.7-0.2-1c0.1-0.7,0.1-0.7-0.5-0.8c-0.3,0-0.5-0.1-0.6-0.5c0.3-0.3,1,0.1,1.1-0.6
		c-0.5,0-1,0-1.2-0.6c-0.1-0.4,0.2-0.6,1.1-0.9c-0.1-0.2-0.6,0-0.5-0.4c0-0.3-0.2-0.6,0.1-0.9c0.4-0.4,0.5-0.9,0.3-1.5
		c-0.3,0.2-0.2,0.5-0.3,0.7c-0.1,0.1-0.1,0.4-0.2,0.4c-0.8-0.2-0.4,0.4-0.5,0.7c0,0.2,0,0.5,0,0.7c0,0.6-0.1,0.6-0.9,0.7
		C401.8,207.8,401.2,207.2,401.3,206.6c0.1,0,0.1,0,0.1-0.1c0,0-0.1-0.1-0.1-0.1C401.4,206.5,401.4,206.6,401.3,206.6z"/>
	<path class="st0" d="M452.8,91.5c-0.1,8.3-3.5,15.7-8.8,22c-2.7,3.2-5.5,6.2-8.4,9.2c-1.5,1.6-4.9,6.8-7.6,6.1
		c-4.6-1.2,0.8-6.5,2.1-8c2.6-3.3,4.9-6.9,6.7-10.7c3.5-7.7,5.1-17.5-0.2-24.7c-5.1-7-11.5-7.2-18.4-2.6c-1.4,1-3.3,3.2-4.9,3.6
		c-2.1,0.6-1.5,0.7-1.6-1.1c-0.1-2.8,5.5-7.7,7.5-9.3C432.9,64.5,452.7,73.8,452.8,91.5C452.7,98.2,452.8,90.2,452.8,91.5z"/>
	<path class="st0" d="M376.9,96.1c0,8.5,3.6,16.2,8.5,23c1.4,1.9,6.4,5.7,4.9,8.5c-2.1,3.8-5.8-1.4-7.3-2.9
		c-10.6-11.2-25.6-27-16.4-43.8c3.9-7.2,12.1-10.9,20.1-9.9c6.2,0.8,16.8,7,18.3,13.9c0.9,4.1-2.5,0.7-4.4-0.7
		c-3-2.2-6.6-4.8-10.4-4.8C382.2,79.2,376.6,89,376.9,96.1C376.8,102.2,376.8,93.5,376.9,96.1z"/>
	<path class="st0" d="M457.3,129.2c-5,0.2-9.9,1.5-14.5,3.4c-2.3,0.9-9.5,5.8-12,4.5c-4.4-2.3,12.4-12.1,14.8-13.3
		c7.8-4,16-6.9,24.8-5.3c8,1.5,14.2,6.3,16.4,14.4c2.3,8.7-1.2,15.5-7.8,21c-3,2.5-6.4,4.6-10,6c-2.5,1-7.1,2.3-3.3-1.2
		c5.5-5.1,13.8-9,10.8-18.3C473.9,132.5,464.8,129.2,457.3,129.2C454.1,129.3,458.1,129.2,457.3,129.2z"/>
	<path class="st0" d="M329.7,136.2c0-19.8,20.6-24.1,35.9-17.9c4.2,1.7,8.3,3.8,12.2,6.3c1.8,1.2,10.4,5.9,9.7,8.7
		c-0.7,3-17.7-5.3-20.8-6c-7.7-1.7-16.7-1-22.5,4.8c-7,6.9-3.6,15.7,3.3,20.9c0.9,0.7,6.6,3.7,5.8,5.1c-1,1.6-8.4-2.6-9.3-3.1
		C337.3,151.4,329.2,144.6,329.7,136.2C329.7,130.9,329.7,137.4,329.7,136.2z"/>
	<path class="st0" d="M456.2,205.8c-8.3,0.2-15.3-4.2-21-9.9c-3-3-5.6-6.4-8-9.8c-1.8-2.6-6.9-8.4-6.1-11.7c0.8-3.3,2.6-1.5,4.3,0.3
		c2.6,2.8,5,5.8,7.6,8.6c5.6,6.1,13.3,9.7,21.7,9.3c8.4-0.4,13.6-5.5,13.1-14c-0.1-2.3-0.5-4.6-1.4-6.7c-0.3-0.6-2.1-3-1.9-3.9
		c0.7-3.4,4.1,1.6,5.4,3.2c4.8,5.9,7.9,14.4,5.2,21.9C472.2,200.8,464.5,206.2,456.2,205.8C449.8,206,460.1,206,456.2,205.8z"/>
	<path class="st0" d="M360.8,189.9c8.7-0.1,15.6-3.5,21.4-9.8c2.3-2.4,5.2-7.7,8.1-9.3c4.9-2.8,2.8,3.3,1.4,5.9
		c-6.9,12.8-19.1,27.9-35.3,26.5c-18.6-1.7-21.7-22.4-11.4-35c1.7-2,6-7.1,4.6-1.5c-0.8,3.3-2.7,5.9-2.9,9.6
		C346.4,184.7,352.4,190,360.8,189.9C365,189.8,357.5,189.9,360.8,189.9z"/>
	<path class="st0" d="M367.9,160.2c0.1-0.5,0.3-1.1,0.4-1.8c0.2-0.9,0.4-1.8,0.7-2.6c0.2-0.8,0.1-1.3-0.6-1.8
		c-1.1-0.8-2.1-1.7-3.2-2.6c-0.3-0.2-0.7-0.5-0.6-0.9c0.1-0.4,0.6-0.3,1-0.4c1.4-0.2,2.8-0.2,4.2-0.3c0.8,0,1.2-0.3,1.5-1.1
		c0.4-1.2,0.9-2.4,1.4-3.6c0.2-0.5,0.2-1.2,0.8-1.2c0.5,0,0.6,0.7,0.7,1.2c0.5,1.1,1.5,3.7,1.6,3.9c0.2,0.5,0.6,0.8,1.2,0.8
		c1.5,0,3,0.1,4.5,0.2c0.1,0,0.8,0,0.9,0.4c0.1,0.3-0.2,0.5-0.3,0.7c-1.1,1-2.2,1.9-3.4,2.8c-0.9,0.7-0.9,0.9-0.6,2
		c0.4,1.3,1.1,4.2,1.1,4.2c0,0.3,0.2,0.6-0.1,0.8c-0.2,0.2-0.5,0-0.7-0.1c-1.1-0.7-2.3-1.4-3.4-2.1c-1.2-0.8-1.6-0.8-2.8,0
		c-1,0.7-3.5,2.2-3.6,2.3C368.1,161,367.9,160.8,367.9,160.2z"/>
	<path class="st0" d="M443.8,157.9c-0.4,0-4.5,2.7-4.6,2.8c-0.3,0.2-0.6,0.3-0.8,0.1c-0.3-0.2-0.2-0.5-0.1-0.8
		c0.3-1.4,1.1-4.4,1.1-4.5c0.3-0.6,0-1.1-0.5-1.4c-1-0.8-3.6-2.9-3.8-3.2c-0.4-0.4-0.3-0.7,0.3-0.8c0.5-0.1,3.8-0.4,4.9-0.4
		c0.6,0,1-0.3,1.2-0.8c0.5-1.2,1.7-4.5,2-4.9c0.2-0.3,0.4-0.3,0.6,0c0.3,0.5,1.6,3.6,2,4.7c0.2,0.7,0.7,1,1.4,1
		c1.4,0,2.8,0.1,4.2,0.2c0.1,0,0.9,0,1.1,0.3c0.2,0.3-0.1,0.6-0.4,0.8c-1.1,1-2.3,1.9-3.4,2.9c-0.6,0.4-0.8,0.9-0.5,1.6
		c0.4,1.4,0.8,2.8,1.1,4.2c0.1,0.3,0.3,0.8,0,1c-0.4,0.3-0.7,0-1-0.2C447.1,159.8,444.1,157.9,443.8,157.9z"/>
	<path class="st1" d="M418.1,225.8c0.6,0,1.2,0,1.6,0.5c0.2,0.2,0.3,0.1,0.5,0c0.2-0.1,0.3,0,0.3,0.2c0,0.2-0.1,0.3-0.3,0.2
		c-0.2-0.1-0.2-0.1-0.3,0.1c-0.3,0.7-0.4,0.6-1.2,0.5c-0.7-0.1-1.2-0.2-1.4-1c-0.2-0.5-0.2-0.6,0.4-0.6
		C417.9,225.8,418,225.8,418.1,225.8z"/>
	<path class="st1" d="M411.3,223.8c-0.6-0.1-0.9-0.7-1.5-0.6c0-0.1-0.1-0.3-0.2-0.2c-0.2,0.1-0.1,0.2,0.1,0.3c0,0.3-0.1,0.5-0.4,0.3
		c-0.3-0.2-0.5-0.5-0.7-0.8c-0.1-0.2,0.2-0.6,0.5-0.7c0.4-0.1,1.8,0.6,2,1C411.4,223.3,411.3,223.6,411.3,223.8L411.3,223.8z"/>
	<path class="st1" d="M412.4,220.9c0.3,0.4,0.4,0.9,0.3,1.3c-0.1,0.3-0.1,0.5,0.1,0.8c0.1,0.1,0.1,0.3,0,0.4
		c-0.1,0.1-0.3,0.1-0.4,0.1c-0.7-0.2-1.1-1-0.6-1.6C411.9,221.5,412,221.1,412.4,220.9z"/>
	<path class="st1" d="M400.6,187.9c0-0.2,0-0.5,0.4-0.4c0.2,0.1,0.3-0.1,0.4-0.2c0.3-0.3,0.5-0.2,0.6,0.2c0,0.2,0.2,0.3,0.4,0.4
		c0.2,0.1,0.4,0.1,0.3,0.4c-0.1,0.3,0.4,0.6,0.1,0.8c-0.4,0.2-0.4-0.3-0.6-0.4c-0.2-0.1-0.5-0.2-0.6-0.5c-0.1-0.3-0.2-0.1-0.3,0.1
		c-0.1,0.2-0.3,0.2-0.5,0.1C400.5,188.3,400.6,188.1,400.6,187.9z"/>
	<path class="st1" d="M401.9,212.7c-0.1,0-0.4,0-0.4-0.2c0-0.6-0.1-1.1-0.2-1.7c0.4,0,0.7,0.4,1,0.4c0.4,0.1,0.5,0.6,0.5,1.1
		c0,0.3-0.1,0.4-0.4,0.4l0,0c0-0.2,0-0.3-0.2-0.4C402.1,212.3,402,212.4,401.9,212.7L401.9,212.7z"/>
	<path class="st1" d="M399.6,202.8c-0.2-0.3-0.6-0.5-0.6-0.8c0-0.2,0-0.3,0.2-0.4c0.2-0.1,0.3,0,0.4,0.2c0.2,0.5,0.5,0.9,0.7,1.4
		c0.1,0.2,0.1,0.4-0.2,0.3c-0.2-0.1-0.2-0.1-0.2,0.1c0,0.4-0.1,0.4-0.4,0.2c-0.5-0.3-0.5-0.4-0.1-0.8
		C399.4,202.9,399.5,202.9,399.6,202.8z"/>
	<path class="st1" d="M402.6,218.6c0.8-0.1,1.3,0.3,1.7,0.7c0.1,0.1,0.2,0.2,0.1,0.3c-0.1,0.2-0.2,0.2-0.4,0.2
		c-0.3,0-0.5-0.1-0.7-0.3C403.1,219.3,402.9,219,402.6,218.6z"/>
	<path class="st1" d="M399.2,204.5c0.2,0,0.3,0,0.5-0.1c0.2-0.1,0.4-0.2,0.6-0.1c0.2,0.2,0.1,0.5,0,0.7c-0.1,0.3-0.3,0.5-0.6,0.8
		c-0.2-0.3-0.7-0.5-0.1-0.9C399.5,204.8,399.4,204.7,399.2,204.5z"/>
	<path class="st1" d="M401.5,209.1c-0.3,0.2-0.5,0.4-0.7,0.7c-0.3,0.3-0.5,0.1-0.7-0.1c-0.2-0.2,0-0.3,0.1-0.4c0,0,0.1-0.1,0.2-0.1
		c0.2-0.1-0.3-0.5,0.2-0.6C401,208.5,401.2,208.7,401.5,209.1z"/>
	<path class="st1" d="M402.3,191c-0.4-0.3-0.8-0.7-1.2-1c-0.1-0.1-0.2-0.2,0-0.4c0.1-0.1,0.2,0,0.3,0.1c0.3,0.2,0.6,0.3,1,0.4
		c0.3,0,0.4,0.2,0.4,0.5C402.7,190.8,402.6,190.9,402.3,191L402.3,191z"/>
	<path class="st1" d="M404.9,217.2c0,0.1,0,0.3,0,0.4c0,0.1,0,0.3-0.2,0.3c-0.2,0.1-0.2-0.1-0.3-0.2c-0.1-0.2-0.1-0.5-0.4-0.6
		c-0.2-0.1-0.2-0.3,0-0.4c0.2-0.2,0.4-0.3,0.7-0.2c0.2,0.1,0.2,0.2,0.2,0.4C404.9,216.9,404.9,217.1,404.9,217.2z"/>
	<path class="st1" d="M403.3,215.2c0.3-0.3,0.4-0.7,0.4-1.2c0.6,0.2,0.8,0.7,1,1.2c-0.3,0.2-0.4,0-0.6-0.1
		C403.8,215.1,403.7,215.5,403.3,215.2z"/>
	<path class="st1" d="M399.6,201c0.1-0.3,0.4-0.2,0.6-0.2c0.2,0,0.3-0.3,0.5,0c0.1,0.2,0.2,0.4,0,0.5c-0.2,0.2-0.4,0.3-0.6,0.2
		C399.9,201.4,399.7,201.3,399.6,201z"/>
	<path class="st1" d="M401.4,213c0.1,0.6,0.1,0.6-0.3,1.4C400.6,213.6,400.7,213.5,401.4,213z"/>
	<path class="st1" d="M402,214c0.4,0.8,0.4,1.4-0.1,2c-0.2-0.4-0.1-0.7,0-1C401.9,214.8,402,214.5,402,214z"/>
	<path class="st1" d="M400.6,211.2c-0.3,0-0.5-0.2-0.6-0.5c-0.1-0.3,0.1-0.5,0.4-0.5c0.3,0,0.3,0.2,0.3,0.4
		C400.7,210.8,400.8,211,400.6,211.2z"/>
	<path class="st1" d="M401.6,199.2c0.2,0.4,0,0.7-0.1,0.9c-0.1,0.2-0.3,0.2-0.4,0.1c-0.1-0.1-0.2-0.2-0.1-0.3
		C401.2,199.7,401.2,199.3,401.6,199.2z"/>
	<path class="st1" d="M402.5,212.7c0.1,0.5-0.2,0.8-0.6,1c-0.3-0.4,0.2-0.7,0.1-1l0,0C402.1,212.7,402.3,212.7,402.5,212.7
		L402.5,212.7z"/>
	<path class="st1" d="M401.9,200.9c0,0.2,0.3,0.4,0.1,0.7c-0.4-0.1-0.5-0.4-0.8-0.6C401.5,200.9,401.7,201,401.9,200.9L401.9,200.9z
		"/>
	<path class="st1" d="M419,229.1c-0.5-0.1-0.7-0.4-0.4-0.9C418.9,228.4,418.9,228.8,419,229.1L419,229.1z"/>
	<path class="st1" d="M401.9,201c0-0.1,0-0.2,0-0.3c0-0.2,0.1-0.3,0.3-0.3c0.1,0,0.2,0.1,0.2,0.2c0,0.2-0.1,0.3-0.3,0.3
		C402.1,200.9,402,200.9,401.9,201L401.9,201z"/>
	<path class="st1" d="M402.8,192.5c-0.1-0.1-0.1-0.1-0.1-0.1c0-0.2-0.1-0.5,0.2-0.7c0,0,0.1,0,0.1,0
		C403.2,191.9,403.2,192.2,402.8,192.5z"/>
	<path class="st1" d="M403.4,179.9c0.3,0.1,0.3,0.2,0.3,0.3c0,0.1-0.1,0.2-0.3,0.2c-0.2,0-0.2-0.1-0.2-0.2
		C403.2,180,403.3,179.9,403.4,179.9z"/>
	<path class="st1" d="M402.3,191c0,0.6-0.4,0.4-0.8,0.3C401.8,190.8,402.1,191,402.3,191L402.3,191z"/>
	<path class="st1" d="M401.5,197.3c0,0,0.1,0.1,0.1,0.1c0,0.2-0.1,0.3-0.3,0.3c-0.1,0-0.2,0-0.2-0.1
		C401.2,197.4,401.4,197.4,401.5,197.3z"/>
	<path class="st1" d="M418.9,229.1C419,229.1,419,229.1,418.9,229.1c0.2-0.1,0.3-0.3,0.5-0.1c0.2,0.2,0,0.3-0.1,0.4
		C419,229.5,419,229.2,418.9,229.1L418.9,229.1z"/>
	<path class="st1" d="M402.5,193c0.1-0.1,0.1-0.2,0.2-0.2c0.2,0,0.2,0.1,0.2,0.2c0,0.1-0.1,0.2-0.2,0.1
		C402.6,193.2,402.6,193.1,402.5,193z"/>
	<path class="st1" d="M401.7,189c0,0.2-0.2,0.2-0.3,0.2c-0.1,0-0.2-0.1-0.2-0.2c0-0.1,0.2-0.1,0.2-0.1
		C401.6,188.8,401.7,188.9,401.7,189z"/>
	<path class="st1" d="M403,213.1c0.1,0,0.3,0,0.3,0.2c0,0-0.1,0.1-0.1,0.1c-0.1,0-0.2-0.1-0.3-0.2
		C402.8,213.2,402.9,213.1,403,213.1z"/>
	<path class="st1" d="M402.1,192.2c0.1,0,0.2,0.1,0.1,0.2c-0.1,0.1-0.1,0.1-0.2,0.1c-0.1,0-0.2-0.1-0.2-0.2
		C401.9,192.2,402,192.1,402.1,192.2z"/>
	<path class="st1" d="M402.4,186.4c0.1,0.1,0.2,0.1,0.2,0.3c0,0.1-0.1,0.2-0.2,0.1c-0.1,0-0.1-0.1-0.2-0.2
		C402.3,186.5,402.3,186.4,402.4,186.4z"/>
	<path class="st1" d="M401.5,186.3c0,0.1-0.1,0.1-0.2,0.1c0,0-0.1-0.1-0.1-0.1c0-0.1,0.1-0.1,0.2-0.1
		C401.5,186.2,401.5,186.3,401.5,186.3z"/>
	<path class="st1" d="M421.1,227.4c-0.1,0.1-0.1,0.1-0.2,0.1c-0.1,0-0.1-0.1-0.1-0.2c0-0.1,0.1-0.1,0.2-0.1
		C421.1,227.3,421.1,227.3,421.1,227.4z"/>
	<path class="st1" d="M405.1,219.7c0,0-0.1-0.1-0.1-0.1C405.1,219.5,405.1,219.6,405.1,219.7L405.1,219.7z"/>
	<path class="st2" d="M405.8,216c0.1-0.2,0.2-0.4,0.2-0.6c0.1-0.6,0.2-0.7,0.8-0.5c0.4,0.1,0.4-0.5,0.7-0.3c0.1,0.8,0.1,0.8-0.6,1.1
		c-0.1,0-0.2,0-0.2,0.1C406.7,216.3,406.2,216,405.8,216C405.9,216,405.9,216,405.8,216z"/>
	<path class="st2" d="M415.1,224c0.6,0.1,0.3,0.3,0.1,0.6C415,224.4,415.1,224.2,415.1,224L415.1,224z"/>
	<path class="st2" d="M402.8,195.5c0,0.1-0.1,0.3-0.2,0.3c-0.2-0.1-0.1-0.3,0.1-0.4C402.7,195.5,402.8,195.5,402.8,195.5z"/>
	<path class="st2" d="M401.3,206.6c0,0,0-0.1,0.1-0.1c0,0,0.1,0.1,0.1,0.1C401.5,206.6,401.4,206.6,401.3,206.6L401.3,206.6z"/>
	<path class="st2" d="M409.7,223.3c-0.1-0.1-0.2-0.2-0.1-0.3c0.1-0.1,0.1,0.1,0.2,0.2C409.8,223.2,409.8,223.2,409.7,223.3z"/>
	<path class="st2" d="M402.5,212.7c-0.2,0-0.4,0-0.6,0c0-0.2,0.2-0.4,0.4-0.4C402.5,212.3,402.6,212.5,402.5,212.7z"/>
</g>
</svg>
